<svg width="119.000000" height="169.000000" viewBox="0 0 119 169" fill="none" xmlns="http://www.w3.org/2000/svg" xmlns:xlink="http://www.w3.org/1999/xlink">
	<desc>
			Created with Pixso.
	</desc>
	<defs/>
	<path id="Форма 43" d="M92 31L92 35.66C92 38.76 92 40.82 92 41.86C92 42.89 92 44.7 92 47.28C92 49.87 92 53.74 92 58.91C92 64.08 92 69.25 92 74.42C92 79.59 92 84.75 92 89.92C92 95.09 92 99.74 92 103.88C92 108.01 92 111.89 92 115.5C92 119.12 92 122.48 92 125.58C92 128.68 92 131.01 92 132.56C92 134.11 92 135.14 92 135.66M44.6 38.76L44.6 41.86C44.6 43.92 44.6 45.99 44.6 48.06C44.6 50.13 44.6 51.42 44.6 51.94C44.6 52.45 44.6 57.62 44.6 67.44C44.6 77.26 44.6 85.79 44.6 93.02C44.6 100.26 44.6 109.56 44.6 120.93M62.2 169L62.2 165.89C62.2 163.83 62.2 162.02 62.2 160.47C62.2 158.92 62.2 156.08 62.2 151.94C62.2 147.81 62.2 142.12 62.2 134.89C62.2 127.65 62.2 120.41 62.2 113.18C62.2 105.94 62.2 99.74 62.2 94.57C62.2 89.4 62.2 85.27 62.2 82.17C62.2 79.07 62.2 76.23 62.2 73.64C62.2 71.06 62.2 68.73 62.2 66.66C62.2 64.6 62.2 61.76 62.2 58.14C62.2 54.52 62.2 52.45 62.2 51.94M35.12 0L35.12 8.52C35.12 14.21 35.12 18.08 35.12 20.15C35.12 22.22 35.12 25.32 35.12 29.45C35.12 33.59 35.12 38.5 35.12 44.18C35.12 49.87 35.12 54.78 35.12 58.91C35.12 63.05 35.12 66.92 35.12 70.54C35.12 74.16 35.12 78.55 35.12 83.72" stroke="#B86239" stroke-opacity="1.000000" stroke-width="54.000000"/>
	<path id="Форма 83" d="M78.45 31L78.45 34.88C78.45 37.46 78.45 39.27 78.45 40.31C78.45 41.34 78.45 42.89 78.45 44.96C78.45 47.03 78.45 49.35 78.45 51.94C78.45 54.52 78.45 57.1 78.45 59.69C78.45 62.27 78.45 64.86 78.45 67.44C78.45 70.02 78.45 73.38 78.45 77.52C78.45 81.65 78.45 84.75 78.45 86.82C78.45 88.89 78.45 91.21 78.45 93.8C78.45 96.38 78.45 98.19 78.45 99.22C78.45 100.26 78.45 101.03 78.45 101.55M44.6 46.51L44.6 48.83C44.6 50.38 44.6 51.94 44.6 53.49C44.6 55.04 44.6 57.88 44.6 62.01C44.6 66.15 44.6 70.8 44.6 75.97C44.6 81.14 44.6 85.01 44.6 87.6C44.6 90.18 44.6 92.76 44.6 95.35C44.6 97.93 44.6 100 44.6 101.55C44.6 103.1 44.6 104.13 44.6 104.65C44.6 105.17 44.6 105.94 44.6 106.98C44.6 108.01 44.6 108.79 44.6 109.3M33.77 120.93L33.77 117.06C33.77 114.47 33.77 112.4 33.77 110.85C33.77 109.3 33.77 107.49 33.77 105.43C33.77 103.36 33.77 100.78 33.77 97.67C33.77 94.57 33.77 91.73 33.77 89.15C33.77 86.56 33.77 84.24 33.77 82.17C33.77 80.1 33.77 77.78 33.77 75.19C33.77 72.61 33.77 70.28 33.77 68.22C33.77 66.15 33.77 63.82 33.77 61.24M68.97 122.48L68.97 120.16C68.97 118.61 68.97 117.31 68.97 116.28C68.97 115.25 68.97 113.95 68.97 112.4C68.97 110.85 68.97 109.3 68.97 107.75C68.97 106.2 68.97 103.88 68.97 100.78C68.97 97.67 68.97 95.09 68.97 93.02" stroke="#C4701F" stroke-opacity="1.000000" stroke-width="54.000000"/>
	<path id="Форма 95" d="M75.75 10.85L75.75 13.17C75.75 14.72 75.75 15.76 75.75 16.27C75.75 16.79 75.75 18.08 75.75 20.15C75.75 22.22 75.75 24.03 75.75 25.58C75.75 27.13 75.75 28.68 75.75 30.23C75.75 31.78 75.75 33.85 75.75 36.43C75.75 39.02 75.75 40.82 75.75 41.86C75.75 42.89 75.75 44.18 75.75 45.73C75.75 47.28 75.75 48.83 75.75 50.39C75.75 51.94 75.75 53.23 75.75 54.26C75.75 55.29 75.75 56.33 75.75 57.36C75.75 58.4 75.75 59.69 75.75 61.24C75.75 62.79 75.75 64.08 75.75 65.11C75.75 66.15 75.75 67.44 75.75 68.99C75.75 70.54 75.75 72.87 75.75 75.97C75.75 79.07 75.75 81.14 75.75 82.17C75.75 83.2 75.75 84.24 75.75 85.27C75.75 86.3 75.75 87.85 75.75 89.92C75.75 91.99 75.75 93.28 75.75 93.8C75.75 94.31 75.75 95.09 75.75 96.12C75.75 97.16 75.75 97.93 75.75 98.45C75.75 98.97 75.75 99.48 75.75 100C75.75 100.52 75.75 101.29 75.75 102.33C75.75 103.36 75.75 104.39 75.75 105.43C75.75 106.46 75.75 107.49 75.75 108.53C75.75 109.56 75.75 110.59 75.75 111.63C75.75 112.66 75.75 113.44 75.75 113.95C75.75 114.47 75.75 115.25 75.75 116.28M44.6 127.13L44.6 123.26C44.6 120.67 44.6 118.61 44.6 117.06C44.6 115.5 44.6 113.95 44.6 112.4C44.6 110.85 44.6 108.79 44.6 106.2C44.6 103.62 44.6 101.29 44.6 99.22C44.6 97.16 44.6 95.09 44.6 93.02C44.6 90.96 44.6 89.15 44.6 87.6C44.6 86.05 44.6 85.01 44.6 84.5C44.6 83.98 44.6 82.94 44.6 81.39M27 24.8L27 27.9C27 29.97 27 31.52 27 32.55C27 33.59 27 35.66 27 38.76C27 41.86 27 44.7 27 47.28C27 49.87 27 52.45 27 55.04C27 57.62 27 60.2 27 62.79C27 65.37 27 67.7 27 69.77C27 71.83 27 73.9 27 75.97C27 78.03 27 79.84 27 81.39C27 82.94 27 84.5 27 86.05C27 87.6 27 89.15 27 90.7C27 92.25 27 93.28 27 93.8" stroke="#7DCBA9" stroke-opacity="1.000000" stroke-width="54.000000"/>
</svg>
