<svg width="151.000000" height="148.000000" viewBox="0 0 151 148" fill="none" xmlns="http://www.w3.org/2000/svg" xmlns:xlink="http://www.w3.org/1999/xlink">
	<desc>
			Created with Pixso.
	</desc>
	<defs/>
	<path id="Форма 44" d="M124 130.86L124 126.18C124 123.07 124 120.21 124 117.62C124 115.02 124 111.64 124 107.49C124 103.34 124 98.66 124 93.47C124 88.28 124 83.6 124 79.45C124 75.29 124 71.92 124 69.32C124 66.72 124 64.65 124 63.09C124 61.53 124 60.23 124 59.19C124 58.16 124 57.12 124 56.08M84.38 42.06L84.38 48.29C84.38 52.44 84.38 55.04 84.38 56.08C84.38 57.12 84.38 58.94 84.38 61.53C84.38 64.13 84.38 67.5 84.38 71.66C84.38 75.81 84.38 78.41 84.38 79.45C84.38 80.49 84.38 83.08 84.38 87.24C84.38 91.39 84.38 94.25 84.38 95.81C84.38 97.36 84.38 98.92 84.38 100.48C84.38 102.04 84.38 104.37 84.38 107.49M99.4 0L99.4 10.12C99.4 16.87 99.4 21.81 99.4 24.92C99.4 28.04 99.4 32.19 99.4 37.38C99.4 42.58 99.4 48.29 99.4 54.52C99.4 60.75 99.4 65.95 99.4 70.1C99.4 74.25 99.4 77.89 99.4 81.01M70.71 148L70.71 144.1C70.71 141.5 70.71 139.69 70.71 138.65C70.71 137.61 70.71 135.27 70.71 131.64C70.71 128 70.71 124.11 70.71 119.95C70.71 115.8 70.71 110.87 70.71 105.15C70.71 99.44 70.71 94.25 70.71 89.57C70.71 84.9 70.71 80.49 70.71 76.33C70.71 72.18 70.71 68.28 70.71 64.65C70.71 61.01 70.71 58.16 70.71 56.08M31.09 4.67L31.09 10.12C31.09 13.76 31.09 16.09 31.09 17.13C31.09 18.17 31.09 21.03 31.09 25.7C31.09 30.37 31.09 35.83 31.09 42.06C31.09 48.29 31.09 55.3 31.09 63.09C31.09 70.88 31.09 79.45 31.09 88.8C31.09 98.14 31.09 105.67 31.09 111.38C31.09 117.1 31.09 121.77 31.09 125.41" stroke="#B86239" stroke-opacity="1.000000" stroke-width="54.000000"/>
	<path id="Форма 84" d="M100.77 23.36L100.77 27.26C100.77 29.85 100.77 31.93 100.77 33.49C100.77 35.05 100.77 37.9 100.77 42.06C100.77 46.21 100.77 49.59 100.77 52.18C100.77 54.78 100.77 57.64 100.77 60.75C100.77 63.87 100.77 66.21 100.77 67.76C100.77 69.32 100.77 71.14 100.77 73.22C100.77 75.29 100.77 76.85 100.77 77.89C100.77 78.93 100.77 79.97 100.77 81.01M62.52 40.5L62.52 43.62C62.52 45.69 62.52 47.51 62.52 49.07C62.52 50.63 62.52 52.96 62.52 56.08C62.52 59.2 62.52 62.31 62.52 65.43C62.52 68.54 62.52 71.4 62.52 74C62.52 76.59 62.52 79.71 62.52 83.34C62.52 86.98 62.52 91.65 62.52 97.36C62.52 103.08 62.52 107.49 62.52 110.61C62.52 113.72 62.52 116.32 62.52 118.4C62.52 120.47 62.52 122.03 62.52 123.07C62.52 124.11 62.52 125.15 62.52 126.18M28.36 105.93L28.36 102.82C28.36 100.74 28.36 99.18 28.36 98.14C28.36 97.1 28.36 95.03 28.36 91.91C28.36 88.79 28.36 85.42 28.36 81.78C28.36 78.15 28.36 74.51 28.36 70.88C28.36 67.24 28.36 63.87 28.36 60.75C28.36 57.64 28.36 55.04 28.36 52.96C28.36 50.89 28.36 49.33 28.36 48.29C28.36 47.25 28.36 46.21 28.36 45.17C28.36 44.14 28.36 42.84 28.36 41.28" stroke="#C4701F" stroke-opacity="1.000000" stroke-width="54.000000"/>
	<path id="Форма 96" d="M114.43 118.4L114.43 116.06C114.43 114.5 114.43 113.46 114.43 112.94C114.43 112.42 114.43 110.87 114.43 108.27C114.43 105.67 114.43 103.34 114.43 101.26C114.43 99.18 114.43 97.1 114.43 95.03C114.43 92.95 114.43 91.13 114.43 89.57C114.43 88.02 114.43 85.68 114.43 82.56C114.43 79.45 114.43 77.11 114.43 75.55C114.43 74 114.43 72.44 114.43 70.88C114.43 69.32 114.43 68.02 114.43 66.98C114.43 65.95 114.43 64.65 114.43 63.09C114.43 61.53 114.43 60.23 114.43 59.2C114.43 58.16 114.43 57.12 114.43 56.08C114.43 55.04 114.43 54.26 114.43 53.74M81.64 32.71L81.64 35.05C81.64 36.61 81.64 37.64 81.64 38.16C81.64 38.68 81.64 39.72 81.64 41.28C81.64 42.84 81.64 44.65 81.64 46.73C81.64 48.81 81.64 50.63 81.64 52.18C81.64 53.74 81.64 56.6 81.64 60.75C81.64 64.91 81.64 67.76 81.64 69.32C81.64 70.88 81.64 72.44 81.64 74C81.64 75.55 81.64 76.85 81.64 77.89C81.64 78.93 81.64 79.71 81.64 80.23C81.64 80.75 81.64 82.56 81.64 85.68M50.22 110.61L50.22 107.49C50.22 105.41 50.22 103.86 50.22 102.82C50.22 101.78 50.22 99.96 50.22 97.36C50.22 94.77 50.22 92.17 50.22 89.57C50.22 86.98 50.22 83.6 50.22 79.45C50.22 75.29 50.22 71.66 50.22 68.54C50.22 65.43 50.22 62.83 50.22 60.75C50.22 58.68 50.22 56.86 50.22 55.3C50.22 53.74 50.22 52.7 50.22 52.18C50.22 51.67 50.22 50.89 50.22 49.85M27 23.36L27 25.7C27 27.26 27 30.11 27 34.27C27 38.42 27 41.28 27 42.84C27 44.4 27 47.51 27 52.18C27 56.86 27 59.71 27 60.75C27 61.79 27 63.09 27 64.65" stroke="#7DCBA9" stroke-opacity="1.000000" stroke-width="54.000000"/>
</svg>
