<svg width="159.000000" height="138.000000" viewBox="0 0 159 138" fill="none" xmlns="http://www.w3.org/2000/svg" xmlns:xlink="http://www.w3.org/1999/xlink">
	<desc>
			Created with Pixso.
	</desc>
	<defs/>
	<path id="Форма 45" d="M97 5.42L97 7.75C97 9.3 97 10.33 97 10.85C97 11.37 97 12.66 97 14.73C97 16.79 97 19.38 97 22.48C97 25.58 97 28.68 97 31.78C97 34.88 97 37.98 97 41.08C97 44.19 97 47.29 97 50.39M132 20.93L132 24.03C132 26.1 132 27.91 132 29.46C132 31.01 132 32.82 132 34.88C132 36.95 132 39.28 132 41.86C132 44.44 132 48.58 132 54.26C132 59.95 132 67.44 132 76.75C132 86.05 132 94.58 132 102.33C132 110.09 132 117.32 132 124.04C132 130.76 132 135.41 132 138M112.55 132.57L112.55 122.49C112.55 115.77 112.55 110.86 112.55 107.76C112.55 104.66 112.55 100.01 112.55 93.8C112.55 87.6 112.55 81.14 112.55 74.42C112.55 67.7 112.55 62.02 112.55 57.37C112.55 52.71 112.55 48.58 112.55 44.96C112.55 41.34 112.55 37.98 112.55 34.88C112.55 31.78 112.55 29.2 112.55 27.13C112.55 25.06 112.55 23.25 112.55 21.7C112.55 20.15 112.55 18.6 112.55 17.05M76.25 48.84L76.25 55.82C76.25 60.47 76.25 63.83 76.25 65.89C76.25 67.96 76.25 70.03 76.25 72.1C76.25 74.16 76.25 78.3 76.25 84.5C76.25 90.7 76.25 94.84 76.25 96.91C76.25 98.97 76.25 100.78 76.25 102.33C76.25 103.88 76.25 105.43 76.25 106.98M34.77 87.6L34.77 80.62C34.77 75.97 34.77 72.61 34.77 70.55C34.77 68.48 34.77 65.64 34.77 62.02C34.77 58.4 34.77 55.04 34.77 51.94C34.77 48.84 34.77 45.48 34.77 41.86C34.77 38.24 34.77 34.88 34.77 31.78C34.77 28.68 34.77 25.58 34.77 22.48C34.77 19.38 34.77 16.53 34.77 13.95C34.77 11.37 34.77 8.78 34.77 6.2C34.77 3.61 34.77 2.06 34.77 1.55C34.77 1.03 34.77 0.51 34.77 0M47.74 134.12L47.74 129.47C47.74 126.37 47.74 124.56 47.74 124.04C47.74 123.52 47.74 121.46 47.74 117.84C47.74 114.22 47.74 109.83 47.74 104.66C47.74 99.49 47.74 93.8 47.74 87.6C47.74 81.4 47.74 75.46 47.74 69.77C47.74 64.08 47.74 58.92 47.74 54.26C47.74 49.61 47.74 45.48 47.74 41.86" stroke="#B86239" stroke-opacity="1.000000" stroke-width="54.000000"/>
	<path id="Форма 85" d="M126.81 33.33L126.81 36.43C126.81 38.5 126.81 40.83 126.81 43.41C126.81 46 126.81 49.35 126.81 53.49C126.81 57.62 126.81 61.5 126.81 65.12C126.81 68.74 126.81 71.84 126.81 74.42C126.81 77.01 126.81 78.82 126.81 79.85C126.81 80.88 126.81 81.92 126.81 82.95C126.81 83.98 126.81 84.76 126.81 85.28C126.81 85.79 126.81 86.57 126.81 87.6C126.81 88.64 126.81 89.93 126.81 91.48M93.11 36.43L93.11 39.53C93.11 41.6 93.11 43.41 93.11 44.96C93.11 46.51 93.11 48.32 93.11 50.39C93.11 52.46 93.11 54.78 93.11 57.37C93.11 59.95 93.11 63.05 93.11 66.67C93.11 70.29 93.11 73.65 93.11 76.75C93.11 79.85 93.11 83.98 93.11 89.15C93.11 94.32 93.11 97.94 93.11 100.01M55.51 118.61L55.51 116.29C55.51 114.74 55.51 113.44 55.51 112.41C55.51 111.38 55.51 109.05 55.51 105.43C55.51 101.82 55.51 98.46 55.51 95.35C55.51 92.25 55.51 88.64 55.51 84.5C55.51 80.37 55.51 76.75 55.51 73.65C55.51 70.55 55.51 67.19 55.51 63.57C55.51 59.95 55.51 57.11 55.51 55.04C55.51 52.97 55.51 50.65 55.51 48.06C55.51 45.48 55.51 41.86 55.51 37.21M27 17.83L27 20.93C27 23 27 24.29 27 24.8C27 25.32 27 26.35 27 27.91C27 29.46 27 31.01 27 32.56C27 34.11 27 36.43 27 39.53" stroke="#C4701F" stroke-opacity="1.000000" stroke-width="54.000000"/>
	<path id="Форма 94" d="M29.59 24.03L29.59 27.13C29.59 29.2 29.59 30.49 29.59 31.01C29.59 31.52 29.59 32.3 29.59 33.33C29.59 34.37 29.59 35.66 29.59 37.21C29.59 38.76 29.59 40.31 29.59 41.86C29.59 43.41 29.59 44.96 29.59 46.51C29.59 48.06 29.59 49.61 29.59 51.16C29.59 52.71 29.59 54.01 29.59 55.04C29.59 56.07 29.59 56.85 29.59 57.37C29.59 57.88 29.59 58.66 29.59 59.69C29.59 60.73 29.59 61.5 29.59 62.02C29.59 62.53 29.59 63.05 29.59 63.57C29.59 64.08 29.59 64.86 29.59 65.89M64.59 24.03L64.59 27.91C64.59 30.49 64.59 32.82 64.59 34.88C64.59 36.95 64.59 39.02 64.59 41.08C64.59 43.15 64.59 45.22 64.59 47.29C64.59 49.35 64.59 51.68 64.59 54.26C64.59 56.85 64.59 58.92 64.59 60.47C64.59 62.02 64.59 63.83 64.59 65.89C64.59 67.96 64.59 70.03 64.59 72.1C64.59 74.16 64.59 76.75 64.59 79.85C64.59 82.95 64.59 85.79 64.59 88.38M47.74 106.21L47.74 102.33C47.74 99.75 47.74 97.68 47.74 96.13C47.74 94.58 47.74 92.77 47.74 90.7C47.74 88.64 47.74 86.83 47.74 85.28C47.74 83.73 47.74 82.69 47.74 82.17C47.74 81.66 47.74 80.88 47.74 79.85M89.22 8.52L89.22 11.62C89.22 13.69 89.22 15.24 89.22 16.28C89.22 17.31 89.22 18.34 89.22 19.38C89.22 20.41 89.22 22.22 89.22 24.8C89.22 27.39 89.22 29.97 89.22 32.56C89.22 35.14 89.22 37.21 89.22 38.76C89.22 40.31 89.22 41.86 89.22 43.41C89.22 44.96 89.22 46.25 89.22 47.29C89.22 48.32 89.22 49.35 89.22 50.39C89.22 51.42 89.22 52.2 89.22 52.71C89.22 53.23 89.22 54.01 89.22 55.04C89.22 56.07 89.22 57.11 89.22 58.14M116.44 100.01L116.44 96.13C116.44 93.55 116.44 92 116.44 91.48C116.44 90.96 116.44 89.93 116.44 88.38C116.44 86.83 116.44 85.02 116.44 82.95C116.44 80.88 116.44 78.82 116.44 76.75C116.44 74.68 116.44 72.61 116.44 70.55C116.44 68.48 116.44 66.67 116.44 65.12C116.44 63.57 116.44 61.5 116.44 58.92C116.44 56.33 116.44 54.26 116.44 52.71C116.44 51.16 116.44 49.61 116.44 48.06M124.22 117.06L124.22 113.19C124.22 110.6 124.22 108.53 124.22 106.98C124.22 105.43 124.22 103.62 124.22 101.56C124.22 99.49 124.22 97.42 124.22 95.35C124.22 93.29 124.22 90.7 124.22 87.6C124.22 84.5 124.22 81.4 124.22 78.3C124.22 75.2 124.22 72.87 124.22 71.32M84.03 51.94L84.03 54.26C84.03 55.82 84.03 56.85 84.03 57.37C84.03 57.88 84.03 58.4 84.03 58.92C84.03 59.43 84.03 59.95 84.03 60.47C84.03 60.98 84.03 61.76 84.03 62.79C84.03 63.83 84.03 64.86 84.03 65.89C84.03 66.93 84.03 67.96 84.03 68.99C84.03 70.03 84.03 71.06 84.03 72.1C84.03 73.13 84.03 74.16 84.03 75.2C84.03 76.23 84.03 78.04 84.03 80.62C84.03 83.21 84.03 84.76 84.03 85.28C84.03 85.79 84.03 86.31 84.03 86.83C84.03 87.34 84.03 87.86 84.03 88.38C84.03 88.89 84.03 89.41 84.03 89.93C84.03 90.44 84.03 90.96 84.03 91.48" stroke="#7DCBA9" stroke-opacity="1.000000" stroke-width="54.000000"/>
</svg>
