<svg width="171.999756" height="149.205414" viewBox="0 0 172 149.205" fill="none" xmlns="http://www.w3.org/2000/svg" xmlns:xlink="http://www.w3.org/1999/xlink">
	<desc>
			Created with Pixso.
	</desc>
	<defs/>
	<path id="Форма 46" d="M112.44 16.1L112.44 19.21C112.44 21.29 112.44 23.88 112.44 27C112.44 30.11 112.44 34.52 112.44 40.23C112.44 45.94 112.44 50.87 112.44 55.02C112.44 59.17 112.44 62.8 112.44 65.91C112.44 69.03 112.44 71.62 112.44 73.7M145 50.35L145 53.46C145 55.54 145 58.91 145 63.58C145 68.25 145 73.18 145 78.37C145 83.56 145 88.75 145 93.94C145 99.12 145 103.8 145 107.95C145 112.1 145 116.25 145 120.4C145 124.55 145 127.93 145 130.52C145 133.11 145 135.71 145 138.3M85.32 55.02L85.32 58.13C85.32 60.21 85.32 63.58 85.32 68.25C85.32 72.92 85.32 78.37 85.32 84.6C85.32 90.82 85.32 97.57 85.32 104.83C85.32 112.1 85.32 119.1 85.32 125.85C85.32 132.6 85.32 137.27 85.32 139.86C85.32 142.45 85.32 144.53 85.32 146.09C85.32 147.64 85.32 148.68 85.32 149.2M66.33 20.77L66.33 25.44C66.33 28.55 66.33 30.37 66.33 30.89C66.33 31.41 66.33 33.22 66.33 36.34C66.33 39.45 66.33 42.56 66.33 45.68C66.33 48.79 66.33 52.68 66.33 57.35C66.33 62.02 66.33 66.43 66.33 70.58C66.33 74.74 66.33 78.11 66.33 80.7C66.33 83.3 66.33 85.89 66.33 88.49M112.44 53.46L112.44 58.91C112.44 62.54 112.44 66.95 112.44 72.14C112.44 77.33 112.44 83.04 112.44 89.27C112.44 95.49 112.44 101.46 112.44 107.17C112.44 112.88 112.44 117.29 112.44 120.4C112.44 123.51 112.44 125.33 112.44 125.85C112.44 126.37 112.44 126.89 112.44 127.41M39.2 123.51L39.2 121.18C39.2 119.62 39.2 118.07 39.2 116.51C39.2 114.95 39.2 112.88 39.2 110.28C39.2 107.69 39.2 104.57 39.2 100.94C39.2 97.31 39.2 94.2 39.2 91.6C39.2 89.01 39.2 85.89 39.2 82.26C39.2 78.63 39.2 75.51 39.2 72.92C39.2 70.32 39.2 68.51 39.2 67.47M77.18 5.2L77.18 9.09C77.18 11.69 77.18 14.02 77.18 16.1C77.18 18.17 77.18 21.55 77.18 26.22C77.18 30.89 77.18 36.08 77.18 41.78" stroke="#B86239" stroke-opacity="1.000000" stroke-width="54.000000"/>
	<path id="Форма 86" d="M142.28 27L138.89 27C136.63 27 135.05 27 134.14 27C133.24 27 132.34 27 131.43 27C130.53 27 129.62 27 128.72 27C127.82 27 126.91 27 126.01 27C125.1 27 123.97 27 122.62 27C121.26 27 120.13 27 119.23 27C118.32 27 117.42 27 116.51 27M138.21 31.67L138.21 34C138.21 35.56 138.21 37.11 138.21 38.67C138.21 40.23 138.21 42.56 138.21 45.68C138.21 48.79 138.21 52.16 138.21 55.8C138.21 59.43 138.21 62.28 138.21 64.36C138.21 66.43 138.21 67.99 138.21 69.03C138.21 70.07 138.21 70.84 138.21 71.36C138.21 71.88 138.21 72.4 138.21 72.92C138.21 73.44 138.21 75.25 138.21 78.37M98.88 28.55L98.88 37.11C98.88 42.82 98.88 46.71 98.88 48.79C98.88 50.87 98.88 53.98 98.88 58.13C98.88 62.28 98.88 66.95 98.88 72.14C98.88 77.33 98.88 81.48 98.88 84.59C98.88 87.71 98.88 90.82 98.88 93.94C98.88 97.05 98.88 99.9 98.88 102.5C98.88 105.09 98.88 107.17 98.88 108.73C98.88 110.28 98.88 111.32 98.88 111.84C98.88 112.36 98.88 114.17 98.88 117.29M124.65 101.72L124.65 99.38C124.65 97.83 124.65 96.27 124.65 94.71C124.65 93.16 124.65 91.08 124.65 88.49C124.65 85.89 124.65 83.56 124.65 81.48C124.65 79.41 124.65 77.07 124.65 74.48C124.65 71.88 124.65 70.07 124.65 69.03M55.48 33.22L55.48 41.78C55.48 47.49 55.48 52.16 55.48 55.79C55.48 59.43 55.48 62.28 55.48 64.36C55.48 66.43 55.48 68.25 55.48 69.81C55.48 71.36 55.48 72.66 55.48 73.7C55.48 74.74 55.48 75.51 55.48 76.03C55.48 76.55 55.48 77.07 55.48 77.59C55.48 78.11 55.48 78.89 55.48 79.92C55.48 80.96 55.48 82.26 55.48 83.82C55.48 85.37 55.48 86.93 55.48 88.49M27 115.73L27 112.62C27 110.54 27 109.24 27 108.72C27 108.21 27 107.43 27 106.39C27 105.35 27 104.31 27 103.28C27 102.24 27 100.68 27 98.61C27 96.53 27 94.71 27 93.16C27 91.6 27 89.52 27 86.93C27 84.34 27 82.26 27 80.7C27 79.15 27 77.85 27 76.81" stroke="#C4701F" stroke-opacity="1.000000" stroke-width="54.000000"/>
	<path id="Форма 97" d="M135.5 31.67L135.5 34C135.5 35.56 135.5 36.59 135.5 37.11C135.5 37.63 135.5 38.41 135.5 39.45C135.5 40.49 135.5 42.04 135.5 44.12C135.5 46.19 135.5 48.01 135.5 49.57C135.5 51.12 135.5 52.68 135.5 54.24C135.5 55.79 135.5 57.35 135.5 58.91C135.5 60.47 135.5 62.54 135.5 65.14C135.5 67.73 135.5 70.07 135.5 72.14C135.5 74.22 135.5 76.03 135.5 77.59C135.5 79.15 135.5 80.44 135.5 81.48C135.5 82.52 135.5 83.56 135.5 84.59C135.5 85.63 135.5 86.41 135.5 86.93M97.52 28.55L97.52 34C97.52 37.63 97.52 39.97 97.52 41.01C97.52 42.04 97.52 44.12 97.52 47.23C97.52 50.35 97.52 53.2 97.52 55.8C97.52 58.39 97.52 60.72 97.52 62.8C97.52 64.88 97.52 66.95 97.52 69.03C97.52 71.1 97.52 73.44 97.52 76.03C97.52 78.63 97.52 80.7 97.52 82.26C97.52 83.82 97.52 86.15 97.52 89.27C97.52 92.38 97.52 94.2 97.52 94.71M58.19 104.83L58.19 101.72C58.19 99.64 58.19 97.83 58.19 96.27C58.19 94.71 58.19 93.16 58.19 91.6C58.19 90.04 58.19 87.71 58.19 84.59C58.19 81.48 58.19 78.89 58.19 76.81C58.19 74.74 58.19 72.66 58.19 70.58C58.19 68.51 58.19 65.65 58.19 62.02C58.19 58.39 58.19 55.79 58.19 54.24M97.52 123.51L97.52 120.4C97.52 118.33 97.52 117.03 97.52 116.51C97.52 115.99 97.52 114.95 97.52 113.4C97.52 111.84 97.52 110.28 97.52 108.73C97.52 107.17 97.52 105.35 97.52 103.28C97.52 101.2 97.52 99.38 97.52 97.83C97.52 96.27 97.52 94.45 97.52 92.38C97.52 90.3 97.52 88.49 97.52 86.93C97.52 85.37 97.52 82.78 97.52 79.15C97.52 75.51 97.52 73.44 97.52 72.92" stroke="#7DCBA9" stroke-opacity="1.000000" stroke-width="54.000000"/>
</svg>
