<svg width="175.000244" height="202.000000" viewBox="0 0 175 202" fill="none" xmlns="http://www.w3.org/2000/svg" xmlns:xlink="http://www.w3.org/1999/xlink">
	<desc>
			Created with Pixso.
	</desc>
	<defs/>
	<path id="Форма 47" d="M90.89 169.36L90.89 163.93C90.89 160.3 90.89 155.9 90.89 150.72C90.89 145.54 90.89 140.62 90.89 135.96C90.89 131.3 90.89 126.12 90.89 120.42C90.89 114.72 90.89 110.06 90.89 106.43C90.89 102.81 90.89 100.22 90.89 98.66M122.16 38.84L122.16 41.17C122.16 42.73 122.16 44.8 122.16 47.39C122.16 49.98 122.16 52.83 122.16 55.93C122.16 59.04 122.16 62.67 122.16 66.81C122.16 70.95 122.16 75.87 122.16 81.57C122.16 87.27 122.16 94.78 122.16 104.1C122.16 113.43 122.16 122.75 122.16 132.07C122.16 141.39 122.16 151.24 122.16 161.6C122.16 171.95 122.16 177.65 122.16 178.69M65.06 38.84L65.06 43.5C65.06 46.61 65.06 50.5 65.06 55.16C65.06 59.82 65.06 66.29 65.06 74.58C65.06 82.87 65.06 90.38 65.06 97.11C65.06 103.84 65.06 110.58 65.06 117.31C65.06 124.04 65.06 130.26 65.06 135.96M96.33 49.72L96.33 55.16C96.33 58.78 96.33 63.7 96.33 69.92C96.33 76.13 96.33 84.42 96.33 94.78C96.33 105.14 96.33 116.53 96.33 128.96C96.33 141.39 96.33 153.57 96.33 165.48C96.33 177.39 96.33 185.94 96.33 191.12C96.33 196.3 96.33 199.92 96.33 202M99.05 0L99.05 2.33C99.05 3.88 99.05 5.95 99.05 8.54C99.05 11.13 99.05 16.05 99.05 23.3C99.05 30.55 99.05 37.03 99.05 42.73C99.05 48.42 99.05 56.97 99.05 68.36C99.05 79.76 99.05 87.01 99.05 90.12C99.05 93.23 99.05 98.92 99.05 107.21C99.05 115.5 99.05 121.45 99.05 125.08M46.03 88.56L46.03 98.66C46.03 105.4 46.03 111.61 46.03 117.31C46.03 123.01 46.03 129.74 46.03 137.51C46.03 145.28 46.03 151.5 46.03 156.16C46.03 160.82 46.03 164.44 46.03 167.03C46.03 169.62 46.03 171.95 46.03 174.03M27 59.04L27 63.7C27 66.81 27 69.4 27 71.47C27 73.54 27 76.91 27 81.57C27 86.23 27 91.93 27 98.66C27 105.4 27 111.61 27 117.31C27 123.01 27 127.67 27 131.3M134.4 169.36L134.4 162.37C134.4 157.71 134.4 153.05 134.4 148.39C134.4 143.73 134.4 138.81 134.4 133.63C134.4 128.45 134.4 123.53 134.4 118.86C134.4 114.2 134.4 110.84 134.4 108.76" stroke="#B86239" stroke-opacity="1.000000" stroke-width="54.000000"/>
	<path id="Форма 91" d="M133.04 54.38L133.04 59.04C133.04 62.15 133.04 65 133.04 67.59C133.04 70.18 133.04 72.25 133.04 73.8C133.04 75.36 133.04 77.17 133.04 79.24C133.04 81.31 133.04 83.13 133.04 84.68C133.04 86.23 133.04 88.31 133.04 90.9C133.04 93.48 133.04 96.07 133.04 98.66C133.04 101.25 133.04 103.33 133.04 104.88C133.04 106.43 133.04 108.25 133.04 110.32C133.04 112.39 133.04 113.94 133.04 114.98C133.04 116.02 133.04 118.61 133.04 122.75C133.04 126.89 133.04 130 133.04 132.07C133.04 134.14 133.04 136.22 133.04 138.29C133.04 140.36 133.04 141.65 133.04 142.17M89.53 164.7L89.53 162.37C89.53 160.82 89.53 159.26 89.53 157.71C89.53 156.16 89.53 154.34 89.53 152.27C89.53 150.2 89.53 147.35 89.53 143.73C89.53 140.1 89.53 136.99 89.53 134.4C89.53 131.81 89.53 129.22 89.53 126.63C89.53 124.04 89.53 121.2 89.53 118.09C89.53 114.98 89.53 112.13 89.53 109.54C89.53 106.95 89.53 104.1 89.53 101C89.53 97.89 89.53 95.3 89.53 93.23C89.53 91.15 89.53 87.53 89.53 82.35C89.53 77.17 89.53 73.54 89.53 71.47C89.53 69.4 89.53 67.85 89.53 66.81C89.53 65.77 89.53 65 89.53 64.48C89.53 63.96 89.53 63.44 89.53 62.93M86.82 35.73L86.82 38.06C86.82 39.62 86.82 40.65 86.82 41.17C86.82 41.69 86.82 43.24 86.82 45.83C86.82 48.42 86.82 50.49 86.82 52.05C86.82 53.6 86.82 55.16 86.82 56.71C86.82 58.26 86.82 60.08 86.82 62.15C86.82 64.22 86.82 66.29 86.82 68.36C86.82 70.44 86.82 72.51 86.82 74.58C86.82 76.65 86.82 78.72 86.82 80.79C86.82 82.87 86.82 84.68 86.82 86.23C86.82 87.79 86.82 89.08 86.82 90.12C86.82 91.15 86.82 91.93 86.82 92.45M51.47 63.7L51.47 67.59C51.47 70.18 51.47 72.25 51.47 73.8C51.47 75.36 51.47 77.69 51.47 80.8C51.47 83.9 51.47 87.27 51.47 90.9C51.47 94.52 51.47 98.41 51.47 102.55C51.47 106.69 51.47 110.84 51.47 114.98C51.47 119.12 51.47 122.75 51.47 125.86C51.47 128.96 51.47 131.81 51.47 134.4C51.47 136.99 51.47 139.06 51.47 140.62C51.47 142.17 51.47 143.21 51.47 143.73M148 127.41L148 125.08C148 123.53 148 121.97 148 120.42C148 118.86 148 117.31 148 115.76C148 114.2 148 112.65 148 111.1C148 109.54 148 107.73 148 105.66C148 103.59 148 101.77 148 100.22C148 98.66 148 97.11 148 95.56C148 94 148 92.45 148 90.9C148 89.34 148 87.79 148 86.23C148 84.68 148 82.87 148 80.8" stroke="#C4701F" stroke-opacity="1.000000" stroke-width="54.000000"/>
	<path id="Форма 98" d="M135.76 133.63L135.76 131.3C135.76 129.74 135.76 128.71 135.76 128.19C135.76 127.67 135.76 126.89 135.76 125.86C135.76 124.82 135.76 123.79 135.76 122.75C135.76 121.71 135.76 120.16 135.76 118.09C135.76 116.02 135.76 113.69 135.76 111.1C135.76 108.51 135.76 106.43 135.76 104.88C135.76 103.33 135.76 101.51 135.76 99.44C135.76 97.37 135.76 95.3 135.76 93.23C135.76 91.15 135.76 89.6 135.76 88.56C135.76 87.53 135.76 86.75 135.76 86.23C135.76 85.72 135.76 85.2 135.76 84.68C135.76 84.16 135.76 82.35 135.76 79.24C135.76 76.13 135.76 74.32 135.76 73.8C135.76 73.28 135.76 72.77 135.76 72.25C135.76 71.73 135.76 70.95 135.76 69.92M103.13 62.15L103.13 64.48C103.13 66.03 103.13 67.59 103.13 69.14C103.13 70.69 103.13 71.99 103.13 73.03C103.13 74.06 103.13 75.36 103.13 76.91C103.13 78.46 103.13 80.02 103.13 81.57C103.13 83.13 103.13 84.94 103.13 87.01C103.13 89.08 103.13 91.41 103.13 94C103.13 96.59 103.13 99.7 103.13 103.33C103.13 106.95 103.13 109.54 103.13 111.1C103.13 112.65 103.13 115.24 103.13 118.86C103.13 122.49 103.13 124.56 103.13 125.08M66.42 128.96L66.42 124.3C66.42 121.2 66.42 118.61 66.42 116.53C66.42 114.46 66.42 112.39 66.42 110.32C66.42 108.25 66.42 105.92 66.42 103.33C66.42 100.74 66.42 98.66 66.42 97.11C66.42 95.56 66.42 94 66.42 92.45C66.42 90.9 66.42 89.34 66.42 87.79C66.42 86.23 66.42 84.94 66.42 83.9C66.42 82.87 66.42 81.83 66.42 80.8C66.42 79.76 66.42 78.72 66.42 77.69C66.42 76.65 66.42 75.36 66.42 73.8M80.02 37.29L80.02 39.62C80.02 41.17 80.02 42.47 80.02 43.5C80.02 44.54 80.02 45.83 80.02 47.39C80.02 48.94 80.02 51.27 80.02 54.38C80.02 57.49 80.02 60.34 80.02 62.93C80.02 65.52 80.02 67.85 80.02 69.92C80.02 71.99 80.02 74.58 80.02 77.69C80.02 80.8 80.02 83.38 80.02 85.46C80.02 87.53 80.02 89.6 80.02 91.67C80.02 93.74 80.02 96.59 80.02 100.22C80.02 103.84 80.02 106.69 80.02 108.76C80.02 110.84 80.02 112.65 80.02 114.2C80.02 115.76 80.02 117.05 80.02 118.09C80.02 119.12 80.02 120.16 80.02 121.2C80.02 122.23 80.02 123.01 80.02 123.53C80.02 124.04 80.02 124.82 80.02 125.86C80.02 126.89 80.02 127.67 80.02 128.19C80.02 128.71 80.02 129.48 80.02 130.52C80.02 131.55 80.02 132.59 80.02 133.63C80.02 134.66 80.02 135.96 80.02 137.51C80.02 139.06 80.02 140.1 80.02 140.62C80.02 141.14 80.02 141.65 80.02 142.17C80.02 142.69 80.02 143.21 80.02 143.73C80.02 144.24 80.02 144.76 80.02 145.28" stroke="#7DCBA9" stroke-opacity="1.000000" stroke-width="54.000000"/>
</svg>
