<svg width="159.000000" height="130.000000" viewBox="0 0 159 130" fill="none" xmlns="http://www.w3.org/2000/svg" xmlns:xlink="http://www.w3.org/1999/xlink">
	<desc>
			Created with Pixso.
	</desc>
	<defs/>
	<path id="Форма 48" d="M106.09 0L106.09 2.32C106.09 3.86 106.09 6.19 106.09 9.28C106.09 12.38 106.09 15.73 106.09 19.34C106.09 22.95 106.09 27.59 106.09 33.27C106.09 38.94 106.09 44.88 106.09 51.07C106.09 57.26 106.09 62.16 106.09 65.77M112.9 130L112.9 120.71C112.9 114.52 112.9 109.62 112.9 106.01C112.9 102.4 112.9 96.98 112.9 89.76C112.9 82.53 112.9 76.34 112.9 71.19C112.9 66.03 112.9 62.16 112.9 59.58C112.9 57 112.9 55.45 112.9 54.94C112.9 54.42 112.9 53.65 112.9 52.61M130.63 32.49L130.63 44.1C130.63 51.84 130.63 60.09 130.63 68.86C130.63 77.63 130.63 84.86 130.63 90.53C130.63 96.21 130.63 100.33 130.63 102.91C130.63 105.49 130.63 107.04 130.63 107.55M77.45 34.04L77.45 37.14C77.45 39.2 77.45 41.26 77.45 43.33C77.45 45.39 77.45 47.71 77.45 50.29C77.45 52.87 77.45 55.71 77.45 58.8C77.45 61.9 77.45 65.77 77.45 70.41C77.45 75.05 77.45 79.96 77.45 85.11C77.45 90.27 77.45 95.95 77.45 102.14C77.45 108.33 77.45 112.97 77.45 116.07M28.36 44.88L28.36 47.2C28.36 48.75 28.36 50.29 28.36 51.84C28.36 53.39 28.36 55.19 28.36 57.26C28.36 59.32 28.36 62.16 28.36 65.77C28.36 69.38 28.36 72.73 28.36 75.83C28.36 78.92 28.36 81.76 28.36 84.34C28.36 86.92 28.36 89.5 28.36 92.08" stroke="#B86239" stroke-opacity="1.000000" stroke-width="54.000000"/>
	<path id="Форма 90" d="M125.18 35.59L125.18 37.91C125.18 39.46 125.18 40.49 125.18 41.01C125.18 41.52 125.18 42.3 125.18 43.33C125.18 44.36 125.18 45.91 125.18 47.97C125.18 50.03 125.18 52.87 125.18 56.48C125.18 60.09 125.18 63.71 125.18 67.32C125.18 70.93 125.18 74.54 125.18 78.15C125.18 81.76 125.18 85.11 125.18 88.21C125.18 91.3 125.18 93.63 125.18 95.17C125.18 96.72 125.18 99.3 125.18 102.91C125.18 106.52 125.18 108.59 125.18 109.1M91.09 27.85L91.09 30.95C91.09 33.01 91.09 34.56 91.09 35.59C91.09 36.62 91.09 38.69 91.09 41.78C91.09 44.88 91.09 48.74 91.09 53.39C91.09 58.03 91.09 62.42 91.09 66.54C91.09 70.67 91.09 74.02 91.09 76.6C91.09 79.18 91.09 81.76 91.09 84.34C91.09 86.92 91.09 88.73 91.09 89.76C91.09 90.79 91.09 91.82 91.09 92.85M61.09 88.21L61.09 85.89C61.09 84.34 61.09 82.28 61.09 79.7C61.09 77.12 61.09 75.05 61.09 73.51C61.09 71.96 61.09 70.67 61.09 69.64C61.09 68.61 61.09 67.57 61.09 66.54C61.09 65.51 61.09 64.48 61.09 63.45C61.09 62.42 61.09 61.64 61.09 61.13M28.36 46.42L28.36 48.74C28.36 50.29 28.36 51.32 28.36 51.84C28.36 52.36 28.36 52.87 28.36 53.39C28.36 53.9 28.36 54.68 28.36 55.71C28.36 56.74 28.36 58.03 28.36 59.58C28.36 61.13 28.36 62.67 28.36 64.22C28.36 65.77 28.36 67.32 28.36 68.86C28.36 70.41 28.36 72.73 28.36 75.83M52.9 114.52L52.9 109.88C52.9 106.78 52.9 103.69 52.9 100.59C52.9 97.49 52.9 94.4 52.9 91.3C52.9 88.21 52.9 85.63 52.9 83.57C52.9 81.5 52.9 80.21 52.9 79.7C52.9 79.18 52.9 78.15 52.9 76.6C52.9 75.05 52.9 74.02 52.9 73.51M91.09 17.02L91.09 20.89C91.09 23.47 91.09 25.27 91.09 26.3C91.09 27.34 91.09 28.11 91.09 28.63C91.09 29.14 91.09 30.43 91.09 32.49" stroke="#C4701F" stroke-opacity="1.000000" stroke-width="54.000000"/>
	<path id="Форма 99" d="M132 40.23L132 42.55C132 44.1 132 45.39 132 46.42C132 47.46 132 48.23 132 48.74C132 49.26 132 50.29 132 51.84C132 53.39 132 54.94 132 56.48C132 58.03 132 59.58 132 61.13C132 62.67 132 63.96 132 64.99C132 66.03 132 67.57 132 69.64C132 71.7 132 73.51 132 75.05C132 76.6 132 78.41 132 80.47C132 82.53 132 84.6 132 86.66C132 88.73 132 91.05 132 93.63C132 96.21 132 98.01 132 99.04C132 100.07 132 101.11 132 102.14C132 103.17 132 103.94 132 104.46M87 26.3L87 29.4C87 31.46 87 33.01 87 34.04C87 35.07 87 36.36 87 37.91C87 39.46 87 40.75 87 41.78C87 42.81 87 44.1 87 45.65C87 47.2 87 48.49 87 49.52C87 50.55 87 52.1 87 54.16C87 56.23 87 58.03 87 59.58C87 61.13 87 62.42 87 63.45C87 64.48 87 65.25 87 65.77C87 66.28 87 67.06 87 68.09M65.18 111.42L65.18 109.1C65.18 107.55 65.18 106.27 65.18 105.23C65.18 104.2 65.18 102.91 65.18 101.36C65.18 99.82 65.18 98.27 65.18 96.72C65.18 95.17 65.18 93.63 65.18 92.08C65.18 90.53 65.18 89.24 65.18 88.21C65.18 87.18 65.18 86.15 65.18 85.11C65.18 84.08 65.18 82.79 65.18 81.24C65.18 79.7 65.18 78.41 65.18 77.38M27 47.97L27 50.29C27 51.84 27 53.13 27 54.16C27 55.19 27 57.51 27 61.13C27 64.74 27 67.06 27 68.09C27 69.12 27 70.41 27 71.96C27 73.51 27 74.54 27 75.05C27 75.57 27 76.09 27 76.6C27 77.12 27 77.63 27 78.15C27 78.67 27 79.18 27 79.7" stroke="#7DCBA9" stroke-opacity="1.000000" stroke-width="54.000000"/>
</svg>
