<svg width="185.999756" height="109.000000" viewBox="0 0 186 109" fill="none" xmlns="http://www.w3.org/2000/svg" xmlns:xlink="http://www.w3.org/1999/xlink">
	<desc>
			Created with Pixso.
	</desc>
	<defs/>
	<path id="Форма 49" d="M99.12 104.32L99.12 100.43C99.12 97.84 99.12 92.13 99.12 83.3C99.12 74.48 99.12 64.36 99.12 52.94C99.12 41.52 99.12 31.4 99.12 22.57C99.12 13.75 99.12 7.26 99.12 3.11M127.7 23.35L127.7 26.47C127.7 28.54 127.7 30.88 127.7 33.47C127.7 36.07 127.7 39.44 127.7 43.59C127.7 47.75 127.7 51.9 127.7 56.05C127.7 60.2 127.7 64.62 127.7 69.29C127.7 73.96 127.7 78.37 127.7 82.52C127.7 86.68 127.7 90.31 127.7 93.42M159 43.59L159 47.49C159 50.08 159 52.68 159 55.27C159 57.87 159 60.98 159 64.62C159 68.25 159 72.66 159 77.85M65.1 24.91L65.1 34.25C65.1 40.48 65.1 44.89 65.1 47.49C65.1 50.08 65.1 53.98 65.1 59.17C65.1 64.36 65.1 69.55 65.1 74.74C65.1 79.93 65.1 85.12 65.1 90.31C65.1 95.5 65.1 99.65 65.1 102.77M55.57 24.91L55.57 21.02C55.57 18.42 55.57 16.09 55.57 14.01C55.57 11.93 55.57 10.12 55.57 8.56C55.57 7 55.57 5.7 55.57 4.67C55.57 3.63 55.57 2.59 55.57 1.55" stroke="#B86239" stroke-opacity="1.000000" stroke-width="54.000000"/>
	<path id="Форма 89" d="M145.39 82.52L145.39 77.07C145.39 73.44 145.39 70.07 145.39 66.95C145.39 63.84 145.39 61.24 145.39 59.17C145.39 57.09 145.39 55.79 145.39 55.27C145.39 54.75 145.39 54.24 145.39 53.72C145.39 53.2 145.39 52.42 145.39 51.38C145.39 50.34 145.39 48.53 145.39 45.93C145.39 43.34 145.39 41 145.39 38.92C145.39 36.85 145.39 35.29 145.39 34.25M115.45 24.91L115.45 28.8C115.45 31.4 115.45 33.99 115.45 36.59C115.45 39.18 115.45 41.26 115.45 42.82C115.45 44.37 115.45 46.45 115.45 49.05C115.45 51.64 115.45 53.98 115.45 56.05C115.45 58.13 115.45 59.69 115.45 60.72C115.45 61.76 115.45 62.8 115.45 63.84M70.54 94.98L70.54 90.31C70.54 87.2 70.54 83.82 70.54 80.19C70.54 76.55 70.54 72.92 70.54 69.29C70.54 65.65 70.54 62.54 70.54 59.95C70.54 57.35 70.54 54.75 70.54 52.16C70.54 49.56 70.54 47.49 70.54 45.93C70.54 44.37 70.54 42.82 70.54 41.26C70.54 39.7 70.54 38.15 70.54 36.59M43.32 28.02L43.32 31.14C43.32 33.21 43.32 34.51 43.32 35.03C43.32 35.55 43.32 36.33 43.32 37.37C43.32 38.4 43.32 39.18 43.32 39.7C43.32 40.22 43.32 41 43.32 42.04C43.32 43.08 43.32 43.85 43.32 44.37C43.32 44.89 43.32 45.67 43.32 46.71C43.32 47.75 43.32 49.05 43.32 50.6C43.32 52.16 43.32 55.53 43.32 60.72M81.43 0L81.43 2.33C81.43 3.89 81.43 6.74 81.43 10.9C81.43 15.05 81.43 18.42 81.43 21.02C81.43 23.61 81.43 25.69 81.43 27.25C81.43 28.8 81.43 30.88 81.43 33.47C81.43 36.07 81.43 38.15 81.43 39.7C81.43 41.26 81.43 42.56 81.43 43.6C81.43 44.63 81.43 45.93 81.43 47.49C81.43 49.05 81.43 50.6 81.43 52.16M95.04 96.54L95.04 94.2C95.04 92.65 95.04 90.57 95.04 87.97C95.04 85.38 95.04 83.56 95.04 82.52C95.04 81.49 95.04 80.45 95.04 79.41M100.48 48.27L100.48 52.94C100.48 56.05 100.48 58.65 100.48 60.72C100.48 62.8 100.48 64.36 100.48 65.4C100.48 66.43 100.48 67.99 100.48 70.07C100.48 72.14 100.48 74.48 100.48 77.07C100.48 79.67 100.48 81.49 100.48 82.52C100.48 83.56 100.48 84.34 100.48 84.86C100.48 85.38 100.48 85.9 100.48 86.42M101.84 109L101.84 106.66C101.84 105.1 101.84 103.29 101.84 101.21C101.84 99.13 101.84 97.06 101.84 94.98C101.84 92.9 101.84 91.35 101.84 90.31C101.84 89.27 101.84 87.97 101.84 86.42C101.84 84.86 101.84 83.56 101.84 82.52" stroke="#C4701F" stroke-opacity="1.000000" stroke-width="54.000000"/>
	<path id="Форма 100" d="M154.91 43.6L154.91 48.27C154.91 51.38 154.91 53.46 154.91 54.5C154.91 55.53 154.91 56.57 154.91 57.61C154.91 58.65 154.91 59.95 154.91 61.5C154.91 63.06 154.91 64.1 154.91 64.62C154.91 65.14 154.91 65.65 154.91 66.17C154.91 66.69 154.91 67.21 154.91 67.73M122.25 31.14L122.25 33.47C122.25 35.03 122.25 36.33 122.25 37.37C122.25 38.4 122.25 39.96 122.25 42.04C122.25 44.11 122.25 46.19 122.25 48.27C122.25 50.34 122.25 52.16 122.25 53.72C122.25 55.27 122.25 56.57 122.25 57.61C122.25 58.65 122.25 59.94 122.25 61.5C122.25 63.06 122.25 65.65 122.25 69.29C122.25 72.92 122.25 75.26 122.25 76.3C122.25 77.33 122.25 78.11 122.25 78.63M88.23 4.67L88.23 8.56C88.23 11.15 88.23 12.97 88.23 14.01C88.23 15.05 88.23 16.6 88.23 18.68C88.23 20.76 88.23 22.31 88.23 23.35C88.23 24.39 88.23 25.95 88.23 28.02C88.23 30.1 88.23 32.18 88.23 34.25C88.23 36.33 88.23 38.14 88.23 39.7C88.23 41.26 88.23 42.56 88.23 43.6C88.23 44.63 88.23 46.19 88.23 48.27C88.23 50.34 88.23 52.16 88.23 53.72C88.23 55.27 88.23 56.83 88.23 58.39C88.23 59.95 88.23 60.98 88.23 61.5C88.23 62.02 88.23 63.06 88.23 64.62C88.23 66.17 88.23 67.21 88.23 67.73C88.23 68.25 88.23 69.03 88.23 70.07C88.23 71.1 88.23 71.88 88.23 72.4C88.23 72.92 88.23 73.44 88.23 73.96C88.23 74.48 88.23 75.26 88.23 76.3C88.23 77.33 88.23 78.11 88.23 78.63C88.23 79.15 88.23 79.67 88.23 80.19C88.23 80.71 88.23 81.23 88.23 81.75C88.23 82.26 88.23 82.78 88.23 83.3C88.23 83.82 88.23 84.34 88.23 84.86C88.23 85.38 88.23 85.9 88.23 86.42C88.23 86.94 88.23 87.45 88.23 87.97C88.23 88.49 88.23 89.01 88.23 89.53C88.23 90.05 88.23 90.57 88.23 91.09C88.23 91.61 88.23 92.13 88.23 92.65M55.57 85.64L55.57 83.3C55.57 81.75 55.57 79.93 55.57 77.85C55.57 75.78 55.57 73.96 55.57 72.4C55.57 70.85 55.57 69.81 55.57 69.29C55.57 68.77 55.57 67.47 55.57 65.4C55.57 63.32 55.57 61.76 55.57 60.72C55.57 59.69 55.57 58.65 55.57 57.61C55.57 56.57 55.57 55.79 55.57 55.27C55.57 54.75 55.57 54.24 55.57 53.72C55.57 53.2 55.57 52.42 55.57 51.38M27 34.25L27 37.37C27 39.44 27 40.74 27 41.26C27 41.78 27 42.3 27 42.82C27 43.34 27 44.11 27 45.15C27 46.19 27 46.97 27 47.49C27 48.01 27 48.53 27 49.04C27 49.56 27 50.34 27 51.38C27 52.42 27 53.2 27 53.72C27 54.24 27 54.75 27 55.27" stroke="#7DCBA9" stroke-opacity="1.000000" stroke-width="54.000000"/>
</svg>
