<svg width="1342.522461" height="1080.836914" viewBox="0 0 1342.52 1080.84" fill="none" xmlns="http://www.w3.org/2000/svg" xmlns:xlink="http://www.w3.org/1999/xlink">
	<desc>
			Created with Pixso.
	</desc>
	<defs/>
	<path id="Форма 311" d="M118.14 696.15L122.17 696.15C124.85 696.15 127.09 696.15 128.88 696.15C130.67 696.15 135.14 696.15 142.3 696.15C149.46 696.15 157.97 696.15 167.81 696.15C177.66 696.15 189.29 696.15 202.72 696.15C216.14 696.15 231.36 696.15 248.36 696.15C265.37 696.15 284.16 696.15 304.75 696.15C325.33 696.15 349.5 696.15 377.24 696.15C404.99 696.15 430.95 696.15 455.11 696.15C479.28 696.15 573.7 696.15 738.38 696.15C903.07 696.15 1001.07 696.15 1032.4 696.15C1063.73 696.15 1100.42 696.15 1142.49 696.15C1184.55 696.15 1208.27 696.15 1213.64 696.15" stroke="#214A81" stroke-opacity="1.000000" stroke-width="51.000000"/>
	<path id="Форма 312" d="M83.23 653.19L98 653.19C107.84 653.19 140.07 653.19 194.66 653.19C249.26 653.19 287.29 653.19 308.78 653.19C330.26 653.19 353.08 653.19 377.24 653.19C401.41 653.19 426.02 653.19 451.08 653.19C476.14 653.19 500.76 653.19 524.92 653.19C549.09 653.19 576.39 653.19 606.82 653.19C637.25 653.19 663.2 653.19 684.68 653.19C706.16 653.19 724.51 653.19 739.73 653.19C754.94 653.19 767.92 653.19 778.66 653.19" stroke="#214A81" stroke-opacity="1.000000" stroke-width="82.000000"/>
	<path id="Форма 313" d="M314.15 650.5L346.37 650.5C367.85 650.5 387.54 650.5 405.44 650.5C423.34 650.5 441.69 650.5 460.48 650.5C479.28 650.5 500.31 650.5 523.58 650.5C546.85 650.5 572.36 650.5 600.1 650.5C627.85 650.5 656.94 650.5 687.37 650.5C717.8 650.5 748.68 650.5 780 650.5C811.33 650.5 905.75 650.5 1063.28 650.5C1220.8 650.5 1306.27 650.5 1319.7 650.5C1333.12 650.5 1340.73 650.5 1342.52 650.5" stroke="#214A81" stroke-opacity="1.000000" stroke-width="82.000000"/>
	<path id="Форма 314" d="M1041.8 626.34L1000.18 626.34C972.43 626.34 953.63 626.34 943.79 626.34C933.94 626.34 923.65 626.34 912.91 626.34C902.17 626.34 888.3 626.34 871.29 626.34C854.29 626.34 835.94 626.34 816.25 626.34C796.56 626.34 776.42 626.34 755.84 626.34C735.25 626.34 707.06 626.34 671.26 626.34C635.46 626.34 605.03 626.34 579.96 626.34C554.9 626.34 524.47 626.34 488.67 626.34C452.87 626.34 396.04 626.34 318.17 626.34" stroke="#214A81" stroke-opacity="1.000000" stroke-width="82.000000"/>
	<path id="Форма 315" d="M118.14 604.85L126.19 604.85C131.56 604.85 141.86 604.85 157.07 604.85C172.29 604.85 183.47 604.85 190.63 604.85C197.79 604.85 207.64 604.85 220.17 604.85C232.7 604.85 247.91 604.85 265.82 604.85C283.72 604.85 302.06 604.85 320.86 604.85C339.65 604.85 363.37 604.85 392.01 604.85C420.65 604.85 449.29 604.85 477.93 604.85C506.57 604.85 538.35 604.85 573.25 604.85C608.16 604.85 678.86 604.85 785.37 604.85C891.88 604.85 956.32 604.85 978.69 604.85C1001.07 604.85 1020.32 604.85 1036.43 604.85C1052.54 604.85 1066.86 604.85 1079.39 604.85C1091.92 604.85 1101.76 604.85 1108.92 604.85C1116.07 604.85 1121.01 604.85 1123.68 604.85" stroke="#214A81" stroke-opacity="1.000000" stroke-width="82.000000"/>
	<path id="Форма 316" d="M150.36 505.51L154.39 505.51C157.07 505.51 159.31 505.51 161.1 505.51C162.89 505.51 166.02 505.51 170.5 505.51C174.97 505.51 186.16 505.51 204.06 505.51C221.96 505.51 238.52 505.51 253.73 505.51C268.95 505.51 287.74 505.51 310.12 505.51C332.49 505.51 359.34 505.51 390.67 505.51C422 505.51 452.87 505.51 483.3 505.51C513.73 505.51 544.61 505.51 575.94 505.51C607.26 505.51 636.35 505.51 663.2 505.51C690.05 505.51 719.14 505.51 750.47 505.51C781.79 505.51 814.01 505.51 847.13 505.51C880.24 505.51 907.09 505.51 927.68 505.51C948.26 505.51 967.51 505.51 985.41 505.51C1003.31 505.51 1022.11 505.51 1041.8 505.51C1061.49 505.51 1102.21 505.51 1163.97 505.51C1225.72 505.51 1260.18 505.51 1267.34 505.51" stroke="#214A81" stroke-opacity="1.000000" stroke-width="82.000000"/>
	<path id="Форма 317" d="M174.52 551.15L179.89 551.15C183.47 551.15 185.71 551.15 186.61 551.15C187.5 551.15 191.08 551.15 197.35 551.15C203.61 551.15 212.56 551.15 224.2 551.15C235.83 551.15 251.49 551.15 271.19 551.15C290.88 551.15 311.01 551.15 331.6 551.15C352.18 551.15 380.82 551.15 417.52 551.15C454.22 551.15 490.02 551.15 524.92 551.15C559.83 551.15 652.46 551.15 802.82 551.15C953.19 551.15 1047.62 551.15 1086.1 551.15C1124.59 551.15 1144.28 551.15 1145.17 551.15" stroke="#214A81" stroke-opacity="1.000000" stroke-width="82.000000"/>
	<path id="Форма 318" d="M150.36 433.01L154.39 433.01C157.07 433.01 159.75 433.01 162.44 433.01C165.13 433.01 169.15 433.01 174.52 433.01C179.89 433.01 191.53 433.01 209.43 433.01C227.33 433.01 248.81 433.01 273.87 433.01C298.93 433.01 326.23 433.01 355.76 433.01C385.3 433.01 485.99 433.01 657.83 433.01C829.67 433.01 942.89 433.01 997.49 433.01C1052.09 433.01 1096.84 433.01 1131.75 433.01C1166.65 433.01 1191.27 433.01 1205.59 433.01C1219.91 433.01 1229.75 433.01 1235.12 433.01" stroke="#214A81" stroke-opacity="1.000000" stroke-width="82.000000"/>
	<path id="Форма 319" d="M155.73 363.2L201.37 363.2C231.8 363.2 255.52 363.2 272.53 363.2C289.53 363.2 308.33 363.2 328.91 363.2C349.5 363.2 381.27 363.2 424.23 363.2C467.19 363.2 509.26 363.2 550.43 363.2C591.6 363.2 636.8 363.2 686.02 363.2C735.25 363.2 780.45 363.2 821.62 363.2C862.79 363.2 902.62 363.2 941.1 363.2C979.59 363.2 1013.6 363.2 1043.14 363.2C1072.68 363.2 1098.18 363.2 1119.66 363.2C1141.14 363.2 1158.6 363.2 1172.02 363.2C1185.44 363.2 1193.94 363.2 1197.53 363.2" stroke="#214A81" stroke-opacity="1.000000" stroke-width="82.000000"/>
	<path id="Форма 320" d="M314.15 312.18L353.08 312.18C379.03 312.18 396.04 312.18 404.09 312.18C412.15 312.18 426.02 312.18 445.71 312.18C465.4 312.18 491.36 312.18 523.58 312.18C555.8 312.18 587.13 312.18 617.56 312.18C647.99 312.18 675.73 312.18 700.79 312.18C725.85 312.18 750.47 312.18 774.63 312.18C798.8 312.18 819.83 312.18 837.73 312.18C855.63 312.18 875.32 312.18 896.8 312.18C918.28 312.18 937.97 312.18 955.87 312.18C973.77 312.18 989.43 312.18 1002.86 312.18C1016.29 312.18 1030.61 312.18 1045.81 312.18" stroke="#214A81" stroke-opacity="1.000000" stroke-width="82.000000"/>
	<path id="Форма 321" d="M198.69 255.8L204.06 255.8C207.64 255.8 210.32 255.8 212.11 255.8C213.9 255.8 215.25 255.8 216.14 255.8C217.04 255.8 219.27 255.8 222.85 255.8C226.43 255.8 233.59 255.8 244.33 255.8C255.07 255.8 268.5 255.8 284.61 255.8C300.72 255.8 322.65 255.8 350.39 255.8C378.14 255.8 479.28 255.8 653.8 255.8C828.33 255.8 933.5 255.8 969.3 255.8C1005.1 255.8 1031.5 255.8 1048.51 255.8C1065.52 255.8 1077.15 255.8 1083.42 255.8C1089.68 255.8 1093.71 255.8 1095.5 255.8C1097.29 255.8 1098.63 255.8 1099.53 255.8C1100.42 255.8 1101.31 255.8 1102.21 255.8" stroke="#214A81" stroke-opacity="1.000000" stroke-width="82.000000"/>
	<path id="Форма 322" d="M193.32 336.35L198.69 336.35C202.27 336.35 204.51 336.35 205.4 336.35C206.3 336.35 207.64 336.35 209.43 336.35C211.22 336.35 215.69 336.35 222.85 336.35C230.01 336.35 238.52 336.35 248.36 336.35C258.21 336.35 269.4 336.35 281.93 336.35C294.46 336.35 307.88 336.35 322.2 336.35C336.52 336.35 351.74 336.35 367.85 336.35C383.96 336.35 398.72 336.35 412.15 336.35C425.58 336.35 441.24 336.35 459.14 336.35C477.04 336.35 491.36 336.35 502.1 336.35C512.84 336.35 521.79 336.35 528.95 336.35C536.11 336.35 541.48 336.35 545.06 336.35C548.64 336.35 550.88 336.35 551.77 336.35" stroke="#214A81" stroke-opacity="1.000000" stroke-width="82.000000"/>
	<path id="Форма 323" d="M249.7 215.52L253.73 215.52C256.42 215.52 259.1 215.52 261.79 215.52C264.47 215.52 268.5 215.52 273.87 215.52C279.24 215.52 286.85 215.52 296.69 215.52C306.54 215.52 319.52 215.52 335.63 215.52C351.74 215.52 371.87 215.52 396.04 215.52C420.2 215.52 442.58 215.52 463.17 215.52C483.75 215.52 508.36 215.52 537 215.52C565.64 215.52 589.36 215.52 608.16 215.52C626.95 215.52 647.54 215.52 669.91 215.52C692.29 215.52 715.11 215.52 738.38 215.52C761.65 215.52 782.69 215.52 801.48 215.52C820.28 215.52 837.73 215.52 853.84 215.52C869.95 215.52 886.96 215.52 904.86 215.52C922.76 215.52 953.19 215.52 996.15 215.52C1039.11 215.52 1067.75 215.52 1082.06 215.52C1096.39 215.52 1105.79 215.52 1110.27 215.52C1114.74 215.52 1117.43 215.52 1118.31 215.52" stroke="#214A81" stroke-opacity="1.000000" stroke-width="82.000000"/>
	<path id="Форма 324" d="M230.91 167.19L236.28 167.19C239.86 167.19 243.89 167.19 248.36 167.19C252.84 167.19 259.1 167.19 267.16 167.19C275.21 167.19 286.85 167.19 302.06 167.19C317.28 167.19 333.84 167.19 351.74 167.19C369.64 167.19 390.22 167.19 413.49 167.19C436.76 167.19 459.14 167.19 480.62 167.19C502.1 167.19 526.71 167.19 554.46 167.19C582.2 167.19 605.47 167.19 624.27 167.19C643.06 167.19 660.96 167.19 677.97 167.19C694.97 167.19 711.98 167.19 728.99 167.19C745.99 167.19 767.02 167.19 792.08 167.19" stroke="#214A81" stroke-opacity="1.000000" stroke-width="82.000000"/>
	<path id="Форма 325" d="M1082.06 151.08L990.78 151.08C929.92 151.08 892.33 151.08 878.01 151.08C863.68 151.08 848.92 151.08 833.7 151.08C818.49 151.08 800.59 151.08 780 151.08C759.42 151.08 737.94 151.08 715.56 151.08C693.18 151.08 669.02 151.08 643.06 151.08C617.11 151.08 595.18 151.08 577.28 151.08C559.38 151.08 539.24 151.08 516.87 151.08C494.49 151.08 474.35 151.08 456.45 151.08C438.55 151.08 425.58 151.08 417.52 151.08C409.46 151.08 404.54 151.08 402.75 151.08" stroke="#214A81" stroke-opacity="1.000000" stroke-width="82.000000"/>
	<path id="Форма 326" d="M867.27 102.75L851.15 102.75C840.41 102.75 833.25 102.75 829.67 102.75C826.09 102.75 821.17 102.75 814.91 102.75C808.64 102.75 799.69 102.75 788.06 102.75C776.42 102.75 760.76 102.75 741.07 102.75C721.38 102.75 703.48 102.75 687.37 102.75C671.26 102.75 654.25 102.75 636.35 102.75C618.45 102.75 597.87 102.75 574.59 102.75C551.32 102.75 524.92 102.75 495.39 102.75C465.85 102.75 437.21 102.75 409.46 102.75C381.72 102.75 352.18 102.75 320.86 102.75C289.53 102.75 262.24 102.75 238.96 102.75C215.69 102.75 194.21 102.75 174.52 102.75C154.83 102.75 140.96 102.75 132.91 102.75C124.85 102.75 118.59 102.75 114.11 102.75" stroke="#214A81" stroke-opacity="1.000000" stroke-width="82.000000"/>
	<path id="Форма 327" d="M83.23 207.47L91.29 207.47C96.66 207.47 129.33 207.47 189.29 207.47C249.26 207.47 288.19 207.47 306.09 207.47C323.99 207.47 348.6 207.47 379.93 207.47C411.25 207.47 445.27 207.47 481.96 207.47C518.66 207.47 550.43 207.47 577.28 207.47C604.13 207.47 626.51 207.47 644.41 207.47C662.31 207.47 674.39 207.47 680.65 207.47C686.92 207.47 690.5 207.47 691.39 207.47C692.29 207.47 692.29 207.47 691.39 207.47" stroke="#214A81" stroke-opacity="1.000000" stroke-width="82.000000"/>
	<path id="Форма 328" d="M85.92 282.65L91.29 282.65C94.87 282.65 114.56 282.65 150.36 282.65C186.16 282.65 209.43 282.65 220.17 282.65C230.91 282.65 247.47 282.65 269.84 282.65C292.22 282.65 313.7 282.65 334.28 282.65C354.87 282.65 374.11 282.65 392.01 282.65C409.91 282.65 421.55 282.65 426.92 282.65C432.29 282.65 441.24 282.65 453.77 282.65C466.3 282.65 475.7 282.65 481.96 282.65C488.23 282.65 491.81 282.65 492.7 282.65" stroke="#214A81" stroke-opacity="1.000000" stroke-width="82.000000"/>
	<path id="Форма 329" d="M0 357.83L24.16 357.83C40.27 357.83 50.56 357.83 55.04 357.83C59.51 357.83 66.23 357.83 75.18 357.83C84.13 357.83 95.31 357.83 108.74 357.83C122.17 357.83 139.62 357.83 161.1 357.83C182.58 357.83 204.51 357.83 226.88 357.83C249.26 357.83 271.63 357.83 294.01 357.83C316.38 357.83 331.15 357.83 338.31 357.83C345.47 357.83 358.45 357.83 377.24 357.83C396.04 357.83 413.49 357.83 429.6 357.83C445.71 357.83 458.24 357.83 467.19 357.83C476.14 357.83 482.41 357.83 485.99 357.83" stroke="#214A81" stroke-opacity="1.000000" stroke-width="82.000000"/>
	<path id="Форма 330" d="M10.74 473.29L33.56 473.29C48.77 473.29 58.17 473.29 61.75 473.29C65.33 473.29 70.25 473.29 76.52 473.29C82.78 473.29 91.29 473.29 102.03 473.29C112.77 473.29 126.64 473.29 143.64 473.29C160.65 473.29 175.87 473.29 189.29 473.29C202.72 473.29 216.14 473.29 229.57 473.29C242.99 473.29 254.18 473.29 263.13 473.29C272.08 473.29 283.27 473.29 296.69 473.29" stroke="#214A81" stroke-opacity="1.000000" stroke-width="82.000000"/>
	<path id="Форма 331" d="M21.48 427.64L32.22 427.64C39.38 427.64 44.3 427.64 46.98 427.64C49.67 427.64 52.8 427.64 56.38 427.64C59.96 427.64 66.67 427.64 76.52 427.64C86.36 427.64 97.55 427.64 110.08 427.64C122.61 427.64 135.14 427.64 147.67 427.64C160.2 427.64 174.08 427.64 189.29 427.64C204.51 427.64 213.01 427.64 214.8 427.64C216.59 427.64 224.2 427.64 237.62 427.64C251.05 427.64 268.05 427.64 288.64 427.64" stroke="#214A81" stroke-opacity="1.000000" stroke-width="82.000000"/>
	<path id="Форма 332" d="M69.81 524.3L83.23 524.3C92.18 524.3 98 524.3 100.68 524.3C103.37 524.3 106.95 524.3 111.42 524.3C115.9 524.3 123.96 524.3 135.59 524.3C147.23 524.3 159.75 524.3 173.18 524.3C186.61 524.3 203.16 524.3 222.85 524.3C242.54 524.3 264.03 524.3 287.29 524.3C310.57 524.3 330.26 524.3 346.37 524.3C362.48 524.3 376.35 524.3 387.98 524.3" stroke="#214A81" stroke-opacity="1.000000" stroke-width="82.000000"/>
	<path id="Форма 333" d="M24.16 580.69L42.96 580.69C55.49 580.69 63.09 580.69 65.78 580.69C68.46 580.69 73.83 580.69 81.89 580.69C89.94 580.69 101.13 580.69 115.45 580.69C129.77 580.69 145.88 580.69 163.78 580.69C181.68 580.69 199.58 580.69 217.48 580.69C235.38 580.69 250.6 580.69 263.13 580.69C275.66 580.69 289.53 580.69 304.75 580.69" stroke="#214A81" stroke-opacity="1.000000" stroke-width="82.000000"/>
	<path id="Форма 334" d="M1342.52 612.91L1326.41 612.91C1315.67 612.91 1307.17 612.91 1300.9 612.91C1294.64 612.91 1287.93 612.91 1280.77 612.91C1273.61 612.91 1265.55 612.91 1256.6 612.91C1247.65 612.91 1237.36 612.91 1225.72 612.91C1214.09 612.91 1203.79 612.91 1194.84 612.91C1185.89 612.91 1174.71 612.91 1161.28 612.91C1147.86 612.91 1136.22 612.91 1126.38 612.91C1116.53 612.91 1106.24 612.91 1095.5 612.91" stroke="#214A81" stroke-opacity="1.000000" stroke-width="82.000000"/>
	<path id="Форма 335" d="M1286.14 502.82L1274.05 502.82C1266 502.82 1246.31 502.82 1214.98 502.82C1183.66 502.82 1163.97 502.82 1155.91 502.82C1147.86 502.82 1136.22 502.82 1121.01 502.82C1105.79 502.82 1089.68 502.82 1072.68 502.82C1055.67 502.82 1040.46 502.82 1027.03 502.82C1013.6 502.82 990.78 502.82 958.56 502.82C926.34 502.82 906.65 502.82 899.49 502.82" stroke="#214A81" stroke-opacity="1.000000" stroke-width="82.000000"/>
	<path id="Форма 336" d="M1280.77 433.01L1271.37 433.01C1265.1 433.01 1261.07 433.01 1259.29 433.01C1257.5 433.01 1255.71 433.01 1253.92 433.01C1252.13 433.01 1248.99 433.01 1244.52 433.01C1240.04 433.01 1232.88 433.01 1223.04 433.01C1213.18 433.01 1203.8 433.01 1194.84 433.01C1185.9 433.01 1176.5 433.01 1166.65 433.01C1156.81 433.01 1145.62 433.01 1133.09 433.01C1120.56 433.01 1107.13 433.01 1092.81 433.01C1078.49 433.01 1065.96 433.01 1055.22 433.01C1044.48 433.01 1026.57 433.01 1001.52 433.01C976.46 433.01 963.48 433.01 962.58 433.01" stroke="#214A81" stroke-opacity="1.000000" stroke-width="82.000000"/>
	<path id="Форма 337" d="M1294.18 333.67L1252.56 333.67C1224.82 333.67 1207.38 333.67 1200.22 333.67C1193.06 333.67 1185.9 333.67 1178.74 333.67C1171.56 333.67 1160.82 333.67 1146.51 333.67C1132.18 333.67 1117.87 333.67 1103.55 333.67C1089.23 333.67 1076.69 333.67 1065.96 333.67C1055.22 333.67 1044.48 333.67 1033.74 333.67C1023 333.67 1013.6 333.67 1005.55 333.67C997.49 333.67 988.99 333.67 980.04 333.67C971.09 333.67 963.93 333.67 958.56 333.67C953.19 333.67 948.26 333.67 943.79 333.67C939.31 333.67 936.18 333.67 934.39 333.67C932.6 333.67 931.26 333.67 930.36 333.67" stroke="#214A81" stroke-opacity="1.000000" stroke-width="82.000000"/>
	<path id="Форма 338" d="M1278.07 279.96L1243.18 279.96C1219.91 279.96 1206.03 279.96 1201.56 279.96C1197.07 279.96 1192.61 279.96 1188.13 279.96C1183.66 279.96 1177.39 279.96 1169.34 279.96C1161.28 279.96 1152.32 279.96 1142.49 279.96C1132.64 279.96 1121.01 279.96 1107.57 279.96C1094.16 279.96 1080.73 279.96 1067.31 279.96C1053.88 279.96 1043.59 279.96 1036.43 279.96C1029.27 279.96 1021.21 279.96 1012.26 279.96C1003.31 279.96 983.62 279.96 953.19 279.96" stroke="#214A81" stroke-opacity="1.000000" stroke-width="82.000000"/>
	<path id="Форма 339" d="M1261.97 220.89L1256.6 220.89C1253.02 220.89 1229.75 220.89 1186.79 220.89C1143.82 220.89 1115.64 220.89 1102.21 220.89C1088.79 220.89 1073.56 220.89 1056.56 220.89C1039.56 220.89 1023.9 220.89 1009.58 220.89C995.25 220.89 979.59 220.89 962.58 220.89C945.58 220.89 929.02 220.89 912.91 220.89C896.8 220.89 882.48 220.89 869.95 220.89C857.42 220.89 845.34 220.89 833.7 220.89" stroke="#214A81" stroke-opacity="1.000000" stroke-width="82.000000"/>
	<path id="Форма 340" d="M1256.6 156.45L1240.49 156.45C1229.75 156.45 1197.53 156.45 1143.82 156.45C1090.13 156.45 1059.25 156.45 1051.19 156.45C1043.14 156.45 1031.94 156.45 1017.63 156.45C1003.31 156.45 988.99 156.45 974.67 156.45C960.35 156.45 948.26 156.45 938.42 156.45C928.57 156.45 919.62 156.45 911.57 156.45C903.51 156.45 896.35 156.45 890.09 156.45C883.82 156.45 879.8 156.45 878.01 156.45" stroke="#214A81" stroke-opacity="1.000000" stroke-width="82.000000"/>
	<path id="Форма 341" d="M1227.06 100.07L1223.04 100.07C1220.35 100.07 1188.57 100.07 1127.72 100.07C1066.86 100.07 1031.06 100.07 1020.32 100.07C1009.58 100.07 996.59 100.07 981.38 100.07C966.16 100.07 950.05 100.07 933.05 100.07C916.04 100.07 900.83 100.07 887.4 100.07C873.98 100.07 859.66 100.07 844.44 100.07C829.23 100.07 817.14 100.07 808.19 100.07C799.24 100.07 792.08 100.07 786.71 100.07C781.34 100.07 776.87 100.07 773.29 100.07C769.71 100.07 767.47 100.07 766.58 100.07" stroke="#214A81" stroke-opacity="1.000000" stroke-width="82.000000"/>
	<path id="Форма 342" d="M1133.09 41L1127.72 41C1124.14 41 1102.66 41 1063.28 41C1023.9 41 998.83 41 988.09 41C977.35 41 963.03 41 945.13 41C927.23 41 912.46 41 900.83 41C889.19 41 873.53 41 853.84 41C834.15 41 817.59 41 804.17 41C790.74 41 777.32 41 763.89 41C750.47 41 737.04 41 723.62 41C710.19 41 695.87 41 680.65 41C665.44 41 652.01 41 640.38 41C628.74 41 590.26 41 524.92 41C459.59 41 411.25 41 379.93 41C348.6 41 318.62 41 289.98 41C261.34 41 238.52 41 221.51 41C204.51 41 192.42 41 185.26 41" stroke="#214A81" stroke-opacity="1.000000" stroke-width="82.000000"/>
	<path id="Форма 343" d="M45.64 725.68L51.01 725.68C54.59 725.68 56.83 725.68 57.72 725.68C58.62 725.68 60.86 725.68 64.44 725.68C68.02 725.68 71.6 725.68 75.18 725.68C78.76 725.68 83.68 725.68 89.94 725.68C96.21 725.68 103.37 725.68 111.42 725.68C119.48 725.68 128.43 725.68 138.28 725.68C148.12 725.68 158.86 725.68 170.5 725.68C182.13 725.68 197.35 725.68 216.14 725.68C234.94 725.68 252.84 725.68 269.84 725.68C286.85 725.68 342.34 725.68 436.32 725.68C530.29 725.68 586.68 725.68 605.47 725.68C624.27 725.68 642.62 725.68 660.52 725.68C678.42 725.68 692.74 725.68 703.48 725.68C714.22 725.68 725.85 725.68 738.38 725.68C750.91 725.68 763 725.68 774.63 725.68C786.27 725.68 795.66 725.68 802.82 725.68C809.98 725.68 818.49 725.68 828.33 725.68C838.18 725.68 847.13 725.68 855.18 725.68C863.24 725.68 877.11 725.68 896.8 725.68C916.49 725.68 930.36 725.68 938.42 725.68C946.47 725.68 952.29 725.68 955.87 725.68C959.45 725.68 963.03 725.68 966.61 725.68C970.19 725.68 973.77 725.68 977.35 725.68C980.93 725.68 983.62 725.68 985.41 725.68" stroke="#214A81" stroke-opacity="1.000000" stroke-width="82.000000"/>
	<path id="Форма 344" d="M126.19 800.86L136.93 800.86C144.09 800.86 149.46 800.86 153.04 800.86C156.62 800.86 161.55 800.86 167.81 800.86C174.08 800.86 182.58 800.86 193.32 800.86C204.06 800.86 216.59 800.86 230.91 800.86C245.23 800.86 260.89 800.86 277.9 800.86C294.9 800.86 311.91 800.86 328.91 800.86C345.92 800.86 365.16 800.86 386.64 800.86C408.12 800.86 427.81 800.86 445.71 800.86C463.61 800.86 519.55 800.86 613.53 800.86C707.51 800.86 767.92 800.86 794.77 800.86C821.62 800.86 840.86 800.86 852.5 800.86C864.13 800.86 877.11 800.86 891.43 800.86C905.75 800.86 915.15 800.86 919.62 800.86C924.1 800.86 927.23 800.86 929.02 800.86C930.81 800.86 932.6 800.86 934.39 800.86C936.18 800.86 937.97 800.86 939.76 800.86C941.55 800.86 943.34 800.86 945.13 800.86C946.92 800.86 948.26 800.86 949.16 800.86" stroke="#214A81" stroke-opacity="1.000000" stroke-width="82.000000"/>
	<path id="Форма 345" d="M1259.29 768.64L1239.15 768.64C1225.72 768.64 1217.67 768.64 1214.98 768.64C1212.3 768.64 1208.27 768.64 1202.9 768.64C1197.53 768.64 1191.27 768.64 1184.1 768.64C1176.94 768.64 1169.34 768.64 1161.28 768.64C1153.23 768.64 1144.28 768.64 1134.43 768.64C1124.59 768.64 1112.5 768.64 1098.18 768.64C1083.86 768.64 1070.89 768.64 1059.25 768.64C1047.62 768.64 1034.18 768.64 1018.98 768.64C1003.76 768.64 955.87 768.64 875.32 768.64C794.77 768.64 748.68 768.64 737.04 768.64" stroke="#214A81" stroke-opacity="1.000000" stroke-width="82.000000"/>
	<path id="Форма 346" d="M1337.15 859.93L1310.3 859.93C1292.4 859.93 1279.87 859.93 1272.71 859.93C1265.55 859.93 1256.15 859.93 1244.52 859.93C1232.88 859.93 1222.14 859.93 1212.3 859.93C1202.44 859.93 1191.26 859.93 1178.73 859.93C1166.19 859.93 1154.12 859.93 1142.49 859.93C1130.85 859.93 1118.77 859.93 1106.24 859.93C1093.71 859.93 1080.73 859.93 1067.31 859.93C1053.88 859.93 1020.76 859.93 967.95 859.93C915.15 859.93 879.35 859.93 860.55 859.93C841.76 859.93 824.3 859.93 808.19 859.93C792.08 859.93 780 859.93 771.95 859.93C763.89 859.93 756.73 859.93 750.47 859.93C744.2 859.93 736.59 859.93 727.64 859.93C718.69 859.93 710.19 859.93 702.13 859.93C694.08 859.93 688.26 859.93 684.68 859.93C681.1 859.93 675.28 859.93 667.23 859.93C659.17 859.93 652.46 859.93 647.09 859.93C641.72 859.93 635.46 859.93 628.3 859.93C621.14 859.93 614.42 859.93 608.16 859.93C601.89 859.93 594.73 859.93 586.68 859.93C578.62 859.93 570.57 859.93 562.51 859.93C554.46 859.93 547.74 859.93 542.37 859.93C537 859.93 530.29 859.93 522.24 859.93C514.18 859.93 506.13 859.93 498.07 859.93C490.02 859.93 481.51 859.93 472.56 859.93C463.61 859.93 457.8 859.93 455.11 859.93C452.43 859.93 448.4 859.93 443.03 859.93C437.66 859.93 432.29 859.93 426.92 859.93C421.55 859.93 415.73 859.93 409.46 859.93C403.2 859.93 398.72 859.93 396.04 859.93C393.35 859.93 388.43 859.93 381.27 859.93C374.11 859.93 367.4 859.93 361.13 859.93C354.87 859.93 348.6 859.93 342.34 859.93C336.07 859.93 330.7 859.93 326.23 859.93C321.75 859.93 315.04 859.93 306.09 859.93C297.14 859.93 290.88 859.93 287.29 859.93C283.71 859.93 279.24 859.93 273.87 859.93C268.5 859.93 264.02 859.93 260.44 859.93C256.86 859.93 253.73 859.93 251.05 859.93C248.36 859.93 246.12 859.93 244.33 859.93C242.54 859.93 240.75 859.93 238.96 859.93C237.17 859.93 234.04 859.93 229.57 859.93C225.09 859.93 221.51 859.93 218.83 859.93C216.14 859.93 213.46 859.93 210.77 859.93C208.09 859.93 204.06 859.93 198.69 859.93C193.32 859.93 188.4 859.93 183.92 859.93C179.45 859.93 175.42 859.93 171.84 859.93C168.26 859.93 165.13 859.93 162.44 859.93C159.75 859.93 157.07 859.93 154.39 859.93C151.7 859.93 149.46 859.93 147.67 859.93C145.88 859.93 144.09 859.93 142.3 859.93C140.51 859.93 139.17 859.93 138.28 859.93C137.38 859.93 136.49 859.93 135.59 859.93C134.69 859.93 133.35 859.93 131.56 859.93C129.77 859.93 128.43 859.93 127.54 859.93C126.64 859.93 125.3 859.93 123.51 859.93" stroke="#214A81" stroke-opacity="1.000000" stroke-width="82.000000"/>
	<path id="Форма 347" d="M1339.84 819.66L1331.78 819.66C1326.41 819.66 1305.38 819.66 1268.68 819.66C1231.99 819.66 1210.51 819.66 1204.24 819.66C1197.98 819.66 1189.03 819.66 1177.39 819.66C1165.76 819.66 1151.88 819.66 1135.77 819.66C1119.66 819.66 1105.34 819.66 1092.81 819.66C1080.28 819.66 1067.31 819.66 1053.88 819.66C1040.46 819.66 1027.48 819.66 1014.95 819.66C1002.42 819.66 989.88 819.66 977.35 819.66C964.82 819.66 935.29 819.66 888.75 819.66C842.2 819.66 816.25 819.66 810.88 819.66" stroke="#214A81" stroke-opacity="1.000000" stroke-width="82.000000"/>
	<path id="Форма 348" d="M1283.44 733.74L1270.03 733.74C1261.07 733.74 1244.97 733.74 1221.69 733.74C1198.43 733.74 1182.31 733.74 1173.36 733.74C1164.41 733.74 1155.02 733.74 1145.17 733.74C1135.32 733.74 1125.03 733.74 1114.29 733.74C1103.55 733.74 1092.37 733.74 1080.73 733.74C1069.1 733.74 1057.01 733.74 1044.48 733.74C1031.94 733.74 1019.42 733.74 1006.89 733.74C994.36 733.74 981.83 733.74 969.3 733.74C956.77 733.74 942.89 733.74 927.68 733.74C912.46 733.74 885.61 733.74 847.13 733.74C808.64 733.74 788.5 733.74 786.71 733.74" stroke="#214A81" stroke-opacity="1.000000" stroke-width="82.000000"/>
	<path id="Форма 349" d="M1264.66 561.89L1244.52 561.89C1231.09 561.89 1216.77 561.89 1201.56 561.89C1186.34 561.89 1176.5 561.89 1172.02 561.89C1167.55 561.89 1159.93 561.89 1149.19 561.89C1138.46 561.89 1126.38 561.89 1112.94 561.89C1099.53 561.89 1087.43 561.89 1076.69 561.89C1065.96 561.89 1054.78 561.89 1043.14 561.89C1031.5 561.89 1019.87 561.89 1008.23 561.89C996.59 561.89 984.96 561.89 973.32 561.89C961.69 561.89 951.4 561.89 942.45 561.89C933.5 561.89 924.55 561.89 915.6 561.89C906.65 561.89 898.59 561.89 891.43 561.89C884.27 561.89 878.01 561.89 872.64 561.89C867.27 561.89 862.34 561.89 857.87 561.89C853.39 561.89 847.57 561.89 840.41 561.89" stroke="#214A81" stroke-opacity="1.000000" stroke-width="82.000000"/>
	<path id="Форма 350" d="M37.59 816.97L42.96 816.97C46.54 816.97 57.72 816.97 76.52 816.97C95.31 816.97 108.29 816.97 115.45 816.97C122.61 816.97 129.33 816.97 135.59 816.97" stroke="#214A81" stroke-opacity="1.000000" stroke-width="82.000000"/>
	<path id="Форма 351" d="M67.12 876.04L72.49 876.04C76.07 876.04 78.31 876.04 79.2 876.04C80.1 876.04 80.99 876.04 81.89 876.04C82.78 876.04 83.68 876.04 84.57 876.04C85.47 876.04 87.26 876.04 89.94 876.04C92.63 876.04 96.66 876.04 102.03 876.04C107.4 876.04 113.21 876.04 119.48 876.04C125.75 876.04 131.56 876.04 136.93 876.04C142.3 876.04 148.12 876.04 154.39 876.04C160.65 876.04 167.36 876.04 174.52 876.04C181.68 876.04 194.66 876.04 213.46 876.04" stroke="#214A81" stroke-opacity="1.000000" stroke-width="82.000000"/>
	<path id="Форма 352" d="M40.27 964.65L44.3 964.65C46.98 964.65 55.04 964.65 68.46 964.65C81.89 964.65 92.18 964.65 99.34 964.65C106.5 964.65 120.38 964.65 140.96 964.65C161.55 964.65 179.89 964.65 196 964.65C212.11 964.65 226.88 964.65 240.31 964.65C253.73 964.65 266.26 964.65 277.9 964.65C289.53 964.65 301.17 964.65 312.8 964.65C324.44 964.65 335.18 964.65 345.02 964.65C354.87 964.65 378.59 964.65 416.18 964.65C453.77 964.65 477.49 964.65 487.33 964.65C497.18 964.65 506.13 964.65 514.18 964.65C522.24 964.65 529.4 964.65 535.66 964.65C541.93 964.65 546.85 964.65 550.43 964.65C554.01 964.65 557.14 964.65 559.83 964.65C562.51 964.65 567.44 964.65 574.59 964.65C581.76 964.65 587.13 964.65 590.71 964.65C594.28 964.65 598.76 964.65 604.13 964.65C609.5 964.65 614.87 964.65 620.24 964.65C625.61 964.65 630.98 964.65 636.35 964.65C641.72 964.65 647.54 964.65 653.8 964.65C660.07 964.65 664.99 964.65 668.57 964.65C672.15 964.65 679.31 964.65 690.05 964.65C700.79 964.65 708.4 964.65 712.88 964.65C717.35 964.65 723.17 964.65 730.33 964.65C737.49 964.65 745.99 964.65 755.84 964.65C765.68 964.65 775.08 964.65 784.03 964.65C792.98 964.65 806.85 964.65 825.65 964.65C844.44 964.65 855.63 964.65 859.21 964.65C862.79 964.65 865.92 964.65 868.61 964.65C871.29 964.65 873.08 964.65 873.98 964.65C874.87 964.65 875.77 964.65 876.66 964.65C877.56 964.65 878.9 964.65 880.69 964.65C882.48 964.65 883.82 964.65 884.72 964.65C885.61 964.65 886.96 964.65 888.75 964.65C890.54 964.65 892.33 964.65 894.12 964.65C895.91 964.65 898.14 964.65 900.83 964.65C903.51 964.65 906.2 964.65 908.88 964.65C911.57 964.65 915.15 964.65 919.62 964.65C924.1 964.65 929.47 964.65 935.73 964.65C942 964.65 948.71 964.65 955.87 964.65C963.03 964.65 970.19 964.65 977.35 964.65C984.51 964.65 991.67 964.65 998.83 964.65C1006 964.65 1012.71 964.65 1018.97 964.65C1025.24 964.65 1031.5 964.65 1037.77 964.65C1044.04 964.65 1050.3 964.65 1056.56 964.65C1062.82 964.65 1069.1 964.65 1075.36 964.65C1081.63 964.65 1087 964.65 1091.47 964.65C1095.94 964.65 1101.31 964.65 1107.57 964.65C1113.85 964.65 1120.56 964.65 1127.72 964.65C1134.88 964.65 1141.59 964.65 1147.86 964.65C1154.12 964.65 1160.39 964.65 1166.65 964.65C1172.92 964.65 1179.63 964.65 1186.79 964.65C1193.94 964.65 1199.31 964.65 1202.9 964.65C1206.48 964.65 1209.17 964.65 1210.96 964.65C1212.75 964.65 1214.09 964.65 1214.98 964.65C1215.88 964.65 1216.77 964.65 1217.67 964.65C1218.56 964.65 1220.8 964.65 1224.38 964.65C1227.96 964.65 1229.3 964.65 1228.41 964.65" stroke="#214A81" stroke-opacity="1.000000" stroke-width="82.000000"/>
	<path id="Форма 353" d="M1267.34 916.32L1256.6 916.32C1249.43 916.32 1244.52 916.32 1241.82 916.32C1239.15 916.32 1235.12 916.32 1229.75 916.32C1224.38 916.32 1218.12 916.32 1210.96 916.32C1203.8 916.32 1196.64 916.32 1189.47 916.32C1182.31 916.32 1173.81 916.32 1163.97 916.32C1154.12 916.32 1144.28 916.32 1134.43 916.32C1124.59 916.32 1112.5 916.32 1098.18 916.32C1083.86 916.32 1072.23 916.32 1063.28 916.32C1054.32 916.32 1041.35 916.32 1024.34 916.32C1007.34 916.32 991.67 916.32 977.35 916.32C963.03 916.32 948.26 916.32 933.05 916.32C917.83 916.32 903.07 916.32 888.75 916.32C874.43 916.32 836.39 916.32 774.63 916.32C712.87 916.32 674.39 916.32 659.17 916.32C643.96 916.32 630.98 916.32 620.24 916.32C609.5 916.32 601 916.32 594.73 916.32C588.47 916.32 582.65 916.32 577.28 916.32C571.91 916.32 566.99 916.32 562.51 916.32C558.04 916.32 551.77 916.32 543.72 916.32C535.66 916.32 527.61 916.32 519.55 916.32C511.5 916.32 501.2 916.32 488.67 916.32C476.14 916.32 466.3 916.32 459.14 916.32C451.98 916.32 443.03 916.32 432.29 916.32C421.55 916.32 410.36 916.32 398.72 916.32C387.09 916.32 374.56 916.32 361.13 916.32C347.71 916.32 335.63 916.32 324.89 916.32C314.15 916.32 303.41 916.32 292.67 916.32C281.93 916.32 272.08 916.32 263.13 916.32C254.18 916.32 244.78 916.32 234.94 916.32C225.09 916.32 210.77 916.32 191.98 916.32C173.18 916.32 161.55 916.32 157.07 916.32C152.6 916.32 148.57 916.32 144.99 916.32C141.41 916.32 137.83 916.32 134.25 916.32C130.67 916.32 128.43 916.32 127.54 916.32C126.64 916.32 124.4 916.32 120.82 916.32C117.24 916.32 115.01 916.32 114.11 916.32C113.21 916.32 111.87 916.32 110.08 916.32C108.29 916.32 106.05 916.32 103.37 916.32C100.68 916.32 98.89 916.32 98 916.32C97.1 916.32 95.76 916.32 93.97 916.32C92.18 916.32 90.39 916.32 88.6 916.32" stroke="#214A81" stroke-opacity="1.000000" stroke-width="82.000000"/>
	<path id="Форма 354" d="M1283.44 1004.93L1263.31 1004.93C1249.89 1004.93 1241.82 1004.93 1239.15 1004.93C1236.46 1004.93 1232.88 1004.93 1228.41 1004.93C1223.93 1004.93 1219.01 1004.93 1213.64 1004.93C1208.27 1004.93 1202.9 1004.93 1197.53 1004.93C1192.16 1004.93 1185.9 1004.93 1178.74 1004.93C1171.57 1004.93 1163.52 1004.93 1154.56 1004.93C1145.62 1004.93 1137.56 1004.93 1130.4 1004.93C1123.24 1004.93 1104.44 1004.93 1074.02 1004.93" stroke="#214A81" stroke-opacity="1.000000" stroke-width="82.000000"/>
	<path id="Форма 355" d="M1302.25 978.08L1291.51 978.08C1284.35 978.08 1273.61 978.08 1259.29 978.08C1244.97 978.08 1234.23 978.08 1227.06 978.08C1219.91 978.08 1211.85 978.08 1202.9 978.08C1193.94 978.08 1184.1 978.08 1173.36 978.08C1162.62 978.08 1151.88 978.08 1141.14 978.08C1130.4 978.08 1120.11 978.08 1110.27 978.08C1100.42 978.08 1091.47 978.08 1083.42 978.08C1075.36 978.08 1067.75 978.08 1060.59 978.08C1053.43 978.08 1046.27 978.08 1039.11 978.08C1031.94 978.08 1027.03 978.08 1024.34 978.08C1021.66 978.08 1019.42 978.08 1017.63 978.08C1015.84 978.08 1014.5 978.08 1013.6 978.08" stroke="#214A81" stroke-opacity="1.000000" stroke-width="82.000000"/>
	<path id="Форма 356" d="M99.34 1039.84L106.05 1039.84C110.53 1039.84 114.11 1039.84 116.8 1039.84C119.48 1039.84 123.96 1039.84 130.22 1039.84C136.49 1039.84 143.2 1039.84 150.36 1039.84C157.52 1039.84 166.47 1039.84 177.21 1039.84C187.95 1039.84 198.24 1039.84 208.09 1039.84C217.93 1039.84 228.22 1039.84 238.96 1039.84C249.7 1039.84 260.89 1039.84 272.53 1039.84C284.16 1039.84 295.8 1039.84 307.43 1039.84C319.07 1039.84 331.15 1039.84 343.68 1039.84C356.21 1039.84 369.19 1039.84 382.61 1039.84C396.04 1039.84 423.34 1039.84 464.51 1039.84C505.68 1039.84 535.66 1039.84 554.46 1039.84C573.25 1039.84 590.26 1039.84 605.47 1039.84C620.69 1039.84 632.77 1039.84 641.72 1039.84C650.67 1039.84 662.31 1039.84 676.63 1039.84C690.95 1039.84 701.24 1039.84 707.51 1039.84C713.77 1039.84 720.04 1039.84 726.3 1039.84C732.57 1039.84 739.73 1039.84 747.78 1039.84C755.84 1039.84 763.89 1039.84 771.95 1039.84C780 1039.84 788.06 1039.84 796.11 1039.84C804.17 1039.84 812.67 1039.84 821.62 1039.84C830.57 1039.84 839.52 1039.84 848.47 1039.84C857.42 1039.84 866.82 1039.84 876.66 1039.84C886.51 1039.84 895.46 1039.84 903.51 1039.84C911.57 1039.84 919.18 1039.84 926.34 1039.84C933.5 1039.84 940.21 1039.84 946.47 1039.84C952.74 1039.84 960.35 1039.84 969.3 1039.84C978.25 1039.84 984.96 1039.84 989.43 1039.84C993.91 1039.84 998.83 1039.84 1004.21 1039.84C1009.58 1039.84 1014.5 1039.84 1018.97 1039.84C1023.45 1039.84 1027.03 1039.84 1029.71 1039.84C1032.4 1039.84 1034.64 1039.84 1036.43 1039.84C1038.22 1039.84 1041.35 1039.84 1045.81 1039.84C1050.3 1039.84 1053.43 1039.84 1055.22 1039.84C1057.01 1039.84 1058.8 1039.84 1060.59 1039.84C1062.38 1039.84 1064.17 1039.84 1065.96 1039.84C1067.75 1039.84 1069.54 1039.84 1071.32 1039.84C1073.12 1039.84 1074.91 1039.84 1076.69 1039.84C1078.49 1039.84 1079.84 1039.84 1080.73 1039.84C1081.63 1039.84 1082.97 1039.84 1084.76 1039.84C1086.55 1039.84 1088.79 1039.84 1091.47 1039.84C1094.16 1039.84 1095.94 1039.84 1096.84 1039.84C1097.74 1039.84 1098.63 1039.84 1099.53 1039.84C1100.42 1039.84 1101.31 1039.84 1102.21 1039.84C1103.11 1039.84 1104 1039.84 1104.9 1039.84C1105.79 1039.84 1106.68 1039.84 1107.57 1039.84C1108.48 1039.84 1109.81 1039.84 1111.61 1039.84C1113.4 1039.84 1115.18 1039.84 1116.98 1039.84C1118.77 1039.84 1120.11 1039.84 1121.01 1039.84C1121.9 1039.84 1122.8 1039.84 1123.68 1039.84C1124.59 1039.84 1125.48 1039.84 1126.38 1039.84C1127.27 1039.84 1128.17 1039.84 1129.06 1039.84C1129.96 1039.84 1131.3 1039.84 1133.09 1039.84C1134.88 1039.84 1136.67 1039.84 1138.46 1039.84C1140.25 1039.84 1141.59 1039.84 1142.49 1039.84C1143.38 1039.84 1144.28 1039.84 1145.17 1039.84C1146.06 1039.84 1147.41 1039.84 1149.19 1039.84C1150.99 1039.84 1153.67 1039.84 1157.25 1039.84C1160.82 1039.84 1163.52 1039.84 1165.31 1039.84C1167.1 1039.84 1168.89 1039.84 1170.68 1039.84C1172.47 1039.84 1174.71 1039.84 1177.39 1039.84C1180.07 1039.84 1182.31 1039.84 1184.1 1039.84C1185.9 1039.84 1187.24 1039.84 1188.13 1039.84C1189.03 1039.84 1190.37 1039.84 1192.16 1039.84C1193.94 1039.84 1195.29 1039.84 1196.18 1039.84C1197.07 1039.84 1198.43 1039.84 1200.22 1039.84C1202.01 1039.84 1203.35 1039.84 1204.24 1039.84C1205.14 1039.84 1206.03 1039.84 1206.93 1039.84C1207.81 1039.84 1208.72 1039.84 1209.61 1039.84C1210.51 1039.84 1211.4 1039.84 1212.3 1039.84C1213.18 1039.84 1214.09 1039.84 1214.98 1039.84C1215.88 1039.84 1216.77 1039.84 1217.67 1039.84" stroke="#214A81" stroke-opacity="1.000000" stroke-width="82.000000"/>
	<path id="Форма 357" d="M335.63 881.41L341 881.41C344.58 881.41 358 881.41 381.27 881.41C404.54 881.41 420.21 881.41 428.26 881.41C436.32 881.41 443.92 881.41 451.08 881.41C458.24 881.41 467.64 881.41 479.28 881.41C490.91 881.41 502.1 881.41 512.84 881.41C523.58 881.41 534.77 881.41 546.4 881.41C558.04 881.41 569.23 881.41 579.96 881.41C590.71 881.41 618.45 881.41 663.2 881.41C707.95 881.41 733.46 881.41 739.73 881.41C745.99 881.41 751.36 881.41 755.84 881.41C760.31 881.41 763.89 881.41 766.58 881.41C769.26 881.41 771.05 881.41 771.95 881.41" stroke="#214A81" stroke-opacity="1.000000" stroke-width="82.000000"/>
	<path id="Форма 419" d="M257.43 321.27L270.57 321.27C279.33 321.27 286.45 321.27 291.93 321.27C297.4 321.27 305.61 321.27 316.56 321.27C327.51 321.27 335.73 321.27 341.2 321.27C346.68 321.27 352.7 321.27 359.27 321.27C365.84 321.27 374.05 321.27 383.91 321.27C393.76 321.27 403.07 321.27 411.83 321.27C420.59 321.27 429.9 321.27 439.75 321.27C449.61 321.27 460.56 321.27 472.6 321.27C484.65 321.27 495.05 321.27 503.81 321.27C512.57 321.27 528.99 321.27 553.08 321.27" stroke="#255391" stroke-opacity="1.000000" stroke-width="160.000000"/>
	<path id="Форма 420" d="M175.31 436.25L188.45 436.25C197.21 436.25 202.68 436.25 204.87 436.25C207.06 436.25 213.09 436.25 222.94 436.25C232.8 436.25 241.01 436.25 247.58 436.25C254.15 436.25 264 436.25 277.14 436.25C290.28 436.25 302.33 436.25 313.28 436.25C324.23 436.25 333.54 436.25 341.2 436.25C348.87 436.25 358.17 436.25 369.12 436.25C380.07 436.25 391.57 436.25 403.62 436.25C415.66 436.25 428.8 436.25 443.04 436.25C457.27 436.25 478.08 436.25 505.45 436.25C532.83 436.25 547.06 436.25 548.16 436.25" stroke="#255391" stroke-opacity="1.000000" stroke-width="160.000000"/>
	<path id="Форма 421" d="M1081.97 623.49L1075.4 623.49C1071.02 623.49 1060.06 623.49 1042.55 623.49C1025.03 623.49 1011.89 623.49 1003.13 623.49C994.37 623.49 988.35 623.49 985.06 623.49C981.78 623.49 977.4 623.49 971.92 623.49C966.45 623.49 957.69 623.49 945.64 623.49C933.6 623.49 923.19 623.49 914.43 623.49C905.67 623.49 896.37 623.49 886.51 623.49C876.66 623.49 866.8 623.49 856.95 623.49C847.09 623.49 826.29 623.49 794.53 623.49C762.78 623.49 746.35 623.49 745.26 623.49" stroke="#255391" stroke-opacity="1.000000" stroke-width="160.000000"/>
	<path id="Форма 422" d="M1098.4 406.68L1086.9 406.68C1079.24 406.68 1065 406.68 1044.19 406.68C1023.39 406.68 1008.61 406.68 999.84 406.68C991.08 406.68 983.42 406.68 976.85 406.68C970.28 406.68 963.71 406.68 957.14 406.68C950.57 406.68 945.64 406.68 942.36 406.68C939.07 406.68 935.79 406.68 932.5 406.68C929.22 406.68 925.38 406.68 921 406.68C916.62 406.68 913.34 406.68 911.15 406.68C908.96 406.68 905.13 406.68 899.65 406.68" stroke="#255391" stroke-opacity="1.000000" stroke-width="160.000000"/>
	<path id="Форма 423" d="M457.82 160.31L464.39 160.31C468.77 160.31 476.98 160.31 489.03 160.31C501.07 160.31 514.76 160.31 530.09 160.31C545.42 160.31 557.46 160.31 566.22 160.31C574.98 160.31 584.29 160.31 594.15 160.31C604 160.31 618.78 160.31 638.49 160.31C658.2 160.31 676.27 160.31 692.7 160.31C709.12 160.31 732.66 160.31 763.32 160.31C793.98 160.31 815.88 160.31 829.02 160.31C842.16 160.31 854.76 160.31 866.8 160.31C878.85 160.31 896.91 160.31 921 160.31C945.09 160.31 964.26 160.31 978.49 160.31" stroke="#255391" stroke-opacity="1.000000" stroke-width="160.000000"/>
	<path id="Форма 424" d="M1088.54 383.69L1081.97 383.69C1077.59 383.69 1073.21 383.69 1068.82 383.69C1064.44 383.69 1057.88 383.69 1049.12 383.69C1040.36 383.69 1033.79 383.69 1029.41 383.69C1025.03 383.69 1020.11 383.69 1014.63 383.69C1009.16 383.69 1002.59 383.69 994.92 383.69C987.25 383.69 978.49 383.69 968.64 383.69C958.78 383.69 948.93 383.69 939.07 383.69C929.22 383.69 919.36 383.69 909.51 383.69C899.65 383.69 892.53 383.69 888.15 383.69C883.77 383.69 876.66 383.69 866.8 383.69C856.95 383.69 848.73 383.69 842.16 383.69C835.59 383.69 829.57 383.69 824.1 383.69C818.62 383.69 807.67 383.69 791.25 383.69C774.82 383.69 766.06 383.69 764.97 383.69" stroke="#255391" stroke-opacity="1.000000" stroke-width="160.000000"/>
	<path id="Форма 425" d="M796.17 478.95L802.74 478.95C807.12 478.95 813.69 478.95 822.45 478.95C831.21 478.95 839.97 478.95 848.73 478.95C857.49 478.95 865.71 478.95 873.37 478.95C881.04 478.95 887.61 478.95 893.08 478.95C898.56 478.95 905.67 478.95 914.43 478.95C923.19 478.95 930.86 478.95 937.43 478.95C944 478.95 951.12 478.95 958.78 478.95C966.45 478.95 974.11 478.95 981.78 478.95C989.44 478.95 997.65 478.95 1006.42 478.95C1015.18 478.95 1023.39 478.95 1031.06 478.95C1038.72 478.95 1051.31 478.95 1068.82 478.95" stroke="#255391" stroke-opacity="1.000000" stroke-width="160.000000"/>
	<path id="Форма 426" d="M507.09 633.34L512.02 633.34C515.31 633.34 519.14 633.34 523.52 633.34C527.9 633.34 535.02 633.34 544.87 633.34C554.73 633.34 562.39 633.34 567.87 633.34C573.34 633.34 580.46 633.34 589.22 633.34C597.98 633.34 607.29 633.34 617.14 633.34C627 633.34 636.3 633.34 645.06 633.34C653.82 633.34 662.58 633.34 671.34 633.34" stroke="#255391" stroke-opacity="1.000000" stroke-width="160.000000"/>
	<path id="Форма 427" d="M704.19 909.29L695.98 909.29C690.51 909.29 683.39 909.29 674.63 909.29C665.87 909.29 658.2 909.29 651.63 909.29C645.06 909.29 640.14 909.29 636.85 909.29C633.57 909.29 627 909.29 617.14 909.29C607.29 909.29 599.62 909.29 594.15 909.29C588.67 909.29 581.55 909.29 572.79 909.29C564.03 909.29 555.27 909.29 546.51 909.29C537.75 909.29 531.73 909.29 528.45 909.29C525.16 909.29 507.64 909.29 475.89 909.29" stroke="#255391" stroke-opacity="1.000000" stroke-width="160.000000"/>
</svg>
