<svg width="989.217285" height="842.869507" viewBox="0 0 989.217 842.87" fill="none" xmlns="http://www.w3.org/2000/svg" xmlns:xlink="http://www.w3.org/1999/xlink">
	<desc>
			Created with Pixso.
	</desc>
	<defs/>
	<path id="Форма 1" d="M132.17 27L135.65 27C137.97 27 139.59 27 140.52 27C141.44 27 142.84 27 144.69 27C146.55 27 148.4 27 150.26 27C152.11 27 154.2 27 156.52 27C158.84 27 161.39 27 164.17 27C166.95 27 169.73 27 172.52 27C175.3 27 178.78 27 182.95 27C187.13 27 192.23 27 198.26 27C204.29 27 210.31 27 216.34 27C222.37 27 232.11 27 245.56 27C259.01 27 270.37 27 279.65 27C288.92 27 296.11 27 301.21 27C306.31 27 313.5 27 322.78 27C332.05 27 341.56 27 351.3 27C361.04 27 371.24 27 381.91 27C392.58 27 402.78 27 412.52 27C422.26 27 432 27 441.73 27C451.47 27 460.75 27 469.56 27C478.37 27 487.18 27 496 27C504.81 27 513.39 27 521.73 27C530.08 27 537.73 27 544.69 27C551.65 27 558.37 27 564.87 27C571.36 27 577.15 27 582.26 27C587.36 27 592.46 27 597.56 27C602.66 27 606.84 27 610.08 27C613.33 27 616.58 27 619.82 27C623.07 27 626.31 27 629.56 27C632.81 27 635.82 27 638.6 27C641.39 27 643.71 27 645.56 27C647.42 27 648.58 27 649.04 27C649.5 27 649.97 27 650.43 27M123.82 47.86L126.6 47.86C128.46 47.86 130.31 47.86 132.17 47.86C134.02 47.86 136.81 47.86 140.52 47.86C144.23 47.86 147.47 47.86 150.26 47.86C153.04 47.86 156.28 47.86 160 47.86C163.71 47.86 168.11 47.86 173.21 47.86C178.31 47.86 184.11 47.86 190.6 47.86C197.1 47.86 204.05 47.86 211.47 47.86C218.89 47.86 227.47 47.86 237.21 47.86C246.95 47.86 265.97 47.86 294.26 47.86C322.55 47.86 349.21 47.86 374.26 47.86C399.3 47.86 418.55 47.86 432 47.86C445.44 47.86 455.88 47.86 463.3 47.86C470.72 47.86 479.76 47.86 490.43 47.86C501.1 47.86 510.14 47.86 517.56 47.86C524.98 47.86 533.1 47.86 541.91 47.86C550.72 47.86 557.91 47.86 563.47 47.86C569.04 47.86 575.3 47.86 582.26 47.86C589.21 47.86 596.4 47.86 603.82 47.86C611.24 47.86 618.2 47.86 624.69 47.86C631.18 47.86 638.84 47.86 647.65 47.86C656.46 47.86 662.26 47.86 665.04 47.86C667.82 47.86 671.53 47.86 676.17 47.86C680.81 47.86 685.91 47.86 691.47 47.86C697.04 47.86 701.21 47.86 704 47.86C706.78 47.86 710.72 47.86 715.82 47.86C720.92 47.86 725.33 47.86 729.04 47.86C732.75 47.86 736.23 47.86 739.47 47.86C742.72 47.86 745.73 47.86 748.52 47.86C751.3 47.86 753.39 47.86 754.78 47.86M112.69 67.34L116.17 67.34C118.49 67.34 119.88 67.34 120.34 67.34C120.81 67.34 121.27 67.34 121.73 67.34C122.2 67.34 123.13 67.34 124.52 67.34C125.91 67.34 127.76 67.34 130.08 67.34C132.4 67.34 135.42 67.34 139.13 67.34C142.84 67.34 147.47 67.34 153.04 67.34C158.6 67.34 164.4 67.34 170.43 67.34C176.46 67.34 184.81 67.34 195.47 67.34C206.14 67.34 217.04 67.34 228.17 67.34C239.3 67.34 250.89 67.34 262.95 67.34C275.01 67.34 287.76 67.34 301.21 67.34C314.66 67.34 328.81 67.34 343.65 67.34C358.49 67.34 373.1 67.34 387.47 67.34C401.85 67.34 424.58 67.34 455.65 67.34C486.72 67.34 511.76 67.34 530.78 67.34C549.79 67.34 562.55 67.34 569.04 67.34C575.53 67.34 586.89 67.34 603.13 67.34C619.36 67.34 633.73 67.34 646.26 67.34C658.78 67.34 671.07 67.34 683.13 67.34C695.18 67.34 706.78 67.34 717.91 67.34C729.04 67.34 739.24 67.34 748.52 67.34C757.79 67.34 765.44 67.34 771.47 67.34C777.5 67.34 782.14 67.34 785.39 67.34C788.63 67.34 791.18 67.34 793.04 67.34M82.08 86.82L86.26 86.82C89.04 86.82 90.66 86.82 91.13 86.82C91.59 86.82 92.28 86.82 93.21 86.82C94.14 86.82 94.84 86.82 95.3 86.82C95.76 86.82 96.69 86.82 98.08 86.82C99.47 86.82 100.86 86.82 102.26 86.82C103.65 86.82 105.5 86.82 107.82 86.82C110.14 86.82 112.69 86.82 115.47 86.82C118.26 86.82 121.97 86.82 126.6 86.82C131.24 86.82 136.11 86.82 141.21 86.82C146.31 86.82 152.81 86.82 160.69 86.82C168.58 86.82 177.85 86.82 188.52 86.82C199.18 86.82 211.24 86.82 224.69 86.82C238.14 86.82 252.05 86.82 266.43 86.82C280.81 86.82 307.47 86.82 346.43 86.82C385.39 86.82 419.47 86.82 448.69 86.82C477.91 86.82 502.95 86.82 523.82 86.82C544.69 86.82 560.46 86.82 571.13 86.82C581.79 86.82 590.14 86.82 596.17 86.82C602.2 86.82 608.46 86.82 614.95 86.82C621.44 86.82 626.78 86.82 630.95 86.82C635.13 86.82 638.14 86.82 640 86.82C641.85 86.82 643.24 86.82 644.17 86.82C645.1 86.82 646.02 86.82 646.95 86.82C647.88 86.82 649.04 86.82 650.43 86.82C651.82 86.82 653.21 86.82 654.6 86.82C656 86.82 657.39 86.82 658.78 86.82M108.52 109.08L111.3 109.08C113.15 109.08 114.78 109.08 116.17 109.08C117.56 109.08 118.72 109.08 119.65 109.08C120.58 109.08 122.2 109.08 124.52 109.08C126.84 109.08 129.85 109.08 133.56 109.08C137.27 109.08 141.68 109.08 146.78 109.08C151.88 109.08 157.21 109.08 162.78 109.08C168.34 109.08 175.3 109.08 183.65 109.08C192 109.08 199.88 109.08 207.3 109.08C214.72 109.08 222.84 109.08 231.65 109.08C240.46 109.08 249.73 109.08 259.47 109.08C269.21 109.08 278.95 109.08 288.69 109.08C298.43 109.08 308.17 109.08 317.91 109.08C327.65 109.08 339.24 109.08 352.69 109.08C366.14 109.08 384.92 109.08 409.04 109.08C433.15 109.08 451.71 109.08 464.69 109.08C477.68 109.08 486.26 109.08 490.43 109.08C494.6 109.08 500.63 109.08 508.52 109.08C516.4 109.08 524.52 109.08 532.86 109.08C541.21 109.08 548.87 109.08 555.82 109.08C562.78 109.08 568.11 109.08 571.82 109.08C575.53 109.08 579.01 109.08 582.26 109.08C585.5 109.08 588.52 109.08 591.3 109.08C594.08 109.08 596.63 109.08 598.95 109.08C601.27 109.08 603.59 109.08 605.91 109.08C608.23 109.08 610.08 109.08 611.47 109.08C612.86 109.08 614.49 109.08 616.34 109.08C618.2 109.08 620.05 109.08 621.91 109.08C623.76 109.08 625.85 109.08 628.17 109.08C630.49 109.08 632.11 109.08 633.04 109.08C633.97 109.08 634.89 109.08 635.82 109.08C636.75 109.08 637.91 109.08 639.3 109.08C640.69 109.08 642.31 109.08 644.17 109.08C646.02 109.08 647.42 109.08 648.34 109.08C649.27 109.08 650.43 109.08 651.82 109.08C653.21 109.08 653.68 109.08 653.21 109.08M706.78 117.43L693.56 117.43C684.75 117.43 678.49 117.43 674.78 117.43C671.07 117.43 667.36 117.43 663.65 117.43C659.94 117.43 655.76 117.43 651.13 117.43C646.49 117.43 641.62 117.43 636.52 117.43C631.42 117.43 625.62 117.43 619.13 117.43C612.63 117.43 606.84 117.43 601.73 117.43C596.63 117.43 591.3 117.43 585.73 117.43C580.17 117.43 574.37 117.43 568.34 117.43C562.31 117.43 556.75 117.43 551.65 117.43C546.55 117.43 540.98 117.43 534.95 117.43C528.92 117.43 523.36 117.43 518.26 117.43C513.15 117.43 508.29 117.43 503.65 117.43C499.01 117.43 494.37 117.43 489.73 117.43C485.1 117.43 478.6 117.43 470.26 117.43C461.91 117.43 456.81 117.43 454.95 117.43C453.1 117.43 451.94 117.43 451.47 117.43C451.01 117.43 450.55 117.43 450.08 117.43C449.62 117.43 449.15 117.43 448.69 117.43C448.23 117.43 447.76 117.43 447.3 117.43M720.69 91L714.43 91C710.26 91 706.78 91 704 91C701.21 91 698.89 91 697.04 91C695.18 91 692.63 91 689.39 91C686.14 91 683.36 91 681.04 91C678.72 91 675.71 91 672 91C668.29 91 664.34 91 660.17 91C656 91 651.82 91 647.65 91C643.47 91 638.84 91 633.73 91C628.63 91 624.23 91 620.52 91C616.81 91 613.1 91 609.39 91C605.68 91 601.97 91 598.26 91C594.55 91 590.84 91 587.13 91C583.42 91 575.3 91 562.78 91C550.26 91 540.75 91 534.26 91C527.76 91 523.59 91 521.73 91C519.88 91 518.49 91 517.56 91M691.47 175.87L685.91 175.87C682.2 175.87 679.42 175.87 677.56 175.87C675.71 175.87 673.85 175.87 672 175.87C670.14 175.87 667.59 175.87 664.34 175.87C661.1 175.87 657.15 175.87 652.52 175.87C647.88 175.87 642.08 175.87 635.13 175.87C628.17 175.87 620.98 175.87 613.56 175.87C606.14 175.87 598.02 175.87 589.21 175.87C580.4 175.87 571.36 175.87 562.08 175.87C552.81 175.87 541.21 175.87 527.3 175.87C513.39 175.87 502.02 175.87 493.21 175.87C484.4 175.87 472.81 175.87 458.43 175.87C444.05 175.87 430.84 175.87 418.78 175.87C406.72 175.87 381.21 175.87 342.26 175.87C303.3 175.87 274.78 175.87 256.69 175.87C238.6 175.87 226.78 175.87 221.21 175.87C215.65 175.87 209.39 175.87 202.43 175.87C195.47 175.87 189.91 175.87 185.73 175.87C181.56 175.87 178.31 175.87 176 175.87C173.68 175.87 170.66 175.87 166.95 175.87C163.24 175.87 160.23 175.87 157.91 175.87C155.59 175.87 153.27 175.87 150.95 175.87C148.63 175.87 146.08 175.87 143.3 175.87C140.52 175.87 138.2 175.87 136.34 175.87C134.49 175.87 132.63 175.87 130.78 175.87C128.92 175.87 127.53 175.87 126.6 175.87C125.68 175.87 124.29 175.87 122.43 175.87C120.58 175.87 119.42 175.87 118.95 175.87C118.49 175.87 118.02 175.87 117.56 175.87M105.73 125.78L118.95 125.78C127.76 125.78 133.79 125.78 137.04 125.78C140.28 125.78 144.92 125.78 150.95 125.78C156.98 125.78 163.94 125.78 171.82 125.78C179.71 125.78 188.29 125.78 197.56 125.78C206.84 125.78 217.27 125.78 228.87 125.78C240.46 125.78 252.52 125.78 265.04 125.78C277.56 125.78 292.4 125.78 309.56 125.78C326.72 125.78 342.02 125.78 355.47 125.78C368.92 125.78 381.68 125.78 393.73 125.78C405.79 125.78 417.15 125.78 427.82 125.78C438.49 125.78 448.23 125.78 457.04 125.78C465.85 125.78 473.5 125.78 480 125.78C486.49 125.78 492.75 125.78 498.78 125.78C504.81 125.78 516.17 125.78 532.87 125.78C549.56 125.78 563.01 125.78 573.21 125.78C583.42 125.78 591.07 125.78 596.17 125.78C601.27 125.78 604.98 125.78 607.3 125.78M54.26 210.65L61.91 210.65C67.01 210.65 71.88 210.65 76.52 210.65C81.15 210.65 85.33 210.65 89.04 210.65C92.75 210.65 98.08 210.65 105.04 210.65C112 210.65 121.5 210.65 133.56 210.65C145.62 210.65 158.6 210.65 172.52 210.65C186.43 210.65 201.27 210.65 217.04 210.65C232.81 210.65 249.27 210.65 266.43 210.65C283.59 210.65 301.68 210.65 320.69 210.65C339.71 210.65 358.49 210.65 377.04 210.65C395.59 210.65 414.37 210.65 433.39 210.65C452.4 210.65 471.65 210.65 491.13 210.65C510.6 210.65 531.47 210.65 553.73 210.65C576 210.65 612.17 210.65 662.26 210.65C712.34 210.65 746.2 210.65 763.82 210.65C781.44 210.65 793.5 210.65 800 210.65C806.49 210.65 810.43 210.65 811.82 210.65C813.21 210.65 814.84 210.65 816.69 210.65M112.69 252.39L116.17 252.39C118.49 252.39 120.11 252.39 121.04 252.39C121.97 252.39 124.52 252.39 128.69 252.39C132.87 252.39 136.11 252.39 138.43 252.39C140.75 252.39 144 252.39 148.17 252.39C152.34 252.39 157.91 252.39 164.87 252.39C171.82 252.39 179.24 252.39 187.13 252.39C195.01 252.39 204.29 252.39 214.95 252.39C225.62 252.39 237.68 252.39 251.13 252.39C264.57 252.39 278.49 252.39 292.87 252.39C307.24 252.39 322.08 252.39 337.39 252.39C352.69 252.39 368.23 252.39 384 252.39C399.76 252.39 416 252.39 432.69 252.39C449.39 252.39 490.43 252.39 555.82 252.39C621.21 252.39 666.89 252.39 692.87 252.39C718.84 252.39 735.53 252.39 742.95 252.39C750.37 252.39 758.02 252.39 765.91 252.39C773.79 252.39 780.52 252.39 786.08 252.39C791.65 252.39 795.59 252.39 797.91 252.39C800.23 252.39 802.08 252.39 803.47 252.39C804.87 252.39 805.79 252.39 806.26 252.39M140.52 313.6L143.3 313.6C145.15 313.6 146.55 313.6 147.47 313.6C148.4 313.6 149.79 313.6 151.65 313.6C153.5 313.6 156.52 313.6 160.69 313.6C164.87 313.6 170.2 313.6 176.69 313.6C183.18 313.6 189.91 313.6 196.87 313.6C203.82 313.6 211.94 313.6 221.21 313.6C230.49 313.6 241.15 313.6 253.21 313.6C265.27 313.6 278.72 313.6 293.56 313.6C308.4 313.6 323.94 313.6 340.17 313.6C356.4 313.6 373.33 313.6 390.95 313.6C408.58 313.6 428.52 313.6 450.78 313.6C473.04 313.6 493.21 313.6 511.3 313.6C529.39 313.6 567.18 313.6 624.69 313.6C682.2 313.6 719.76 313.6 737.39 313.6C755.01 313.6 765.68 313.6 769.39 313.6C773.1 313.6 775.18 313.6 775.65 313.6M23.65 264.91L27.13 264.91C29.44 264.91 31.07 264.91 32 264.91C32.92 264.91 33.62 264.91 34.08 264.91C34.55 264.91 36.17 264.91 38.95 264.91C41.73 264.91 43.59 264.91 44.52 264.91C45.44 264.91 46.6 264.91 48 264.91C49.39 264.91 52.17 264.91 56.34 264.91C60.52 264.91 64.69 264.91 68.86 264.91C73.04 264.91 78.14 264.91 84.17 264.91C90.2 264.91 97.39 264.91 105.73 264.91C114.08 264.91 123.82 264.91 134.95 264.91C146.08 264.91 160.23 264.91 177.39 264.91C194.55 264.91 235.59 264.91 300.52 264.91C365.44 264.91 413.91 264.91 445.91 264.91C477.91 264.91 505.5 264.91 528.69 264.91C551.88 264.91 567.42 264.91 575.3 264.91C583.18 264.91 593.39 264.91 605.91 264.91C618.43 264.91 630.02 264.91 640.69 264.91C651.36 264.91 660.63 264.91 668.52 264.91C676.4 264.91 681.04 264.91 682.43 264.91C683.82 264.91 684.75 264.91 685.21 264.91C685.68 264.91 685.68 264.91 685.21 264.91M36.17 323.34L49.39 323.34C58.2 323.34 64.69 323.34 68.86 323.34C73.04 323.34 79.07 323.34 86.95 323.34C94.84 323.34 102.26 323.34 109.21 323.34C116.17 323.34 125.44 323.34 137.04 323.34C148.63 323.34 163.24 323.34 180.86 323.34C198.49 323.34 217.73 323.34 238.6 323.34C259.47 323.34 276.63 323.34 290.08 323.34C303.53 323.34 319.3 323.34 337.39 323.34C355.47 323.34 373.1 323.34 390.26 323.34C407.42 323.34 423.65 323.34 438.95 323.34C454.26 323.34 468.17 323.34 480.69 323.34C493.21 323.34 504.81 323.34 515.47 323.34C526.14 323.34 535.18 323.34 542.6 323.34C550.02 323.34 553.97 323.34 554.43 323.34C554.89 323.34 555.36 323.34 555.82 323.34C556.28 323.34 556.75 323.34 557.21 323.34M102.95 356.73L121.04 356.73C133.1 356.73 141.68 356.73 146.78 356.73C151.88 356.73 162.08 356.73 177.39 356.73C192.69 356.73 202.43 356.73 206.6 356.73C210.78 356.73 220.52 356.73 235.82 356.73C251.13 356.73 268.05 356.73 286.6 356.73C305.15 356.73 324.87 356.73 345.73 356.73C366.6 356.73 390.49 356.73 417.39 356.73C444.29 356.73 468.17 356.73 489.04 356.73C509.91 356.73 530.08 356.73 549.56 356.73C569.04 356.73 587.36 356.73 604.52 356.73C621.68 356.73 637.91 356.73 653.21 356.73C668.52 356.73 683.82 356.73 699.13 356.73C714.43 356.73 726.72 356.73 736 356.73C745.27 356.73 756.17 356.73 768.69 356.73M73.73 245.43L77.91 245.43C80.69 245.43 83.47 245.43 86.26 245.43C89.04 245.43 92.05 245.43 95.3 245.43C98.55 245.43 104.11 245.43 112 245.43C119.88 245.43 127.76 245.43 135.65 245.43C143.53 245.43 151.88 245.43 160.69 245.43C169.5 245.43 179.47 245.43 190.6 245.43C201.73 245.43 212.63 245.43 223.3 245.43C233.97 245.43 245.1 245.43 256.69 245.43C268.29 245.43 280.57 245.43 293.56 245.43C306.55 245.43 321.39 245.43 338.08 245.43M179.47 402.65L186.43 402.65C191.07 402.65 195.94 402.65 201.04 402.65C206.14 402.65 211.24 402.65 216.34 402.65C221.44 402.65 227.24 402.65 233.73 402.65C240.23 402.65 248.11 402.65 257.39 402.65C266.66 402.65 277.1 402.65 288.69 402.65C300.29 402.65 315.36 402.65 333.91 402.65C352.46 402.65 369.62 402.65 385.39 402.65C401.15 402.65 417.85 402.65 435.47 402.65C453.1 402.65 470.95 402.65 489.04 402.65C507.13 402.65 524.52 402.65 541.21 402.65C557.91 402.65 574.14 402.65 589.91 402.65C605.68 402.65 620.52 402.65 634.43 402.65C648.34 402.65 671.07 402.65 702.6 402.65C734.14 402.65 750.14 402.65 750.6 402.65C751.07 402.65 751.07 402.65 750.6 402.65M795.82 405.43L790.95 405.43C787.71 405.43 785.15 405.43 783.3 405.43C781.44 405.43 778.89 405.43 775.65 405.43C772.4 405.43 768.46 405.43 763.82 405.43C759.18 405.43 754.31 405.43 749.21 405.43C744.11 405.43 738.78 405.43 733.21 405.43C727.65 405.43 721.85 405.43 715.82 405.43C709.79 405.43 703.3 405.43 696.34 405.43C689.39 405.43 683.13 405.43 677.56 405.43C672 405.43 666.89 405.43 662.26 405.43C657.62 405.43 653.21 405.43 649.04 405.43C644.87 405.43 641.15 405.43 637.91 405.43C634.66 405.43 632.11 405.43 630.26 405.43M751.3 449.95L746.43 449.95C743.18 449.95 739.94 449.95 736.69 449.95C733.44 449.95 730.43 449.95 727.65 449.95C724.86 449.95 722.31 449.95 720 449.95C717.68 449.95 713.27 449.95 706.78 449.95C700.29 449.95 693.56 449.95 686.6 449.95C679.65 449.95 672.46 449.95 665.04 449.95C657.62 449.95 650.2 449.95 642.78 449.95C635.36 449.95 626.55 449.95 616.34 449.95C606.14 449.95 596.86 449.95 588.52 449.95C580.17 449.95 572.05 449.95 564.17 449.95C556.28 449.95 548.17 449.95 539.82 449.95C531.47 449.95 522.89 449.95 514.08 449.95C505.27 449.95 496.46 449.95 487.65 449.95C478.84 449.95 447.76 449.95 394.43 449.95C341.1 449.95 308.86 449.95 297.73 449.95C286.6 449.95 277.1 449.95 269.21 449.95C261.33 449.95 255.3 449.95 251.13 449.95C246.95 449.95 244.17 449.95 242.78 449.95C241.39 449.95 239.53 449.95 237.21 449.95C234.89 449.95 233.04 449.95 231.65 449.95C230.26 449.95 227.94 449.95 224.69 449.95C221.44 449.95 218.66 449.95 216.34 449.95C214.02 449.95 211.94 449.95 210.08 449.95C208.23 449.95 206.6 449.95 205.21 449.95C203.82 449.95 202.66 449.95 201.73 449.95C200.81 449.95 200.11 449.95 199.65 449.95C199.18 449.95 198.72 449.95 198.26 449.95C197.79 449.95 197.1 449.95 196.17 449.95C195.24 449.95 194.55 449.95 194.08 449.95C193.62 449.95 192.69 449.95 191.3 449.95C189.91 449.95 188.52 449.95 187.13 449.95C185.73 449.95 184.58 449.95 183.65 449.95M72.34 459.69L85.56 459.69C94.37 459.69 100.17 459.69 102.95 459.69C105.73 459.69 109.21 459.69 113.39 459.69C117.56 459.69 122.66 459.69 128.69 459.69C134.72 459.69 141.21 459.69 148.17 459.69C155.13 459.69 163.01 459.69 171.82 459.69C180.63 459.69 189.44 459.69 198.26 459.69C207.07 459.69 216.11 459.69 225.39 459.69C234.66 459.69 243.94 459.69 253.21 459.69C262.49 459.69 272 459.69 281.73 459.69C291.47 459.69 302.37 459.69 314.43 459.69C326.49 459.69 336.92 459.69 345.73 459.69C354.55 459.69 362.89 459.69 370.78 459.69C378.66 459.69 386.31 459.69 393.73 459.69C401.15 459.69 412.29 459.69 427.13 459.69M84.86 420.73L89.04 420.73C91.82 420.73 94.14 420.73 96 420.73C97.85 420.73 100.17 420.73 102.95 420.73C105.73 420.73 108.98 420.73 112.69 420.73C116.4 420.73 121.27 420.73 127.3 420.73C133.33 420.73 139.36 420.73 145.39 420.73C151.42 420.73 158.37 420.73 166.26 420.73C174.14 420.73 182.95 420.73 192.69 420.73C202.43 420.73 214.26 420.73 228.17 420.73C242.08 420.73 254.84 420.73 266.43 420.73C278.02 420.73 290.08 420.73 302.6 420.73C315.13 420.73 327.18 420.73 338.78 420.73C350.37 420.73 361.04 420.73 370.78 420.73C380.52 420.73 392.11 420.73 405.56 420.73M65.39 383.17L70.26 383.17C73.5 383.17 75.82 383.17 77.21 383.17C78.6 383.17 79.76 383.17 80.69 383.17C81.62 383.17 83.24 383.17 85.56 383.17C87.88 383.17 90.66 383.17 93.91 383.17C97.15 383.17 100.86 383.17 105.04 383.17C109.21 383.17 113.85 383.17 118.95 383.17C124.05 383.17 131.24 383.17 140.52 383.17C149.79 383.17 158.84 383.17 167.65 383.17C176.46 383.17 186.89 383.17 198.95 383.17C211.01 383.17 221.21 383.17 229.56 383.17C237.91 383.17 247.65 383.17 258.78 383.17C269.91 383.17 281.5 383.17 293.56 383.17C305.62 383.17 319.07 383.17 333.91 383.17C348.75 383.17 377.73 383.17 420.86 383.17C464 383.17 486.26 383.17 487.65 383.17M89.04 498.65L95.3 498.65C99.47 498.65 102.95 498.65 105.73 498.65C108.52 498.65 113.15 498.65 119.65 498.65C126.14 498.65 130.78 498.65 133.56 498.65C136.34 498.65 141.68 498.65 149.56 498.65C157.44 498.65 166.49 498.65 176.69 498.65C186.89 498.65 198.02 498.65 210.08 498.65C222.14 498.65 236.52 498.65 253.21 498.65C269.91 498.65 285.21 498.65 299.13 498.65C313.04 498.65 327.42 498.65 342.26 498.65C357.1 498.65 371.71 498.65 386.08 498.65C400.46 498.65 414.14 498.65 427.13 498.65C440.11 498.65 452.4 498.65 464 498.65C475.59 498.65 509.68 498.65 566.26 498.65C622.84 498.65 659.24 498.65 675.47 498.65C691.71 498.65 706.08 498.65 718.6 498.65C731.13 498.65 740.4 498.65 746.43 498.65C752.46 498.65 756.4 498.65 758.26 498.65C760.11 498.65 761.73 498.65 763.13 498.65C764.52 498.65 765.44 498.65 765.91 498.65C766.37 498.65 766.84 498.65 767.3 498.65M698.43 529.26L695.65 529.26C693.79 529.26 691.01 529.26 687.3 529.26C683.59 529.26 680.81 529.26 678.95 529.26C677.1 529.26 674.55 529.26 671.3 529.26C668.05 529.26 663.42 529.26 657.39 529.26C651.36 529.26 644.63 529.26 637.21 529.26C629.79 529.26 622.14 529.26 614.26 529.26C606.37 529.26 597.56 529.26 587.82 529.26C578.08 529.26 567.88 529.26 557.21 529.26C546.55 529.26 535.42 529.26 523.82 529.26C512.23 529.26 498.31 529.26 482.08 529.26C465.85 529.26 453.56 529.26 445.21 529.26C436.86 529.26 427.82 529.26 418.08 529.26C408.34 529.26 378.89 529.26 329.73 529.26C280.57 529.26 249.04 529.26 235.13 529.26C221.21 529.26 210.55 529.26 203.13 529.26C195.71 529.26 190.37 529.26 187.13 529.26C183.88 529.26 180.4 529.26 176.69 529.26C172.98 529.26 170.2 529.26 168.34 529.26C166.49 529.26 164.63 529.26 162.78 529.26C160.92 529.26 158.84 529.26 156.52 529.26C154.2 529.26 152.34 529.26 150.95 529.26C149.56 529.26 148.17 529.26 146.78 529.26M116.86 554.3L118.95 554.3C120.34 554.3 121.5 554.3 122.43 554.3C123.36 554.3 124.05 554.3 124.52 554.3C124.98 554.3 125.68 554.3 126.6 554.3C127.53 554.3 128.92 554.3 130.78 554.3C132.63 554.3 135.42 554.3 139.13 554.3C142.84 554.3 146.78 554.3 150.95 554.3C155.13 554.3 160.46 554.3 166.95 554.3C173.44 554.3 181.33 554.3 190.6 554.3C199.88 554.3 211.47 554.3 225.39 554.3C239.3 554.3 252.75 554.3 265.73 554.3C278.72 554.3 293.1 554.3 308.86 554.3C324.63 554.3 341.1 554.3 358.26 554.3C375.42 554.3 393.73 554.3 413.21 554.3C432.69 554.3 487.88 554.3 578.78 554.3C669.68 554.3 718.84 554.3 726.26 554.3C733.68 554.3 737.62 554.3 738.08 554.3M203.13 600.21L205.91 600.21C207.76 600.21 210.08 600.21 212.87 600.21C215.65 600.21 219.13 600.21 223.3 600.21C227.47 600.21 234.43 600.21 244.17 600.21C253.91 600.21 262.02 600.21 268.52 600.21C275.01 600.21 281.73 600.21 288.69 600.21C295.65 600.21 307.71 600.21 324.87 600.21C342.02 600.21 360.34 600.21 379.82 600.21C399.3 600.21 425.27 600.21 457.73 600.21C490.2 600.21 546.55 600.21 626.78 600.21C707.01 600.21 748.98 600.21 752.69 600.21C756.4 600.21 758.49 600.21 758.95 600.21C759.42 600.21 760.11 600.21 761.04 600.21C761.97 600.21 762.66 600.21 763.13 600.21M740.17 639.17L732.52 639.17C727.42 639.17 723.47 639.17 720.69 639.17C717.91 639.17 715.13 639.17 712.34 639.17C709.56 639.17 706.31 639.17 702.6 639.17C698.89 639.17 694.72 639.17 690.08 639.17C685.44 639.17 679.65 639.17 672.69 639.17C665.73 639.17 659.01 639.17 652.52 639.17C646.02 639.17 639.53 639.17 633.04 639.17C626.55 639.17 618.66 639.17 609.39 639.17C600.11 639.17 592.23 639.17 585.73 639.17C579.24 639.17 569.73 639.17 557.21 639.17C544.69 639.17 533.1 639.17 522.43 639.17C511.76 639.17 501.33 639.17 491.13 639.17C480.92 639.17 470.95 639.17 461.21 639.17C451.47 639.17 429.68 639.17 395.82 639.17C361.97 639.17 341.33 639.17 333.91 639.17C326.49 639.17 319.3 639.17 312.34 639.17C305.39 639.17 299.36 639.17 294.26 639.17C289.15 639.17 283.82 639.17 278.26 639.17C272.69 639.17 268.75 639.17 266.43 639.17C264.11 639.17 260.4 639.17 255.3 639.17C250.2 639.17 246.02 639.17 242.78 639.17C239.53 639.17 236.52 639.17 233.73 639.17C230.95 639.17 228.87 639.17 227.47 639.17C226.08 639.17 224.69 639.17 223.3 639.17C221.91 639.17 220.75 639.17 219.82 639.17C218.89 639.17 217.73 639.17 216.34 639.17C214.95 639.17 214.02 639.17 213.56 639.17C213.1 639.17 212.4 639.17 211.47 639.17C210.55 639.17 209.85 639.17 209.39 639.17C208.92 639.17 208.23 639.17 207.3 639.17C206.37 639.17 204.98 639.17 203.13 639.17C201.27 639.17 199.18 639.17 196.87 639.17C194.55 639.17 191.76 639.17 188.52 639.17C185.27 639.17 182.72 639.17 180.87 639.17C179.01 639.17 177.39 639.17 176 639.17C174.6 639.17 173.68 639.17 173.21 639.17C172.75 639.17 172.29 639.17 171.82 639.17C171.36 639.17 170.89 639.17 170.43 639.17C169.97 639.17 169.27 639.17 168.34 639.17C167.42 639.17 166.72 639.17 166.26 639.17C165.79 639.17 165.33 639.17 164.87 639.17C164.4 639.17 163.94 639.17 163.47 639.17M51.47 612.73L66.08 612.73C75.82 612.73 83.71 612.73 89.73 612.73C95.76 612.73 100.4 612.73 103.65 612.73C106.89 612.73 112.23 612.73 119.65 612.73C127.07 612.73 134.95 612.73 143.3 612.73C151.65 612.73 161.39 612.73 172.52 612.73C183.65 612.73 194.08 612.73 203.82 612.73C213.56 612.73 221.91 612.73 228.86 612.73C235.82 612.73 244.86 612.73 256 612.73C267.13 612.73 276.63 612.73 284.52 612.73C292.4 612.73 299.59 612.73 306.08 612.73C312.57 612.73 317.91 612.73 322.08 612.73C326.26 612.73 329.73 612.73 332.52 612.73C335.3 612.73 337.15 612.73 338.08 612.73M22.26 568.21L27.13 568.21C30.37 568.21 33.15 568.21 35.47 568.21C37.79 568.21 40.11 568.21 42.43 568.21C44.75 568.21 48.23 568.21 52.86 568.21C57.5 568.21 63.07 568.21 69.56 568.21C76.05 568.21 83.47 568.21 91.82 568.21C100.17 568.21 109.21 568.21 118.95 568.21C128.69 568.21 139.13 568.21 150.26 568.21C161.39 568.21 172.52 568.21 183.65 568.21C194.78 568.21 206.37 568.21 218.43 568.21C230.49 568.21 240.23 568.21 247.65 568.21C255.07 568.21 261.56 568.21 267.13 568.21C272.69 568.21 277.1 568.21 280.34 568.21M44.52 509.78L48 509.78C50.31 509.78 52.86 509.78 55.65 509.78C58.43 509.78 62.14 509.78 66.78 509.78C71.42 509.78 77.21 509.78 84.17 509.78C91.13 509.78 99.94 509.78 110.6 509.78C121.27 509.78 131.47 509.78 141.21 509.78C150.95 509.78 161.39 509.78 172.52 509.78C183.65 509.78 194.78 509.78 205.91 509.78M0 651.69L20.86 651.69C34.78 651.69 45.91 651.69 54.26 651.69C62.6 651.69 75.82 651.69 93.91 651.69C112 651.69 129.15 651.69 145.39 651.69C161.62 651.69 179.47 651.69 198.95 651.69C218.43 651.69 240.23 651.69 264.34 651.69C288.46 651.69 311.42 651.69 333.21 651.69C355.01 651.69 368.92 651.69 374.95 651.69C380.98 651.69 389.56 651.69 400.69 651.69C411.82 651.69 422.72 651.69 433.39 651.69C444.05 651.69 454.49 651.69 464.69 651.69C474.89 651.69 506.43 651.69 559.3 651.69C612.17 651.69 642.08 651.69 649.04 651.69C656 651.69 661.56 651.69 665.73 651.69C669.91 651.69 673.85 651.69 677.56 651.69C681.27 651.69 684.05 651.69 685.91 651.69C687.76 651.69 690.55 651.69 694.26 651.69C697.97 651.69 700.29 651.69 701.21 651.69C702.14 651.69 703.76 651.69 706.08 651.69M702.6 683.69L692.87 683.69C686.37 683.69 679.42 683.69 672 683.69C664.58 683.69 659.47 683.69 656.69 683.69C653.91 683.69 649.04 683.69 642.08 683.69C635.13 683.69 627.47 683.69 619.13 683.69C610.78 683.69 599.65 683.69 585.73 683.69C571.82 683.69 558.37 683.69 545.39 683.69C532.4 683.69 518.72 683.69 504.34 683.69C489.97 683.69 475.59 683.69 461.21 683.69C446.84 683.69 432.46 683.69 418.08 683.69C403.71 683.69 390.26 683.69 377.73 683.69C365.21 683.69 352.23 683.69 338.78 683.69C325.33 683.69 314.43 683.69 306.08 683.69C297.73 683.69 280.57 683.69 254.6 683.69C228.63 683.69 214.72 683.69 212.87 683.69C211.01 683.69 209.15 683.69 207.3 683.69C205.44 683.69 203.82 683.69 202.43 683.69C201.04 683.69 199.88 683.69 198.95 683.69C198.02 683.69 197.1 683.69 196.17 683.69C195.24 683.69 194.55 683.69 194.08 683.69M546.78 141.08L559.3 141.08C567.65 141.08 574.37 141.08 579.47 141.08C584.58 141.08 589.68 141.08 594.78 141.08C599.88 141.08 604.52 141.08 608.69 141.08C612.87 141.08 620.28 141.08 630.95 141.08C641.62 141.08 652.05 141.08 662.26 141.08C672.46 141.08 682.66 141.08 692.87 141.08C703.07 141.08 713.27 141.08 723.47 141.08C733.68 141.08 743.65 141.08 753.39 141.08C763.13 141.08 772.63 141.08 781.91 141.08C791.18 141.08 799.53 141.08 806.95 141.08C814.37 141.08 821.1 141.08 827.13 141.08C833.15 141.08 838.26 141.08 842.43 141.08C846.6 141.08 849.39 141.08 850.78 141.08C852.17 141.08 853.33 141.08 854.26 141.08C855.18 141.08 855.42 141.08 854.95 141.08M953.04 142.47L948.87 142.47C946.08 142.47 943.07 142.47 939.82 142.47C936.58 142.47 933.1 142.47 929.39 142.47C925.68 142.47 921.5 142.47 916.87 142.47C912.23 142.47 907.13 142.47 901.56 142.47C896 142.47 889.97 142.47 883.47 142.47C876.98 142.47 870.26 142.47 863.3 142.47C856.34 142.47 847.76 142.47 837.56 142.47C827.36 142.47 818.08 142.47 809.73 142.47C801.39 142.47 793.04 142.47 784.69 142.47C776.34 142.47 768.23 142.47 760.34 142.47C752.46 142.47 737.85 142.47 716.52 142.47C695.18 142.47 684.05 142.47 683.13 142.47C682.2 142.47 681.5 142.47 681.04 142.47M902.95 93.78L900.17 93.78C898.31 93.78 896.69 93.78 895.3 93.78C893.91 93.78 891.36 93.78 887.65 93.78C883.94 93.78 880.46 93.78 877.21 93.78C873.97 93.78 870.49 93.78 866.78 93.78C863.07 93.78 857.27 93.78 849.39 93.78C841.5 93.78 833.39 93.78 825.04 93.78C816.69 93.78 807.42 93.78 797.21 93.78C787.01 93.78 776.11 93.78 764.52 93.78C752.92 93.78 740.63 93.78 727.65 93.78C714.66 93.78 700.29 93.78 684.52 93.78C668.75 93.78 655.3 93.78 644.17 93.78C633.04 93.78 623.07 93.78 614.26 93.78C605.44 93.78 594.08 93.78 580.17 93.78M876.52 68.73L857.73 68.73C845.21 68.73 835.94 68.73 829.91 68.73C823.88 68.73 818.31 68.73 813.21 68.73C808.11 68.73 801.15 68.73 792.34 68.73C783.53 68.73 774.26 68.73 764.52 68.73C754.78 68.73 744.58 68.73 733.91 68.73C723.24 68.73 712.34 68.73 701.21 68.73C690.08 68.73 679.42 68.73 669.21 68.73C659.01 68.73 649.27 68.73 640 68.73C630.72 68.73 621.44 68.73 612.17 68.73C602.89 68.73 596.4 68.73 592.69 68.73C588.98 68.73 585.27 68.73 581.56 68.73C577.85 68.73 575.76 68.73 575.3 68.73M637.21 164.73L640 164.73C641.85 164.73 643.47 164.73 644.86 164.73C646.26 164.73 647.88 164.73 649.73 164.73C651.59 164.73 653.21 164.73 654.6 164.73C656 164.73 658.55 164.73 662.26 164.73C665.97 164.73 671.3 164.73 678.26 164.73C685.21 164.73 693.1 164.73 701.91 164.73C710.72 164.73 720.46 164.73 731.13 164.73C741.79 164.73 753.15 164.73 765.21 164.73C777.27 164.73 789.56 164.73 802.08 164.73C814.6 164.73 827.13 164.73 839.65 164.73C852.17 164.73 863.53 164.73 873.73 164.73C883.94 164.73 894.37 164.73 905.04 164.73C915.71 164.73 924.29 164.73 930.78 164.73C937.27 164.73 944.69 164.73 953.04 164.73M649.73 296.91L660.86 296.91C668.29 296.91 675.47 296.91 682.43 296.91C689.39 296.91 695.65 296.91 701.21 296.91C706.78 296.91 713.73 296.91 722.08 296.91C730.43 296.91 739.24 296.91 748.52 296.91C757.79 296.91 768.69 296.91 781.21 296.91C793.73 296.91 805.1 296.91 815.3 296.91C825.5 296.91 835.71 296.91 845.91 296.91C856.11 296.91 866.08 296.91 875.82 296.91C885.56 296.91 895.07 296.91 904.34 296.91C913.62 296.91 923.13 296.91 932.87 296.91C942.6 296.91 951.65 296.91 960 296.91C968.34 296.91 974.14 296.91 977.39 296.91C980.63 296.91 983.18 296.91 985.04 296.91M755.47 259.34L765.21 259.34C771.71 259.34 777.5 259.34 782.6 259.34C787.71 259.34 791.88 259.34 795.13 259.34C798.37 259.34 805.1 259.34 815.3 259.34C825.5 259.34 835.71 259.34 845.91 259.34C856.11 259.34 864.92 259.34 872.34 259.34C879.76 259.34 888.81 259.34 899.47 259.34C910.14 259.34 918.72 259.34 925.21 259.34C931.71 259.34 937.04 259.34 941.21 259.34C945.39 259.34 948.87 259.34 951.65 259.34C954.43 259.34 956.05 259.34 956.52 259.34C956.98 259.34 957.44 259.34 957.91 259.34M780.52 212.04L783.3 212.04C785.15 212.04 787.24 212.04 789.56 212.04C791.88 212.04 794.43 212.04 797.21 212.04C800 212.04 803.24 212.04 806.95 212.04C810.66 212.04 815.07 212.04 820.17 212.04C825.27 212.04 829.68 212.04 833.39 212.04C837.1 212.04 841.27 212.04 845.91 212.04C850.55 212.04 855.42 212.04 860.52 212.04C865.62 212.04 871.18 212.04 877.21 212.04C883.24 212.04 888.81 212.04 893.91 212.04C899.01 212.04 903.88 212.04 908.52 212.04C913.15 212.04 917.33 212.04 921.04 212.04M655.3 372.04L685.21 372.04C705.15 372.04 720.23 372.04 730.43 372.04C740.63 372.04 752 372.04 764.52 372.04C777.04 372.04 789.56 372.04 802.08 372.04C814.6 372.04 827.36 372.04 840.34 372.04C853.33 372.04 865.85 372.04 877.91 372.04C889.97 372.04 902.26 372.04 914.78 372.04C927.3 372.04 936.58 372.04 942.6 372.04C948.63 372.04 953.73 372.04 957.91 372.04C962.08 372.04 965.33 372.04 967.65 372.04C969.97 372.04 971.36 372.04 971.82 372.04M709.56 344.21L717.91 344.21C723.47 344.21 728.11 344.21 731.82 344.21C735.53 344.21 739.01 344.21 742.26 344.21C745.5 344.21 750.14 344.21 756.17 344.21C762.2 344.21 768.92 344.21 776.34 344.21C783.76 344.21 791.65 344.21 800 344.21C808.34 344.21 817.15 344.21 826.43 344.21C835.71 344.21 844.52 344.21 852.87 344.21C861.21 344.21 868.87 344.21 875.82 344.21C882.78 344.21 888.58 344.21 893.21 344.21C897.85 344.21 901.33 344.21 903.65 344.21C905.97 344.21 907.59 344.21 908.52 344.21C909.44 344.21 910.14 344.21 910.6 344.21M651.13 472.21L656.69 472.21C660.4 472.21 663.65 472.21 666.43 472.21C669.21 472.21 672.23 472.21 675.47 472.21C678.72 472.21 683.13 472.21 688.69 472.21C694.26 472.21 702.14 472.21 712.34 472.21C722.55 472.21 732.52 472.21 742.26 472.21C752 472.21 762.66 472.21 774.26 472.21C785.85 472.21 797.68 472.21 809.73 472.21C821.79 472.21 833.85 472.21 845.91 472.21C857.97 472.21 871.88 472.21 887.65 472.21C903.42 472.21 914.55 472.21 921.04 472.21C927.53 472.21 934.02 472.21 940.52 472.21C947.01 472.21 952.34 472.21 956.52 472.21C960.69 472.21 963.24 472.21 964.17 472.21M730.43 454.13L734.6 454.13C737.39 454.13 740.4 454.13 743.65 454.13C746.89 454.13 750.37 454.13 754.08 454.13C757.79 454.13 760.81 454.13 763.13 454.13C765.44 454.13 768.92 454.13 773.56 454.13C778.2 454.13 784.69 454.13 793.04 454.13C801.39 454.13 809.04 454.13 816 454.13C822.95 454.13 830.14 454.13 837.56 454.13C844.98 454.13 853.56 454.13 863.3 454.13C873.04 454.13 880.69 454.13 886.26 454.13C891.82 454.13 898.78 454.13 907.13 454.13C915.47 454.13 922.2 454.13 927.3 454.13C932.4 454.13 936.34 454.13 939.13 454.13C941.91 454.13 943.53 454.13 944 454.13M702.6 406.82L713.04 406.82C720 406.82 726.95 406.82 733.91 406.82C740.86 406.82 745.97 406.82 749.21 406.82C752.46 406.82 760.81 406.82 774.26 406.82C787.71 406.82 797.68 406.82 804.17 406.82C810.66 406.82 817.39 406.82 824.34 406.82C831.3 406.82 839.42 406.82 848.69 406.82C857.97 406.82 865.62 406.82 871.65 406.82C877.68 406.82 883.01 406.82 887.65 406.82C892.29 406.82 896.46 406.82 900.17 406.82C903.88 406.82 906.89 406.82 909.21 406.82C911.53 406.82 912.92 406.82 913.39 406.82M560.69 550.13L571.82 550.13C579.24 550.13 585.97 550.13 592 550.13C598.02 550.13 604.28 550.13 610.78 550.13C617.27 550.13 627.24 550.13 640.69 550.13C654.14 550.13 666.66 550.13 678.26 550.13C689.85 550.13 701.91 550.13 714.43 550.13C726.95 550.13 739.47 550.13 752 550.13C764.52 550.13 776.58 550.13 788.17 550.13C799.76 550.13 810.66 550.13 820.87 550.13C831.07 550.13 840.34 550.13 848.69 550.13C857.04 550.13 864.69 550.13 871.65 550.13C878.6 550.13 885.1 550.13 891.13 550.13C897.15 550.13 901.56 550.13 904.34 550.13C907.13 550.13 909.44 550.13 911.3 550.13C913.15 550.13 914.55 550.13 915.47 550.13M660.87 516.73L681.73 516.73C695.65 516.73 706.08 516.73 713.04 516.73C720 516.73 725.56 516.73 729.73 516.73C733.91 516.73 740.63 516.73 749.91 516.73C759.18 516.73 768.92 516.73 779.13 516.73C789.33 516.73 798.14 516.73 805.56 516.73C812.98 516.73 822.26 516.73 833.39 516.73C844.52 516.73 853.1 516.73 859.13 516.73C865.15 516.73 869.79 516.73 873.04 516.73C876.29 516.73 878.6 516.73 880 516.73C881.39 516.73 882.31 516.73 882.78 516.73C883.24 516.73 883.71 516.73 884.17 516.73C884.63 516.73 885.1 516.73 885.56 516.73M612.17 628.04L642.78 628.04C663.18 628.04 677.1 628.04 684.52 628.04C691.94 628.04 701.44 628.04 713.04 628.04C724.63 628.04 736.69 628.04 749.21 628.04C761.73 628.04 774.49 628.04 787.47 628.04C800.46 628.04 813.21 628.04 825.73 628.04C838.26 628.04 850.78 628.04 863.3 628.04C875.82 628.04 892.98 628.04 914.78 628.04C936.58 628.04 952.11 628.04 961.39 628.04C970.66 628.04 977.39 628.04 981.56 628.04C985.73 628.04 988.29 628.04 989.21 628.04M656.69 673.95L663.65 673.95C668.29 673.95 671.76 673.95 674.08 673.95C676.4 673.95 680.58 673.95 686.6 673.95C692.63 673.95 697.04 673.95 699.82 673.95C702.6 673.95 708.63 673.95 717.91 673.95C727.18 673.95 735.76 673.95 743.65 673.95C751.53 673.95 759.18 673.95 766.6 673.95C774.02 673.95 781.21 673.95 788.17 673.95C795.13 673.95 801.62 673.95 807.65 673.95C813.68 673.95 819.24 673.95 824.34 673.95C829.44 673.95 833.85 673.95 837.56 673.95C841.27 673.95 845.21 673.95 849.39 673.95C853.56 673.95 856.81 673.95 859.13 673.95C861.44 673.95 865.62 673.95 871.65 673.95M694.26 596.04L697.04 596.04C698.89 596.04 700.52 596.04 701.91 596.04C703.3 596.04 705.85 596.04 709.56 596.04C713.27 596.04 717.21 596.04 721.39 596.04C725.56 596.04 730.66 596.04 736.69 596.04C742.72 596.04 749.44 596.04 756.87 596.04C764.29 596.04 773.79 596.04 785.39 596.04C796.98 596.04 807.18 596.04 816 596.04C824.81 596.04 833.62 596.04 842.43 596.04C851.24 596.04 859.59 596.04 867.47 596.04C875.36 596.04 882.31 596.04 888.34 596.04C894.37 596.04 900.17 596.04 905.73 596.04C911.3 596.04 915.71 596.04 918.95 596.04C922.2 596.04 924.52 596.04 925.91 596.04M834.78 718.47L832 718.47C830.14 718.47 828.75 718.47 827.82 718.47C826.89 718.47 825.5 718.47 823.65 718.47C821.79 718.47 819.47 718.47 816.69 718.47C813.91 718.47 810.89 718.47 807.65 718.47C804.4 718.47 800.46 718.47 795.82 718.47C791.18 718.47 786.31 718.47 781.21 718.47C776.11 718.47 769.16 718.47 760.34 718.47C751.53 718.47 742.72 718.47 733.91 718.47C725.1 718.47 716.05 718.47 706.78 718.47C697.5 718.47 689.39 718.47 682.43 718.47C675.47 718.47 666.2 718.47 654.6 718.47C643.01 718.47 632.81 718.47 624 718.47C615.18 718.47 587.36 718.47 540.52 718.47C493.68 718.47 462.84 718.47 448 718.47C433.15 718.47 420.4 718.47 409.73 718.47C399.07 718.47 389.79 718.47 381.91 718.47C374.02 718.47 368.23 718.47 364.52 718.47C360.81 718.47 357.1 718.47 353.39 718.47C349.68 718.47 344.58 718.47 338.08 718.47C331.59 718.47 327.18 718.47 324.87 718.47C322.55 718.47 320.46 718.47 318.6 718.47C316.75 718.47 313.5 718.47 308.87 718.47C304.23 718.47 300.05 718.47 296.34 718.47C292.63 718.47 289.15 718.47 285.91 718.47C282.66 718.47 279.42 718.47 276.17 718.47C272.92 718.47 269.91 718.47 267.13 718.47C264.34 718.47 261.79 718.47 259.47 718.47C257.15 718.47 255.3 718.47 253.91 718.47C252.52 718.47 251.36 718.47 250.43 718.47C249.5 718.47 248.81 718.47 248.34 718.47C247.88 718.47 247.42 718.47 246.95 718.47C246.49 718.47 246.02 718.47 245.56 718.47M101.56 729.6L105.04 729.6C107.36 729.6 109.44 729.6 111.3 729.6C113.15 729.6 115.71 729.6 118.95 729.6C122.2 729.6 125.68 729.6 129.39 729.6C133.1 729.6 137.27 729.6 141.91 729.6C146.55 729.6 153.27 729.6 162.08 729.6C170.89 729.6 179.94 729.6 189.21 729.6C198.49 729.6 208.92 729.6 220.52 729.6C232.11 729.6 243.47 729.6 254.6 729.6C265.73 729.6 278.95 729.6 294.26 729.6C309.56 729.6 322.55 729.6 333.21 729.6C343.88 729.6 356.87 729.6 372.17 729.6M107.13 694.82L124.52 694.82C136.11 694.82 144 694.82 148.17 694.82C152.34 694.82 156.52 694.82 160.69 694.82C164.87 694.82 169.5 694.82 174.6 694.82C179.71 694.82 186.2 694.82 194.08 694.82C201.97 694.82 210.31 694.82 219.13 694.82C227.94 694.82 238.14 694.82 249.73 694.82C261.33 694.82 271.53 694.82 280.34 694.82C289.15 694.82 297.5 694.82 305.39 694.82C313.27 694.82 320.23 694.82 326.26 694.82C332.29 694.82 337.15 694.82 340.87 694.82C344.58 694.82 347.36 694.82 349.21 694.82M232.34 769.95L235.82 769.95C238.14 769.95 241.39 769.95 245.56 769.95C249.73 769.95 254.6 769.95 260.17 769.95C265.73 769.95 272.46 769.95 280.34 769.95C288.23 769.95 297.27 769.95 307.47 769.95C317.68 769.95 328.81 769.95 340.87 769.95C352.92 769.95 365.44 769.95 378.43 769.95C391.42 769.95 404.63 769.95 418.08 769.95C431.53 769.95 446.84 769.95 464 769.95C481.15 769.95 525.44 769.95 596.87 769.95C668.29 769.95 713.97 769.95 733.91 769.95C753.85 769.95 770.31 769.95 783.3 769.95C796.29 769.95 806.02 769.95 812.52 769.95C819.01 769.95 824.34 769.95 828.52 769.95C832.69 769.95 836.17 769.95 838.95 769.95C841.73 769.95 844.29 769.95 846.6 769.95C848.92 769.95 851.01 769.95 852.87 769.95C854.72 769.95 857.04 769.95 859.82 769.95C862.6 769.95 865.85 769.95 869.56 769.95C873.27 769.95 875.36 769.95 875.82 769.95C876.29 769.95 876.75 769.95 877.21 769.95C877.68 769.95 877.68 769.95 877.21 769.95C876.75 769.95 876.29 769.95 875.82 769.95C875.36 769.95 874.89 769.95 874.43 769.95M944.69 722.65L940.52 722.65C937.73 722.65 935.18 722.65 932.87 722.65C930.55 722.65 928.23 722.65 925.91 722.65C923.59 722.65 920.81 722.65 917.56 722.65C914.31 722.65 911.07 722.65 907.82 722.65C904.58 722.65 900.63 722.65 896 722.65C891.36 722.65 886.49 722.65 881.39 722.65C876.29 722.65 869.1 722.65 859.82 722.65C850.55 722.65 841.27 722.65 832 722.65C822.72 722.65 812.98 722.65 802.78 722.65C792.58 722.65 782.37 722.65 772.17 722.65C761.97 722.65 751.76 722.65 741.56 722.65C731.36 722.65 722.08 722.65 713.73 722.65C705.39 722.65 696.34 722.65 686.6 722.65M957.21 768.56L955.13 768.56C953.73 768.56 952.11 768.56 950.26 768.56C948.4 768.56 946.08 768.56 943.3 768.56C940.52 768.56 937.73 768.56 934.95 768.56C932.17 768.56 928.69 768.56 924.52 768.56C920.34 768.56 915.24 768.56 909.21 768.56C903.18 768.56 897.15 768.56 891.13 768.56C885.1 768.56 879.3 768.56 873.73 768.56C868.17 768.56 862.37 768.56 856.34 768.56C850.31 768.56 844.52 768.56 838.95 768.56C833.39 768.56 819.94 768.56 798.6 768.56C777.27 768.56 765.68 768.56 763.82 768.56C761.97 768.56 760.81 768.56 760.34 768.56M936.34 815.87L927.3 815.87C921.27 815.87 916.63 815.87 913.39 815.87C910.14 815.87 907.36 815.87 905.04 815.87C902.72 815.87 900.17 815.87 897.39 815.87C894.6 815.87 890.89 815.87 886.26 815.87C881.62 815.87 876.52 815.87 870.95 815.87C865.39 815.87 859.36 815.87 852.87 815.87C846.37 815.87 839.65 815.87 832.69 815.87C825.73 815.87 817.15 815.87 806.95 815.87C796.75 815.87 787.47 815.87 779.13 815.87C770.78 815.87 762.43 815.87 754.08 815.87C745.73 815.87 737.62 815.87 729.73 815.87C721.85 815.87 713.97 815.87 706.08 815.87C698.2 815.87 690.78 815.87 683.82 815.87C676.86 815.87 657.39 815.87 625.39 815.87C593.39 815.87 573.44 815.87 565.56 815.87C557.68 815.87 550.72 815.87 544.69 815.87C538.66 815.87 534.49 815.87 532.17 815.87C529.85 815.87 527.76 815.87 525.91 815.87C524.05 815.87 521.73 815.87 518.95 815.87C516.17 815.87 513.62 815.87 511.3 815.87C508.98 815.87 506.2 815.87 502.95 815.87C499.71 815.87 495.76 815.87 491.13 815.87C486.49 815.87 482.78 815.87 480 815.87C477.21 815.87 472.81 815.87 466.78 815.87C460.75 815.87 456.11 815.87 452.86 815.87C449.62 815.87 446.37 815.87 443.13 815.87C439.88 815.87 437.33 815.87 435.47 815.87C433.62 815.87 430.84 815.87 427.13 815.87C423.42 815.87 420.17 815.87 417.39 815.87C414.6 815.87 411.82 815.87 409.04 815.87C406.26 815.87 403.24 815.87 400 815.87C396.75 815.87 393.27 815.87 389.56 815.87C385.85 815.87 380.98 815.87 374.95 815.87C368.92 815.87 363.59 815.87 358.95 815.87C354.31 815.87 350.37 815.87 347.13 815.87C343.88 815.87 340.17 815.87 336 815.87C331.82 815.87 328.58 815.87 326.26 815.87C323.94 815.87 321.85 815.87 320 815.87C318.14 815.87 316.05 815.87 313.73 815.87C311.42 815.87 309.56 815.87 308.17 815.87C306.78 815.87 304.69 815.87 301.91 815.87C299.13 815.87 295.88 815.87 292.17 815.87C288.46 815.87 285.91 815.87 284.52 815.87C283.13 815.87 281.5 815.87 279.65 815.87C277.79 815.87 275.47 815.87 272.69 815.87C269.91 815.87 267.36 815.87 265.04 815.87C262.72 815.87 260.63 815.87 258.78 815.87C256.92 815.87 255.53 815.87 254.6 815.87C253.68 815.87 252.98 815.87 252.52 815.87C252.05 815.87 251.59 815.87 251.13 815.87C250.66 815.87 249.97 815.87 249.04 815.87C248.11 815.87 246.95 815.87 245.56 815.87C244.17 815.87 242.55 815.87 240.69 815.87C238.84 815.87 236.75 815.87 234.43 815.87C232.11 815.87 230.02 815.87 228.17 815.87C226.31 815.87 224.23 815.87 221.91 815.87C219.59 815.87 217.5 815.87 215.65 815.87C213.79 815.87 211.24 815.87 208 815.87C204.75 815.87 202.66 815.87 201.73 815.87C200.81 815.87 199.65 815.87 198.26 815.87C196.86 815.87 195.71 815.87 194.78 815.87C193.85 815.87 193.15 815.87 192.69 815.87C192.23 815.87 191.53 815.87 190.6 815.87C189.68 815.87 188.75 815.87 187.82 815.87C186.89 815.87 185.97 815.87 185.04 815.87C184.11 815.87 182.95 815.87 181.56 815.87C180.17 815.87 178.55 815.87 176.69 815.87C174.84 815.87 172.98 815.87 171.13 815.87C169.27 815.87 167.18 815.87 164.86 815.87C162.55 815.87 160.46 815.87 158.6 815.87C156.75 815.87 154.89 815.87 153.04 815.87C151.18 815.87 149.56 815.87 148.17 815.87C146.78 815.87 145.62 815.87 144.69 815.87C143.76 815.87 142.6 815.87 141.21 815.87C139.82 815.87 138.89 815.87 138.43 815.87C137.97 815.87 137.5 815.87 137.04 815.87C136.58 815.87 136.11 815.87 135.65 815.87M136.34 772.73L139.82 772.73C142.14 772.73 143.53 772.73 144 772.73C144.46 772.73 145.85 772.73 148.17 772.73C150.49 772.73 152.58 772.73 154.43 772.73C156.28 772.73 158.84 772.73 162.08 772.73C165.33 772.73 169.73 772.73 175.3 772.73C180.87 772.73 186.2 772.73 191.3 772.73C196.4 772.73 203.36 772.73 212.17 772.73C220.98 772.73 229.33 772.73 237.21 772.73C245.1 772.73 252.75 772.73 260.17 772.73C267.59 772.73 274.78 772.73 281.73 772.73C288.69 772.73 294.72 772.73 299.82 772.73C304.92 772.73 309.56 772.73 313.73 772.73C317.91 772.73 322.08 772.73 326.26 772.73C330.43 772.73 333.21 772.73 334.6 772.73C336 772.73 337.62 772.73 339.47 772.73C341.33 772.73 342.72 772.73 343.65 772.73" stroke="#AC4C7A" stroke-opacity="1.000000" stroke-width="54.000000"/>
	<path id="Форма 93" d="M249.08 204.91L251.17 204.91C252.56 204.91 253.72 204.91 254.65 204.91C255.58 204.91 257.43 204.91 260.21 204.91C263 204.91 266.01 204.91 269.26 204.91C272.5 204.91 276.21 204.91 280.39 204.91C284.56 204.91 288.97 204.91 293.6 204.91C298.24 204.91 304.04 204.91 311 204.91C317.95 204.91 326.53 204.91 336.73 204.91C346.94 204.91 353.66 204.91 356.91 204.91C360.15 204.91 362.47 204.91 363.87 204.91C365.26 204.91 367.34 204.91 370.13 204.91C372.91 204.91 375 204.91 376.39 204.91C377.78 204.91 379.17 204.91 380.56 204.91M307.52 317.6L315.17 317.6C320.27 317.6 323.98 317.6 326.3 317.6C328.62 317.6 331.87 317.6 336.04 317.6C340.21 317.6 344.39 317.6 348.56 317.6C352.73 317.6 356.21 317.6 359 317.6C361.78 317.6 363.87 317.6 365.26 317.6C366.65 317.6 367.58 317.6 368.04 317.6M282.47 488.73L286.65 488.73C289.43 488.73 291.52 488.73 292.91 488.73C294.3 488.73 296.15 488.73 298.47 488.73C300.79 488.73 303.81 488.73 307.52 488.73C311.23 488.73 315.17 488.73 319.34 488.73C323.52 488.73 327.69 488.73 331.86 488.73C336.04 488.73 340.91 488.73 346.47 488.73C352.04 488.73 356.44 488.73 359.69 488.73C362.94 488.73 365.95 488.73 368.73 488.73C371.52 488.73 374.53 488.73 377.78 488.73M283.87 645.95L287.34 645.95C289.66 645.95 291.05 645.95 291.52 645.95C291.98 645.95 294.07 645.95 297.78 645.95C301.49 645.95 305.66 645.95 310.3 645.95C314.94 645.95 321.2 645.95 329.08 645.95C336.97 645.95 343.23 645.95 347.87 645.95C352.5 645.95 357.37 645.95 362.47 645.95C367.58 645.95 372.21 645.95 376.39 645.95C380.56 645.95 384.97 645.95 389.6 645.95C394.24 645.95 398.42 645.95 402.13 645.95M441.08 682.13L436.91 682.13C434.13 682.13 432.27 682.13 431.34 682.13C430.42 682.13 428.33 682.13 425.08 682.13C421.84 682.13 418.59 682.13 415.34 682.13C412.1 682.13 408.15 682.13 403.52 682.13C398.88 682.13 394.94 682.13 391.69 682.13C388.44 682.13 383.58 682.13 377.08 682.13C370.59 682.13 365.95 682.13 363.17 682.13C360.39 682.13 357.37 682.13 354.13 682.13C350.88 682.13 349.02 682.13 348.56 682.13M512.04 715.52L508.56 715.52C506.24 715.52 503.92 715.52 501.6 715.52C499.29 715.52 497.2 715.52 495.34 715.52C493.49 715.52 491.87 715.52 490.47 715.52C489.08 715.52 488.15 715.52 487.69 715.52M513.43 351L516.91 351C519.23 351 521.55 351 523.87 351C526.18 351 529.66 351 534.3 351C538.94 351 543.58 351 548.21 351C552.85 351 556.56 351 559.34 351C562.13 351 564.68 351 567 351C569.31 351 571.87 351 574.65 351C577.43 351 580.44 351 583.69 351C586.94 351 590.18 351 593.43 351C596.68 351 599 351 600.39 351C601.78 351 602.71 351 603.17 351M658.13 378.82L653.95 378.82C651.17 378.82 648.15 378.82 644.91 378.82C641.66 378.82 638.65 378.82 635.87 378.82C633.08 378.82 629.6 378.82 625.43 378.82C621.26 378.82 616.85 378.82 612.21 378.82C607.58 378.82 602.71 378.82 597.6 378.82C592.5 378.82 586.94 378.82 580.91 378.82C574.88 378.82 570.71 378.82 568.39 378.82C566.07 378.82 564.21 378.82 562.82 378.82M620.56 179.87L623.34 179.87C625.2 179.87 627.75 179.87 631 179.87C634.24 179.87 637.72 179.87 641.43 179.87C645.14 179.87 649.08 179.87 653.26 179.87C657.43 179.87 660.68 179.87 663 179.87C665.31 179.87 668.1 179.87 671.34 179.87C674.59 179.87 677.84 179.87 681.08 179.87C684.33 179.87 687.58 179.87 690.82 179.87C694.07 179.87 695.92 179.87 696.39 179.87M658.13 216.04L660.21 216.04C661.6 216.04 663.46 216.04 665.78 216.04C668.1 216.04 670.88 216.04 674.13 216.04C677.37 216.04 680.85 216.04 684.56 216.04C688.27 216.04 691.52 216.04 694.3 216.04C697.08 216.04 699.4 216.04 701.26 216.04C703.11 216.04 704.27 216.04 704.73 216.04C705.2 216.04 706.36 216.04 708.21 216.04C710.07 216.04 712.15 216.04 714.47 216.04M463.34 118.65L466.13 118.65C467.98 118.65 470.53 118.65 473.78 118.65C477.02 118.65 481.2 118.65 486.3 118.65C491.4 118.65 496.27 118.65 500.91 118.65C505.55 118.65 509.95 118.65 514.13 118.65C518.3 118.65 522.94 118.65 528.04 118.65C533.14 118.65 537.08 118.65 539.87 118.65C542.65 118.65 544.97 118.65 546.82 118.65C548.68 118.65 550.07 118.65 551 118.65M459.17 163.17L467.52 163.17C473.08 163.17 477.95 163.17 482.13 163.17C486.3 163.17 490.01 163.17 493.26 163.17C496.5 163.17 499.05 163.17 500.91 163.17C502.76 163.17 508.33 163.17 517.6 163.17C526.88 163.17 532.91 163.17 535.69 163.17M602.47 559.69L607.34 559.69C610.59 559.69 613.37 559.69 615.69 559.69C618.01 559.69 621.49 559.69 626.13 559.69C630.76 559.69 635.4 559.69 640.04 559.69C644.68 559.69 648.62 559.69 651.87 559.69C655.11 559.69 657.43 559.69 658.82 559.69C660.21 559.69 662.07 559.69 664.39 559.69C666.71 559.69 668.79 559.69 670.65 559.69C672.5 559.69 674.36 559.69 676.21 559.69C678.07 559.69 679.46 559.69 680.39 559.69C681.31 559.69 682.01 559.69 682.47 559.69C682.94 559.69 683.4 559.69 683.87 559.69C684.33 559.69 684.79 559.69 685.26 559.69M729.08 634.82L724.21 634.82C720.97 634.82 717.02 634.82 712.39 634.82C707.75 634.82 703.58 634.82 699.87 634.82C696.15 634.82 692.21 634.82 688.04 634.82C683.87 634.82 679.69 634.82 675.52 634.82C671.34 634.82 667.87 634.82 665.08 634.82C662.3 634.82 659.52 634.82 656.73 634.82C653.95 634.82 651.63 634.82 649.78 634.82M663.69 755.87L667.17 755.87C669.49 755.87 673.2 755.87 678.3 755.87C683.4 755.87 687.11 755.87 689.43 755.87C691.75 755.87 693.84 755.87 695.69 755.87C697.55 755.87 700.1 755.87 703.34 755.87C706.59 755.87 710.76 755.87 715.87 755.87C720.97 755.87 723.98 755.87 724.91 755.87C725.84 755.87 726.53 755.87 727 755.87M791.69 392.73L795.17 392.73C797.49 392.73 799.34 392.73 800.73 392.73C802.13 392.73 803.75 392.73 805.6 392.73C807.46 392.73 809.55 392.73 811.87 392.73C814.18 392.73 815.81 392.73 816.73 392.73C817.66 392.73 818.59 392.73 819.52 392.73C820.44 392.73 821.37 392.73 822.3 392.73C823.23 392.73 824.39 392.73 825.78 392.73M491.17 501.26L493.26 501.26C494.65 501.26 496.04 501.26 497.43 501.26C498.82 501.26 500.44 501.26 502.3 501.26C504.15 501.26 506.47 501.26 509.26 501.26C512.04 501.26 514.59 501.26 516.91 501.26C519.23 501.26 521.55 501.26 523.87 501.26" stroke="#A94672" stroke-opacity="1.000000" stroke-width="54.000000"/>
</svg>
