<svg width="66.977783" height="114.072510" viewBox="0 0 66.9778 114.073" fill="none" xmlns="http://www.w3.org/2000/svg" xmlns:xlink="http://www.w3.org/1999/xlink">
	<desc>
			Created with Pixso.
	</desc>
	<defs/>
	<path id="Форма 2 (Граница)" d="M20.2 17.6L20.57 17.6L21.2 17.6L22.07 17.6L23.19 17.6L24.57 17.6L26.19 17.6L27.93 17.6L29.93 17.6L32.17 17.6L33.42 17.6L34.67 17.6L37.41 17.6L40.28 17.6L44.52 17.6L48.64 17.6L50.38 17.6L51.13 17.6L51.88 17.6L52.63 17.6L52.88 17.6L53.13 17.6L53.5 17.6L53.63 17.6L53.75 17.6L53.75 33.49L53.63 33.49L53.5 33.49L53.13 33.49L52.88 33.49L52.63 33.49L51.88 33.49L51.13 33.49L50.38 33.49L48.64 33.49L44.52 33.49L40.28 33.49L37.41 33.49L34.67 33.49L33.42 33.49L32.17 33.49L29.93 33.49L27.93 33.49L26.19 33.49L24.57 33.49L23.19 33.49L22.07 33.49L21.2 33.49L20.57 33.49L20.2 33.49L20.2 17.6Z" fill="#C3C3C3" fill-opacity="1.000000" fill-rule="evenodd"/>
	<path id="Форма 3 (Граница)" d="M10.22 27.27L10.72 27.27L11.84 27.27L12.47 27.27L13.09 27.27L14.84 27.27L17.08 27.27L19.58 27.27L22.82 27.27L26.31 27.27L29.93 27.27L33.05 27.27L35.67 27.27L41.28 27.27L47.02 27.27L49.01 27.27L50.26 27.27L51.76 27.27L52.38 27.27L53 27.27L53.63 27.27L54.25 27.27L55.12 27.27L55.75 27.27L56.37 27.27L56.62 27.27L56.87 27.27L57.49 27.27L58.24 27.27L58.87 27.27L59.12 27.27L59.36 27.27L59.36 43.16L59.12 43.16L58.87 43.16L58.24 43.16L57.49 43.16L56.87 43.16L56.62 43.16L56.37 43.16L55.75 43.16L55.12 43.16L54.25 43.16L53.63 43.16L53 43.16L52.38 43.16L51.76 43.16L50.26 43.16L49.01 43.16L47.02 43.16L41.28 43.16L35.67 43.16L33.05 43.16L29.93 43.16L26.31 43.16L22.82 43.16L19.58 43.16L17.08 43.16L14.84 43.16L13.09 43.16L12.47 43.16L11.84 43.16L10.72 43.16L10.22 43.16L10.22 27.27Z" fill="#C3C3C3" fill-opacity="1.000000" fill-rule="evenodd"/>
	<path id="Форма 4 (Граница)" d="M4.49 37.19L4.98 37.19L5.73 37.19L6.48 37.19L7.23 37.19L8.35 37.19L10.35 37.19L12.72 37.19L15.46 37.19L19.08 37.19L22.94 37.19L26.44 37.19L29.31 37.19L31.92 37.19L37.91 37.19L44.27 37.19L47.02 37.19L48.89 37.19L51.01 37.19L53.13 37.19L54.62 37.19L55.87 37.19L57.24 37.19L58.49 37.19L59.61 37.19L60.49 37.19L61.36 37.19L62.48 37.19L63.61 37.19L64.1 37.19L64.6 37.19L65.1 37.19L65.6 37.19L66.47 37.19L66.97 37.19L66.97 53.07L66.47 53.07L65.6 53.07L65.1 53.07L64.6 53.07L64.1 53.07L63.61 53.07L62.48 53.07L61.36 53.07L60.49 53.07L59.61 53.07L58.49 53.07L57.24 53.07L55.87 53.07L54.62 53.07L53.13 53.07L51.01 53.07L48.89 53.07L47.02 53.07L44.27 53.07L37.91 53.07L31.92 53.07L29.31 53.07L26.44 53.07L22.94 53.07L19.08 53.07L15.46 53.07L12.72 53.07L10.35 53.07L8.35 53.07L7.23 53.07L6.48 53.07L5.73 53.07L4.98 53.07L4.49 53.07L4.49 37.19Z" fill="#C3C3C3" fill-opacity="1.000000" fill-rule="evenodd"/>
	<path id="Форма 5 (Граница)" d="M0 49.58L0.37 49.58L0.99 49.58L1.62 49.58L2.74 49.58L3.99 49.58L5.36 49.58L7.23 49.58L7.23 65.47L5.36 65.47L3.99 65.47L2.74 65.47L1.62 65.47L0.99 65.47L0.37 65.47L0 65.47L0 49.58Z" fill="#C3C3C3" fill-opacity="1.000000" fill-rule="evenodd"/>
	<path id="Форма 6 (Граница)" d="M4.73 50.58L5.36 50.58L6.36 50.58L7.48 50.58L8.85 50.58L10.47 50.58L12.34 50.58L14.34 50.58L15.46 50.58L16.58 50.58L21.7 50.58L27.19 50.58L29.56 50.58L30.8 50.58L32.05 50.58L33.92 50.58L35.67 50.58L36.41 50.58L37.16 50.58L38.54 50.58L39.16 50.58L39.78 50.58L40.91 50.58L42.28 50.58L43.77 50.58L44.77 50.58L45.64 50.58L46.52 50.58L47.52 50.58L48.64 50.58L49.39 50.58L50.01 50.58L50.76 50.58L51.38 50.58L52.01 50.58L52.63 50.58L52.88 50.58L53.13 50.58L53.5 50.58L53.88 50.58L54.13 50.58L54.38 50.58L54.87 50.58L55.5 50.58L56.12 50.58L56.37 50.58L56.62 50.58L56.87 50.58L57.12 50.58L57.49 50.58L57.87 50.58L58.24 50.58L58.37 50.58L58.49 50.58L58.87 50.58L59.24 50.58L59.61 50.58L59.86 50.58L60.11 50.58L60.36 50.58L60.61 50.58L60.99 50.58L61.11 50.58L61.24 50.58L61.36 50.58L61.48 50.58L61.73 50.58L62.23 50.58L62.86 50.58L63.48 50.58L64.1 50.58L64.35 50.58L64.6 50.58L64.98 50.58L65.1 50.58L65.23 50.58L65.23 66.46L65.1 66.46L64.98 66.46L64.6 66.46L64.35 66.46L64.1 66.46L63.48 66.46L62.86 66.46L62.23 66.46L61.73 66.46L61.48 66.46L61.36 66.46L61.24 66.46L61.11 66.46L60.99 66.46L60.61 66.46L60.36 66.46L60.11 66.46L59.86 66.46L59.61 66.46L59.24 66.46L58.87 66.46L58.49 66.46L58.37 66.46L58.24 66.46L57.87 66.46L57.49 66.46L57.12 66.46L56.87 66.46L56.62 66.46L56.37 66.46L56.12 66.46L55.5 66.46L54.87 66.46L54.38 66.46L54.13 66.46L53.88 66.46L53.5 66.46L53.13 66.46L52.88 66.46L52.63 66.46L52.01 66.46L51.38 66.46L50.76 66.46L50.01 66.46L49.39 66.46L48.64 66.46L47.52 66.46L46.52 66.46L45.64 66.46L44.77 66.46L43.77 66.46L42.28 66.46L40.91 66.46L39.78 66.46L39.16 66.46L38.54 66.46L37.16 66.46L36.41 66.46L35.67 66.46L33.92 66.46L32.05 66.46L30.8 66.46L29.56 66.46L27.19 66.46L21.7 66.46L16.58 66.46L15.46 66.46L14.34 66.46L12.34 66.46L10.47 66.46L8.85 66.46L7.48 66.46L6.36 66.46L5.36 66.46L4.73 66.46L4.73 50.58Z" fill="#C3C3C3" fill-opacity="1.000000" fill-rule="evenodd"/>
	<path id="Форма 7 (Граница)" d="M66.1 79.85L65.6 79.85L65.1 79.85L64.6 79.85L63.73 79.85L62.86 79.85L61.86 79.85L60.74 79.85L60.11 79.85L59.49 79.85L57.99 79.85L57.12 79.85L56.25 79.85L55.37 79.85L54.5 79.85L50.51 79.85L45.89 79.85L43.77 79.85L42.65 79.85L41.53 79.85L40.28 79.85L39.28 79.85L38.41 79.85L37.66 79.85L37.16 79.85L36.54 79.85L35.92 79.85L35.17 79.85L34.42 79.85L33.55 79.85L32.42 79.85L31.68 79.85L31.05 79.85L30.18 79.85L29.18 79.85L28.18 79.85L27.31 79.85L26.69 79.85L26.44 79.85L26.19 79.85L25.69 79.85L25.31 79.85L24.94 79.85L24.44 79.85L24.07 79.85L23.94 79.85L23.82 79.85L23.44 79.85L23.07 79.85L22.57 79.85L21.82 79.85L21.2 79.85L20.7 79.85L20.33 79.85L19.95 79.85L19.7 79.85L19.45 79.85L19.08 79.85L18.7 79.85L18.33 79.85L18.2 79.85L18.08 79.85L17.96 79.85L17.83 79.85L17.71 79.85L17.58 79.85L17.08 79.85L16.46 79.85L16.21 79.85L15.96 79.85L15.59 79.85L15.46 79.85L15.34 79.85L15.21 79.85L15.09 79.85L14.84 79.85L14.71 79.85L14.59 79.85L14.46 79.85L14.34 79.85L14.21 79.85L14.09 79.85L13.71 79.85L13.47 79.85L13.22 79.85L12.97 79.85L12.72 79.85L12.34 79.85L12.22 79.85L12.09 79.85L11.84 79.85L11.72 79.85L11.59 79.85L11.47 79.85L11.35 79.85L11.1 79.85L10.97 79.85L10.85 79.85L10.72 79.85L10.6 79.85L10.47 79.85L10.35 79.85L10.22 79.85L10.1 79.85L9.85 79.85L9.72 79.85L9.6 79.85L9.35 79.85L9.22 79.85L9.1 79.85L8.98 79.85L8.85 79.85L8.73 79.85L8.6 79.85L8.48 79.85L8.35 79.85L8.1 79.85L7.98 79.85L7.85 79.85L7.73 79.85L7.6 79.85L7.35 79.85L7.35 63.96L7.6 63.96L7.73 63.96L7.85 63.96L7.98 63.96L8.1 63.96L8.35 63.96L8.48 63.96L8.6 63.96L8.73 63.96L8.85 63.96L8.98 63.96L9.1 63.96L9.22 63.96L9.35 63.96L9.6 63.96L9.72 63.96L9.85 63.96L10.1 63.96L10.22 63.96L10.35 63.96L10.47 63.96L10.6 63.96L10.72 63.96L10.85 63.96L10.97 63.96L11.1 63.96L11.35 63.96L11.47 63.96L11.59 63.96L11.72 63.96L11.84 63.96L12.09 63.96L12.22 63.96L12.34 63.96L12.72 63.96L12.97 63.96L13.22 63.96L13.47 63.96L13.71 63.96L14.09 63.96L14.21 63.96L14.34 63.96L14.46 63.96L14.59 63.96L14.71 63.96L14.84 63.96L15.09 63.96L15.21 63.96L15.34 63.96L15.46 63.96L15.59 63.96L15.96 63.96L16.21 63.96L16.46 63.96L17.08 63.96L17.58 63.96L17.71 63.96L17.83 63.96L17.96 63.96L18.08 63.96L18.2 63.96L18.33 63.96L18.7 63.96L19.08 63.96L19.45 63.96L19.7 63.96L19.95 63.96L20.33 63.96L20.7 63.96L21.2 63.96L21.82 63.96L22.57 63.96L23.07 63.96L23.44 63.96L23.82 63.96L23.94 63.96L24.07 63.96L24.44 63.96L24.94 63.96L25.31 63.96L25.69 63.96L26.19 63.96L26.44 63.96L26.69 63.96L27.31 63.96L28.18 63.96L29.18 63.96L30.18 63.96L31.05 63.96L31.68 63.96L32.42 63.96L33.55 63.96L34.42 63.96L35.17 63.96L35.92 63.96L36.54 63.96L37.16 63.96L37.66 63.96L38.41 63.96L39.28 63.96L40.28 63.96L41.53 63.96L42.65 63.96L43.77 63.96L45.89 63.96L50.51 63.96L54.5 63.96L55.37 63.96L56.25 63.96L57.12 63.96L57.99 63.96L59.49 63.96L60.11 63.96L60.74 63.96L61.86 63.96L62.86 63.96L63.73 63.96L64.6 63.96L65.1 63.96L65.6 63.96L66.1 63.96L66.1 79.85Z" fill="#C3C3C3" fill-opacity="1.000000" fill-rule="evenodd"/>
	<path id="Форма 8 (Граница)" d="M10.22 69.17L12.72 69.17L15.96 69.17L17.71 69.17L19.58 69.17L21.32 69.17L23.07 69.17L25.06 69.17L26.19 69.17L27.31 69.17L28.43 69.17L29.56 69.17L31.68 69.17L33.92 69.17L36.17 69.17L38.16 69.17L42.03 69.17L46.02 69.17L47.89 69.17L49.01 69.17L50.01 69.17L50.88 69.17L51.76 69.17L52.75 69.17L53.38 69.17L53.63 69.17L53.88 69.17L54.25 69.17L54.5 69.17L54.5 85.06L54.25 85.06L53.88 85.06L53.63 85.06L53.38 85.06L52.75 85.06L51.76 85.06L50.88 85.06L50.01 85.06L49.01 85.06L47.89 85.06L46.02 85.06L42.03 85.06L38.16 85.06L36.17 85.06L33.92 85.06L31.68 85.06L29.56 85.06L28.43 85.06L27.31 85.06L26.19 85.06L25.06 85.06L23.07 85.06L21.32 85.06L19.58 85.06L17.71 85.06L15.96 85.06L12.72 85.06L10.22 85.06L10.22 69.17Z" fill="#C3C3C3" fill-opacity="1.000000" fill-rule="evenodd"/>
	<path id="Форма 9 (Граница)" d="M53.13 96.22L52.63 96.22L52.01 96.22L51.51 96.22L50.63 96.22L50.13 96.22L49.64 96.22L49.14 96.22L48.64 96.22L47.52 96.22L46.27 96.22L45.64 96.22L45.02 96.22L43.65 96.22L42.15 96.22L40.91 96.22L38.04 96.22L34.54 96.22L32.92 96.22L32.17 96.22L31.92 96.22L31.68 96.22L31.3 96.22L31.18 96.22L31.05 96.22L30.93 96.22L30.8 96.22L30.68 96.22L30.55 96.22L30.43 96.22L30.3 96.22L29.93 96.22L29.18 96.22L28.43 96.22L28.06 96.22L27.68 96.22L27.31 96.22L27.31 80.33L27.68 80.33L28.06 80.33L28.43 80.33L29.18 80.33L29.93 80.33L30.3 80.33L30.43 80.33L30.55 80.33L30.68 80.33L30.8 80.33L30.93 80.33L31.05 80.33L31.18 80.33L31.3 80.33L31.68 80.33L31.92 80.33L32.17 80.33L32.92 80.33L34.54 80.33L38.04 80.33L40.91 80.33L42.15 80.33L43.65 80.33L45.02 80.33L45.64 80.33L46.27 80.33L47.52 80.33L48.64 80.33L49.14 80.33L49.64 80.33L50.13 80.33L50.63 80.33L51.51 80.33L52.01 80.33L52.63 80.33L53.13 80.33L53.13 96.22Z" fill="#C3C3C3" fill-opacity="1.000000" fill-rule="evenodd"/>
	<path id="Форма 10 (Граница)" d="M14.21 79.83L14.59 79.83L15.21 79.83L15.59 79.83L15.96 79.83L16.83 79.83L17.46 79.83L18.08 79.83L19.2 79.83L20.45 79.83L21.2 79.83L21.95 79.83L23.32 79.83L24.94 79.83L26.81 79.83L28.43 79.83L30.68 79.83L32.55 79.83L33.05 79.83L33.17 79.83L33.3 79.83L33.42 79.83L33.55 79.83L33.8 79.83L33.8 95.72L33.55 95.72L33.42 95.72L33.3 95.72L33.17 95.72L33.05 95.72L32.55 95.72L30.68 95.72L28.43 95.72L26.81 95.72L24.94 95.72L23.32 95.72L21.95 95.72L21.2 95.72L20.45 95.72L19.2 95.72L18.08 95.72L17.46 95.72L16.83 95.72L15.96 95.72L15.59 95.72L15.21 95.72L14.59 95.72L14.21 95.72L14.21 79.83Z" fill="#C3C3C3" fill-opacity="1.000000" fill-rule="evenodd"/>
	<path id="Форма 11 (Граница)" d="M23.69 87.77L24.32 87.77L25.19 87.77L25.81 87.77L26.31 87.77L26.94 87.77L27.43 87.77L27.93 87.77L29.18 87.77L30.43 87.77L31.55 87.77L32.8 87.77L33.8 87.77L34.79 87.77L36.17 87.77L37.54 87.77L40.41 87.77L43.15 87.77L43.77 87.77L43.9 87.77L44.02 87.77L44.15 87.77L44.27 87.77L44.4 87.77L44.52 87.77L44.52 103.65L44.4 103.65L44.27 103.65L44.15 103.65L44.02 103.65L43.9 103.65L43.77 103.65L43.15 103.65L40.41 103.65L37.54 103.65L36.17 103.65L34.79 103.65L33.8 103.65L32.8 103.65L31.55 103.65L30.43 103.65L29.18 103.65L27.93 103.65L27.43 103.65L26.94 103.65L26.31 103.65L25.81 103.65L25.19 103.65L24.32 103.65L23.69 103.65L23.69 87.77Z" fill="#C3C3C3" fill-opacity="1.000000" fill-rule="evenodd"/>
	<path id="Форма 12 (Граница)" d="M30.93 11.9L31.43 11.9L32.17 11.9L32.67 11.9L32.92 11.9L33.17 11.9L33.8 11.9L34.42 11.9L35.17 11.9L36.17 11.9L37.29 11.9L38.78 11.9L40.28 11.9L41.65 11.9L43.15 11.9L44.4 11.9L45.52 11.9L46.27 11.9L46.39 11.9L46.52 11.9L46.64 11.9L46.77 11.9L47.14 11.9L47.52 11.9L47.64 11.9L47.77 11.9L47.89 11.9L48.01 11.9L48.14 11.9L48.26 11.9L48.51 11.9L48.64 11.9L48.76 11.9L48.76 27.78L48.64 27.78L48.51 27.78L48.26 27.78L48.14 27.78L48.01 27.78L47.89 27.78L47.77 27.78L47.64 27.78L47.52 27.78L47.14 27.78L46.77 27.78L46.64 27.78L46.52 27.78L46.39 27.78L46.27 27.78L45.52 27.78L44.4 27.78L43.15 27.78L41.65 27.78L40.28 27.78L38.78 27.78L37.29 27.78L36.17 27.78L35.17 27.78L34.42 27.78L33.8 27.78L33.17 27.78L32.92 27.78L32.67 27.78L32.17 27.78L31.43 27.78L30.93 27.78L30.93 11.9Z" fill="#C3C3C3" fill-opacity="1.000000" fill-rule="evenodd"/>
	<path id="Форма 13 (Граница)" d="M52.38 96.96L52.01 96.96L51.51 96.96L51.38 96.96L51.26 96.96L51.13 96.96L51.01 96.96L50.88 96.96L50.76 96.96L50.26 96.96L49.26 96.96L47.89 96.96L46.52 96.96L44.77 96.96L43.03 96.96L41.28 96.96L39.41 96.96L37.79 96.96L34.54 96.96L30.93 96.96L29.18 96.96L28.31 96.96L27.43 96.96L26.56 96.96L25.81 96.96L25.19 96.96L24.69 96.96L24.32 96.96L24.19 96.96L24.07 96.96L23.94 96.96L23.82 96.96L23.44 96.96L23.19 96.96L22.94 96.96L22.7 96.96L22.45 96.96L22.2 96.96L21.95 96.96L21.57 96.96L21.45 96.96L21.32 96.96L21.32 81.07L21.45 81.07L21.57 81.07L21.95 81.07L22.2 81.07L22.45 81.07L22.7 81.07L22.94 81.07L23.19 81.07L23.44 81.07L23.82 81.07L23.94 81.07L24.07 81.07L24.19 81.07L24.32 81.07L24.69 81.07L25.19 81.07L25.81 81.07L26.56 81.07L27.43 81.07L28.31 81.07L29.18 81.07L30.93 81.07L34.54 81.07L37.79 81.07L39.41 81.07L41.28 81.07L43.03 81.07L44.77 81.07L46.52 81.07L47.89 81.07L49.26 81.07L50.26 81.07L50.76 81.07L50.88 81.07L51.01 81.07L51.13 81.07L51.26 81.07L51.38 81.07L51.51 81.07L52.01 81.07L52.38 81.07L52.38 96.96Z" fill="#373737" fill-opacity="1.000000" fill-rule="evenodd"/>
	<path id="Форма 14 (Граница)" d="M11.72 72.39L12.34 72.39L13.47 72.39L14.21 72.39L15.09 72.39L16.71 72.39L18.7 72.39L19.7 72.39L20.7 72.39L22.82 72.39L24.94 72.39L27.06 72.39L29.43 72.39L31.68 72.39L33.55 72.39L35.17 72.39L38.04 72.39L40.91 72.39L42.03 72.39L42.53 72.39L42.9 72.39L43.27 72.39L43.4 72.39L43.52 72.39L43.65 72.39L43.77 72.39L43.9 72.39L44.02 72.39L44.52 72.39L45.52 72.39L46.52 72.39L46.52 88.28L45.52 88.28L44.52 88.28L44.02 88.28L43.9 88.28L43.77 88.28L43.65 88.28L43.52 88.28L43.4 88.28L43.27 88.28L42.9 88.28L42.53 88.28L42.03 88.28L40.91 88.28L38.04 88.28L35.17 88.28L33.55 88.28L31.68 88.28L29.43 88.28L27.06 88.28L24.94 88.28L22.82 88.28L20.7 88.28L19.7 88.28L18.7 88.28L16.71 88.28L15.09 88.28L14.21 88.28L13.47 88.28L12.34 88.28L11.72 88.28L11.72 72.39Z" fill="#373737" fill-opacity="1.000000" fill-rule="evenodd"/>
	<path id="Форма 15 (Граница)" d="M50.88 76.38L47.02 76.38L42.28 76.38L40.03 76.38L37.66 76.38L35.79 76.38L33.42 76.38L30.8 76.38L29.68 76.38L28.56 76.38L26.19 76.38L24.94 76.38L23.69 76.38L21.45 76.38L19.7 76.38L18.45 76.38L16.83 76.38L15.21 76.38L14.34 76.38L13.71 76.38L13.47 76.38L13.22 76.38L12.97 76.38L12.72 76.38L12.34 76.38L12.34 60.49L12.72 60.49L12.97 60.49L13.22 60.49L13.47 60.49L13.71 60.49L14.34 60.49L15.21 60.49L16.83 60.49L18.45 60.49L19.7 60.49L21.45 60.49L23.69 60.49L24.94 60.49L26.19 60.49L28.56 60.49L29.68 60.49L30.8 60.49L33.42 60.49L35.79 60.49L37.66 60.49L40.03 60.49L42.28 60.49L47.02 60.49L50.88 60.49L50.88 76.38Z" fill="#373737" fill-opacity="1.000000" fill-rule="evenodd"/>
	<path id="Форма 16 (Граница)" d="M6.48 49.58L8.6 49.58L11.59 49.58L13.59 49.58L15.71 49.58L17.96 49.58L20.33 49.58L22.45 49.58L24.69 49.58L25.94 49.58L27.19 49.58L29.56 49.58L31.92 49.58L34.17 49.58L35.17 49.58L36.17 49.58L38.04 49.58L40.91 49.58L43.65 49.58L44.9 49.58L45.77 49.58L46.39 49.58L46.64 49.58L46.89 49.58L47.39 49.58L47.64 49.58L47.89 49.58L48.39 49.58L49.14 49.58L49.89 49.58L50.26 49.58L50.63 49.58L51.01 49.58L51.13 49.58L51.26 49.58L51.38 49.58L51.51 49.58L51.63 49.58L51.76 49.58L52.13 49.58L52.5 49.58L52.5 65.47L52.13 65.47L51.76 65.47L51.63 65.47L51.51 65.47L51.38 65.47L51.26 65.47L51.13 65.47L51.01 65.47L50.63 65.47L50.26 65.47L49.89 65.47L49.14 65.47L48.39 65.47L47.89 65.47L47.64 65.47L47.39 65.47L46.89 65.47L46.64 65.47L46.39 65.47L45.77 65.47L44.9 65.47L43.65 65.47L40.91 65.47L38.04 65.47L36.17 65.47L35.17 65.47L34.17 65.47L31.92 65.47L29.56 65.47L27.19 65.47L25.94 65.47L24.69 65.47L22.45 65.47L20.33 65.47L17.96 65.47L15.71 65.47L13.59 65.47L11.59 65.47L8.6 65.47L6.48 65.47L6.48 49.58Z" fill="#373737" fill-opacity="1.000000" fill-rule="evenodd"/>
	<path id="Форма 17 (Граница)" d="M51.13 54.06L49.26 54.06L46.64 54.06L45.27 54.06L44.15 54.06L42.65 54.06L40.78 54.06L39.91 54.06L39.03 54.06L38.16 54.06L37.29 54.06L35.67 54.06L34.17 54.06L32.55 54.06L31.05 54.06L29.93 54.06L27.93 54.06L25.81 54.06L24.94 54.06L24.57 54.06L24.07 54.06L23.32 54.06L22.57 54.06L21.7 54.06L20.95 54.06L20.33 54.06L19.7 54.06L19.7 38.18L20.33 38.18L20.95 38.18L21.7 38.18L22.57 38.18L23.32 38.18L24.07 38.18L24.57 38.18L24.94 38.18L25.81 38.18L27.93 38.18L29.93 38.18L31.05 38.18L32.55 38.18L34.17 38.18L35.67 38.18L37.29 38.18L38.16 38.18L39.03 38.18L39.91 38.18L40.78 38.18L42.65 38.18L44.15 38.18L45.27 38.18L46.64 38.18L49.26 38.18L51.13 38.18L51.13 54.06Z" fill="#373737" fill-opacity="1.000000" fill-rule="evenodd"/>
	<path id="Форма 18 (Граница)" d="M16.71 28.51L17.83 28.51L19.7 28.51L21.57 28.51L23.94 28.51L25.56 28.51L26.31 28.51L27.68 28.51L30.05 28.51L32.92 28.51L35.54 28.51L37.54 28.51L39.16 28.51L40.53 28.51L42.78 28.51L45.15 28.51L46.52 28.51L47.39 28.51L48.14 28.51L48.89 28.51L49.64 28.51L50.38 28.51L50.88 28.51L51.26 28.51L51.38 28.51L51.51 28.51L51.63 28.51L51.76 28.51L51.88 28.51L52.01 28.51L52.26 28.51L52.63 28.51L53 28.51L53 44.4L52.63 44.4L52.26 44.4L52.01 44.4L51.88 44.4L51.76 44.4L51.63 44.4L51.51 44.4L51.38 44.4L51.26 44.4L50.88 44.4L50.38 44.4L49.64 44.4L48.89 44.4L48.14 44.4L47.39 44.4L46.52 44.4L45.15 44.4L42.78 44.4L40.53 44.4L39.16 44.4L37.54 44.4L35.54 44.4L32.92 44.4L30.05 44.4L27.68 44.4L26.31 44.4L25.56 44.4L23.94 44.4L21.57 44.4L19.7 44.4L17.83 44.4L16.71 44.4L16.71 28.51Z" fill="#373737" fill-opacity="1.000000" fill-rule="evenodd"/>
	<path id="Форма 19 (Граница)" d="M54.62 33.73L52.88 33.73L50.51 33.73L49.14 33.73L47.39 33.73L45.64 33.73L43.9 33.73L42.15 33.73L40.78 33.73L39.41 33.73L38.04 33.73L36.66 33.73L35.42 33.73L34.29 33.73L32.55 33.73L31.3 33.73L31.18 33.73L31.05 33.73L30.93 33.73L30.8 33.73L30.43 33.73L29.68 33.73L28.93 33.73L28.93 17.85L29.68 17.85L30.43 17.85L30.8 17.85L30.93 17.85L31.05 17.85L31.18 17.85L31.3 17.85L32.55 17.85L34.29 17.85L35.42 17.85L36.66 17.85L38.04 17.85L39.41 17.85L40.78 17.85L42.15 17.85L43.9 17.85L45.64 17.85L47.39 17.85L49.14 17.85L50.51 17.85L52.88 17.85L54.62 17.85L54.62 33.73Z" fill="#373737" fill-opacity="1.000000" fill-rule="evenodd"/>
	<path id="Форма 20 (Граница)" d="M35.42 10.41L35.79 10.41L36.29 10.41L36.41 10.41L36.54 10.41L36.91 10.41L37.41 10.41L37.66 10.41L37.91 10.41L38.54 10.41L39.28 10.41L40.16 10.41L41.15 10.41L42.4 10.41L43.65 10.41L45.52 10.41L47.27 10.41L47.76 10.41L47.89 10.41L48.01 10.41L48.39 10.41L48.39 26.3L48.01 26.3L47.89 26.3L47.76 26.3L47.27 26.3L45.52 26.3L43.65 26.3L42.4 26.3L41.15 26.3L40.16 26.3L39.28 26.3L38.54 26.3L37.91 26.3L37.66 26.3L37.41 26.3L36.91 26.3L36.54 26.3L36.41 26.3L36.29 26.3L35.79 26.3L35.42 26.3L35.42 10.41Z" fill="#373737" fill-opacity="1.000000" fill-rule="evenodd"/>
	<path id="Форма 21 (Граница)" d="M62.11 73.65L61.61 73.65L60.86 73.65L60.24 73.65L59.36 73.65L58.37 73.65L57.24 73.65L55.75 73.65L54.87 73.65L54 73.65L52.13 73.65L50.01 73.65L47.89 73.65L46.02 73.65L42.53 73.65L42.53 57.77L46.02 57.77L47.89 57.77L50.01 57.77L52.13 57.77L54 57.77L54.87 57.77L55.75 57.77L57.24 57.77L58.37 57.77L59.36 57.77L60.24 57.77L60.86 57.77L61.61 57.77L62.11 57.77L62.11 73.65Z" fill="#373737" fill-opacity="1.000000" fill-rule="evenodd"/>
	<path id="Форма 22 (Граница)" d="M66.6 58.03L65.97 58.03L65.1 58.03L64.48 58.03L63.36 58.03L61.98 58.03L61.36 58.03L60.74 58.03L58.87 58.03L56.62 58.03L54.5 58.03L52.5 58.03L50.38 58.03L48.39 58.03L46.52 58.03L43.15 58.03L40.28 58.03L38.91 58.03L38.04 58.03L37.41 58.03L36.79 58.03L36.41 58.03L36.04 58.03L35.92 58.03L35.79 58.03L35.54 58.03L35.17 58.03L34.79 58.03L34.17 58.03L33.42 58.03L32.8 58.03L32.17 58.03L31.92 58.03L31.68 58.03L31.43 58.03L31.18 58.03L31.18 42.15L31.43 42.15L31.68 42.15L31.92 42.15L32.17 42.15L32.8 42.15L33.42 42.15L34.17 42.15L34.79 42.15L35.17 42.15L35.54 42.15L35.79 42.15L35.92 42.15L36.04 42.15L36.41 42.15L36.79 42.15L37.41 42.15L38.04 42.15L38.91 42.15L40.28 42.15L43.15 42.15L46.52 42.15L48.39 42.15L50.38 42.15L52.5 42.15L54.5 42.15L56.62 42.15L58.87 42.15L60.74 42.15L61.36 42.15L61.98 42.15L63.36 42.15L64.48 42.15L65.1 42.15L65.97 42.15L66.6 42.15L66.6 58.03Z" fill="#373737" fill-opacity="1.000000" fill-rule="evenodd"/>
	<path id="Форма 23 (Граница)" d="M10.97 34.46L11.47 34.46L12.22 34.46L12.47 34.46L12.72 34.46L13.09 34.46L13.47 34.46L14.21 34.46L14.71 34.46L15.21 34.46L16.21 34.46L17.33 34.46L18.7 34.46L19.45 34.46L20.2 34.46L20.95 34.46L21.7 34.46L26.19 34.46L31.18 34.46L32.42 34.46L33.67 34.46L35.29 34.46L36.29 34.46L37.54 34.46L38.66 34.46L39.78 34.46L41.28 34.46L42.53 34.46L42.53 50.35L41.28 50.35L39.78 50.35L38.66 50.35L37.54 50.35L36.29 50.35L35.29 50.35L33.67 50.35L32.42 50.35L31.18 50.35L26.19 50.35L21.7 50.35L20.95 50.35L20.2 50.35L19.45 50.35L18.7 50.35L17.33 50.35L16.21 50.35L15.21 50.35L14.71 50.35L14.21 50.35L13.47 50.35L13.09 50.35L12.72 50.35L12.47 50.35L12.22 50.35L11.47 50.35L10.97 50.35L10.97 34.46Z" fill="#373737" fill-opacity="1.000000" fill-rule="evenodd"/>
	<path id="Форма 24 (Граница)" d="M38.66 101.67L38.29 101.67L37.54 101.67L36.79 101.67L35.92 101.67L35.17 101.67L34.54 101.67L33.8 101.67L33.05 101.67L31.68 101.67L30.43 101.67L30.18 101.67L29.93 101.67L29.55 101.67L29.18 101.67L28.93 101.67L28.68 101.67L28.31 101.67L27.93 101.67L27.56 101.67L27.43 101.67L27.31 101.67L27.19 101.67L27.06 101.67L27.06 85.78L27.19 85.78L27.31 85.78L27.43 85.78L27.56 85.78L27.93 85.78L28.31 85.78L28.68 85.78L28.93 85.78L29.18 85.78L29.55 85.78L29.93 85.78L30.18 85.78L30.43 85.78L31.68 85.78L33.05 85.78L33.8 85.78L34.54 85.78L35.17 85.78L35.92 85.78L36.79 85.78L37.54 85.78L38.29 85.78L38.66 85.78L38.66 101.67Z" fill="#373737" fill-opacity="1.000000" fill-rule="evenodd"/>
	<path id="Форма 25 (Граница)" d="M60.61 79.6L59.99 79.6L58.87 79.6L57.87 79.6L56.99 79.6L56.12 79.6L54.62 79.6L53 79.6L52.38 79.6L51.76 79.6L50.63 79.6L50.13 79.6L49.64 79.6L48.51 79.6L47.27 79.6L43.4 79.6L39.66 79.6L38.91 79.6L38.91 63.72L39.66 63.72L43.4 63.72L47.27 63.72L48.51 63.72L49.64 63.72L50.13 63.72L50.63 63.72L51.76 63.72L52.38 63.72L53 63.72L54.62 63.72L56.12 63.72L56.99 63.72L57.87 63.72L58.87 63.72L59.99 63.72L60.61 63.72L60.61 79.6Z" fill="#373737" fill-opacity="1.000000" fill-rule="evenodd"/>
	<path id="Форма 26 (Граница)" d="M49.39 21.83L48.76 21.83L47.89 21.83L47.64 21.83L47.39 21.83L46.77 21.83L46.02 21.83L45.52 21.83L45.15 21.83L44.77 21.83L44.4 21.83L44.02 21.83L43.65 21.83L43.65 5.95L44.02 5.95L44.4 5.95L44.77 5.95L45.15 5.95L45.52 5.95L46.02 5.95L46.77 5.95L47.39 5.95L47.64 5.95L47.89 5.95L48.76 5.95L49.39 5.95L49.39 21.83Z" fill="#373737" fill-opacity="1.000000" fill-rule="evenodd"/>
	<path id="Форма 27 (Граница)" d="M25.19 93.47L25.69 93.47L26.44 93.47L27.06 93.47L27.56 93.47L27.93 93.47L28.56 93.47L29.56 93.47L31.3 93.47L32.55 93.47L32.67 93.47L32.8 93.47L32.92 93.47L33.05 93.47L33.17 93.47L33.3 93.47L33.3 109.36L33.17 109.36L33.05 109.36L32.92 109.36L32.8 109.36L32.67 109.36L32.55 109.36L31.3 109.36L29.56 109.36L28.56 109.36L27.93 109.36L27.56 109.36L27.06 109.36L26.44 109.36L25.69 109.36L25.19 109.36L25.19 93.47Z" fill="#373737" fill-opacity="1.000000" fill-rule="evenodd"/>
	<path id="Форма 28 (Граница)" d="M33.92 19.83L34.29 19.83L34.92 19.83L35.29 19.83L35.79 19.83L36.54 19.83L37.29 19.83L38.16 19.83L39.41 19.83L40.53 19.83L42.03 19.83L43.4 19.83L43.65 19.83L43.9 19.83L44.27 19.83L44.4 19.83L44.52 19.83L44.65 19.83L44.77 19.83L45.15 19.83L45.52 19.83L45.64 19.83L45.77 19.83L45.89 19.83L46.02 19.83L46.14 19.83L46.27 19.83L46.39 19.83L46.52 19.83L46.64 19.83L46.77 19.83L46.77 35.72L46.64 35.72L46.52 35.72L46.39 35.72L46.27 35.72L46.14 35.72L46.02 35.72L45.89 35.72L45.77 35.72L45.64 35.72L45.52 35.72L45.15 35.72L44.77 35.72L44.65 35.72L44.52 35.72L44.4 35.72L44.27 35.72L43.9 35.72L43.65 35.72L43.4 35.72L42.03 35.72L40.53 35.72L39.41 35.72L38.16 35.72L37.29 35.72L36.54 35.72L35.79 35.72L35.29 35.72L34.92 35.72L34.29 35.72L33.92 35.72L33.92 19.83Z" fill="#303030" fill-opacity="1.000000" fill-rule="evenodd"/>
	<path id="Форма 29 (Граница)" d="M50.13 46.38L49.26 46.38L48.01 46.38L47.39 46.38L46.89 46.38L46.27 46.38L45.52 46.38L44.77 46.38L44.02 46.38L43.27 46.38L42.28 46.38L41.28 46.38L40.41 46.38L39.53 46.38L38.66 46.38L37.04 46.38L35.54 46.38L35.04 46.38L34.67 46.38L34.05 46.38L33.42 46.38L32.8 46.38L31.92 46.38L31.43 46.38L30.93 46.38L30.05 46.38L29.43 46.38L29.18 46.38L28.93 46.38L28.43 46.38L28.18 46.38L27.93 46.38L27.56 46.38L27.43 46.38L27.31 46.38L27.19 46.38L27.06 46.38L26.69 46.38L26.06 46.38L25.31 46.38L24.32 46.38L23.69 46.38L23.07 46.38L22.2 46.38L21.95 46.38L21.7 46.38L21.45 46.38L21.2 46.38L20.82 46.38L20.7 46.38L20.57 46.38L20.33 46.38L20.33 30.49L20.57 30.49L20.7 30.49L20.82 30.49L21.2 30.49L21.45 30.49L21.7 30.49L21.95 30.49L22.2 30.49L23.07 30.49L23.69 30.49L24.32 30.49L25.31 30.49L26.06 30.49L26.69 30.49L27.06 30.49L27.19 30.49L27.31 30.49L27.43 30.49L27.56 30.49L27.93 30.49L28.18 30.49L28.43 30.49L28.93 30.49L29.18 30.49L29.43 30.49L30.05 30.49L30.93 30.49L31.43 30.49L31.92 30.49L32.8 30.49L33.42 30.49L34.05 30.49L34.67 30.49L35.04 30.49L35.54 30.49L37.04 30.49L38.66 30.49L39.53 30.49L40.41 30.49L41.28 30.49L42.28 30.49L43.27 30.49L44.02 30.49L44.77 30.49L45.52 30.49L46.27 30.49L46.89 30.49L47.39 30.49L48.01 30.49L49.26 30.49L50.13 30.49L50.13 46.38Z" fill="#303030" fill-opacity="1.000000" fill-rule="evenodd"/>
	<path id="Форма 30 (Граница)" d="M17.96 38.92L18.58 38.92L19.45 38.92L20.2 38.92L21.07 38.92L21.95 38.92L23.32 38.92L24.94 38.92L26.56 38.92L28.06 38.92L29.93 38.92L31.68 38.92L32.8 38.92L34.05 38.92L35.04 38.92L36.66 38.92L38.16 38.92L38.41 38.92L38.66 38.92L38.91 38.92L39.16 38.92L39.91 38.92L40.53 38.92L40.66 38.92L40.78 38.92L40.91 38.92L41.03 38.92L41.28 38.92L41.4 38.92L41.53 38.92L41.65 38.92L41.78 38.92L41.78 54.81L41.65 54.81L41.53 54.81L41.4 54.81L41.28 54.81L41.03 54.81L40.91 54.81L40.78 54.81L40.66 54.81L40.53 54.81L39.91 54.81L39.16 54.81L38.91 54.81L38.66 54.81L38.41 54.81L38.16 54.81L36.66 54.81L35.04 54.81L34.05 54.81L32.8 54.81L31.68 54.81L29.93 54.81L28.06 54.81L26.56 54.81L24.94 54.81L23.32 54.81L21.95 54.81L21.07 54.81L20.2 54.81L19.45 54.81L18.58 54.81L17.96 54.81L17.96 38.92Z" fill="#303030" fill-opacity="1.000000" fill-rule="evenodd"/>
	<path id="Форма 31 (Граница)" d="M57.87 61.01L57.37 61.01L56.75 61.01L56.62 61.01L56.5 61.01L56.37 61.01L56.25 61.01L55.75 61.01L54.75 61.01L54.13 61.01L53.5 61.01L52.01 61.01L50.38 61.01L48.76 61.01L46.89 61.01L45.89 61.01L44.9 61.01L43.03 61.01L40.28 61.01L37.79 61.01L36.66 61.01L35.79 61.01L35.04 61.01L34.29 61.01L33.42 61.01L32.55 61.01L31.92 61.01L31.3 61.01L30.68 61.01L30.43 61.01L30.18 61.01L29.68 61.01L29.31 61.01L29.18 61.01L29.06 61.01L28.93 61.01L28.81 61.01L28.68 61.01L28.56 61.01L28.31 61.01L27.93 61.01L27.56 61.01L27.19 61.01L26.81 61.01L26.31 61.01L25.69 61.01L25.69 45.12L26.31 45.12L26.81 45.12L27.19 45.12L27.56 45.12L27.93 45.12L28.31 45.12L28.56 45.12L28.68 45.12L28.81 45.12L28.93 45.12L29.06 45.12L29.18 45.12L29.31 45.12L29.68 45.12L30.18 45.12L30.43 45.12L30.68 45.12L31.3 45.12L31.92 45.12L32.55 45.12L33.42 45.12L34.29 45.12L35.04 45.12L35.79 45.12L36.66 45.12L37.79 45.12L40.28 45.12L43.03 45.12L44.9 45.12L45.89 45.12L46.89 45.12L48.76 45.12L50.38 45.12L52.01 45.12L53.5 45.12L54.13 45.12L54.75 45.12L55.75 45.12L56.25 45.12L56.37 45.12L56.5 45.12L56.62 45.12L56.75 45.12L57.37 45.12L57.87 45.12L57.87 61.01Z" fill="#303030" fill-opacity="1.000000" fill-rule="evenodd"/>
	<path id="Форма 32 (Граница)" d="M18.95 55.04L19.58 55.04L20.45 55.04L20.95 55.04L21.95 55.04L23.19 55.04L24.44 55.04L26.19 55.04L28.06 55.04L28.93 55.04L29.8 55.04L30.68 55.04L31.55 55.04L33.55 55.04L35.42 55.04L36.17 55.04L36.91 55.04L38.29 55.04L41.15 55.04L44.4 55.04L46.14 55.04L47.14 55.04L47.39 55.04L47.64 55.04L47.89 55.04L48.14 55.04L48.64 55.04L48.89 55.04L49.14 55.04L49.51 55.04L49.64 55.04L49.76 55.04L49.76 70.93L49.64 70.93L49.51 70.93L49.14 70.93L48.89 70.93L48.64 70.93L48.14 70.93L47.89 70.93L47.64 70.93L47.39 70.93L47.14 70.93L46.14 70.93L44.4 70.93L41.15 70.93L38.29 70.93L36.91 70.93L36.17 70.93L35.42 70.93L33.55 70.93L31.55 70.93L30.68 70.93L29.8 70.93L28.93 70.93L28.06 70.93L26.19 70.93L24.44 70.93L23.19 70.93L21.95 70.93L20.95 70.93L20.45 70.93L19.58 70.93L18.95 70.93L18.95 55.04Z" fill="#303030" fill-opacity="1.000000" fill-rule="evenodd"/>
	<path id="Форма 33 (Граница)" d="M14.96 69.17L15.34 69.17L15.84 69.17L15.96 69.17L16.08 69.17L16.46 69.17L16.96 69.17L17.58 69.17L18.33 69.17L19.2 69.17L20.45 69.17L21.82 69.17L23.19 69.17L26.19 69.17L29.43 69.17L30.93 69.17L31.8 69.17L32.55 69.17L33.17 69.17L33.8 69.17L34.42 69.17L34.67 69.17L34.92 69.17L35.29 69.17L35.79 69.17L36.41 69.17L36.79 69.17L37.16 69.17L37.54 69.17L37.66 69.17L37.79 69.17L37.91 69.17L38.04 69.17L38.16 69.17L38.29 69.17L38.41 69.17L38.54 69.17L38.66 69.17L38.78 69.17L38.91 69.17L39.03 69.17L39.41 69.17L39.91 69.17L39.91 85.06L39.41 85.06L39.03 85.06L38.91 85.06L38.78 85.06L38.66 85.06L38.54 85.06L38.41 85.06L38.29 85.06L38.16 85.06L38.04 85.06L37.91 85.06L37.79 85.06L37.66 85.06L37.54 85.06L37.16 85.06L36.79 85.06L36.41 85.06L35.79 85.06L35.29 85.06L34.92 85.06L34.67 85.06L34.42 85.06L33.8 85.06L33.17 85.06L32.55 85.06L31.8 85.06L30.93 85.06L29.43 85.06L26.19 85.06L23.19 85.06L21.82 85.06L20.45 85.06L19.2 85.06L18.33 85.06L17.58 85.06L16.96 85.06L16.46 85.06L16.08 85.06L15.96 85.06L15.84 85.06L15.34 85.06L14.96 85.06L14.96 69.17Z" fill="#303030" fill-opacity="1.000000" fill-rule="evenodd"/>
	<path id="Форма 34 (Граница)" d="M53.38 90.02L53 90.02L52.5 90.02L52.13 90.02L51.76 90.02L51.38 90.02L50.51 90.02L49.89 90.02L49.26 90.02L48.64 90.02L48.01 90.02L44.52 90.02L40.53 90.02L38.66 90.02L37.54 90.02L36.91 90.02L36.66 90.02L36.41 90.02L35.79 90.02L35.17 90.02L34.54 90.02L34.05 90.02L33.55 90.02L33.05 90.02L32.55 90.02L31.92 90.02L31.05 90.02L30.18 90.02L29.68 90.02L29.43 90.02L29.18 90.02L28.93 90.02L28.68 90.02L28.31 90.02L27.93 90.02L27.68 90.02L27.43 90.02L27.19 90.02L26.94 90.02L26.69 90.02L26.44 90.02L26.06 90.02L25.94 90.02L25.81 90.02L25.81 74.13L25.94 74.13L26.06 74.13L26.44 74.13L26.69 74.13L26.94 74.13L27.19 74.13L27.43 74.13L27.68 74.13L27.93 74.13L28.31 74.13L28.68 74.13L28.93 74.13L29.18 74.13L29.43 74.13L29.68 74.13L30.18 74.13L31.05 74.13L31.92 74.13L32.55 74.13L33.05 74.13L33.55 74.13L34.05 74.13L34.54 74.13L35.17 74.13L35.79 74.13L36.41 74.13L36.66 74.13L36.91 74.13L37.54 74.13L38.66 74.13L40.53 74.13L44.52 74.13L48.01 74.13L48.64 74.13L49.26 74.13L49.89 74.13L50.51 74.13L51.38 74.13L51.76 74.13L52.13 74.13L52.5 74.13L53 74.13L53.38 74.13L53.38 90.02Z" fill="#303030" fill-opacity="1.000000" fill-rule="evenodd"/>
	<path id="Форма 35 (Граница)" d="M23.94 85.29L24.32 85.29L24.82 85.29L24.94 85.29L25.06 85.29L25.19 85.29L25.31 85.29L25.94 85.29L26.81 85.29L27.81 85.29L29.31 85.29L30.93 85.29L32.42 85.29L33.8 85.29L34.79 85.29L35.79 85.29L37.16 85.29L38.04 85.29L38.16 85.29L38.29 85.29L38.29 101.17L38.16 101.17L38.04 101.17L37.16 101.17L35.79 101.17L34.79 101.17L33.8 101.17L32.42 101.17L30.93 101.17L29.31 101.17L27.81 101.17L26.81 101.17L25.94 101.17L25.31 101.17L25.19 101.17L25.06 101.17L24.94 101.17L24.82 101.17L24.32 101.17L23.94 101.17L23.94 85.29Z" fill="#303030" fill-opacity="1.000000" fill-rule="evenodd"/>
	<path id="Форма 36 (Граница)" d="M29.68 111.34L29.18 111.34L28.31 111.34L27.56 111.34L26.81 111.34L26.06 111.34L25.31 111.34L24.82 111.34L24.44 111.34L24.07 111.34L23.57 111.34L22.94 111.34L22.57 111.34L22.32 111.34L22.32 95.45L22.57 95.45L22.94 95.45L23.57 95.45L24.07 95.45L24.44 95.45L24.82 95.45L25.31 95.45L26.06 95.45L26.81 95.45L27.56 95.45L28.31 95.45L29.18 95.45L29.68 95.45L29.68 111.34Z" fill="#303030" fill-opacity="1.000000" fill-rule="evenodd"/>
	<path id="Форма 37 (Граница)" d="M47.64 23.57L47.27 23.57L46.77 23.57L46.39 23.57L46.14 23.57L45.89 23.57L45.52 23.57L45.15 23.57L44.77 23.57L44.65 23.57L44.52 23.57L44.4 23.57L44.27 23.57L43.52 23.57L42.53 23.57L42.03 23.57L41.9 23.57L41.78 23.57L41.78 7.68L41.9 7.68L42.03 7.68L42.53 7.68L43.52 7.68L44.27 7.68L44.4 7.68L44.52 7.68L44.65 7.68L44.77 7.68L45.15 7.68L45.52 7.68L45.89 7.68L46.14 7.68L46.39 7.68L46.77 7.68L47.27 7.68L47.64 7.68L47.64 23.57Z" fill="#303030" fill-opacity="1.000000" fill-rule="evenodd"/>
	<path id="Форма 38 (Граница)" d="M44.4 0L44.77 0L45.27 0L45.4 0L45.52 0L45.64 0L45.77 0L45.89 0L46.02 0L46.14 0L46.27 0L46.39 0L46.52 0L46.64 0L46.77 0L46.77 15.88L46.64 15.88L46.52 15.88L46.39 15.88L46.27 15.88L46.14 15.88L46.02 15.88L45.89 15.88L45.77 15.88L45.64 15.88L45.52 15.88L45.4 15.88L45.27 15.88L44.77 15.88L44.4 15.88L44.4 0Z" fill="#303030" fill-opacity="1.000000" fill-rule="evenodd"/>
	<path id="Форма 39 (Граница)" d="M12.47 48.84L13.47 48.84L14.96 48.84L15.96 48.84L17.71 48.84L19.58 48.84L21.07 48.84L22.7 48.84L23.94 48.84L25.06 48.84L26.19 48.84L27.31 48.84L28.18 48.84L28.68 48.84L28.68 64.73L28.18 64.73L27.31 64.73L26.19 64.73L25.06 64.73L23.94 64.73L22.7 64.73L21.07 64.73L19.58 64.73L17.71 64.73L15.96 64.73L14.96 64.73L13.47 64.73L12.47 64.73L12.47 48.84Z" fill="#303030" fill-opacity="1.000000" fill-rule="evenodd"/>
	<path id="Форма 40 (Граница)" d="M47.14 26.54L46.02 26.54L44.52 26.54L44.02 26.54L43.52 26.54L43.03 26.54L43.03 10.66L43.52 10.66L44.02 10.66L44.52 10.66L46.02 10.66L47.14 10.66L47.14 26.54Z" fill="#1A1A1A" fill-opacity="1.000000" fill-rule="evenodd"/>
	<path id="Форма 41 (Граница)" d="M44.9 35.22L44.27 35.22L42.9 35.22L41.4 35.22L40.66 35.22L39.91 35.22L38.66 35.22L37.54 35.22L36.17 35.22L35.04 35.22L34.42 35.22L33.8 35.22L33.17 35.22L32.8 35.22L32.8 19.33L33.17 19.33L33.8 19.33L34.42 19.33L35.04 19.33L36.17 19.33L37.54 19.33L38.66 19.33L39.91 19.33L40.66 19.33L41.4 19.33L42.9 19.33L44.27 19.33L44.9 19.33L44.9 35.22Z" fill="#1A1A1A" fill-opacity="1.000000" fill-rule="evenodd"/>
	<path id="Форма 42 (Граница)" d="M26.94 30.49L27.56 30.49L28.18 30.49L28.81 30.49L30.05 30.49L31.43 30.49L33.05 30.49L34.67 30.49L36.04 30.49L37.29 30.49L37.91 30.49L38.54 30.49L39.91 30.49L41.78 30.49L43.27 30.49L43.27 46.38L41.78 46.38L39.91 46.38L38.54 46.38L37.91 46.38L37.29 46.38L36.04 46.38L34.67 46.38L33.05 46.38L31.43 46.38L30.05 46.38L28.81 46.38L28.18 46.38L27.56 46.38L26.94 46.38L26.94 30.49Z" fill="#1A1A1A" fill-opacity="1.000000" fill-rule="evenodd"/>
	<path id="Форма 43 (Граница)" d="M47.64 54.06L46.02 54.06L43.77 54.06L42.4 54.06L40.66 54.06L38.91 54.06L37.54 54.06L35.92 54.06L34.92 54.06L33.92 54.06L31.8 54.06L29.8 54.06L28.93 54.06L28.06 54.06L26.44 54.06L25.19 54.06L24.07 54.06L23.19 54.06L22.82 54.06L22.82 38.18L23.19 38.18L24.07 38.18L25.19 38.18L26.44 38.18L28.06 38.18L28.93 38.18L29.8 38.18L31.8 38.18L33.92 38.18L34.92 38.18L35.92 38.18L37.54 38.18L38.91 38.18L40.66 38.18L42.4 38.18L43.77 38.18L46.02 38.18L47.64 38.18L47.64 54.06Z" fill="#1A1A1A" fill-opacity="1.000000" fill-rule="evenodd"/>
	<path id="Форма 44 (Граница)" d="M19.2 50.08L19.83 50.08L21.2 50.08L22.57 50.08L24.19 50.08L26.06 50.08L28.06 50.08L29.18 50.08L30.3 50.08L32.55 50.08L33.67 50.08L34.79 50.08L35.92 50.08L37.04 50.08L39.41 50.08L41.4 50.08L43.9 50.08L45.77 50.08L45.77 65.97L43.9 65.97L41.4 65.97L39.41 65.97L37.04 65.97L35.92 65.97L34.79 65.97L33.67 65.97L32.55 65.97L30.3 65.97L29.18 65.97L28.06 65.97L26.06 65.97L24.19 65.97L22.57 65.97L21.2 65.97L19.83 65.97L19.2 65.97L19.2 50.08Z" fill="#1A1A1A" fill-opacity="1.000000" fill-rule="evenodd"/>
	<path id="Форма 45 (Граница)" d="M38.16 74.89L37.66 74.89L36.79 74.89L36.17 74.89L35.42 74.89L34.92 74.89L34.42 74.89L33.3 74.89L32.05 74.89L30.93 74.89L30.05 74.89L29.43 74.89L28.68 74.89L27.93 74.89L27.56 74.89L27.43 74.89L27.31 74.89L27.31 59.01L27.43 59.01L27.56 59.01L27.93 59.01L28.68 59.01L29.43 59.01L30.05 59.01L30.93 59.01L32.05 59.01L33.3 59.01L34.42 59.01L34.92 59.01L35.42 59.01L36.17 59.01L36.79 59.01L37.66 59.01L38.16 59.01L38.16 74.89Z" fill="#1A1A1A" fill-opacity="1.000000" fill-rule="evenodd"/>
	<path id="Форма 46 (Граница)" d="M24.69 66.94L25.06 66.94L25.69 66.94L26.06 66.94L26.44 66.94L27.19 66.94L28.06 66.94L28.81 66.94L29.68 66.94L30.8 66.94L31.8 66.94L33.8 66.94L35.67 66.94L36.04 66.94L36.17 66.94L36.29 66.94L36.29 82.83L36.17 82.83L36.04 82.83L35.67 82.83L33.8 82.83L31.8 82.83L30.8 82.83L29.68 82.83L28.81 82.83L28.06 82.83L27.19 82.83L26.44 82.83L26.06 82.83L25.69 82.83L25.06 82.83L24.69 82.83L24.69 66.94Z" fill="#1A1A1A" fill-opacity="1.000000" fill-rule="evenodd"/>
	<path id="Форма 47 (Граница)" d="M46.39 93.98L45.02 93.98L43.15 93.98L42.65 93.98L42.15 93.98L41.28 93.98L40.28 93.98L39.03 93.98L38.41 93.98L37.79 93.98L36.41 93.98L34.92 93.98L33.67 93.98L32.55 93.98L31.43 93.98L30.55 93.98L28.93 93.98L27.56 93.98L27.43 93.98L27.31 93.98L27.19 93.98L27.06 93.98L26.69 93.98L26.31 93.98L26.31 78.1L26.69 78.1L27.06 78.1L27.19 78.1L27.31 78.1L27.43 78.1L27.56 78.1L28.93 78.1L30.55 78.1L31.43 78.1L32.55 78.1L33.67 78.1L34.92 78.1L36.41 78.1L37.79 78.1L38.41 78.1L39.03 78.1L40.28 78.1L41.28 78.1L42.15 78.1L42.65 78.1L43.15 78.1L45.02 78.1L46.39 78.1L46.39 93.98Z" fill="#1A1A1A" fill-opacity="1.000000" fill-rule="evenodd"/>
	<path id="Форма 48 (Граница)" d="M26.69 86.53L27.19 86.53L27.81 86.53L28.18 86.53L28.56 86.53L28.93 86.53L29.31 86.53L30.55 86.53L32.05 86.53L32.67 86.53L33.05 86.53L33.17 86.53L33.3 86.53L33.3 102.41L33.17 102.41L33.05 102.41L32.67 102.41L32.05 102.41L30.55 102.41L29.31 102.41L28.93 102.41L28.56 102.41L28.18 102.41L27.81 102.41L27.19 102.41L26.69 102.41L26.69 86.53Z" fill="#1A1A1A" fill-opacity="1.000000" fill-rule="evenodd"/>
	<path id="Форма 49 (Граница)" d="M25.94 95.45L26.31 95.45L26.81 95.45L26.94 95.45L27.06 95.45L27.43 95.45L28.31 95.45L29.31 95.45L30.3 95.45L30.3 111.34L29.31 111.34L28.31 111.34L27.43 111.34L27.06 111.34L26.94 111.34L26.81 111.34L26.31 111.34L25.94 111.34L25.94 95.45Z" fill="#1A1A1A" fill-opacity="1.000000" fill-rule="evenodd"/>
	<path id="Форма 50 (Граница)" d="M25.94 98.18L26.56 98.18L27.31 98.18L27.43 98.18L27.56 98.18L27.93 98.18L28.31 98.18L28.31 114.07L27.93 114.07L27.56 114.07L27.43 114.07L27.31 114.07L26.56 114.07L25.94 114.07L25.94 98.18Z" fill="#1A1A1A" fill-opacity="1.000000" fill-rule="evenodd"/>
	<path id="Форма 51 (Граница)" d="M45.89 80.35L45.15 80.35L44.15 80.35L43.9 80.35L43.65 80.35L43.15 80.35L42.4 80.35L41.9 80.35L41.4 80.35L40.28 80.35L39.16 80.35L38.66 80.35L38.16 80.35L36.91 80.35L35.54 80.35L34.17 80.35L32.8 80.35L31.68 80.35L29.93 80.35L28.56 80.35L28.31 80.35L28.18 80.35L28.06 80.35L27.93 80.35L27.81 80.35L27.68 80.35L27.56 80.35L27.43 80.35L27.31 80.35L27.31 64.46L27.43 64.46L27.56 64.46L27.68 64.46L27.81 64.46L27.93 64.46L28.06 64.46L28.18 64.46L28.31 64.46L28.56 64.46L29.93 64.46L31.68 64.46L32.8 64.46L34.17 64.46L35.54 64.46L36.91 64.46L38.16 64.46L38.66 64.46L39.16 64.46L40.28 64.46L41.4 64.46L41.9 64.46L42.4 64.46L43.15 64.46L43.65 64.46L43.9 64.46L44.15 64.46L45.15 64.46L45.89 64.46L45.89 80.35Z" fill="#1A1A1A" fill-opacity="1.000000" fill-rule="evenodd"/>
	<path id="Форма 52 (Граница)" d="M48.89 75.64L47.52 75.64L45.4 75.64L44.15 75.64L43.03 75.64L41.28 75.64L39.28 75.64L38.41 75.64L37.54 75.64L36.04 75.64L35.42 75.64L34.79 75.64L33.67 75.64L32.67 75.64L32.67 59.75L33.67 59.75L34.79 59.75L35.42 59.75L36.04 59.75L37.54 59.75L38.41 59.75L39.28 59.75L41.28 59.75L43.03 59.75L44.15 59.75L45.4 59.75L47.52 59.75L48.89 59.75L48.89 75.64Z" fill="#1A1A1A" fill-opacity="1.000000" fill-rule="evenodd"/>
	<path id="Форма 53 (Граница)" d="M22.2 62.48L22.57 62.48L23.19 62.48L23.82 62.48L24.57 62.48L25.44 62.48L26.31 62.48L27.06 62.48L27.81 62.48L28.43 62.48L29.06 62.48L29.93 62.48L30.68 62.48L30.68 78.36L29.93 78.36L29.06 78.36L28.43 78.36L27.81 78.36L27.06 78.36L26.31 78.36L25.44 78.36L24.57 78.36L23.82 78.36L23.19 78.36L22.57 78.36L22.2 78.36L22.2 62.48Z" fill="#1A1A1A" fill-opacity="1.000000" fill-rule="evenodd"/>
	<path id="Форма 54 (Граница)" d="M24.19 78.59L24.82 78.59L25.81 78.59L26.69 78.59L27.93 78.59L29.06 78.59L30.05 78.59L31.43 78.59L32.92 78.59L34.29 78.59L34.29 94.48L32.92 94.48L31.43 94.48L30.05 94.48L29.06 94.48L27.93 94.48L26.69 94.48L25.81 94.48L24.82 94.48L24.19 94.48L24.19 78.59Z" fill="#1A1A1A" fill-opacity="1.000000" fill-rule="evenodd"/>
	<path id="Форма 55 (Граница)" d="M20.2 68.18L20.57 68.18L21.07 68.18L21.57 68.18L22.45 68.18L23.94 68.18L25.31 68.18L26.44 68.18L27.68 68.18L28.81 68.18L30.05 68.18L30.68 68.18L31.3 68.18L32.3 68.18L33.17 68.18L33.17 84.07L32.3 84.07L31.3 84.07L30.68 84.07L30.05 84.07L28.81 84.07L27.68 84.07L26.44 84.07L25.31 84.07L23.94 84.07L22.45 84.07L21.57 84.07L21.07 84.07L20.57 84.07L20.2 84.07L20.2 68.18Z" fill="#1A1A1A" fill-opacity="1.000000" fill-rule="evenodd"/>
	<path id="Форма 56 (Граница)" d="M38.41 102.17L37.91 102.17L37.16 102.17L36.54 102.17L35.79 102.17L34.79 102.17L34.17 102.17L33.55 102.17L32.3 102.17L31.18 102.17L30.68 102.17L30.18 102.17L29.31 102.17L28.81 102.17L28.68 102.17L28.56 102.17L28.31 102.17L28.31 86.28L28.56 86.28L28.68 86.28L28.81 86.28L29.31 86.28L30.18 86.28L30.68 86.28L31.18 86.28L32.3 86.28L33.55 86.28L34.17 86.28L34.79 86.28L35.79 86.28L36.54 86.28L37.16 86.28L37.91 86.28L38.41 86.28L38.41 102.17Z" fill="#1A1A1A" fill-opacity="1.000000" fill-rule="evenodd"/>
</svg>
