<svg width="508.212830" height="763.607483" viewBox="0 0 508.213 763.607" fill="none" xmlns="http://www.w3.org/2000/svg" xmlns:xlink="http://www.w3.org/1999/xlink">
	<desc>
			Created with Pixso.
	</desc>
	<defs/>
	<path id="Форма 322" d="M90.15 518.49L86.51 518.49C84.09 518.49 82.64 518.49 82.15 518.49C81.67 518.49 80.7 518.49 79.24 518.49C77.79 518.49 76.58 518.49 75.61 518.49C74.64 518.49 72.94 518.49 70.52 518.49C68.1 518.49 66.16 518.49 64.7 518.49C63.25 518.49 62.04 518.49 61.07 518.49C60.1 518.49 59.37 518.49 58.89 518.49C58.4 518.49 57.92 518.49 57.43 518.49" stroke="#EA2208" stroke-opacity="1.000000" stroke-width="54.000000"/>
	<path id="Форма 323" d="M39.26 480.68L41.44 480.68C42.89 480.68 44.1 480.68 45.07 480.68C46.04 480.68 47.01 480.68 47.98 480.68C48.95 480.68 49.92 480.68 50.89 480.68C51.86 480.68 52.59 480.68 53.07 480.68C53.56 480.68 54.28 480.68 55.25 480.68C56.22 480.68 56.95 480.68 57.43 480.68C57.92 480.68 58.4 480.68 58.89 480.68C59.37 480.68 60.1 480.68 61.07 480.68" stroke="#EA2208" stroke-opacity="1.000000" stroke-width="54.000000"/>
	<path id="Форма 324" d="M37.8 460.32L34.89 460.32C32.95 460.32 31.74 460.32 31.26 460.32C30.77 460.32 30.05 460.32 29.08 460.32C28.11 460.32 27.38 460.32 26.9 460.32C26.41 460.32 25.68 460.32 24.72 460.32C23.75 460.32 22.78 460.32 21.81 460.32C20.84 460.32 19.63 460.32 18.17 460.32C16.72 460.32 15.51 460.32 14.54 460.32C13.57 460.32 12.84 460.32 12.36 460.32C11.87 460.32 11.39 460.32 10.9 460.32C10.42 460.32 9.69 460.32 8.72 460.32" stroke="#EA2208" stroke-opacity="1.000000" stroke-width="54.000000"/>
	<path id="Форма 325" d="M0 428.33L2.9 428.33C4.84 428.33 6.05 428.33 6.54 428.33C7.02 428.33 7.51 428.33 7.99 428.33C8.48 428.33 8.96 428.33 9.45 428.33" stroke="#EA2208" stroke-opacity="1.000000" stroke-width="54.000000"/>
	<path id="Форма 326" d="M69.79 380.35L66.88 380.35C64.95 380.35 63.49 380.35 62.52 380.35C61.55 380.35 60.58 380.35 59.61 380.35C58.64 380.35 57.43 380.35 55.98 380.35C54.52 380.35 53.31 380.35 52.34 380.35C51.37 380.35 50.65 380.35 50.16 380.35C49.68 380.35 49.19 380.35 48.71 380.35C48.22 380.35 47.74 380.35 47.25 380.35" stroke="#EA2208" stroke-opacity="1.000000" stroke-width="54.000000"/>
	<path id="Форма 327" d="M91.6 393.43L89.42 393.43C87.97 393.43 87 393.43 86.51 393.43C86.03 393.43 85.55 393.43 85.06 393.43C84.58 393.43 83.85 393.43 82.88 393.43C81.91 393.43 80.94 393.43 79.97 393.43C79 393.43 78.03 393.43 77.06 393.43C76.09 393.43 75.12 393.43 74.15 393.43C73.19 393.43 72.46 393.43 71.97 393.43C71.49 393.43 70.52 393.43 69.07 393.43C67.61 393.43 66.4 393.43 65.43 393.43C64.46 393.43 63.49 393.43 62.52 393.43" stroke="#EA2208" stroke-opacity="1.000000" stroke-width="54.000000"/>
	<path id="Форма 328" d="M109.05 406.52L106.87 406.52C105.42 406.52 104.21 406.52 103.24 406.52C102.27 406.52 101.3 406.52 100.33 406.52C99.36 406.52 98.15 406.52 96.69 406.52C95.24 406.52 94.03 406.52 93.06 406.52C92.09 406.52 91.12 406.52 90.15 406.52C89.18 406.52 88.45 406.52 87.97 406.52C87.48 406.52 87 406.52 86.51 406.52" stroke="#EA2208" stroke-opacity="1.000000" stroke-width="54.000000"/>
	<path id="Форма 329" d="M125.05 312L122.14 312C120.2 312 118.75 312 117.78 312C116.81 312 115.6 312 114.14 312C112.69 312 111.72 312 111.24 312C110.75 312 110.27 312 109.78 312C109.3 312 108.81 312 108.33 312C107.84 312 107.36 312 106.87 312C106.39 312 105.9 312 105.42 312C104.93 312 104.45 312 103.96 312C103.48 312 103 312 102.51 312C102.03 312 101.54 312 101.06 312" stroke="#EA2208" stroke-opacity="1.000000" stroke-width="54.000000"/>
	<path id="Форма 330" d="M107.6 280.01L105.42 280.01C103.96 280.01 102.75 280.01 101.78 280.01C100.81 280.01 99.84 280.01 98.87 280.01C97.91 280.01 96.69 280.01 95.24 280.01C93.79 280.01 92.33 280.01 90.88 280.01C89.42 280.01 88.45 280.01 87.97 280.01" stroke="#EA2208" stroke-opacity="1.000000" stroke-width="54.000000"/>
	<path id="Форма 331" d="M117.78 243.66L114.87 243.66C112.93 243.66 111.72 243.66 111.24 243.66C110.75 243.66 110.02 243.66 109.05 243.66C108.08 243.66 107.12 243.66 106.15 243.66C105.18 243.66 104.45 243.66 103.96 243.66C103.48 243.66 103 243.66 102.51 243.66C102.03 243.66 101.54 243.66 101.06 243.66" stroke="#EA2208" stroke-opacity="1.000000" stroke-width="54.000000"/>
	<path id="Форма 332" d="M210.84 694.43L208.66 694.43C207.21 694.43 206.24 694.43 205.75 694.43C205.27 694.43 204.3 694.43 202.84 694.43C201.39 694.43 200.18 694.43 199.21 694.43C198.24 694.43 197.27 694.43 196.3 694.43C195.33 694.43 194.36 694.43 193.39 694.43C192.42 694.43 191.7 694.43 191.21 694.43C190.73 694.43 190.24 694.43 189.76 694.43C189.27 694.43 188.79 694.43 188.3 694.43C187.82 694.43 187.33 694.43 186.85 694.43C186.36 694.43 185.88 694.43 185.4 694.43" stroke="#EA2208" stroke-opacity="1.000000" stroke-width="54.000000"/>
	<path id="Форма 333" d="M161.4 714.79L163.58 714.79C165.04 714.79 166.25 714.79 167.22 714.79C168.19 714.79 168.92 714.79 169.4 714.79C169.88 714.79 170.61 714.79 171.58 714.79C172.55 714.79 173.52 714.79 174.49 714.79C175.46 714.79 176.43 714.79 177.4 714.79C178.37 714.79 179.09 714.79 179.58 714.79C180.06 714.79 180.55 714.79 181.03 714.79C181.52 714.79 182 714.79 182.49 714.79" stroke="#EA2208" stroke-opacity="1.000000" stroke-width="54.000000"/>
	<path id="Форма 334" d="M186.12 679.89L183.21 679.89C181.28 679.89 179.82 679.89 178.85 679.89C177.88 679.89 177.16 679.89 176.67 679.89C176.19 679.89 175.22 679.89 173.76 679.89C172.31 679.89 171.34 679.89 170.85 679.89C170.37 679.89 169.88 679.89 169.4 679.89C168.92 679.89 168.19 679.89 167.22 679.89C166.25 679.89 165.28 679.89 164.31 679.89C163.34 679.89 162.61 679.89 162.13 679.89C161.64 679.89 160.92 679.89 159.95 679.89C158.98 679.89 157.52 679.89 155.59 679.89C153.65 679.89 152.19 679.89 151.22 679.89" stroke="#EA2208" stroke-opacity="1.000000" stroke-width="54.000000"/>
	<path id="Форма 335" d="M238.47 688.62L241.38 688.62C243.32 688.62 244.53 688.62 245.01 688.62C245.5 688.62 246.23 688.62 247.19 688.62C248.16 688.62 249.13 688.62 250.1 688.62C251.07 688.62 252.04 688.62 253.01 688.62C253.98 688.62 254.95 688.62 255.92 688.62C256.89 688.62 258.1 688.62 259.55 688.62" stroke="#EA2208" stroke-opacity="1.000000" stroke-width="54.000000"/>
	<path id="Форма 336" d="M312.63 676.98L308.99 676.98C306.57 676.98 304.87 676.98 303.91 676.98C302.94 676.98 301.97 676.98 301 676.98C300.03 676.98 298.82 676.98 297.36 676.98C295.91 676.98 294.7 676.98 293.73 676.98C292.76 676.98 292.03 676.98 291.54 676.98C291.06 676.98 290.58 676.98 290.09 676.98" stroke="#EA2208" stroke-opacity="1.000000" stroke-width="54.000000"/>
	<path id="Форма 337" d="M269.01 694.43L271.91 694.43C273.85 694.43 275.31 694.43 276.28 694.43C277.25 694.43 278.46 694.43 279.91 694.43C281.37 694.43 282.34 694.43 282.82 694.43C283.31 694.43 284.27 694.43 285.73 694.43C287.18 694.43 288.15 694.43 288.64 694.43C289.12 694.43 289.61 694.43 290.09 694.43C290.58 694.43 291.06 694.43 291.54 694.43" stroke="#EA2208" stroke-opacity="1.000000" stroke-width="54.000000"/>
	<path id="Форма 338" d="M277.73 733.69L274.82 733.69C272.88 733.69 271.67 733.69 271.19 733.69C270.7 733.69 269.98 733.69 269.01 733.69C268.04 733.69 267.31 733.69 266.82 733.69C266.34 733.69 265.85 733.69 265.37 733.69C264.89 733.69 264.16 733.69 263.19 733.69C262.22 733.69 261.49 733.69 261.01 733.69C260.52 733.69 260.04 733.69 259.55 733.69C259.07 733.69 258.59 733.69 258.1 733.69C257.62 733.69 257.13 733.69 256.65 733.69C256.16 733.69 255.68 733.69 255.19 733.69C254.71 733.69 254.22 733.69 253.74 733.69C253.25 733.69 252.77 733.69 252.28 733.69" stroke="#EA2208" stroke-opacity="1.000000" stroke-width="54.000000"/>
	<path id="Форма 339" d="M332.99 669.71L330.81 669.71C329.35 669.71 328.38 669.71 327.9 669.71C327.41 669.71 326.93 669.71 326.44 669.71C325.96 669.71 325.47 669.71 324.99 669.71C324.51 669.71 324.02 669.71 323.54 669.71C323.05 669.71 322.32 669.71 321.35 669.71C320.39 669.71 319.66 669.71 319.17 669.71C318.69 669.71 317.96 669.71 316.99 669.71C316.02 669.71 314.81 669.71 313.36 669.71C311.9 669.71 310.45 669.71 308.99 669.71C307.54 669.71 306.09 669.71 304.63 669.71C303.18 669.71 301.97 669.71 301 669.71" stroke="#EA2208" stroke-opacity="1.000000" stroke-width="54.000000"/>
	<path id="Форма 340" d="M369.34 684.25L366.43 684.25C364.49 684.25 363.04 684.25 362.07 684.25C361.1 684.25 360.13 684.25 359.16 684.25C358.19 684.25 357.22 684.25 356.25 684.25C355.28 684.25 354.31 684.25 353.35 684.25C352.38 684.25 351.41 684.25 350.44 684.25C349.47 684.25 348.74 684.25 348.26 684.25C347.77 684.25 347.29 684.25 346.8 684.25C346.32 684.25 345.83 684.25 345.35 684.25C344.86 684.25 344.38 684.25 343.89 684.25C343.41 684.25 342.92 684.25 342.44 684.25" stroke="#EA2208" stroke-opacity="1.000000" stroke-width="54.000000"/>
	<path id="Форма 341" d="M380.97 694.43L378.07 694.43C376.13 694.43 374.67 694.43 373.7 694.43C372.73 694.43 372.01 694.43 371.52 694.43C371.04 694.43 370.55 694.43 370.07 694.43C369.58 694.43 368.86 694.43 367.89 694.43C366.92 694.43 366.19 694.43 365.71 694.43C365.22 694.43 364.74 694.43 364.25 694.43" stroke="#EA2208" stroke-opacity="1.000000" stroke-width="54.000000"/>
	<path id="Форма 342" d="M351.89 736.6L348.98 736.6C347.04 736.6 345.59 736.6 344.62 736.6C343.65 736.6 342.92 736.6 342.44 736.6C341.95 736.6 341.47 736.6 340.99 736.6C340.5 736.6 340.02 736.6 339.53 736.6C339.05 736.6 338.56 736.6 338.08 736.6C337.59 736.6 337.11 736.6 336.62 736.6" stroke="#EA2208" stroke-opacity="1.000000" stroke-width="54.000000"/>
	<path id="Форма 343" d="M444.95 544.66L447.14 544.66C448.59 544.66 449.56 544.66 450.04 544.66C450.53 544.66 451.01 544.66 451.5 544.66C451.98 544.66 452.47 544.66 452.95 544.66C453.44 544.66 454.16 544.66 455.13 544.66C456.1 544.66 456.83 544.66 457.31 544.66" stroke="#EA2208" stroke-opacity="1.000000" stroke-width="54.000000"/>
	<path id="Форма 344" d="M450.77 518.49L453.68 518.49C455.62 518.49 456.83 518.49 457.31 518.49C457.8 518.49 458.28 518.49 458.77 518.49C459.25 518.49 459.74 518.49 460.22 518.49C460.71 518.49 461.19 518.49 461.68 518.49" stroke="#EA2208" stroke-opacity="1.000000" stroke-width="54.000000"/>
	<path id="Форма 345" d="M471.13 485.04L473.31 485.04C474.76 485.04 475.73 485.04 476.22 485.04C476.7 485.04 477.19 485.04 477.67 485.04C478.16 485.04 478.88 485.04 479.85 485.04C480.82 485.04 481.55 485.04 482.03 485.04C482.52 485.04 483 485.04 483.49 485.04C483.97 485.04 484.46 485.04 484.94 485.04" stroke="#EA2208" stroke-opacity="1.000000" stroke-width="54.000000"/>
	<path id="Форма 346" d="M472.58 448.69L475.49 448.69C477.43 448.69 478.88 448.69 479.85 448.69C480.82 448.69 481.79 448.69 482.76 448.69C483.73 448.69 484.46 448.69 484.94 448.69C485.43 448.69 485.91 448.69 486.4 448.69C486.88 448.69 487.61 448.69 488.58 448.69C489.55 448.69 490.27 448.69 490.76 448.69" stroke="#EA2208" stroke-opacity="1.000000" stroke-width="54.000000"/>
	<path id="Форма 347" d="M459.5 407.97L463.13 407.97C465.55 407.97 467.01 407.97 467.49 407.97C467.98 407.97 468.46 407.97 468.95 407.97C469.43 407.97 469.92 407.97 470.4 407.97C470.89 407.97 471.37 407.97 471.86 407.97C472.34 407.97 472.82 407.97 473.31 407.97" stroke="#EA2208" stroke-opacity="1.000000" stroke-width="54.000000"/>
	<path id="Форма 348" d="M479.85 373.07L482.76 373.07C484.7 373.07 485.91 373.07 486.4 373.07" stroke="#EA2208" stroke-opacity="1.000000" stroke-width="54.000000"/>
	<path id="Форма 349" d="M436.23 288.74L438.41 288.74C439.86 288.74 441.08 288.74 442.05 288.74C443.02 288.74 443.74 288.74 444.23 288.74C444.71 288.74 445.2 288.74 445.68 288.74C446.17 288.74 446.65 288.74 447.14 288.74C447.62 288.74 448.1 288.74 448.59 288.74C449.07 288.74 449.8 288.74 450.77 288.74C451.74 288.74 452.47 288.74 452.95 288.74C453.44 288.74 453.92 288.74 454.41 288.74C454.89 288.74 455.62 288.74 456.59 288.74C457.56 288.74 458.28 288.74 458.77 288.74" stroke="#EA2208" stroke-opacity="1.000000" stroke-width="54.000000"/>
	<path id="Форма 350" d="M468.22 256.75L471.13 256.75C473.07 256.75 474.52 256.75 475.49 256.75C476.46 256.75 477.43 256.75 478.4 256.75C479.37 256.75 480.34 256.75 481.31 256.75C482.28 256.75 483 256.75 483.49 256.75" stroke="#EA2208" stroke-opacity="1.000000" stroke-width="54.000000"/>
	<path id="Форма 351" d="M485.67 226.21L488.58 226.21C490.52 226.21 491.97 226.21 492.94 226.21C493.91 226.21 494.64 226.21 495.12 226.21C495.61 226.21 496.09 226.21 496.58 226.21C497.06 226.21 497.79 226.21 498.76 226.21C499.73 226.21 500.45 226.21 500.94 226.21C501.42 226.21 501.91 226.21 502.39 226.21C502.88 226.21 503.36 226.21 503.85 226.21C504.33 226.21 504.82 226.21 505.3 226.21" stroke="#EA2208" stroke-opacity="1.000000" stroke-width="54.000000"/>
	<path id="Форма 352" d="M319.9 141.87L322.81 141.87C324.75 141.87 326.2 141.87 327.17 141.87C328.14 141.87 329.11 141.87 330.08 141.87C331.05 141.87 332.26 141.87 333.71 141.87C335.17 141.87 336.38 141.87 337.35 141.87C338.32 141.87 339.29 141.87 340.26 141.87" stroke="#EA2208" stroke-opacity="1.000000" stroke-width="54.000000"/>
	<path id="Форма 353" d="M348.98 127.33L351.16 127.33C352.62 127.33 353.59 127.33 354.07 127.33C354.56 127.33 355.04 127.33 355.53 127.33C356.01 127.33 356.5 127.33 356.98 127.33C357.47 127.33 357.95 127.33 358.43 127.33C358.92 127.33 359.4 127.33 359.89 127.33" stroke="#EA2208" stroke-opacity="1.000000" stroke-width="54.000000"/>
	<path id="Форма 354" d="M385.34 124.42L388.97 124.42C391.39 124.42 392.85 124.42 393.33 124.42C393.82 124.42 394.3 124.42 394.79 124.42C395.27 124.42 395.76 124.42 396.24 124.42" stroke="#EA2208" stroke-opacity="1.000000" stroke-width="54.000000"/>
	<path id="Форма 355" d="M412.96 108.43L415.14 108.43C416.6 108.43 417.57 108.43 418.05 108.43C418.54 108.43 419.02 108.43 419.51 108.43C419.99 108.43 420.48 108.43 420.96 108.43C421.45 108.43 421.93 108.43 422.42 108.43C422.9 108.43 423.63 108.43 424.6 108.43C425.57 108.43 426.54 108.43 427.51 108.43" stroke="#EA2208" stroke-opacity="1.000000" stroke-width="54.000000"/>
	<path id="Форма 356" d="M348.98 137.51L351.89 137.51C353.83 137.51 355.53 137.51 356.98 137.51C358.43 137.51 360.13 137.51 362.07 137.51C364.01 137.51 366.43 137.51 369.34 137.51C372.25 137.51 374.91 137.51 377.34 137.51C379.76 137.51 381.94 137.51 383.88 137.51C385.82 137.51 387.76 137.51 389.7 137.51C391.64 137.51 392.85 137.51 393.33 137.51C393.82 137.51 394.3 137.51 394.79 137.51C395.27 137.51 396.48 137.51 398.42 137.51C400.36 137.51 401.82 137.51 402.79 137.51C403.75 137.51 404.72 137.51 405.69 137.51C406.66 137.51 407.39 137.51 407.87 137.51C408.36 137.51 408.84 137.51 409.33 137.51C409.81 137.51 410.3 137.51 410.78 137.51C411.27 137.51 411.75 137.51 412.24 137.51" stroke="#EA2208" stroke-opacity="1.000000" stroke-width="54.000000"/>
	<path id="Форма 357" d="M404.24 90.98L407.15 90.98C409.09 90.98 410.3 90.98 410.78 90.98C411.27 90.98 411.99 90.98 412.96 90.98C413.93 90.98 415.39 90.98 417.33 90.98C419.27 90.98 420.96 90.98 422.42 90.98C423.87 90.98 425.81 90.98 428.23 90.98C430.66 90.98 432.59 90.98 434.05 90.98C435.5 90.98 436.47 90.98 436.96 90.98C437.44 90.98 437.93 90.98 438.41 90.98" stroke="#EA2208" stroke-opacity="1.000000" stroke-width="54.000000"/>
	<path id="Форма 358" d="M411.51 61.89L418.05 61.89C422.42 61.89 426.29 61.89 429.69 61.89C433.08 61.89 436.47 61.89 439.86 61.89C443.26 61.89 446.41 61.89 449.32 61.89C452.22 61.89 454.65 61.89 456.59 61.89C458.53 61.89 459.74 61.89 460.22 61.89C460.71 61.89 461.19 61.89 461.68 61.89" stroke="#EA2208" stroke-opacity="1.000000" stroke-width="54.000000"/>
	<path id="Форма 359" d="M462.4 27L464.58 27C466.04 27 467.25 27 468.22 27C469.19 27 470.4 27 471.86 27C473.31 27 474.76 27 476.22 27C477.67 27 478.88 27 479.85 27C480.82 27 482.03 27 483.49 27C484.94 27 485.91 27 486.4 27C486.88 27 487.61 27 488.58 27C489.55 27 490.27 27 490.76 27C491.24 27 492.46 27 494.39 27C496.33 27 498.03 27 499.48 27C500.94 27 502.39 27 503.85 27C505.3 27 506.75 27 508.21 27" stroke="#EA2208" stroke-opacity="1.000000" stroke-width="54.000000"/>
	<path id="Форма 360" d="M196.3 152.05L193.39 152.05C191.45 152.05 189.76 152.05 188.3 152.05C186.85 152.05 185.88 152.05 185.4 152.05C184.91 152.05 184.18 152.05 183.21 152.05C182.24 152.05 181.28 152.05 180.31 152.05C179.34 152.05 178.37 152.05 177.4 152.05" stroke="#EA2208" stroke-opacity="1.000000" stroke-width="54.000000"/>
	<path id="Форма 361" d="M181.76 134.6L178.85 134.6C176.91 134.6 175.46 134.6 174.49 134.6C173.52 134.6 172.79 134.6 172.31 134.6C171.82 134.6 171.1 134.6 170.13 134.6C169.16 134.6 167.95 134.6 166.49 134.6C165.04 134.6 163.83 134.6 162.86 134.6C161.89 134.6 160.92 134.6 159.95 134.6C158.98 134.6 158.01 134.6 157.04 134.6C156.07 134.6 154.86 134.6 153.4 134.6C151.95 134.6 150.74 134.6 149.77 134.6C148.8 134.6 147.59 134.6 146.13 134.6C144.68 134.6 143.23 134.6 141.77 134.6C140.32 134.6 139.11 134.6 138.14 134.6C137.17 134.6 135.96 134.6 134.5 134.6" stroke="#EA2208" stroke-opacity="1.000000" stroke-width="54.000000"/>
	<path id="Форма 362" d="M127.96 134.6L125.05 134.6C123.11 134.6 121.17 134.6 119.23 134.6C117.29 134.6 115.6 134.6 114.14 134.6C112.69 134.6 110.51 134.6 107.6 134.6C104.69 134.6 102.51 134.6 101.06 134.6C99.6 134.6 98.15 134.6 96.69 134.6C95.24 134.6 94.03 134.6 93.06 134.6C92.09 134.6 90.88 134.6 89.42 134.6C87.97 134.6 86.51 134.6 85.06 134.6C83.61 134.6 82.39 134.6 81.43 134.6C80.46 134.6 79.73 134.6 79.24 134.6" stroke="#EA2208" stroke-opacity="1.000000" stroke-width="54.000000"/>
	<path id="Форма 363" d="M98.87 106.97L95.97 106.97C94.03 106.97 92.57 106.97 91.6 106.97C90.63 106.97 89.18 106.97 87.24 106.97C85.3 106.97 83.85 106.97 82.88 106.97C81.91 106.97 80.94 106.97 79.97 106.97C79 106.97 78.03 106.97 77.06 106.97" stroke="#EA2208" stroke-opacity="1.000000" stroke-width="54.000000"/>
	<path id="Форма 364" d="M66.88 99.7L61.07 99.7C57.19 99.7 54.77 99.7 53.8 99.7C52.83 99.7 52.1 99.7 51.62 99.7C51.13 99.7 50.65 99.7 50.16 99.7" stroke="#EA2208" stroke-opacity="1.000000" stroke-width="54.000000"/>
	<path id="Форма 365" d="M78.52 96.79L75.61 96.79C73.67 96.79 71.97 96.79 70.52 96.79C69.07 96.79 67.61 96.79 66.16 96.79C64.7 96.79 63.25 96.79 61.79 96.79C60.34 96.79 58.64 96.79 56.71 96.79C54.77 96.79 52.83 96.79 50.89 96.79C48.95 96.79 47.5 96.79 46.53 96.79C45.56 96.79 44.83 96.79 44.35 96.79C43.86 96.79 43.38 96.79 42.89 96.79" stroke="#EA2208" stroke-opacity="1.000000" stroke-width="54.000000"/>
	<path id="Форма 366" d="M379.52 502.49L375.88 502.49C373.46 502.49 372.01 502.49 371.52 502.49C371.04 502.49 370.31 502.49 369.34 502.49C368.37 502.49 366.92 502.49 364.98 502.49C363.04 502.49 361.59 502.49 360.62 502.49C359.65 502.49 358.92 502.49 358.43 502.49C357.95 502.49 357.47 502.49 356.98 502.49C356.5 502.49 356.01 502.49 355.53 502.49" stroke="#EA2208" stroke-opacity="1.000000" stroke-width="54.000000"/>
	<path id="Форма 367" d="M378.07 461.78L375.16 461.78C373.22 461.78 371.76 461.78 370.79 461.78C369.83 461.78 369.1 461.78 368.61 461.78C368.13 461.78 367.16 461.78 365.71 461.78C364.25 461.78 362.55 461.78 360.62 461.78C358.68 461.78 356.25 461.78 353.35 461.78C350.44 461.78 348.01 461.78 346.07 461.78C344.14 461.78 342.44 461.78 340.99 461.78C339.53 461.78 338.56 461.78 338.08 461.78" stroke="#EA2208" stroke-opacity="1.000000" stroke-width="54.000000"/>
	<path id="Форма 368" d="M353.35 435.6L356.25 435.6C358.19 435.6 359.4 435.6 359.89 435.6C360.37 435.6 360.86 435.6 361.34 435.6C361.83 435.6 362.31 435.6 362.8 435.6" stroke="#EA2208" stroke-opacity="1.000000" stroke-width="54.000000"/>
	<path id="Форма 369" d="M193.39 732.24L195.57 732.24C197.03 732.24 198 732.24 198.48 732.24C198.97 732.24 199.94 732.24 201.39 732.24C202.84 732.24 205.27 732.24 208.66 732.24C212.05 732.24 215.69 732.24 219.57 732.24C223.44 732.24 226.59 732.24 229.02 732.24C231.44 732.24 234.35 732.24 237.74 732.24C241.14 732.24 245.01 732.24 249.38 732.24C253.74 732.24 257.13 732.24 259.55 732.24C261.98 732.24 264.4 732.24 266.82 732.24C269.25 732.24 274.34 732.24 282.09 732.24C289.85 732.24 293.97 732.24 294.45 732.24C294.94 732.24 295.42 732.24 295.91 732.24C296.39 732.24 296.88 732.24 297.36 732.24" stroke="#EA2208" stroke-opacity="1.000000" stroke-width="54.000000"/>
</svg>
