<svg width="411.514160" height="786.873291" viewBox="0 0 411.514 786.873" fill="none" xmlns="http://www.w3.org/2000/svg" xmlns:xlink="http://www.w3.org/1999/xlink">
	<desc>
			Created with Pixso.
	</desc>
	<defs/>
	<path id="Форма 235" d="M158.49 204.4L161.4 204.4C163.34 204.4 164.55 204.4 165.04 204.4C165.52 204.4 166.25 204.4 167.22 204.4C168.19 204.4 168.92 204.4 169.4 204.4C169.88 204.4 170.61 204.4 171.58 204.4C172.55 204.4 173.76 204.4 175.22 204.4C176.67 204.4 177.88 204.4 178.85 204.4C179.82 204.4 181.28 204.4 183.21 204.4C185.15 204.4 186.85 204.4 188.3 204.4C189.76 204.4 191.21 204.4 192.67 204.4C194.12 204.4 195.57 204.4 197.03 204.4C198.48 204.4 200.42 204.4 202.84 204.4C205.27 204.4 207.45 204.4 209.39 204.4C211.33 204.4 213.75 204.4 216.66 204.4C219.57 204.4 221.51 204.4 222.47 204.4C223.44 204.4 224.17 204.4 224.66 204.4C225.14 204.4 225.63 204.4 226.11 204.4C226.59 204.4 227.56 204.4 229.02 204.4C230.47 204.4 231.68 204.4 232.65 204.4C233.62 204.4 234.35 204.4 234.83 204.4C235.32 204.4 236.05 204.4 237.02 204.4C237.99 204.4 238.95 204.4 239.92 204.4C240.89 204.4 241.62 204.4 242.11 204.4C242.59 204.4 243.32 204.4 244.29 204.4C245.26 204.4 246.23 204.4 247.19 204.4C248.16 204.4 249.13 204.4 250.1 204.4C251.07 204.4 251.8 204.4 252.28 204.4C252.77 204.4 253.25 204.4 253.74 204.4C254.22 204.4 254.71 204.4 255.19 204.4" stroke="#081013" stroke-opacity="1.000000" stroke-width="54.000000"/>
	<path id="Форма 236" d="M146.86 170.95L149.04 170.95C150.5 170.95 151.47 170.95 151.95 170.95C152.44 170.95 153.16 170.95 154.13 170.95C155.1 170.95 156.07 170.95 157.04 170.95C158.01 170.95 158.98 170.95 159.95 170.95C160.92 170.95 162.13 170.95 163.58 170.95C165.04 170.95 166.49 170.95 167.95 170.95C169.4 170.95 170.85 170.95 172.31 170.95C173.76 170.95 174.97 170.95 175.94 170.95C176.91 170.95 178.12 170.95 179.58 170.95C181.03 170.95 182.24 170.95 183.21 170.95C184.18 170.95 185.15 170.95 186.12 170.95C187.09 170.95 188.79 170.95 191.21 170.95C193.63 170.95 195.09 170.95 195.57 170.95C196.06 170.95 196.54 170.95 197.03 170.95C197.51 170.95 198 170.95 198.48 170.95C198.97 170.95 199.69 170.95 200.66 170.95C201.63 170.95 202.36 170.95 202.84 170.95C203.33 170.95 204.06 170.95 205.03 170.95C205.99 170.95 206.72 170.95 207.21 170.95C207.69 170.95 208.18 170.95 208.66 170.95C209.15 170.95 209.87 170.95 210.84 170.95C211.81 170.95 212.54 170.95 213.02 170.95C213.51 170.95 214.23 170.95 215.2 170.95C216.17 170.95 217.14 170.95 218.11 170.95C219.08 170.95 220.05 170.95 221.02 170.95C221.99 170.95 222.72 170.95 223.2 170.95C223.69 170.95 224.17 170.95 224.66 170.95C225.14 170.95 225.63 170.95 226.11 170.95C226.59 170.95 227.08 170.95 227.56 170.95C228.05 170.95 228.53 170.95 229.02 170.95C229.5 170.95 230.23 170.95 231.2 170.95C232.17 170.95 232.9 170.95 233.38 170.95" stroke="#081013" stroke-opacity="1.000000" stroke-width="54.000000"/>
	<path id="Форма 237" d="M146.86 144.78L149.77 144.78C151.71 144.78 153.16 144.78 154.13 144.78C155.1 144.78 156.07 144.78 157.04 144.78C158.01 144.78 159.22 144.78 160.67 144.78C162.13 144.78 163.58 144.78 165.04 144.78C166.49 144.78 168.19 144.78 170.13 144.78C172.07 144.78 173.76 144.78 175.22 144.78C176.67 144.78 178.12 144.78 179.58 144.78C181.03 144.78 182.73 144.78 184.67 144.78C186.61 144.78 188.55 144.78 190.48 144.78C192.42 144.78 193.88 144.78 194.85 144.78C195.82 144.78 197.03 144.78 198.48 144.78C199.94 144.78 201.15 144.78 202.12 144.78C203.09 144.78 205.99 144.78 210.84 144.78C215.69 144.78 218.6 144.78 219.57 144.78C220.54 144.78 221.26 144.78 221.75 144.78C222.23 144.78 222.72 144.78 223.2 144.78C223.69 144.78 224.17 144.78 224.66 144.78C225.14 144.78 225.63 144.78 226.11 144.78C226.59 144.78 227.08 144.78 227.56 144.78" stroke="#081013" stroke-opacity="1.000000" stroke-width="54.000000"/>
	<path id="Форма 238" d="M158.49 117.15L162.86 117.15C165.76 117.15 167.46 117.15 167.95 117.15C168.43 117.15 169.4 117.15 170.85 117.15C172.31 117.15 174 117.15 175.94 117.15C177.88 117.15 179.58 117.15 181.03 117.15C182.49 117.15 183.94 117.15 185.4 117.15C186.85 117.15 188.3 117.15 189.76 117.15C191.21 117.15 192.67 117.15 194.12 117.15C195.57 117.15 197.03 117.15 198.48 117.15C199.94 117.15 201.39 117.15 202.84 117.15C204.3 117.15 205.75 117.15 207.21 117.15C208.66 117.15 209.87 117.15 210.84 117.15C211.81 117.15 212.54 117.15 213.02 117.15C213.51 117.15 215.2 117.15 218.11 117.15C221.02 117.15 222.96 117.15 223.93 117.15C224.9 117.15 225.63 117.15 226.11 117.15C226.59 117.15 227.32 117.15 228.29 117.15C229.26 117.15 229.99 117.15 230.47 117.15C230.96 117.15 231.44 117.15 231.93 117.15C232.41 117.15 232.9 117.15 233.38 117.15" stroke="#081013" stroke-opacity="1.000000" stroke-width="54.000000"/>
	<path id="Форма 239" d="M177.4 99.7L179.58 99.7C181.03 99.7 182.24 99.7 183.21 99.7C184.18 99.7 185.15 99.7 186.12 99.7C187.09 99.7 188.06 99.7 189.03 99.7C190 99.7 190.73 99.7 191.21 99.7C191.7 99.7 192.42 99.7 193.39 99.7C194.36 99.7 195.33 99.7 196.3 99.7C197.27 99.7 198 99.7 198.48 99.7C198.97 99.7 199.69 99.7 200.66 99.7C201.63 99.7 202.6 99.7 203.57 99.7C204.54 99.7 205.75 99.7 207.21 99.7C208.66 99.7 209.63 99.7 210.11 99.7C210.6 99.7 211.08 99.7 211.57 99.7C212.05 99.7 212.54 99.7 213.02 99.7" stroke="#081013" stroke-opacity="1.000000" stroke-width="54.000000"/>
	<path id="Форма 240" d="M223.93 109.88L226.84 109.88C228.78 109.88 229.99 109.88 230.47 109.88C230.96 109.88 231.68 109.88 232.65 109.88C233.62 109.88 234.35 109.88 234.83 109.88C235.32 109.88 235.8 109.88 236.29 109.88C236.77 109.88 237.26 109.88 237.74 109.88C238.23 109.88 238.71 109.88 239.2 109.88C239.68 109.88 240.17 109.88 240.65 109.88C241.14 109.88 241.86 109.88 242.83 109.88C243.8 109.88 244.77 109.88 245.74 109.88C246.71 109.88 247.44 109.88 247.92 109.88C248.41 109.88 248.89 109.88 249.38 109.88C249.86 109.88 250.35 109.88 250.83 109.88C251.31 109.88 251.8 109.88 252.28 109.88" stroke="#081013" stroke-opacity="1.000000" stroke-width="54.000000"/>
	<path id="Форма 241" d="M248.65 95.34L250.83 95.34C252.28 95.34 253.5 95.34 254.47 95.34C255.43 95.34 256.65 95.34 258.1 95.34C259.55 95.34 260.77 95.34 261.74 95.34C262.71 95.34 263.67 95.34 264.64 95.34C265.61 95.34 266.34 95.34 266.82 95.34C267.31 95.34 267.79 95.34 268.28 95.34C268.76 95.34 269.25 95.34 269.73 95.34C270.22 95.34 270.7 95.34 271.19 95.34C271.67 95.34 272.16 95.34 272.64 95.34" stroke="#081013" stroke-opacity="1.000000" stroke-width="54.000000"/>
	<path id="Форма 242" d="M260.28 76.43L263.19 76.43C265.13 76.43 266.34 76.43 266.82 76.43C267.31 76.43 268.04 76.43 269.01 76.43C269.98 76.43 270.95 76.43 271.91 76.43C272.88 76.43 273.61 76.43 274.1 76.43C274.58 76.43 275.07 76.43 275.55 76.43C276.03 76.43 276.52 76.43 277 76.43C277.49 76.43 278.22 76.43 279.19 76.43C280.15 76.43 280.88 76.43 281.37 76.43" stroke="#081013" stroke-opacity="1.000000" stroke-width="54.000000"/>
	<path id="Форма 243" d="M276.28 53.17L279.91 53.17C282.34 53.17 283.79 53.17 284.27 53.17C284.76 53.17 285.49 53.17 286.46 53.17C287.43 53.17 288.15 53.17 288.64 53.17C289.12 53.17 289.61 53.17 290.09 53.17C290.57 53.17 291.3 53.17 292.27 53.17C293.24 53.17 294.21 53.17 295.18 53.17C296.15 53.17 296.88 53.17 297.36 53.17" stroke="#081013" stroke-opacity="1.000000" stroke-width="54.000000"/>
	<path id="Форма 244" d="M279.19 27L281.37 27C282.82 27 283.79 27 284.27 27C284.76 27 285.24 27 285.73 27C286.21 27 286.7 27 287.18 27" stroke="#081013" stroke-opacity="1.000000" stroke-width="54.000000"/>
	<path id="Форма 245" d="M152.68 118.6L149.77 118.6C147.83 118.6 146.62 118.6 146.13 118.6C145.65 118.6 145.16 118.6 144.68 118.6C144.2 118.6 143.71 118.6 143.23 118.6C142.74 118.6 142.26 118.6 141.77 118.6" stroke="#081013" stroke-opacity="1.000000" stroke-width="54.000000"/>
	<path id="Форма 246" d="M138.14 108.43L135.23 108.43C133.29 108.43 131.84 108.43 130.87 108.43C129.9 108.43 129.17 108.43 128.68 108.43C128.2 108.43 127.47 108.43 126.5 108.43C125.53 108.43 124.56 108.43 123.6 108.43C122.63 108.43 121.9 108.43 121.41 108.43C120.93 108.43 120.44 108.43 119.96 108.43C119.48 108.43 118.99 108.43 118.51 108.43" stroke="#081013" stroke-opacity="1.000000" stroke-width="54.000000"/>
	<path id="Форма 247" d="M148.32 112.79L146.13 112.79C144.68 112.79 143.47 112.79 142.5 112.79C141.53 112.79 140.56 112.79 139.59 112.79C138.62 112.79 137.65 112.79 136.68 112.79C135.71 112.79 134.99 112.79 134.5 112.79C134.02 112.79 133.29 112.79 132.32 112.79C131.35 112.79 130.62 112.79 130.14 112.79" stroke="#081013" stroke-opacity="1.000000" stroke-width="54.000000"/>
	<path id="Форма 248" d="M116.32 105.52L112.69 105.52C110.27 105.52 108.81 105.52 108.33 105.52C107.84 105.52 107.36 105.52 106.87 105.52C106.39 105.52 105.9 105.52 105.42 105.52C104.93 105.52 104.45 105.52 103.96 105.52C103.48 105.52 103 105.52 102.51 105.52" stroke="#081013" stroke-opacity="1.000000" stroke-width="54.000000"/>
	<path id="Форма 249" d="M123.6 104.06L120.69 104.06C118.75 104.06 117.29 104.06 116.32 104.06C115.36 104.06 113.9 104.06 111.96 104.06C110.02 104.06 108.57 104.06 107.6 104.06C106.63 104.06 105.9 104.06 105.42 104.06C104.93 104.06 104.21 104.06 103.24 104.06" stroke="#081013" stroke-opacity="1.000000" stroke-width="54.000000"/>
	<path id="Форма 250" d="M101.78 96.79L98.87 96.79C96.94 96.79 95.48 96.79 94.51 96.79C93.54 96.79 92.82 96.79 92.33 96.79C91.85 96.79 91.12 96.79 90.15 96.79C89.18 96.79 87.97 96.79 86.51 96.79C85.06 96.79 84.09 96.79 83.61 96.79C83.12 96.79 82.64 96.79 82.15 96.79C81.67 96.79 81.18 96.79 80.7 96.79" stroke="#081013" stroke-opacity="1.000000" stroke-width="54.000000"/>
	<path id="Форма 251" d="M91.6 79.34L88.7 79.34C86.76 79.34 85.55 79.34 85.06 79.34C84.58 79.34 84.09 79.34 83.61 79.34C83.12 79.34 82.39 79.34 81.43 79.34C80.46 79.34 79.73 79.34 79.24 79.34C78.76 79.34 78.27 79.34 77.79 79.34C77.31 79.34 76.82 79.34 76.34 79.34" stroke="#081013" stroke-opacity="1.000000" stroke-width="54.000000"/>
	<path id="Форма 252" d="M74.15 80.8L76.34 80.8C77.79 80.8 78.76 80.8 79.24 80.8C79.73 80.8 80.7 80.8 82.15 80.8C83.61 80.8 84.58 80.8 85.06 80.8" stroke="#081013" stroke-opacity="1.000000" stroke-width="54.000000"/>
	<path id="Форма 253" d="M79.97 50.26L82.15 50.26C83.61 50.26 84.58 50.26 85.06 50.26C85.55 50.26 86.03 50.26 86.51 50.26C87 50.26 87.48 50.26 87.97 50.26C88.45 50.26 88.94 50.26 89.42 50.26C89.91 50.26 90.39 50.26 90.88 50.26C91.36 50.26 91.85 50.26 92.33 50.26" stroke="#081013" stroke-opacity="1.000000" stroke-width="54.000000"/>
	<path id="Форма 254" d="M87.24 29.9L89.42 29.9C90.88 29.9 91.85 29.9 92.33 29.9C92.82 29.9 93.3 29.9 93.79 29.9C94.27 29.9 94.75 29.9 95.24 29.9C95.72 29.9 96.21 29.9 96.69 29.9" stroke="#081013" stroke-opacity="1.000000" stroke-width="54.000000"/>
	<path id="Форма 255" d="M177.4 249.47L181.03 249.47C183.46 249.47 184.91 249.47 185.4 249.47C185.88 249.47 187.58 249.47 190.48 249.47C193.39 249.47 195.57 249.47 197.03 249.47C198.48 249.47 200.18 249.47 202.12 249.47C204.06 249.47 206.72 249.47 210.12 249.47C213.51 249.47 216.42 249.47 218.84 249.47C221.26 249.47 223.69 249.47 226.11 249.47C228.53 249.47 230.96 249.47 233.38 249.47C235.8 249.47 237.5 249.47 238.47 249.47C239.44 249.47 240.17 249.47 240.65 249.47C241.14 249.47 241.86 249.47 242.83 249.47C243.8 249.47 244.53 249.47 245.01 249.47C245.5 249.47 246.47 249.47 247.92 249.47C249.38 249.47 250.35 249.47 250.83 249.47C251.31 249.47 251.8 249.47 252.28 249.47C252.77 249.47 253.25 249.47 253.74 249.47C254.22 249.47 254.71 249.47 255.19 249.47C255.68 249.47 256.16 249.47 256.65 249.47C257.13 249.47 257.62 249.47 258.1 249.47C258.59 249.47 259.07 249.47 259.55 249.47C260.04 249.47 260.77 249.47 261.74 249.47C262.71 249.47 263.43 249.47 263.92 249.47C264.4 249.47 264.89 249.47 265.37 249.47C265.86 249.47 266.34 249.47 266.82 249.47C267.31 249.47 267.79 249.47 268.28 249.47C268.76 249.47 269.25 249.47 269.73 249.47C270.22 249.47 270.7 249.47 271.19 249.47C271.67 249.47 272.16 249.47 272.64 249.47" stroke="#081013" stroke-opacity="1.000000" stroke-width="54.000000"/>
	<path id="Форма 256" d="M143.95 277.1L149.04 277.1C152.44 277.1 155.1 277.1 157.04 277.1C158.98 277.1 161.64 277.1 165.04 277.1C168.43 277.1 170.61 277.1 171.58 277.1C172.55 277.1 174.25 277.1 176.67 277.1C179.09 277.1 182 277.1 185.4 277.1C188.79 277.1 191.7 277.1 194.12 277.1C196.54 277.1 198.97 277.1 201.39 277.1C203.81 277.1 205.99 277.1 207.93 277.1C209.87 277.1 211.81 277.1 213.75 277.1C215.69 277.1 217.87 277.1 220.29 277.1C222.72 277.1 225.38 277.1 228.29 277.1C231.2 277.1 233.87 277.1 236.29 277.1C238.71 277.1 241.62 277.1 245.01 277.1C248.41 277.1 254.47 277.1 263.19 277.1C271.91 277.1 276.52 277.1 277 277.1C277.49 277.1 278.22 277.1 279.19 277.1C280.15 277.1 280.88 277.1 281.37 277.1C281.85 277.1 282.58 277.1 283.55 277.1C284.52 277.1 285.24 277.1 285.73 277.1C286.21 277.1 286.94 277.1 287.91 277.1C288.88 277.1 289.85 277.1 290.82 277.1C291.79 277.1 292.51 277.1 293 277.1C293.48 277.1 293.97 277.1 294.45 277.1C294.94 277.1 295.42 277.1 295.91 277.1C296.39 277.1 296.88 277.1 297.36 277.1C297.85 277.1 298.33 277.1 298.82 277.1C299.3 277.1 299.79 277.1 300.27 277.1C300.75 277.1 301.24 277.1 301.72 277.1C302.21 277.1 302.69 277.1 303.18 277.1C303.66 277.1 304.39 277.1 305.36 277.1C306.33 277.1 307.06 277.1 307.54 277.1C308.03 277.1 308.75 277.1 309.72 277.1C310.69 277.1 311.66 277.1 312.63 277.1C313.6 277.1 314.33 277.1 314.81 277.1C315.29 277.1 316.26 277.1 317.72 277.1C319.17 277.1 320.14 277.1 320.63 277.1C321.11 277.1 321.84 277.1 322.81 277.1C323.78 277.1 324.51 277.1 324.99 277.1C325.47 277.1 325.96 277.1 326.44 277.1C326.93 277.1 327.9 277.1 329.35 277.1C330.81 277.1 331.78 277.1 332.26 277.1C332.75 277.1 333.47 277.1 334.44 277.1C335.41 277.1 336.14 277.1 336.62 277.1C337.11 277.1 337.59 277.1 338.08 277.1C338.56 277.1 339.05 277.1 339.53 277.1C340.02 277.1 340.5 277.1 340.99 277.1C341.47 277.1 341.95 277.1 342.44 277.1C342.92 277.1 343.41 277.1 343.89 277.1C344.38 277.1 344.86 277.1 345.35 277.1C345.83 277.1 346.56 277.1 347.53 277.1C348.5 277.1 349.47 277.1 350.44 277.1C351.41 277.1 352.13 277.1 352.62 277.1C353.1 277.1 353.59 277.1 354.07 277.1C354.56 277.1 355.04 277.1 355.53 277.1C356.01 277.1 356.5 277.1 356.98 277.1" stroke="#081013" stroke-opacity="1.000000" stroke-width="54.000000"/>
	<path id="Форма 257" d="M340.26 250.93L336.62 250.93C334.2 250.93 332.5 250.93 331.53 250.93C330.56 250.93 329.35 250.93 327.9 250.93C326.44 250.93 324.99 250.93 323.54 250.93C322.08 250.93 320.63 250.93 319.17 250.93C317.72 250.93 316.02 250.93 314.08 250.93C312.15 250.93 310.21 250.93 308.27 250.93C306.33 250.93 304.63 250.93 303.18 250.93C301.72 250.93 300.51 250.93 299.54 250.93C298.57 250.93 297.6 250.93 296.63 250.93C295.67 250.93 294.7 250.93 293.73 250.93C292.76 250.93 291.54 250.93 290.09 250.93C288.64 250.93 284.27 250.93 277 250.93C269.73 250.93 265.61 250.93 264.64 250.93C263.67 250.93 262.71 250.93 261.74 250.93C260.77 250.93 260.04 250.93 259.55 250.93" stroke="#081013" stroke-opacity="1.000000" stroke-width="54.000000"/>
	<path id="Форма 258" d="M360.62 307.64L358.43 307.64C356.98 307.64 355.53 307.64 354.07 307.64C352.62 307.64 351.16 307.64 349.71 307.64C348.26 307.64 346.56 307.64 344.62 307.64C342.68 307.64 340.99 307.64 339.53 307.64C338.08 307.64 336.38 307.64 334.44 307.64C332.5 307.64 330.08 307.64 327.17 307.64C324.26 307.64 321.6 307.64 319.17 307.64C316.75 307.64 314.33 307.64 311.9 307.64C309.48 307.64 306.57 307.64 303.18 307.64C299.79 307.64 297.12 307.64 295.18 307.64C293.24 307.64 287.91 307.64 279.19 307.64C270.46 307.64 265.13 307.64 263.19 307.64C261.25 307.64 259.55 307.64 258.1 307.64C256.65 307.64 255.68 307.64 255.19 307.64C254.71 307.64 253.98 307.64 253.01 307.64C252.04 307.64 251.31 307.64 250.83 307.64C250.35 307.64 249.62 307.64 248.65 307.64C247.68 307.64 246.47 307.64 245.01 307.64C243.56 307.64 241.86 307.64 239.92 307.64C237.99 307.64 236.77 307.64 236.29 307.64C235.8 307.64 235.32 307.64 234.83 307.64C234.35 307.64 233.87 307.64 233.38 307.64C232.9 307.64 232.17 307.64 231.2 307.64C230.23 307.64 229.26 307.64 228.29 307.64C227.32 307.64 226.35 307.64 225.38 307.64C224.41 307.64 223.44 307.64 222.47 307.64C221.51 307.64 220.29 307.64 218.84 307.64C217.39 307.64 216.42 307.64 215.93 307.64C215.45 307.64 214.72 307.64 213.75 307.64C212.78 307.64 212.05 307.64 211.57 307.64C211.08 307.64 210.6 307.64 210.11 307.64C209.63 307.64 209.15 307.64 208.66 307.64C208.18 307.64 207.69 307.64 207.21 307.64C206.72 307.64 206.24 307.64 205.75 307.64C205.27 307.64 204.78 307.64 204.3 307.64C203.81 307.64 203.33 307.64 202.84 307.64C202.36 307.64 201.87 307.64 201.39 307.64C200.91 307.64 200.42 307.64 199.94 307.64C199.45 307.64 198.72 307.64 197.75 307.64C196.79 307.64 195.82 307.64 194.85 307.64C193.88 307.64 193.15 307.64 192.67 307.64C192.18 307.64 191.21 307.64 189.76 307.64C188.3 307.64 187.09 307.64 186.12 307.64C185.15 307.64 184.18 307.64 183.21 307.64C182.24 307.64 181.28 307.64 180.31 307.64C179.34 307.64 178.37 307.64 177.4 307.64C176.43 307.64 175.7 307.64 175.22 307.64C174.73 307.64 174.25 307.64 173.76 307.64C173.28 307.64 172.79 307.64 172.31 307.64C171.82 307.64 171.34 307.64 170.85 307.64C170.37 307.64 169.64 307.64 168.67 307.64C167.7 307.64 166.98 307.64 166.49 307.64C166.01 307.64 165.52 307.64 165.04 307.64C164.55 307.64 164.07 307.64 163.58 307.64C163.1 307.64 162.61 307.64 162.13 307.64C161.64 307.64 160.92 307.64 159.95 307.64C158.98 307.64 158.25 307.64 157.77 307.64C157.28 307.64 156.56 307.64 155.59 307.64C154.62 307.64 153.89 307.64 153.4 307.64C152.92 307.64 152.44 307.64 151.95 307.64C151.47 307.64 150.98 307.64 150.5 307.64C150.01 307.64 149.53 307.64 149.04 307.64C148.56 307.64 148.07 307.64 147.59 307.64C147.1 307.64 146.62 307.64 146.13 307.64C145.65 307.64 145.16 307.64 144.68 307.64C144.2 307.64 143.71 307.64 143.23 307.64C142.74 307.64 142.26 307.64 141.77 307.64C141.29 307.64 140.8 307.64 140.32 307.64C139.83 307.64 139.35 307.64 138.86 307.64C138.38 307.64 137.89 307.64 137.41 307.64C136.92 307.64 136.44 307.64 135.96 307.64C135.47 307.64 134.99 307.64 134.5 307.64C134.02 307.64 133.53 307.64 133.05 307.64C132.56 307.64 132.08 307.64 131.59 307.64C131.11 307.64 130.62 307.64 130.14 307.64C129.65 307.64 129.17 307.64 128.68 307.64C128.2 307.64 127.72 307.64 127.23 307.64" stroke="#081013" stroke-opacity="1.000000" stroke-width="54.000000"/>
	<path id="Форма 259" d="M100.33 320.73L102.51 320.73C103.96 320.73 104.93 320.73 105.42 320.73C105.9 320.73 106.39 320.73 106.87 320.73C107.36 320.73 108.08 320.73 109.05 320.73C110.02 320.73 110.99 320.73 111.96 320.73C112.93 320.73 114.14 320.73 115.6 320.73C117.05 320.73 118.26 320.73 119.23 320.73C120.2 320.73 121.17 320.73 122.14 320.73C123.11 320.73 124.32 320.73 125.78 320.73C127.23 320.73 130.62 320.73 135.96 320.73C141.29 320.73 144.68 320.73 146.13 320.73C147.59 320.73 149.28 320.73 151.22 320.73C153.16 320.73 154.86 320.73 156.31 320.73C157.77 320.73 158.74 320.73 159.22 320.73C159.71 320.73 160.43 320.73 161.4 320.73C162.37 320.73 163.58 320.73 165.04 320.73C166.49 320.73 167.95 320.73 169.4 320.73C170.85 320.73 172.31 320.73 173.76 320.73C175.22 320.73 176.43 320.73 177.4 320.73C178.37 320.73 179.34 320.73 180.31 320.73C181.28 320.73 182.49 320.73 183.94 320.73C185.4 320.73 186.61 320.73 187.58 320.73C188.55 320.73 189.76 320.73 191.21 320.73C192.67 320.73 194.12 320.73 195.57 320.73C197.03 320.73 198.48 320.73 199.94 320.73C201.39 320.73 202.6 320.73 203.57 320.73C204.54 320.73 205.99 320.73 207.93 320.73C209.87 320.73 211.57 320.73 213.02 320.73C214.48 320.73 216.17 320.73 218.11 320.73C220.05 320.73 221.75 320.73 223.2 320.73C224.66 320.73 226.35 320.73 228.29 320.73C230.23 320.73 232.17 320.73 234.11 320.73C236.05 320.73 237.74 320.73 239.2 320.73C240.65 320.73 242.35 320.73 244.29 320.73C246.23 320.73 248.16 320.73 250.1 320.73C252.04 320.73 253.74 320.73 255.19 320.73C256.65 320.73 258.34 320.73 260.28 320.73C262.22 320.73 263.43 320.73 263.92 320.73C264.4 320.73 265.13 320.73 266.1 320.73C267.07 320.73 267.79 320.73 268.28 320.73C268.76 320.73 269.25 320.73 269.73 320.73C270.22 320.73 270.95 320.73 271.91 320.73C272.88 320.73 273.85 320.73 274.82 320.73C275.79 320.73 276.76 320.73 277.73 320.73C278.7 320.73 279.43 320.73 279.91 320.73C280.4 320.73 281.12 320.73 282.09 320.73C283.06 320.73 284.03 320.73 285 320.73C285.97 320.73 286.94 320.73 287.91 320.73C288.88 320.73 289.61 320.73 290.09 320.73C290.57 320.73 291.3 320.73 292.27 320.73C293.24 320.73 293.97 320.73 294.45 320.73C294.94 320.73 295.42 320.73 295.91 320.73C296.39 320.73 296.88 320.73 297.36 320.73C297.85 320.73 298.33 320.73 298.82 320.73C299.3 320.73 300.27 320.73 301.72 320.73C303.18 320.73 304.39 320.73 305.36 320.73C306.33 320.73 307.3 320.73 308.27 320.73C309.24 320.73 310.45 320.73 311.9 320.73C313.36 320.73 314.33 320.73 314.81 320.73C315.29 320.73 316.02 320.73 316.99 320.73C317.96 320.73 318.69 320.73 319.17 320.73C319.66 320.73 320.14 320.73 320.63 320.73C321.11 320.73 321.6 320.73 322.08 320.73C322.57 320.73 323.05 320.73 323.54 320.73C324.02 320.73 324.51 320.73 324.99 320.73C325.47 320.73 326.2 320.73 327.17 320.73C328.14 320.73 328.87 320.73 329.35 320.73C329.84 320.73 330.81 320.73 332.26 320.73C333.71 320.73 334.68 320.73 335.17 320.73C335.65 320.73 336.38 320.73 337.35 320.73C338.32 320.73 339.53 320.73 340.99 320.73C342.44 320.73 343.65 320.73 344.62 320.73C345.59 320.73 346.32 320.73 346.8 320.73C347.29 320.73 347.77 320.73 348.26 320.73C348.74 320.73 349.23 320.73 349.71 320.73C350.19 320.73 350.68 320.73 351.16 320.73C351.65 320.73 352.13 320.73 352.62 320.73C353.1 320.73 353.59 320.73 354.07 320.73C354.56 320.73 355.04 320.73 355.53 320.73C356.01 320.73 356.5 320.73 356.98 320.73C357.47 320.73 357.95 320.73 358.43 320.73C358.92 320.73 359.4 320.73 359.89 320.73C360.37 320.73 360.86 320.73 361.34 320.73C361.83 320.73 362.55 320.73 363.52 320.73" stroke="#081013" stroke-opacity="1.000000" stroke-width="54.000000"/>
	<path id="Форма 260" d="M382.43 352.72L379.52 352.72C377.58 352.72 376.13 352.72 375.16 352.72C374.19 352.72 373.22 352.72 372.25 352.72C371.28 352.72 369.83 352.72 367.89 352.72C365.95 352.72 364.49 352.72 363.52 352.72C362.55 352.72 361.34 352.72 359.89 352.72C358.43 352.72 356.74 352.72 354.8 352.72C352.86 352.72 351.16 352.72 349.71 352.72C348.26 352.72 345.11 352.72 340.26 352.72C335.41 352.72 332.26 352.72 330.81 352.72C329.35 352.72 327.9 352.72 326.44 352.72C324.99 352.72 324.02 352.72 323.54 352.72C323.05 352.72 322.57 352.72 322.08 352.72C321.6 352.72 321.11 352.72 320.63 352.72C320.14 352.72 319.42 352.72 318.45 352.72C317.48 352.72 316.75 352.72 316.26 352.72C315.78 352.72 315.29 352.72 314.81 352.72C314.33 352.72 313.84 352.72 313.36 352.72C312.87 352.72 312.39 352.72 311.9 352.72C311.42 352.72 311.42 352.72 311.9 352.72" stroke="#081013" stroke-opacity="1.000000" stroke-width="54.000000"/>
	<path id="Форма 261" d="M318.45 400.7L321.35 400.7C323.29 400.7 324.51 400.7 324.99 400.7C325.47 400.7 326.44 400.7 327.9 400.7C329.35 400.7 330.56 400.7 331.53 400.7C332.5 400.7 333.47 400.7 334.44 400.7C335.41 400.7 336.14 400.7 336.62 400.7C337.11 400.7 337.83 400.7 338.8 400.7C339.77 400.7 340.74 400.7 341.71 400.7C342.68 400.7 343.89 400.7 345.35 400.7C346.8 400.7 348.26 400.7 349.71 400.7C351.16 400.7 352.38 400.7 353.35 400.7C354.31 400.7 355.04 400.7 355.53 400.7C356.01 400.7 356.74 400.7 357.71 400.7C358.68 400.7 360.62 400.7 363.52 400.7C366.43 400.7 368.13 400.7 368.61 400.7C369.1 400.7 369.58 400.7 370.07 400.7C370.55 400.7 371.04 400.7 371.52 400.7C372.01 400.7 372.49 400.7 372.98 400.7C373.46 400.7 373.95 400.7 374.43 400.7" stroke="#081013" stroke-opacity="1.000000" stroke-width="54.000000"/>
	<path id="Форма 262" d="M338.8 432.69L341.71 432.69C343.65 432.69 344.86 432.69 345.35 432.69C345.83 432.69 346.8 432.69 348.26 432.69C349.71 432.69 350.68 432.69 351.16 432.69C351.65 432.69 352.62 432.69 354.07 432.69C355.53 432.69 356.74 432.69 357.71 432.69C358.68 432.69 360.13 432.69 362.07 432.69C364.01 432.69 365.71 432.69 367.16 432.69C368.61 432.69 369.83 432.69 370.79 432.69C371.76 432.69 372.98 432.69 374.43 432.69C375.88 432.69 377.1 432.69 378.07 432.69C379.03 432.69 380 432.69 380.97 432.69C381.94 432.69 382.91 432.69 383.88 432.69C384.85 432.69 387.27 432.69 391.15 432.69C395.03 432.69 397.7 432.69 399.15 432.69C400.6 432.69 401.57 432.69 402.06 432.69C402.54 432.69 403.03 432.69 403.51 432.69C404 432.69 404.48 432.69 404.97 432.69" stroke="#081013" stroke-opacity="1.000000" stroke-width="54.000000"/>
	<path id="Форма 263" d="M411.51 473.41L407.15 473.41C404.24 473.41 402.3 473.41 401.33 473.41C400.36 473.41 399.39 473.41 398.42 473.41C397.45 473.41 396.48 473.41 395.51 473.41C394.55 473.41 393.33 473.41 391.88 473.41C390.43 473.41 388.97 473.41 387.52 473.41C386.06 473.41 384.37 473.41 382.43 473.41C380.49 473.41 378.55 473.41 376.61 473.41C374.67 473.41 371.28 473.41 366.43 473.41C361.59 473.41 358.68 473.41 357.71 473.41C356.74 473.41 355.77 473.41 354.8 473.41C353.83 473.41 353.1 473.41 352.62 473.41C352.13 473.41 351.65 473.41 351.16 473.41C350.68 473.41 350.19 473.41 349.71 473.41C349.23 473.41 348.74 473.41 348.26 473.41C347.77 473.41 347.29 473.41 346.8 473.41C346.32 473.41 345.83 473.41 345.35 473.41C344.86 473.41 344.38 473.41 343.89 473.41" stroke="#081013" stroke-opacity="1.000000" stroke-width="54.000000"/>
	<path id="Форма 264" d="M348.98 518.49L351.16 518.49C352.62 518.49 353.83 518.49 354.8 518.49C355.77 518.49 356.5 518.49 356.98 518.49C357.47 518.49 358.43 518.49 359.89 518.49C361.34 518.49 362.55 518.49 363.52 518.49C364.49 518.49 365.46 518.49 366.43 518.49C367.4 518.49 368.13 518.49 368.61 518.49C369.1 518.49 369.82 518.49 370.79 518.49C371.76 518.49 372.49 518.49 372.98 518.49C373.46 518.49 374.19 518.49 375.16 518.49C376.13 518.49 376.85 518.49 377.34 518.49C377.82 518.49 379.52 518.49 382.43 518.49C385.34 518.49 387.27 518.49 388.24 518.49C389.21 518.49 389.94 518.49 390.42 518.49C390.91 518.49 391.39 518.49 391.88 518.49C392.36 518.49 392.85 518.49 393.33 518.49C393.82 518.49 394.3 518.49 394.79 518.49C395.27 518.49 395.76 518.49 396.24 518.49" stroke="#081013" stroke-opacity="1.000000" stroke-width="54.000000"/>
	<path id="Форма 265" d="M354.8 569.38L356.98 569.38C358.43 569.38 359.4 569.38 359.89 569.38C360.37 569.38 360.86 569.38 361.34 569.38C361.83 569.38 362.31 569.38 362.8 569.38C363.28 569.38 363.77 569.38 364.25 569.38C364.74 569.38 365.22 569.38 365.71 569.38C366.19 569.38 366.67 569.38 367.16 569.38C367.64 569.38 368.37 569.38 369.34 569.38C370.31 569.38 371.52 569.38 372.98 569.38C374.43 569.38 375.4 569.38 375.88 569.38C376.37 569.38 376.85 569.38 377.34 569.38C377.82 569.38 378.31 569.38 378.79 569.38C379.28 569.38 379.76 569.38 380.25 569.38" stroke="#081013" stroke-opacity="1.000000" stroke-width="54.000000"/>
	<path id="Форма 266" d="M341.71 618.82L343.89 618.82C345.35 618.82 346.32 618.82 346.8 618.82C347.29 618.82 347.77 618.82 348.26 618.82C348.74 618.82 349.23 618.82 349.71 618.82C350.19 618.82 350.92 618.82 351.89 618.82C352.86 618.82 353.83 618.82 354.8 618.82C355.77 618.82 356.5 618.82 356.98 618.82C357.47 618.82 358.19 618.82 359.16 618.82C360.13 618.82 360.86 618.82 361.34 618.82C361.83 618.82 362.8 618.82 364.25 618.82C365.71 618.82 366.92 618.82 367.89 618.82C368.86 618.82 369.58 618.82 370.07 618.82C370.55 618.82 371.04 618.82 371.52 618.82C372.01 618.82 372.49 618.82 372.98 618.82C373.46 618.82 373.95 618.82 374.43 618.82C374.91 618.82 375.4 618.82 375.88 618.82C376.37 618.82 376.85 618.82 377.34 618.82C377.82 618.82 378.31 618.82 378.79 618.82C379.28 618.82 379.76 618.82 380.25 618.82" stroke="#081013" stroke-opacity="1.000000" stroke-width="54.000000"/>
	<path id="Форма 267" d="M354.8 653.72L356.98 653.72C358.43 653.72 359.4 653.72 359.89 653.72C360.37 653.72 360.86 653.72 361.34 653.72C361.83 653.72 362.31 653.72 362.8 653.72C363.28 653.72 363.77 653.72 364.25 653.72C364.74 653.72 365.22 653.72 365.71 653.72C366.19 653.72 366.67 653.72 367.16 653.72C367.64 653.72 368.86 653.72 370.79 653.72C372.73 653.72 373.95 653.72 374.43 653.72C374.91 653.72 375.64 653.72 376.61 653.72C377.58 653.72 378.31 653.72 378.79 653.72C379.28 653.72 379.76 653.72 380.25 653.72" stroke="#081013" stroke-opacity="1.000000" stroke-width="54.000000"/>
	<path id="Форма 268" d="M322.81 633.36L324.99 633.36C326.44 633.36 327.41 633.36 327.9 633.36C328.38 633.36 328.87 633.36 329.35 633.36C329.84 633.36 330.32 633.36 330.81 633.36C331.29 633.36 331.78 633.36 332.26 633.36C332.75 633.36 333.47 633.36 334.44 633.36C335.41 633.36 336.14 633.36 336.62 633.36C337.11 633.36 337.59 633.36 338.08 633.36" stroke="#081013" stroke-opacity="1.000000" stroke-width="54.000000"/>
	<path id="Форма 269" d="M306.81 643.54L308.99 643.54C310.45 643.54 311.42 643.54 311.9 643.54C312.39 643.54 312.87 643.54 313.36 643.54C313.84 643.54 314.33 643.54 314.81 643.54C315.29 643.54 315.78 643.54 316.26 643.54C316.75 643.54 317.23 643.54 317.72 643.54C318.2 643.54 318.69 643.54 319.17 643.54" stroke="#081013" stroke-opacity="1.000000" stroke-width="54.000000"/>
	<path id="Форма 270" d="M327.17 659.53L324.99 659.53C323.54 659.53 322.57 659.53 322.08 659.53C321.6 659.53 321.11 659.53 320.63 659.53C320.14 659.53 319.66 659.53 319.17 659.53C318.69 659.53 318.2 659.53 317.72 659.53C317.23 659.53 316.75 659.53 316.26 659.53C315.78 659.53 315.29 659.53 314.81 659.53" stroke="#081013" stroke-opacity="1.000000" stroke-width="54.000000"/>
	<path id="Форма 271" d="M85.79 333.81L87.97 333.81C89.42 333.81 90.39 333.81 90.88 333.81C91.36 333.81 92.09 333.81 93.06 333.81C94.03 333.81 94.75 333.81 95.24 333.81C95.72 333.81 96.45 333.81 97.42 333.81C98.39 333.81 99.12 333.81 99.6 333.81C100.09 333.81 101.3 333.81 103.24 333.81C105.18 333.81 106.63 333.81 107.6 333.81C108.57 333.81 109.78 333.81 111.24 333.81C112.69 333.81 116.32 333.81 122.14 333.81C127.96 333.81 131.59 333.81 133.05 333.81C134.5 333.81 135.96 333.81 137.41 333.81C138.86 333.81 140.56 333.81 142.5 333.81C144.44 333.81 145.65 333.81 146.13 333.81C146.62 333.81 147.35 333.81 148.32 333.81C149.28 333.81 150.25 333.81 151.22 333.81C152.19 333.81 153.16 333.81 154.13 333.81C155.1 333.81 155.83 333.81 156.31 333.81C156.8 333.81 157.28 333.81 157.77 333.81C158.25 333.81 158.74 333.81 159.22 333.81C159.71 333.81 160.43 333.81 161.4 333.81C162.37 333.81 163.34 333.81 164.31 333.81C165.28 333.81 166.25 333.81 167.22 333.81" stroke="#081013" stroke-opacity="1.000000" stroke-width="54.000000"/>
	<path id="Форма 272" d="M302.45 368.71L300.27 368.71C298.82 368.71 297.12 368.71 295.18 368.71C293.24 368.71 291.79 368.71 290.82 368.71C289.85 368.71 288.15 368.71 285.73 368.71C283.31 368.71 280.88 368.71 278.46 368.71C276.03 368.71 273.37 368.71 270.46 368.71C267.55 368.71 264.16 368.71 260.28 368.71C256.4 368.71 253.25 368.71 250.83 368.71C248.41 368.71 245.98 368.71 243.56 368.71C241.14 368.71 238.95 368.71 237.02 368.71C235.08 368.71 233.14 368.71 231.2 368.71C229.26 368.71 224.41 368.71 216.66 368.71C208.9 368.71 204.3 368.71 202.84 368.71C201.39 368.71 200.18 368.71 199.21 368.71C198.24 368.71 197.03 368.71 195.57 368.71C194.12 368.71 192.91 368.71 191.94 368.71C190.97 368.71 189.76 368.71 188.3 368.71C186.85 368.71 185.88 368.71 185.4 368.71C184.91 368.71 184.18 368.71 183.21 368.71C182.24 368.71 181.28 368.71 180.31 368.71C179.34 368.71 178.61 368.71 178.12 368.71C177.64 368.71 177.16 368.71 176.67 368.71C176.19 368.71 175.46 368.71 174.49 368.71C173.52 368.71 172.79 368.71 172.31 368.71C171.82 368.71 171.1 368.71 170.13 368.71C169.16 368.71 168.19 368.71 167.22 368.71C166.25 368.71 165.52 368.71 165.04 368.71C164.55 368.71 164.07 368.71 163.58 368.71C163.1 368.71 162.61 368.71 162.13 368.71C161.64 368.71 161.16 368.71 160.67 368.71C160.19 368.71 159.46 368.71 158.49 368.71C157.52 368.71 156.8 368.71 156.31 368.71C155.83 368.71 155.34 368.71 154.86 368.71C154.37 368.71 153.65 368.71 152.68 368.71C151.71 368.71 150.98 368.71 150.5 368.71C150.01 368.71 149.53 368.71 149.04 368.71C148.56 368.71 147.83 368.71 146.86 368.71C145.89 368.71 145.16 368.71 144.68 368.71" stroke="#081013" stroke-opacity="1.000000" stroke-width="54.000000"/>
	<path id="Форма 273" d="M292.27 397.79L288.64 397.79C286.21 397.79 284.03 397.79 282.09 397.79C280.15 397.79 278.7 397.79 277.73 397.79C276.76 397.79 275.55 397.79 274.1 397.79C272.64 397.79 270.95 397.79 269.01 397.79C267.07 397.79 265.13 397.79 263.19 397.79C261.25 397.79 259.31 397.79 257.37 397.79C255.43 397.79 253.74 397.79 252.28 397.79C250.83 397.79 249.62 397.79 248.65 397.79C247.68 397.79 246.71 397.79 245.74 397.79C244.77 397.79 243.32 397.79 241.38 397.79C239.44 397.79 237.99 397.79 237.02 397.79C236.05 397.79 234.83 397.79 233.38 397.79C231.93 397.79 230.71 397.79 229.75 397.79C228.78 397.79 225.87 397.79 221.02 397.79C216.17 397.79 212.78 397.79 210.84 397.79C208.9 397.79 207.45 397.79 206.48 397.79C205.51 397.79 204.78 397.79 204.3 397.79C203.81 397.79 203.33 397.79 202.84 397.79C202.36 397.79 201.39 397.79 199.94 397.79C198.48 397.79 197.27 397.79 196.3 397.79C195.33 397.79 194.6 397.79 194.12 397.79C193.63 397.79 192.91 397.79 191.94 397.79C190.97 397.79 190.24 397.79 189.76 397.79C189.27 397.79 188.79 397.79 188.3 397.79C187.82 397.79 187.33 397.79 186.85 397.79C186.36 397.79 185.88 397.79 185.39 397.79C184.91 397.79 184.43 397.79 183.94 397.79C183.46 397.79 182.97 397.79 182.49 397.79C182 397.79 181.27 397.79 180.31 397.79C179.34 397.79 178.37 397.79 177.4 397.79C176.43 397.79 175.7 397.79 175.22 397.79C174.73 397.79 174.25 397.79 173.76 397.79C173.28 397.79 172.79 397.79 172.31 397.79C171.82 397.79 171.34 397.79 170.85 397.79C170.37 397.79 169.88 397.79 169.4 397.79C168.91 397.79 168.43 397.79 167.95 397.79C167.46 397.79 166.73 397.79 165.76 397.79C164.79 397.79 163.58 397.79 162.13 397.79C160.67 397.79 159.71 397.79 159.22 397.79C158.74 397.79 158.01 397.79 157.04 397.79C156.07 397.79 155.1 397.79 154.13 397.79C153.16 397.79 152.44 397.79 151.95 397.79C151.47 397.79 150.98 397.79 150.5 397.79C150.01 397.79 149.53 397.79 149.04 397.79C148.56 397.79 148.07 397.79 147.59 397.79C147.1 397.79 146.62 397.79 146.13 397.79C145.65 397.79 145.16 397.79 144.68 397.79C144.2 397.79 143.71 397.79 143.23 397.79C142.74 397.79 142.26 397.79 141.77 397.79C141.29 397.79 140.8 397.79 140.32 397.79C139.83 397.79 139.35 397.79 138.86 397.79C138.38 397.79 137.41 397.79 135.96 397.79C134.5 397.79 133.53 397.79 133.05 397.79C132.56 397.79 132.08 397.79 131.59 397.79C131.11 397.79 130.62 397.79 130.14 397.79C129.65 397.79 129.17 397.79 128.68 397.79C128.2 397.79 127.47 397.79 126.5 397.79C125.53 397.79 124.81 397.79 124.32 397.79C123.84 397.79 123.35 397.79 122.87 397.79C122.38 397.79 121.66 397.79 120.69 397.79C119.72 397.79 118.51 397.79 117.05 397.79C115.6 397.79 114.63 397.79 114.14 397.79C113.66 397.79 113.17 397.79 112.69 397.79C112.2 397.79 111.72 397.79 111.24 397.79C110.75 397.79 110.27 397.79 109.78 397.79C109.3 397.79 108.81 397.79 108.33 397.79C107.84 397.79 107.36 397.79 106.87 397.79C106.39 397.79 105.66 397.79 104.69 397.79C103.72 397.79 103 397.79 102.51 397.79C102.03 397.79 101.3 397.79 100.33 397.79C99.36 397.79 98.63 397.79 98.15 397.79C97.66 397.79 97.18 397.79 96.69 397.79C96.21 397.79 95.72 397.79 95.24 397.79C94.75 397.79 94.27 397.79 93.79 397.79" stroke="#081013" stroke-opacity="1.000000" stroke-width="54.000000"/>
	<path id="Форма 274" d="M253.01 429.78L249.38 429.78C246.95 429.78 245.5 429.78 245.01 429.78C244.53 429.78 243.56 429.78 242.11 429.78C240.65 429.78 239.44 429.78 238.47 429.78C237.5 429.78 236.53 429.78 235.56 429.78C234.59 429.78 233.62 429.78 232.65 429.78C231.68 429.78 230.96 429.78 230.47 429.78C229.99 429.78 229.02 429.78 227.56 429.78C226.11 429.78 224.9 429.78 223.93 429.78C222.96 429.78 221.99 429.78 221.02 429.78C220.05 429.78 218.84 429.78 217.39 429.78C215.93 429.78 214.48 429.78 213.02 429.78C211.57 429.78 210.6 429.78 210.11 429.78C209.63 429.78 208.18 429.78 205.75 429.78C203.33 429.78 201.39 429.78 199.94 429.78C198.48 429.78 196.79 429.78 194.85 429.78C192.91 429.78 191.45 429.78 190.48 429.78C189.51 429.78 188.79 429.78 188.3 429.78C187.82 429.78 187.09 429.78 186.12 429.78C185.15 429.78 184.43 429.78 183.94 429.78C183.46 429.78 182.73 429.78 181.76 429.78C180.79 429.78 179.82 429.78 178.85 429.78C177.88 429.78 177.16 429.78 176.67 429.78C176.19 429.78 175.7 429.78 175.22 429.78C174.73 429.78 174 429.78 173.04 429.78C172.07 429.78 171.34 429.78 170.85 429.78C170.37 429.78 169.64 429.78 168.67 429.78C167.7 429.78 166.73 429.78 165.76 429.78C164.8 429.78 164.07 429.78 163.58 429.78C163.1 429.78 162.37 429.78 161.4 429.78C160.43 429.78 159.71 429.78 159.22 429.78C158.74 429.78 158.01 429.78 157.04 429.78C156.07 429.78 155.1 429.78 154.13 429.78C153.16 429.78 152.44 429.78 151.95 429.78C151.47 429.78 150.74 429.78 149.77 429.78C148.8 429.78 148.07 429.78 147.59 429.78C147.1 429.78 146.38 429.78 145.41 429.78C144.44 429.78 143.47 429.78 142.5 429.78C141.53 429.78 140.8 429.78 140.32 429.78C139.83 429.78 139.35 429.78 138.86 429.78C138.38 429.78 137.89 429.78 137.41 429.78C136.92 429.78 136.44 429.78 135.96 429.78C135.47 429.78 134.99 429.78 134.5 429.78C134.02 429.78 133.53 429.78 133.05 429.78C132.56 429.78 132.08 429.78 131.59 429.78C131.11 429.78 130.62 429.78 130.14 429.78C129.65 429.78 129.17 429.78 128.68 429.78C128.2 429.78 127.72 429.78 127.23 429.78C126.75 429.78 126.26 429.78 125.78 429.78C125.29 429.78 124.81 429.78 124.32 429.78C123.84 429.78 123.35 429.78 122.87 429.78C122.38 429.78 121.9 429.78 121.41 429.78C120.93 429.78 120.44 429.78 119.96 429.78" stroke="#081013" stroke-opacity="1.000000" stroke-width="54.000000"/>
	<path id="Форма 275" d="M267.55 418.15L265.37 418.15C263.92 418.15 262.95 418.15 262.46 418.15C261.98 418.15 261.01 418.15 259.55 418.15C258.1 418.15 256.89 418.15 255.92 418.15C254.95 418.15 253.98 418.15 253.01 418.15C252.04 418.15 251.07 418.15 250.1 418.15C249.13 418.15 248.16 418.15 247.19 418.15C246.23 418.15 245.26 418.15 244.29 418.15C243.32 418.15 242.11 418.15 240.65 418.15C239.2 418.15 237.99 418.15 237.02 418.15C236.05 418.15 235.08 418.15 234.11 418.15C233.14 418.15 232.17 418.15 231.2 418.15C230.23 418.15 227.08 418.15 221.75 418.15C216.42 418.15 213.02 418.15 211.57 418.15C210.11 418.15 208.9 418.15 207.93 418.15C206.96 418.15 205.99 418.15 205.03 418.15C204.06 418.15 203.33 418.15 202.84 418.15" stroke="#081013" stroke-opacity="1.000000" stroke-width="54.000000"/>
	<path id="Форма 276" d="M79.97 450.14L82.15 450.14C83.61 450.14 84.82 450.14 85.79 450.14C86.76 450.14 87.48 450.14 87.97 450.14C88.45 450.14 88.94 450.14 89.42 450.14C89.91 450.14 91.12 450.14 93.06 450.14C95 450.14 96.45 450.14 97.42 450.14C98.39 450.14 99.6 450.14 101.06 450.14C102.51 450.14 103.96 450.14 105.42 450.14C106.87 450.14 108.33 450.14 109.78 450.14C111.24 450.14 112.69 450.14 114.14 450.14C115.6 450.14 116.81 450.14 117.78 450.14C118.75 450.14 119.72 450.14 120.69 450.14C121.66 450.14 122.63 450.14 123.6 450.14C124.56 450.14 128.68 450.14 135.96 450.14C143.23 450.14 148.32 450.14 151.22 450.14C154.13 450.14 156.31 450.14 157.77 450.14C159.22 450.14 160.43 450.14 161.4 450.14C162.37 450.14 163.1 450.14 163.58 450.14C164.07 450.14 164.8 450.14 165.76 450.14C166.73 450.14 167.46 450.14 167.95 450.14C168.43 450.14 168.92 450.14 169.4 450.14C169.88 450.14 170.61 450.14 171.58 450.14C172.55 450.14 173.28 450.14 173.76 450.14C174.25 450.14 174.97 450.14 175.94 450.14C176.91 450.14 177.88 450.14 178.85 450.14C179.82 450.14 180.55 450.14 181.03 450.14C181.52 450.14 182 450.14 182.49 450.14C182.97 450.14 183.46 450.14 183.94 450.14C184.43 450.14 184.91 450.14 185.4 450.14C185.88 450.14 186.36 450.14 186.85 450.14C187.33 450.14 187.82 450.14 188.3 450.14C188.79 450.14 189.51 450.14 190.48 450.14C191.45 450.14 192.42 450.14 193.39 450.14C194.36 450.14 195.57 450.14 197.03 450.14C198.48 450.14 199.69 450.14 200.66 450.14C201.63 450.14 202.36 450.14 202.84 450.14C203.33 450.14 204.06 450.14 205.03 450.14C205.99 450.14 206.72 450.14 207.21 450.14C207.69 450.14 208.42 450.14 209.39 450.14C210.36 450.14 211.08 450.14 211.57 450.14C212.05 450.14 212.54 450.14 213.02 450.14C213.51 450.14 214.23 450.14 215.2 450.14C216.17 450.14 216.9 450.14 217.39 450.14C217.87 450.14 218.35 450.14 218.84 450.14C219.32 450.14 219.81 450.14 220.29 450.14C220.78 450.14 221.26 450.14 221.75 450.14C222.23 450.14 222.72 450.14 223.2 450.14C223.69 450.14 224.17 450.14 224.66 450.14C225.14 450.14 225.63 450.14 226.11 450.14C226.59 450.14 227.32 450.14 228.29 450.14C229.26 450.14 229.99 450.14 230.47 450.14C230.96 450.14 231.44 450.14 231.93 450.14C232.41 450.14 232.9 450.14 233.38 450.14C233.87 450.14 234.35 450.14 234.83 450.14C235.32 450.14 235.8 450.14 236.29 450.14C236.77 450.14 237.26 450.14 237.74 450.14C238.23 450.14 238.71 450.14 239.2 450.14C239.68 450.14 240.17 450.14 240.65 450.14C241.14 450.14 241.62 450.14 242.11 450.14" stroke="#081013" stroke-opacity="1.000000" stroke-width="54.000000"/>
	<path id="Форма 277" d="M248.65 492.31L245.74 492.31C243.8 492.31 242.35 492.31 241.38 492.31C240.41 492.31 238.71 492.31 236.29 492.31C233.87 492.31 231.68 492.31 229.75 492.31C227.81 492.31 225.87 492.31 223.93 492.31C221.99 492.31 220.05 492.31 218.11 492.31C216.17 492.31 214.48 492.31 213.02 492.31C211.57 492.31 209.87 492.31 207.93 492.31C205.99 492.31 204.06 492.31 202.12 492.31C200.18 492.31 198.72 492.31 197.75 492.31C196.79 492.31 195.82 492.31 194.85 492.31C193.88 492.31 192.67 492.31 191.21 492.31C189.76 492.31 188.3 492.31 186.85 492.31C185.4 492.31 182 492.31 176.67 492.31C171.34 492.31 167.7 492.31 165.76 492.31C163.83 492.31 162.37 492.31 161.4 492.31C160.43 492.31 159.46 492.31 158.49 492.31C157.52 492.31 156.8 492.31 156.31 492.31C155.83 492.31 155.34 492.31 154.86 492.31C154.37 492.31 153.89 492.31 153.4 492.31C152.92 492.31 152.44 492.31 151.95 492.31C151.47 492.31 150.74 492.31 149.77 492.31C148.8 492.31 148.07 492.31 147.59 492.31C147.1 492.31 146.38 492.31 145.41 492.31C144.44 492.31 143.47 492.31 142.5 492.31C141.53 492.31 140.8 492.31 140.32 492.31C139.83 492.31 139.35 492.31 138.86 492.31C138.38 492.31 137.89 492.31 137.41 492.31C136.92 492.31 136.44 492.31 135.96 492.31C135.47 492.31 134.99 492.31 134.5 492.31C134.02 492.31 133.53 492.31 133.05 492.31C132.56 492.31 132.08 492.31 131.59 492.31C131.11 492.31 130.38 492.31 129.41 492.31C128.44 492.31 127.72 492.31 127.23 492.31C126.75 492.31 126.26 492.31 125.78 492.31C125.29 492.31 124.56 492.31 123.6 492.31C122.63 492.31 121.9 492.31 121.41 492.31C120.93 492.31 120.44 492.31 119.96 492.31C119.48 492.31 118.99 492.31 118.51 492.31C118.02 492.31 117.29 492.31 116.32 492.31C115.36 492.31 114.63 492.31 114.14 492.31C113.66 492.31 113.17 492.31 112.69 492.31C112.2 492.31 111.72 492.31 111.24 492.31C110.75 492.31 110.27 492.31 109.78 492.31C109.3 492.31 108.81 492.31 108.33 492.31C107.84 492.31 107.36 492.31 106.87 492.31C106.39 492.31 105.9 492.31 105.42 492.31C104.93 492.31 104.45 492.31 103.96 492.31C103.48 492.31 103 492.31 102.51 492.31C102.03 492.31 101.54 492.31 101.06 492.31C100.57 492.31 100.09 492.31 99.6 492.31C99.12 492.31 98.63 492.31 98.15 492.31C97.66 492.31 97.18 492.31 96.69 492.31C96.21 492.31 95.72 492.31 95.24 492.31C94.75 492.31 94.27 492.31 93.79 492.31C93.3 492.31 92.82 492.31 92.33 492.31C91.85 492.31 91.36 492.31 90.88 492.31C90.39 492.31 89.91 492.31 89.42 492.31C88.94 492.31 88.45 492.31 87.97 492.31C87.48 492.31 87 492.31 86.51 492.31C86.03 492.31 85.55 492.31 85.06 492.31C84.58 492.31 84.09 492.31 83.61 492.31C83.12 492.31 82.64 492.31 82.15 492.31" stroke="#081013" stroke-opacity="1.000000" stroke-width="54.000000"/>
	<path id="Форма 278" d="M65.43 524.3L67.61 524.3C69.07 524.3 70.03 524.3 70.52 524.3C71 524.3 71.49 524.3 71.97 524.3C72.46 524.3 73.19 524.3 74.15 524.3C75.12 524.3 76.09 524.3 77.06 524.3C78.03 524.3 79 524.3 79.97 524.3C80.94 524.3 82.39 524.3 84.33 524.3C86.27 524.3 87.97 524.3 89.42 524.3C90.88 524.3 92.33 524.3 93.79 524.3C95.24 524.3 96.94 524.3 98.87 524.3C100.81 524.3 102.75 524.3 104.69 524.3C106.63 524.3 108.57 524.3 110.51 524.3C112.45 524.3 117.78 524.3 126.5 524.3C135.23 524.3 140.08 524.3 141.04 524.3C142.01 524.3 142.98 524.3 143.95 524.3C144.92 524.3 145.89 524.3 146.86 524.3C147.83 524.3 149.28 524.3 151.22 524.3C153.16 524.3 155.1 524.3 157.04 524.3C158.98 524.3 160.67 524.3 162.13 524.3C163.58 524.3 164.8 524.3 165.76 524.3C166.73 524.3 167.95 524.3 169.4 524.3C170.85 524.3 171.82 524.3 172.31 524.3C172.79 524.3 173.28 524.3 173.76 524.3C174.25 524.3 174.73 524.3 175.22 524.3C175.7 524.3 176.19 524.3 176.67 524.3C177.16 524.3 177.64 524.3 178.12 524.3C178.61 524.3 179.09 524.3 179.58 524.3C180.06 524.3 180.79 524.3 181.76 524.3C182.73 524.3 183.94 524.3 185.4 524.3C186.85 524.3 188.3 524.3 189.76 524.3C191.21 524.3 192.91 524.3 194.85 524.3C196.79 524.3 198.48 524.3 199.94 524.3C201.39 524.3 202.6 524.3 203.57 524.3C204.54 524.3 205.27 524.3 205.75 524.3C206.24 524.3 206.72 524.3 207.21 524.3C207.69 524.3 208.42 524.3 209.39 524.3C210.36 524.3 211.33 524.3 212.3 524.3C213.27 524.3 214.24 524.3 215.2 524.3C216.17 524.3 216.9 524.3 217.39 524.3C217.87 524.3 218.35 524.3 218.84 524.3C219.32 524.3 219.81 524.3 220.29 524.3C220.78 524.3 221.26 524.3 221.75 524.3C222.23 524.3 222.72 524.3 223.2 524.3C223.69 524.3 224.17 524.3 224.66 524.3C225.14 524.3 225.63 524.3 226.11 524.3C226.59 524.3 227.08 524.3 227.56 524.3C228.05 524.3 228.53 524.3 229.02 524.3C229.5 524.3 229.99 524.3 230.47 524.3C230.96 524.3 231.44 524.3 231.93 524.3C232.41 524.3 232.9 524.3 233.38 524.3C233.87 524.3 234.35 524.3 234.83 524.3C235.32 524.3 235.8 524.3 236.29 524.3C236.77 524.3 237.26 524.3 237.74 524.3C238.23 524.3 238.71 524.3 239.2 524.3C239.68 524.3 240.17 524.3 240.65 524.3C241.14 524.3 241.62 524.3 242.11 524.3C242.59 524.3 243.07 524.3 243.56 524.3C244.04 524.3 244.53 524.3 245.01 524.3C245.5 524.3 245.98 524.3 246.47 524.3C246.95 524.3 247.44 524.3 247.92 524.3C248.41 524.3 248.89 524.3 249.38 524.3" stroke="#081013" stroke-opacity="1.000000" stroke-width="54.000000"/>
	<path id="Форма 279" d="M267.55 557.75L265.37 557.75C263.92 557.75 262.71 557.75 261.74 557.75C260.77 557.75 259.07 557.75 256.65 557.75C254.22 557.75 252.28 557.75 250.83 557.75C249.38 557.75 247.92 557.75 246.47 557.75C245.01 557.75 243.32 557.75 241.38 557.75C239.44 557.75 237.5 557.75 235.56 557.75C233.62 557.75 231.93 557.75 230.47 557.75C229.02 557.75 227.32 557.75 225.38 557.75C223.44 557.75 218.84 557.75 211.57 557.75C204.3 557.75 199.45 557.75 197.03 557.75C194.6 557.75 192.18 557.75 189.76 557.75C187.33 557.75 185.15 557.75 183.21 557.75C181.28 557.75 180.06 557.75 179.58 557.75C179.09 557.75 178.12 557.75 176.67 557.75C175.22 557.75 173.76 557.75 172.31 557.75C170.85 557.75 169.88 557.75 169.4 557.75C168.92 557.75 168.19 557.75 167.22 557.75C166.25 557.75 165.28 557.75 164.31 557.75C163.34 557.75 162.61 557.75 162.13 557.75C161.64 557.75 161.16 557.75 160.67 557.75C160.19 557.75 159.46 557.75 158.49 557.75C157.52 557.75 156.56 557.75 155.59 557.75C154.62 557.75 153.89 557.75 153.4 557.75C152.92 557.75 151.95 557.75 150.5 557.75C149.04 557.75 147.83 557.75 146.86 557.75C145.89 557.75 144.92 557.75 143.95 557.75C142.98 557.75 142.01 557.75 141.04 557.75C140.08 557.75 139.35 557.75 138.86 557.75C138.38 557.75 137.89 557.75 137.41 557.75C136.92 557.75 136.2 557.75 135.23 557.75C134.26 557.75 132.8 557.75 130.87 557.75C128.93 557.75 127.47 557.75 126.5 557.75C125.53 557.75 124.56 557.75 123.6 557.75C122.63 557.75 121.66 557.75 120.69 557.75C119.72 557.75 118.99 557.75 118.51 557.75C118.02 557.75 117.54 557.75 117.05 557.75C116.57 557.75 116.08 557.75 115.6 557.75C115.11 557.75 114.63 557.75 114.14 557.75C113.66 557.75 113.17 557.75 112.69 557.75C112.2 557.75 111.72 557.75 111.24 557.75C110.75 557.75 109.78 557.75 108.33 557.75C106.87 557.75 105.9 557.75 105.42 557.75C104.93 557.75 104.45 557.75 103.96 557.75C103.48 557.75 103 557.75 102.51 557.75C102.03 557.75 101.54 557.75 101.06 557.75C100.57 557.75 100.09 557.75 99.6 557.75C99.12 557.75 98.63 557.75 98.15 557.75C97.66 557.75 97.18 557.75 96.69 557.75C96.21 557.75 95.72 557.75 95.24 557.75C94.75 557.75 94.27 557.75 93.79 557.75C93.3 557.75 92.82 557.75 92.33 557.75C91.85 557.75 91.36 557.75 90.88 557.75C90.39 557.75 89.67 557.75 88.7 557.75C87.73 557.75 86.27 557.75 84.33 557.75C82.39 557.75 80.94 557.75 79.97 557.75C79 557.75 78.27 557.75 77.79 557.75C77.31 557.75 76.82 557.75 76.34 557.75C75.85 557.75 75.37 557.75 74.88 557.75C74.4 557.75 73.91 557.75 73.43 557.75C72.94 557.75 72.46 557.75 71.97 557.75C71.49 557.75 71 557.75 70.52 557.75C70.03 557.75 69.55 557.75 69.07 557.75C68.58 557.75 67.85 557.75 66.88 557.75C65.91 557.75 65.19 557.75 64.7 557.75C64.22 557.75 63.73 557.75 63.25 557.75C62.76 557.75 62.28 557.75 61.79 557.75C61.31 557.75 60.83 557.75 60.34 557.75C59.86 557.75 59.37 557.75 58.89 557.75C58.4 557.75 57.92 557.75 57.43 557.75C56.95 557.75 56.46 557.75 55.98 557.75" stroke="#081013" stroke-opacity="1.000000" stroke-width="54.000000"/>
	<path id="Форма 280" d="M47.98 581.01L50.16 581.01C51.62 581.01 52.59 581.01 53.07 581.01C53.55 581.01 54.52 581.01 55.98 581.01C57.43 581.01 58.89 581.01 60.34 581.01C61.79 581.01 63.01 581.01 63.98 581.01C64.95 581.01 65.91 581.01 66.88 581.01C67.85 581.01 68.82 581.01 69.79 581.01C70.76 581.01 71.73 581.01 72.7 581.01C73.67 581.01 77.31 581.01 83.61 581.01C89.91 581.01 95.24 581.01 99.6 581.01C103.96 581.01 107.12 581.01 109.05 581.01C110.99 581.01 113.9 581.01 117.78 581.01C121.66 581.01 124.08 581.01 125.05 581.01C126.02 581.01 126.75 581.01 127.23 581.01C127.72 581.01 128.2 581.01 128.68 581.01C129.17 581.01 129.65 581.01 130.14 581.01C130.62 581.01 131.35 581.01 132.32 581.01C133.29 581.01 134.26 581.01 135.23 581.01C136.2 581.01 137.41 581.01 138.86 581.01C140.32 581.01 141.77 581.01 143.23 581.01C144.68 581.01 146.62 581.01 149.04 581.01C151.47 581.01 153.16 581.01 154.13 581.01C155.1 581.01 156.56 581.01 158.49 581.01C160.43 581.01 161.89 581.01 162.86 581.01C163.83 581.01 164.8 581.01 165.76 581.01C166.73 581.01 167.7 581.01 168.67 581.01C169.64 581.01 170.37 581.01 170.85 581.01C171.34 581.01 171.82 581.01 172.31 581.01C172.79 581.01 173.52 581.01 174.49 581.01C175.46 581.01 176.19 581.01 176.67 581.01C177.16 581.01 178.12 581.01 179.58 581.01C181.03 581.01 182.24 581.01 183.21 581.01C184.18 581.01 185.15 581.01 186.12 581.01C187.09 581.01 188.06 581.01 189.03 581.01C190 581.01 190.97 581.01 191.94 581.01C192.91 581.01 193.64 581.01 194.12 581.01C194.6 581.01 195.33 581.01 196.3 581.01C197.27 581.01 198 581.01 198.48 581.01C198.97 581.01 199.45 581.01 199.94 581.01C200.42 581.01 200.91 581.01 201.39 581.01C201.88 581.01 202.36 581.01 202.84 581.01C203.33 581.01 203.81 581.01 204.3 581.01C204.78 581.01 205.27 581.01 205.75 581.01C206.24 581.01 206.72 581.01 207.21 581.01C207.69 581.01 208.18 581.01 208.66 581.01C209.15 581.01 209.63 581.01 210.12 581.01C210.6 581.01 211.33 581.01 212.3 581.01C213.27 581.01 213.99 581.01 214.48 581.01C214.96 581.01 215.45 581.01 215.93 581.01C216.42 581.01 217.14 581.01 218.11 581.01C219.08 581.01 220.05 581.01 221.02 581.01C221.99 581.01 222.72 581.01 223.2 581.01C223.69 581.01 224.17 581.01 224.66 581.01C225.14 581.01 225.63 581.01 226.11 581.01C226.59 581.01 227.32 581.01 228.29 581.01C229.26 581.01 229.99 581.01 230.47 581.01C230.96 581.01 231.44 581.01 231.93 581.01C232.41 581.01 232.9 581.01 233.38 581.01C233.87 581.01 234.35 581.01 234.83 581.01C235.32 581.01 236.05 581.01 237.02 581.01C237.99 581.01 238.71 581.01 239.2 581.01C239.68 581.01 240.17 581.01 240.65 581.01C241.14 581.01 241.62 581.01 242.11 581.01C242.59 581.01 243.07 581.01 243.56 581.01C244.04 581.01 244.53 581.01 245.01 581.01C245.5 581.01 245.98 581.01 246.47 581.01C246.95 581.01 247.44 581.01 247.92 581.01C248.41 581.01 248.89 581.01 249.38 581.01C249.86 581.01 250.59 581.01 251.56 581.01C252.53 581.01 253.25 581.01 253.74 581.01C254.22 581.01 254.71 581.01 255.19 581.01C255.68 581.01 256.16 581.01 256.65 581.01C257.13 581.01 257.62 581.01 258.1 581.01C258.59 581.01 259.07 581.01 259.55 581.01C260.04 581.01 260.52 581.01 261.01 581.01C261.49 581.01 261.98 581.01 262.46 581.01" stroke="#081013" stroke-opacity="1.000000" stroke-width="54.000000"/>
	<path id="Форма 281" d="M282.09 610.09L279.91 610.09C278.46 610.09 277.25 610.09 276.28 610.09C275.31 610.09 274.34 610.09 273.37 610.09C272.4 610.09 271.67 610.09 271.19 610.09C270.7 610.09 269.98 610.09 269.01 610.09C268.04 610.09 266.82 610.09 265.37 610.09C263.92 610.09 262.46 610.09 261.01 610.09C259.55 610.09 257.62 610.09 255.19 610.09C252.77 610.09 251.07 610.09 250.1 610.09C249.13 610.09 248.16 610.09 247.19 610.09C246.23 610.09 245.01 610.09 243.56 610.09C242.11 610.09 238.95 610.09 234.11 610.09C229.26 610.09 225.63 610.09 223.2 610.09C220.78 610.09 219.08 610.09 218.11 610.09C217.14 610.09 216.17 610.09 215.2 610.09C214.23 610.09 213.51 610.09 213.02 610.09C212.54 610.09 212.05 610.09 211.57 610.09C211.08 610.09 210.36 610.09 209.39 610.09C208.42 610.09 207.45 610.09 206.48 610.09C205.51 610.09 204.54 610.09 203.57 610.09C202.6 610.09 201.63 610.09 200.66 610.09C199.69 610.09 198.48 610.09 197.03 610.09C195.57 610.09 194.36 610.09 193.39 610.09C192.42 610.09 191.45 610.09 190.48 610.09C189.51 610.09 188.55 610.09 187.58 610.09C186.61 610.09 185.4 610.09 183.94 610.09C182.49 610.09 181.28 610.09 180.31 610.09C179.34 610.09 178.37 610.09 177.4 610.09C176.43 610.09 175.22 610.09 173.76 610.09C172.31 610.09 171.1 610.09 170.13 610.09C169.16 610.09 167.95 610.09 166.49 610.09C165.04 610.09 163.83 610.09 162.86 610.09C161.89 610.09 160.67 610.09 159.22 610.09C157.77 610.09 156.31 610.09 154.86 610.09C153.4 610.09 151.95 610.09 150.5 610.09C149.04 610.09 148.07 610.09 147.59 610.09C147.1 610.09 146.38 610.09 145.41 610.09C144.44 610.09 143.47 610.09 142.5 610.09C141.53 610.09 140.8 610.09 140.32 610.09C139.83 610.09 139.35 610.09 138.86 610.09C138.38 610.09 137.65 610.09 136.68 610.09C135.71 610.09 134.74 610.09 133.77 610.09C132.8 610.09 131.59 610.09 130.14 610.09C128.68 610.09 127.72 610.09 127.23 610.09C126.75 610.09 126.02 610.09 125.05 610.09C124.08 610.09 123.11 610.09 122.14 610.09C121.17 610.09 120.2 610.09 119.23 610.09C118.26 610.09 117.29 610.09 116.32 610.09C115.36 610.09 114.14 610.09 112.69 610.09C111.24 610.09 110.02 610.09 109.05 610.09C108.08 610.09 107.36 610.09 106.87 610.09C106.39 610.09 105.9 610.09 105.42 610.09C104.93 610.09 104.45 610.09 103.96 610.09C103.48 610.09 102.75 610.09 101.78 610.09C100.81 610.09 100.09 610.09 99.6 610.09C99.12 610.09 98.39 610.09 97.42 610.09C96.45 610.09 95.48 610.09 94.51 610.09C93.54 610.09 92.82 610.09 92.33 610.09C91.85 610.09 91.36 610.09 90.88 610.09C90.39 610.09 89.91 610.09 89.42 610.09C88.94 610.09 88.45 610.09 87.97 610.09C87.48 610.09 87 610.09 86.51 610.09C86.03 610.09 85.3 610.09 84.33 610.09C83.36 610.09 82.64 610.09 82.15 610.09C81.67 610.09 81.18 610.09 80.7 610.09C80.21 610.09 79.49 610.09 78.52 610.09C77.55 610.09 76.82 610.09 76.34 610.09C75.85 610.09 75.37 610.09 74.88 610.09C74.4 610.09 73.91 610.09 73.43 610.09C72.94 610.09 72.46 610.09 71.97 610.09C71.49 610.09 71 610.09 70.52 610.09C70.03 610.09 69.55 610.09 69.07 610.09C68.58 610.09 68.1 610.09 67.61 610.09C67.13 610.09 66.64 610.09 66.16 610.09C65.67 610.09 65.19 610.09 64.7 610.09C64.22 610.09 63.73 610.09 63.25 610.09C62.76 610.09 62.28 610.09 61.79 610.09C61.31 610.09 60.58 610.09 59.61 610.09C58.64 610.09 57.92 610.09 57.43 610.09C56.95 610.09 56.46 610.09 55.98 610.09C55.49 610.09 55.01 610.09 54.52 610.09" stroke="#081013" stroke-opacity="1.000000" stroke-width="54.000000"/>
	<path id="Форма 282" d="M283.55 643.54L280.64 643.54C278.7 643.54 276.76 643.54 274.82 643.54C272.88 643.54 271.19 643.54 269.73 643.54C268.28 643.54 266.58 643.54 264.64 643.54C262.71 643.54 260.52 643.54 258.1 643.54C255.68 643.54 253.25 643.54 250.83 643.54C248.41 643.54 245.74 643.54 242.83 643.54C239.92 643.54 237.26 643.54 234.83 643.54C232.41 643.54 229.99 643.54 227.56 643.54C225.14 643.54 218.35 643.54 207.21 643.54C196.06 643.54 188.06 643.54 183.21 643.54C178.37 643.54 174.25 643.54 170.85 643.54C167.46 643.54 165.28 643.54 164.31 643.54C163.34 643.54 162.61 643.54 162.13 643.54C161.64 643.54 160.92 643.54 159.95 643.54C158.98 643.54 158.01 643.54 157.04 643.54C156.07 643.54 154.86 643.54 153.4 643.54C151.95 643.54 150.5 643.54 149.04 643.54C147.59 643.54 146.13 643.54 144.68 643.54C143.23 643.54 142.01 643.54 141.04 643.54C140.08 643.54 139.11 643.54 138.14 643.54C137.17 643.54 136.2 643.54 135.23 643.54C134.26 643.54 133.53 643.54 133.05 643.54C132.56 643.54 131.59 643.54 130.14 643.54C128.68 643.54 126.75 643.54 124.32 643.54C121.9 643.54 119.48 643.54 117.05 643.54C114.63 643.54 112.2 643.54 109.78 643.54C107.36 643.54 105.18 643.54 103.24 643.54C101.3 643.54 100.09 643.54 99.6 643.54C99.12 643.54 98.63 643.54 98.15 643.54C97.66 643.54 97.18 643.54 96.69 643.54C96.21 643.54 95.48 643.54 94.51 643.54C93.54 643.54 92.82 643.54 92.33 643.54C91.85 643.54 90.88 643.54 89.42 643.54C87.97 643.54 86.51 643.54 85.06 643.54C83.61 643.54 82.15 643.54 80.7 643.54C79.24 643.54 78.03 643.54 77.06 643.54C76.09 643.54 75.37 643.54 74.88 643.54C74.4 643.54 73.91 643.54 73.43 643.54C72.94 643.54 72.22 643.54 71.25 643.54C70.28 643.54 69.31 643.54 68.34 643.54C67.37 643.54 66.16 643.54 64.7 643.54C63.25 643.54 62.28 643.54 61.79 643.54C61.31 643.54 60.58 643.54 59.61 643.54C58.64 643.54 57.92 643.54 57.43 643.54C56.95 643.54 56.46 643.54 55.98 643.54C55.49 643.54 55.01 643.54 54.52 643.54C54.04 643.54 53.55 643.54 53.07 643.54C52.59 643.54 52.1 643.54 51.62 643.54" stroke="#081013" stroke-opacity="1.000000" stroke-width="54.000000"/>
	<path id="Форма 283" d="M110.51 666.81L112.69 666.81C114.14 666.81 115.11 666.81 115.6 666.81C116.08 666.81 117.29 666.81 119.23 666.81C121.17 666.81 123.11 666.81 125.05 666.81C126.99 666.81 132.32 666.81 141.04 666.81C149.77 666.81 156.31 666.81 160.67 666.81C165.04 666.81 168.43 666.81 170.85 666.81C173.28 666.81 175.94 666.81 178.85 666.81C181.76 666.81 183.94 666.81 185.4 666.81C186.85 666.81 188.55 666.81 190.48 666.81C192.42 666.81 193.88 666.81 194.85 666.81C195.82 666.81 197.03 666.81 198.48 666.81C199.94 666.81 200.91 666.81 201.39 666.81C201.88 666.81 202.6 666.81 203.57 666.81C204.54 666.81 205.27 666.81 205.75 666.81C206.24 666.81 206.72 666.81 207.21 666.81C207.69 666.81 208.18 666.81 208.66 666.81C209.15 666.81 209.63 666.81 210.12 666.81C210.6 666.81 211.08 666.81 211.57 666.81C212.05 666.81 212.54 666.81 213.02 666.81C213.51 666.81 213.99 666.81 214.48 666.81C214.96 666.81 215.45 666.81 215.93 666.81C216.42 666.81 216.9 666.81 217.39 666.81C217.87 666.81 218.35 666.81 218.84 666.81C219.32 666.81 219.81 666.81 220.29 666.81C220.78 666.81 221.26 666.81 221.75 666.81C222.23 666.81 222.72 666.81 223.2 666.81C223.69 666.81 224.17 666.81 224.66 666.81C225.14 666.81 225.63 666.81 226.11 666.81C226.59 666.81 227.08 666.81 227.56 666.81C228.05 666.81 228.53 666.81 229.02 666.81C229.5 666.81 229.99 666.81 230.47 666.81C230.96 666.81 231.44 666.81 231.93 666.81" stroke="#081013" stroke-opacity="1.000000" stroke-width="54.000000"/>
	<path id="Форма 284" d="M210.84 704.61L207.93 704.61C205.99 704.61 204.78 704.61 204.3 704.61C203.81 704.61 202.84 704.61 201.39 704.61C199.94 704.61 198.48 704.61 197.03 704.61C195.57 704.61 194.12 704.61 192.67 704.61C191.21 704.61 189.51 704.61 187.58 704.61C185.64 704.61 184.18 704.61 183.21 704.61C182.24 704.61 180.79 704.61 178.85 704.61C176.91 704.61 174.97 704.61 173.04 704.61C171.1 704.61 169.4 704.61 167.95 704.61C166.49 704.61 165.28 704.61 164.31 704.61C163.34 704.61 162.61 704.61 162.13 704.61C161.64 704.61 160.92 704.61 159.95 704.61C158.98 704.61 156.56 704.61 152.68 704.61C148.8 704.61 146.13 704.61 144.68 704.61C143.23 704.61 142.26 704.61 141.77 704.61C141.29 704.61 140.8 704.61 140.32 704.61" stroke="#081013" stroke-opacity="1.000000" stroke-width="54.000000"/>
	<path id="Форма 285" d="M58.16 679.89L60.34 679.89C61.79 679.89 62.76 679.89 63.25 679.89C63.73 679.89 64.22 679.89 64.7 679.89C65.19 679.89 65.67 679.89 66.16 679.89C66.64 679.89 67.37 679.89 68.34 679.89C69.31 679.89 70.03 679.89 70.52 679.89C71 679.89 71.49 679.89 71.97 679.89C72.46 679.89 72.94 679.89 73.43 679.89C73.91 679.89 74.64 679.89 75.61 679.89C76.58 679.89 77.31 679.89 77.79 679.89C78.27 679.89 78.76 679.89 79.24 679.89" stroke="#081013" stroke-opacity="1.000000" stroke-width="54.000000"/>
	<path id="Форма 286" d="M23.26 675.53L25.44 675.53C26.9 675.53 27.87 675.53 28.35 675.53C28.83 675.53 29.32 675.53 29.8 675.53C30.29 675.53 31.02 675.53 31.99 675.53C32.95 675.53 33.68 675.53 34.17 675.53C34.65 675.53 35.14 675.53 35.62 675.53C36.11 675.53 36.59 675.53 37.07 675.53C37.56 675.53 38.04 675.53 38.53 675.53C39.01 675.53 39.5 675.53 39.98 675.53C40.47 675.53 40.95 675.53 41.44 675.53C41.92 675.53 42.41 675.53 42.89 675.53C43.38 675.53 44.35 675.53 45.8 675.53C47.25 675.53 48.22 675.53 48.71 675.53" stroke="#081013" stroke-opacity="1.000000" stroke-width="54.000000"/>
	<path id="Форма 287" d="M8.72 714.79L10.9 714.79C12.35 714.79 13.32 714.79 13.81 714.79C14.29 714.79 14.78 714.79 15.26 714.79C15.75 714.79 16.23 714.79 16.72 714.79C17.2 714.79 17.93 714.79 18.9 714.79C19.87 714.79 20.59 714.79 21.08 714.79C21.56 714.79 22.05 714.79 22.53 714.79C23.02 714.79 23.5 714.79 23.99 714.79C24.47 714.79 24.96 714.79 25.44 714.79C25.93 714.79 26.41 714.79 26.9 714.79C27.38 714.79 27.87 714.79 28.35 714.79" stroke="#081013" stroke-opacity="1.000000" stroke-width="54.000000"/>
	<path id="Форма 288" d="M0 759.87L2.18 759.87C3.63 759.87 4.6 759.87 5.08 759.87C5.57 759.87 6.05 759.87 6.54 759.87C7.02 759.87 7.51 759.87 7.99 759.87C8.48 759.87 8.96 759.87 9.45 759.87" stroke="#081013" stroke-opacity="1.000000" stroke-width="54.000000"/>
	<path id="Форма 289" d="M353.35 678.44L356.25 678.44C358.19 678.44 359.4 678.44 359.89 678.44C360.37 678.44 360.86 678.44 361.34 678.44C361.83 678.44 362.31 678.44 362.8 678.44C363.28 678.44 363.77 678.44 364.25 678.44C364.74 678.44 365.22 678.44 365.71 678.44" stroke="#081013" stroke-opacity="1.000000" stroke-width="54.000000"/>
	<path id="Форма 290" d="M392.61 647.9L389.7 647.9C387.76 647.9 386.55 647.9 386.06 647.9C385.58 647.9 384.85 647.9 383.88 647.9C382.91 647.9 382.19 647.9 381.7 647.9C381.22 647.9 380.49 647.9 379.52 647.9C378.55 647.9 377.82 647.9 377.34 647.9C376.85 647.9 376.13 647.9 375.16 647.9C374.19 647.9 373.46 647.9 372.98 647.9C372.49 647.9 371.52 647.9 370.07 647.9C368.61 647.9 367.64 647.9 367.16 647.9C366.67 647.9 365.95 647.9 364.98 647.9C364.01 647.9 363.04 647.9 362.07 647.9C361.1 647.9 359.65 647.9 357.71 647.9" stroke="#081013" stroke-opacity="1.000000" stroke-width="54.000000"/>
	<path id="Форма 291" d="M401.33 695.89L399.15 695.89C397.7 695.89 396.73 695.89 396.24 695.89C395.76 695.89 395.27 695.89 394.79 695.89C394.3 695.89 393.82 695.89 393.33 695.89C392.85 695.89 392.36 695.89 391.88 695.89C391.39 695.89 390.91 695.89 390.43 695.89C389.94 695.89 389.46 695.89 388.97 695.89C388.49 695.89 388 695.89 387.52 695.89C387.03 695.89 386.55 695.89 386.06 695.89C385.58 695.89 385.09 695.89 384.61 695.89" stroke="#081013" stroke-opacity="1.000000" stroke-width="54.000000"/>
	<path id="Форма 292" d="M382.43 732.24L384.61 732.24C386.06 732.24 387.03 732.24 387.52 732.24C388 732.24 388.49 732.24 388.97 732.24" stroke="#081013" stroke-opacity="1.000000" stroke-width="54.000000"/>
	<path id="Форма 293" d="M305.36 674.08L307.54 674.08C308.99 674.08 309.96 674.08 310.45 674.08C310.93 674.08 311.42 674.08 311.9 674.08C312.39 674.08 313.11 674.08 314.08 674.08C315.05 674.08 316.02 674.08 316.99 674.08C317.96 674.08 318.69 674.08 319.17 674.08C319.66 674.08 320.14 674.08 320.63 674.08" stroke="#081013" stroke-opacity="1.000000" stroke-width="54.000000"/>
	<path id="Форма 294" d="M93.06 104.06L95.97 104.06C97.91 104.06 99.12 104.06 99.6 104.06C100.09 104.06 100.81 104.06 101.78 104.06C102.75 104.06 103.48 104.06 103.96 104.06C104.45 104.06 104.93 104.06 105.42 104.06C105.9 104.06 106.39 104.06 106.87 104.06C107.36 104.06 107.84 104.06 108.33 104.06C108.81 104.06 109.3 104.06 109.78 104.06C110.27 104.06 110.75 104.06 111.24 104.06" stroke="#11141B" stroke-opacity="1.000000" stroke-width="54.000000"/>
	<path id="Форма 295" d="M146.86 120.06L149.77 120.06C151.71 120.06 152.92 120.06 153.4 120.06C153.89 120.06 154.37 120.06 154.86 120.06C155.34 120.06 155.83 120.06 156.31 120.06C156.8 120.06 157.28 120.06 157.77 120.06C158.25 120.06 158.74 120.06 159.22 120.06C159.71 120.06 160.19 120.06 160.67 120.06C161.16 120.06 161.64 120.06 162.13 120.06C162.61 120.06 163.1 120.06 163.58 120.06C164.07 120.06 164.55 120.06 165.04 120.06" stroke="#11141B" stroke-opacity="1.000000" stroke-width="54.000000"/>
	<path id="Форма 296" d="M161.4 146.23L163.58 146.23C165.04 146.23 166.25 146.23 167.22 146.23C168.19 146.23 168.92 146.23 169.4 146.23C169.88 146.23 170.61 146.23 171.58 146.23C172.55 146.23 173.28 146.23 173.76 146.23C174.25 146.23 174.97 146.23 175.94 146.23C176.91 146.23 177.64 146.23 178.12 146.23C178.61 146.23 179.34 146.23 180.31 146.23C181.28 146.23 182 146.23 182.49 146.23C182.97 146.23 183.46 146.23 183.94 146.23C184.43 146.23 184.91 146.23 185.4 146.23C185.88 146.23 186.36 146.23 186.85 146.23C187.33 146.23 188.79 146.23 191.21 146.23C193.63 146.23 195.57 146.23 197.03 146.23C198.48 146.23 199.45 146.23 199.94 146.23C200.42 146.23 200.91 146.23 201.39 146.23C201.87 146.23 202.36 146.23 202.84 146.23C203.33 146.23 203.81 146.23 204.3 146.23C204.78 146.23 205.27 146.23 205.75 146.23C206.24 146.23 206.72 146.23 207.21 146.23C207.69 146.23 208.18 146.23 208.66 146.23C209.15 146.23 209.63 146.23 210.11 146.23C210.6 146.23 211.08 146.23 211.57 146.23C212.05 146.23 212.54 146.23 213.02 146.23C213.51 146.23 213.99 146.23 214.48 146.23C214.96 146.23 215.45 146.23 215.93 146.23C216.42 146.23 216.9 146.23 217.39 146.23C217.87 146.23 218.35 146.23 218.84 146.23" stroke="#11141B" stroke-opacity="1.000000" stroke-width="54.000000"/>
	<path id="Форма 297" d="M171.58 194.22L174.49 194.22C176.43 194.22 177.88 194.22 178.85 194.22C179.82 194.22 181.03 194.22 182.49 194.22C183.94 194.22 185.15 194.22 186.12 194.22C187.09 194.22 188.06 194.22 189.03 194.22C190 194.22 190.97 194.22 191.94 194.22C192.91 194.22 193.88 194.22 194.85 194.22C195.82 194.22 196.54 194.22 197.03 194.22C197.51 194.22 198.48 194.22 199.94 194.22C201.39 194.22 202.36 194.22 202.84 194.22C203.33 194.22 203.81 194.22 204.3 194.22C204.78 194.22 205.27 194.22 205.75 194.22" stroke="#11141B" stroke-opacity="1.000000" stroke-width="54.000000"/>
	<path id="Форма 298" d="M107.6 438.51L109.78 438.51C111.24 438.51 112.45 438.51 113.42 438.51C114.39 438.51 115.11 438.51 115.6 438.51C116.08 438.51 116.81 438.51 117.78 438.51C118.75 438.51 119.96 438.51 121.41 438.51C122.87 438.51 124.08 438.51 125.05 438.51C126.02 438.51 126.99 438.51 127.96 438.51C128.93 438.51 130.14 438.51 131.59 438.51C133.05 438.51 134.26 438.51 135.23 438.51C136.2 438.51 137.65 438.51 139.59 438.51C141.53 438.51 142.98 438.51 143.95 438.51C144.92 438.51 145.89 438.51 146.86 438.51C147.83 438.51 148.56 438.51 149.04 438.51C149.53 438.51 150.01 438.51 150.5 438.51" stroke="#11141B" stroke-opacity="1.000000" stroke-width="54.000000"/>
	<path id="Форма 299" d="M135.23 448.69L138.14 448.69C140.08 448.69 141.29 448.69 141.77 448.69C142.26 448.69 142.74 448.69 143.23 448.69C143.71 448.69 144.2 448.69 144.68 448.69C145.16 448.69 145.65 448.69 146.13 448.69C146.62 448.69 147.35 448.69 148.32 448.69C149.28 448.69 150.01 448.69 150.5 448.69C150.98 448.69 151.47 448.69 151.95 448.69C152.44 448.69 152.92 448.69 153.4 448.69C153.89 448.69 154.37 448.69 154.86 448.69C155.34 448.69 155.83 448.69 156.31 448.69C156.8 448.69 157.28 448.69 157.77 448.69C158.25 448.69 158.74 448.69 159.22 448.69C159.71 448.69 160.19 448.69 160.67 448.69" stroke="#11141B" stroke-opacity="1.000000" stroke-width="54.000000"/>
	<path id="Форма 300" d="M219.57 434.15L216.66 434.15C214.72 434.15 213.51 434.15 213.02 434.15C212.54 434.15 212.05 434.15 211.57 434.15C211.08 434.15 210.6 434.15 210.11 434.15C209.63 434.15 208.9 434.15 207.93 434.15C206.96 434.15 206.24 434.15 205.75 434.15C205.27 434.15 204.78 434.15 204.3 434.15C203.81 434.15 203.33 434.15 202.84 434.15C202.36 434.15 201.87 434.15 201.39 434.15C200.91 434.15 200.42 434.15 199.94 434.15C199.45 434.15 198.97 434.15 198.48 434.15C198 434.15 197.51 434.15 197.03 434.15C196.54 434.15 196.06 434.15 195.57 434.15" stroke="#11141B" stroke-opacity="1.000000" stroke-width="54.000000"/>
	<path id="Форма 301" d="M177.4 458.87L181.03 458.87C183.46 458.87 184.91 458.87 185.39 458.87C185.88 458.87 186.36 458.87 186.85 458.87C187.33 458.87 187.82 458.87 188.3 458.87C188.79 458.87 189.27 458.87 189.76 458.87C190.24 458.87 190.73 458.87 191.21 458.87C191.7 458.87 192.18 458.87 192.67 458.87C193.15 458.87 193.63 458.87 194.12 458.87C194.6 458.87 195.09 458.87 195.57 458.87C196.06 458.87 196.54 458.87 197.03 458.87C197.51 458.87 198 458.87 198.48 458.87C198.97 458.87 199.45 458.87 199.94 458.87C200.42 458.87 200.91 458.87 201.39 458.87C201.87 458.87 202.36 458.87 202.84 458.87C203.33 458.87 203.81 458.87 204.3 458.87" stroke="#11141B" stroke-opacity="1.000000" stroke-width="54.000000"/>
	<path id="Форма 302" d="M127.96 521.39L131.59 521.39C134.02 521.39 135.47 521.39 135.96 521.39C136.44 521.39 136.92 521.39 137.41 521.39C137.89 521.39 138.62 521.39 139.59 521.39C140.56 521.39 141.29 521.39 141.77 521.39C142.26 521.39 142.74 521.39 143.23 521.39C143.71 521.39 144.2 521.39 144.68 521.39C145.16 521.39 145.65 521.39 146.13 521.39C146.62 521.39 147.1 521.39 147.59 521.39C148.07 521.39 148.56 521.39 149.04 521.39C149.53 521.39 150.01 521.39 150.5 521.39C150.98 521.39 151.95 521.39 153.4 521.39" stroke="#11141B" stroke-opacity="1.000000" stroke-width="54.000000"/>
	<path id="Форма 303" d="M162.86 528.66L165.04 528.66C166.49 528.66 167.46 528.66 167.95 528.66C168.43 528.66 168.91 528.66 169.4 528.66C169.88 528.66 170.37 528.66 170.85 528.66C171.34 528.66 171.82 528.66 172.31 528.66C172.79 528.66 173.52 528.66 174.49 528.66C175.46 528.66 176.19 528.66 176.67 528.66C177.15 528.66 177.64 528.66 178.12 528.66C178.61 528.66 179.09 528.66 179.58 528.66C180.06 528.66 180.55 528.66 181.03 528.66C181.52 528.66 182 528.66 182.49 528.66C182.97 528.66 183.46 528.66 183.94 528.66C184.43 528.66 184.91 528.66 185.39 528.66C185.88 528.66 186.36 528.66 186.85 528.66" stroke="#11141B" stroke-opacity="1.000000" stroke-width="54.000000"/>
	<path id="Форма 304" d="M138.14 589.74L140.32 589.74C141.77 589.74 142.74 589.74 143.23 589.74C143.71 589.74 144.2 589.74 144.68 589.74C145.16 589.74 145.65 589.74 146.13 589.74C146.62 589.74 147.1 589.74 147.59 589.74C148.07 589.74 148.56 589.74 149.04 589.74C149.53 589.74 150.25 589.74 151.22 589.74C152.19 589.74 152.92 589.74 153.4 589.74C153.89 589.74 154.37 589.74 154.86 589.74C155.34 589.74 155.83 589.74 156.31 589.74C156.8 589.74 157.28 589.74 157.77 589.74C158.25 589.74 158.74 589.74 159.22 589.74C159.71 589.74 160.19 589.74 160.67 589.74C161.16 589.74 161.64 589.74 162.13 589.74C162.61 589.74 163.1 589.74 163.58 589.74C164.07 589.74 164.55 589.74 165.04 589.74C165.52 589.74 166.01 589.74 166.49 589.74C166.98 589.74 167.46 589.74 167.95 589.74C168.43 589.74 168.92 589.74 169.4 589.74" stroke="#11141B" stroke-opacity="1.000000" stroke-width="54.000000"/>
	<path id="Форма 305" d="M216.66 326.54L220.29 326.54C222.72 326.54 224.17 326.54 224.66 326.54C225.14 326.54 225.63 326.54 226.11 326.54C226.59 326.54 227.32 326.54 228.29 326.54C229.26 326.54 230.47 326.54 231.93 326.54C233.38 326.54 234.83 326.54 236.29 326.54C237.74 326.54 239.2 326.54 240.65 326.54C242.11 326.54 243.07 326.54 243.56 326.54C244.04 326.54 244.53 326.54 245.01 326.54C245.5 326.54 246.23 326.54 247.19 326.54C248.16 326.54 248.89 326.54 249.38 326.54C249.86 326.54 250.35 326.54 250.83 326.54C251.31 326.54 251.8 326.54 252.28 326.54C252.77 326.54 253.25 326.54 253.74 326.54C254.22 326.54 254.95 326.54 255.92 326.54C256.89 326.54 257.62 326.54 258.1 326.54C258.59 326.54 259.07 326.54 259.55 326.54C260.04 326.54 260.52 326.54 261.01 326.54C261.49 326.54 261.98 326.54 262.46 326.54C262.95 326.54 263.43 326.54 263.92 326.54C264.4 326.54 264.89 326.54 265.37 326.54C265.85 326.54 266.34 326.54 266.82 326.54C267.31 326.54 267.79 326.54 268.28 326.54C268.76 326.54 269.25 326.54 269.73 326.54C270.22 326.54 270.7 326.54 271.19 326.54" stroke="#11141B" stroke-opacity="1.000000" stroke-width="54.000000"/>
	<path id="Форма 306" d="M206.48 362.9L208.66 362.9C210.11 362.9 211.33 362.9 212.3 362.9C213.27 362.9 213.99 362.9 214.48 362.9C214.96 362.9 215.45 362.9 215.93 362.9C216.42 362.9 216.9 362.9 217.39 362.9C217.87 362.9 218.35 362.9 218.84 362.9C219.32 362.9 219.81 362.9 220.29 362.9C220.78 362.9 221.26 362.9 221.75 362.9C222.23 362.9 223.93 362.9 226.84 362.9C229.75 362.9 231.93 362.9 233.38 362.9C234.83 362.9 235.8 362.9 236.29 362.9" stroke="#11141B" stroke-opacity="1.000000" stroke-width="54.000000"/>
	<path id="Форма 307" d="M180.31 319.27L178.12 319.27C176.67 319.27 175.7 319.27 175.22 319.27C174.73 319.27 174.25 319.27 173.76 319.27C173.28 319.27 172.79 319.27 172.31 319.27C171.82 319.27 171.34 319.27 170.85 319.27C170.37 319.27 169.88 319.27 169.4 319.27C168.91 319.27 168.43 319.27 167.95 319.27C167.46 319.27 166.98 319.27 166.49 319.27C166.01 319.27 165.52 319.27 165.04 319.27C164.55 319.27 163.58 319.27 162.13 319.27C160.67 319.27 159.46 319.27 158.49 319.27C157.52 319.27 156.8 319.27 156.31 319.27C155.83 319.27 155.34 319.27 154.86 319.27C154.37 319.27 153.89 319.27 153.4 319.27" stroke="#11141B" stroke-opacity="1.000000" stroke-width="54.000000"/>
	<path id="Форма 308" d="M283.55 262.56L285.73 262.56C287.18 262.56 288.15 262.56 288.64 262.56C289.12 262.56 289.61 262.56 290.09 262.56C290.57 262.56 291.06 262.56 291.54 262.56C292.03 262.56 292.51 262.56 293 262.56C293.48 262.56 293.97 262.56 294.45 262.56C294.94 262.56 295.42 262.56 295.91 262.56C296.39 262.56 297.12 262.56 298.09 262.56C299.06 262.56 300.03 262.56 301 262.56C301.97 262.56 303.18 262.56 304.63 262.56C306.09 262.56 307.3 262.56 308.27 262.56C309.24 262.56 309.96 262.56 310.45 262.56C310.93 262.56 311.42 262.56 311.9 262.56C312.39 262.56 312.87 262.56 313.36 262.56C313.84 262.56 314.33 262.56 314.81 262.56C315.29 262.56 315.78 262.56 316.26 262.56C316.75 262.56 317.23 262.56 317.72 262.56C318.2 262.56 318.69 262.56 319.17 262.56C319.66 262.56 320.14 262.56 320.63 262.56C321.11 262.56 321.6 262.56 322.08 262.56C322.57 262.56 323.05 262.56 323.54 262.56C324.02 262.56 324.51 262.56 324.99 262.56C325.47 262.56 325.96 262.56 326.44 262.56C326.93 262.56 327.41 262.56 327.9 262.56C328.38 262.56 328.87 262.56 329.35 262.56C329.84 262.56 330.32 262.56 330.81 262.56C331.29 262.56 331.78 262.56 332.26 262.56C332.75 262.56 333.23 262.56 333.71 262.56C334.2 262.56 334.68 262.56 335.17 262.56C335.65 262.56 336.38 262.56 337.35 262.56" stroke="#11141B" stroke-opacity="1.000000" stroke-width="54.000000"/>
	<path id="Форма 309" d="M318.45 303.28L322.08 303.28C324.51 303.28 326.2 303.28 327.17 303.28C328.14 303.28 328.87 303.28 329.35 303.28C329.84 303.28 330.32 303.28 330.81 303.28C331.29 303.28 331.78 303.28 332.26 303.28C332.75 303.28 333.23 303.28 333.71 303.28C334.2 303.28 334.68 303.28 335.17 303.28C335.65 303.28 336.38 303.28 337.35 303.28C338.32 303.28 339.77 303.28 341.71 303.28C343.65 303.28 344.86 303.28 345.35 303.28" stroke="#11141B" stroke-opacity="1.000000" stroke-width="54.000000"/>
	<path id="Форма 310" d="M337.35 400.7L339.53 400.7C340.99 400.7 341.95 400.7 342.44 400.7C342.92 400.7 343.41 400.7 343.89 400.7C344.38 400.7 344.86 400.7 345.35 400.7C345.83 400.7 346.32 400.7 346.8 400.7C347.29 400.7 347.77 400.7 348.26 400.7C348.74 400.7 349.22 400.7 349.71 400.7C350.19 400.7 350.92 400.7 351.89 400.7C352.86 400.7 353.59 400.7 354.07 400.7" stroke="#11141B" stroke-opacity="1.000000" stroke-width="54.000000"/>
	<path id="Форма 311" d="M364.98 461.78L367.89 461.78C369.83 461.78 371.04 461.78 371.52 461.78C372.01 461.78 372.49 461.78 372.98 461.78C373.46 461.78 374.19 461.78 375.16 461.78C376.13 461.78 376.85 461.78 377.34 461.78C377.82 461.78 378.55 461.78 379.52 461.78C380.49 461.78 381.22 461.78 381.7 461.78C382.19 461.78 382.91 461.78 383.88 461.78C384.85 461.78 385.82 461.78 386.79 461.78C387.76 461.78 388.73 461.78 389.7 461.78C390.67 461.78 391.88 461.78 393.33 461.78" stroke="#11141B" stroke-opacity="1.000000" stroke-width="54.000000"/>
	<path id="Форма 312" d="M319.9 644.99L322.81 644.99C324.75 644.99 326.2 644.99 327.17 644.99C328.14 644.99 328.87 644.99 329.35 644.99C329.84 644.99 330.56 644.99 331.53 644.99C332.5 644.99 333.47 644.99 334.44 644.99C335.41 644.99 336.14 644.99 336.62 644.99C337.11 644.99 337.59 644.99 338.08 644.99C338.56 644.99 339.05 644.99 339.53 644.99C340.02 644.99 340.5 644.99 340.99 644.99C341.47 644.99 342.2 644.99 343.17 644.99C344.14 644.99 344.86 644.99 345.35 644.99" stroke="#11141B" stroke-opacity="1.000000" stroke-width="54.000000"/>
	<path id="Форма 313" d="M338.8 643.54L340.99 643.54C342.44 643.54 343.41 643.54 343.89 643.54C344.38 643.54 344.86 643.54 345.35 643.54C345.83 643.54 346.32 643.54 346.8 643.54C347.29 643.54 348.01 643.54 348.98 643.54C349.95 643.54 350.68 643.54 351.16 643.54C351.65 643.54 352.13 643.54 352.62 643.54C353.1 643.54 353.59 643.54 354.07 643.54C354.56 643.54 355.04 643.54 355.53 643.54C356.01 643.54 356.5 643.54 356.98 643.54C357.47 643.54 357.95 643.54 358.43 643.54C358.92 643.54 359.4 643.54 359.89 643.54C360.37 643.54 360.86 643.54 361.34 643.54" stroke="#11141B" stroke-opacity="1.000000" stroke-width="54.000000"/>
	<path id="Форма 314" d="M351.89 688.62L354.07 688.62C355.53 688.62 356.5 688.62 356.98 688.62C357.47 688.62 357.95 688.62 358.43 688.62C358.92 688.62 359.4 688.62 359.89 688.62C360.37 688.62 360.86 688.62 361.34 688.62C361.83 688.62 362.55 688.62 363.52 688.62" stroke="#11141B" stroke-opacity="1.000000" stroke-width="54.000000"/>
	<path id="Форма 315" d="M380.97 711.88L383.88 711.88C385.82 711.88 387.03 711.88 387.52 711.88C388 711.88 388.49 711.88 388.97 711.88C389.46 711.88 389.94 711.88 390.43 711.88" stroke="#11141B" stroke-opacity="1.000000" stroke-width="54.000000"/>
	<path id="Форма 316" d="M31.99 662.44L34.17 662.44C35.62 662.44 36.59 662.44 37.07 662.44C37.56 662.44 38.29 662.44 39.26 662.44C40.23 662.44 41.19 662.44 42.16 662.44C43.13 662.44 45.07 662.44 47.98 662.44C50.89 662.44 53.07 662.44 54.52 662.44C55.98 662.44 57.19 662.44 58.16 662.44C59.13 662.44 59.86 662.44 60.34 662.44C60.83 662.44 61.31 662.44 61.79 662.44C62.28 662.44 62.76 662.44 63.25 662.44C63.73 662.44 64.22 662.44 64.7 662.44C65.19 662.44 65.67 662.44 66.16 662.44" stroke="#11141B" stroke-opacity="1.000000" stroke-width="54.000000"/>
	<path id="Форма 317" d="M23.26 708.97L25.44 708.97C26.9 708.97 27.87 708.97 28.35 708.97C28.83 708.97 29.32 708.97 29.8 708.97C30.29 708.97 30.77 708.97 31.26 708.97C31.74 708.97 32.23 708.97 32.71 708.97C33.2 708.97 33.68 708.97 34.17 708.97C34.65 708.97 35.14 708.97 35.62 708.97C36.11 708.97 36.59 708.97 37.07 708.97C37.56 708.97 38.04 708.97 38.53 708.97" stroke="#11141B" stroke-opacity="1.000000" stroke-width="54.000000"/>
	<path id="Форма 318" d="M93.06 704.61L90.88 704.61C89.42 704.61 88.45 704.61 87.97 704.61C87.48 704.61 86.76 704.61 85.79 704.61C84.82 704.61 83.85 704.61 82.88 704.61C81.91 704.61 81.18 704.61 80.7 704.61C80.21 704.61 79.49 704.61 78.52 704.61C77.55 704.61 76.82 704.61 76.34 704.61C75.85 704.61 75.37 704.61 74.88 704.61C74.4 704.61 73.91 704.61 73.43 704.61C72.94 704.61 72.46 704.61 71.97 704.61C71.49 704.61 71 704.61 70.52 704.61" stroke="#11141B" stroke-opacity="1.000000" stroke-width="54.000000"/>
	<path id="Форма 319" d="M65.43 727.88L67.61 727.88C69.07 727.88 70.03 727.88 70.52 727.88C71 727.88 71.73 727.88 72.7 727.88C73.67 727.88 74.4 727.88 74.88 727.88C75.37 727.88 75.85 727.88 76.34 727.88" stroke="#11141B" stroke-opacity="1.000000" stroke-width="54.000000"/>
	<path id="Форма 320" d="M2.9 748.24L5.81 748.24C7.75 748.24 8.96 748.24 9.45 748.24C9.93 748.24 10.42 748.24 10.9 748.24C11.39 748.24 12.11 748.24 13.08 748.24C14.05 748.24 14.78 748.24 15.26 748.24C15.75 748.24 16.23 748.24 16.72 748.24C17.2 748.24 17.69 748.24 18.17 748.24C18.66 748.24 19.14 748.24 19.63 748.24C20.11 748.24 20.59 748.24 21.08 748.24" stroke="#11141B" stroke-opacity="1.000000" stroke-width="54.000000"/>
	<path id="Форма 321" d="M95.97 368.71L101.06 368.71C104.45 368.71 106.39 368.71 106.87 368.71C107.36 368.71 108.33 368.71 109.78 368.71C111.24 368.71 112.69 368.71 114.14 368.71C115.6 368.71 116.57 368.71 117.05 368.71C117.54 368.71 118.26 368.71 119.23 368.71C120.2 368.71 121.17 368.71 122.14 368.71C123.11 368.71 123.84 368.71 124.32 368.71C124.81 368.71 125.53 368.71 126.5 368.71C127.47 368.71 128.2 368.71 128.68 368.71C129.17 368.71 129.65 368.71 130.14 368.71C130.62 368.71 131.35 368.71 132.32 368.71C133.29 368.71 134.02 368.71 134.5 368.71C134.99 368.71 136.92 368.71 140.32 368.71C143.71 368.71 145.65 368.71 146.13 368.71" stroke="#11141B" stroke-opacity="1.000000" stroke-width="54.000000"/>
</svg>
