<svg width="63.022949" height="90.000000" viewBox="0 0 63.0229 90" fill="none" xmlns="http://www.w3.org/2000/svg" xmlns:xlink="http://www.w3.org/1999/xlink">
	<desc>
			Created with Pixso.
	</desc>
	<defs/>
	<path id="Форма 311 (Граница)" d="M4.54 25.74L4.99 25.74L5.6 25.74L6.05 25.74L6.66 25.74L6.96 25.74L7.27 25.74L8.02 25.74L8.63 25.74L9.08 25.74L9.54 25.74L9.99 25.74L10.45 25.74L10.45 35.26L9.99 35.26L9.54 35.26L9.08 35.26L8.63 35.26L8.02 35.26L7.27 35.26L6.96 35.26L6.66 35.26L6.05 35.26L5.6 35.26L4.99 35.26L4.54 35.26L4.54 25.74Z" fill="#8888A4" fill-opacity="1.000000" fill-rule="evenodd"/>
	<path id="Форма 312 (Граница)" d="M18.48 39.55L18.02 39.55L17.27 39.55L16.66 39.55L16.05 39.55L15.75 39.55L15.45 39.55L14.69 39.55L13.63 39.55L11.51 39.55L9.69 39.55L9.24 39.55L8.93 39.55L8.93 30.03L9.24 30.03L9.69 30.03L11.51 30.03L13.63 30.03L14.69 30.03L15.45 30.03L15.75 30.03L16.05 30.03L16.66 30.03L17.27 30.03L18.02 30.03L18.48 30.03L18.48 39.55Z" fill="#8888A4" fill-opacity="1.000000" fill-rule="evenodd"/>
	<path id="Форма 313 (Граница)" d="M23.63 42.62L23.17 42.62L22.42 42.62L21.81 42.62L20.9 42.62L19.99 42.62L19.39 42.62L18.93 42.62L18.63 42.62L18.63 33.09L18.93 33.09L19.39 33.09L19.99 33.09L20.9 33.09L21.81 33.09L22.42 33.09L23.17 33.09L23.63 33.09L23.63 42.62Z" fill="#8888A4" fill-opacity="1.000000" fill-rule="evenodd"/>
	<path id="Форма 314 (Граница)" d="M6.96 37.08L7.42 37.08L8.18 37.08L8.63 37.08L9.39 37.08L10.45 37.08L11.05 37.08L11.36 37.08L11.81 37.08L12.57 37.08L12.57 46.6L11.81 46.6L11.36 46.6L11.05 46.6L10.45 46.6L9.39 46.6L8.63 46.6L8.18 46.6L7.42 46.6L6.96 46.6L6.96 37.08Z" fill="#8888A4" fill-opacity="1.000000" fill-rule="evenodd"/>
	<path id="Форма 315 (Граница)" d="M4.84 44.13L5.3 44.13L5.9 44.13L6.36 44.13L7.12 44.13L7.57 44.13L8.02 44.13L8.78 44.13L9.24 44.13L9.24 53.65L8.78 53.65L8.02 53.65L7.57 53.65L7.12 53.65L6.36 53.65L5.9 53.65L5.3 53.65L4.84 53.65L4.84 44.13Z" fill="#8888A4" fill-opacity="1.000000" fill-rule="evenodd"/>
	<path id="Форма 316 (Граница)" d="M2.72 48.42L3.18 48.42L3.78 48.42L4.09 48.42L4.54 48.42L5 48.42L5.45 48.42L6.06 48.42L6.51 48.42L6.51 57.94L6.06 57.94L5.45 57.94L5 57.94L4.54 57.94L4.09 57.94L3.78 57.94L3.18 57.94L2.72 57.94L2.72 48.42Z" fill="#8888A4" fill-opacity="1.000000" fill-rule="evenodd"/>
	<path id="Форма 317 (Граница)" d="M1.66 54.24L1.21 54.24L1.21 63.77L4.24 63.77L4.99 63.77L5.75 63.77L5.75 54.24L4.99 54.24L4.24 54.24L1.66 54.24Z" fill="#8888A4" fill-opacity="1.000000" fill-rule="evenodd"/>
	<path id="Форма 318 (Граница)" d="M2.12 60.98L2.72 60.98L3.48 60.98L3.93 60.98L4.54 60.98L5.15 60.98L6.06 60.98L6.96 60.98L7.72 60.98L8.48 60.98L8.48 70.51L7.72 70.51L6.96 70.51L6.06 70.51L5.15 70.51L4.54 70.51L3.93 70.51L3.48 70.51L2.72 70.51L2.12 70.51L2.12 60.98Z" fill="#8888A4" fill-opacity="1.000000" fill-rule="evenodd"/>
	<path id="Форма 319 (Граница)" d="M5.75 65.89L6.36 65.89L7.12 65.89L7.57 65.89L8.33 65.89L9.24 65.89L9.84 65.89L10.15 65.89L10.15 75.41L9.84 75.41L9.24 75.41L8.33 75.41L7.57 75.41L7.12 75.41L6.36 75.41L5.75 75.41L5.75 65.89Z" fill="#8888A4" fill-opacity="1.000000" fill-rule="evenodd"/>
	<path id="Форма 320 (Граница)" d="M8.48 70.79L8.93 70.79L9.69 70.79L10.15 70.79L10.75 70.79L11.36 70.79L11.66 70.79L11.96 70.79L12.27 70.79L12.27 80.31L11.96 80.31L11.66 80.31L11.36 80.31L10.75 80.31L10.15 80.31L9.69 80.31L8.93 80.31L8.48 80.31L8.48 70.79Z" fill="#8888A4" fill-opacity="1.000000" fill-rule="evenodd"/>
	<path id="Форма 321 (Граница)" d="M12.42 75.08L13.02 75.08L13.78 75.08L14.08 75.08L14.54 75.08L14.54 84.61L14.08 84.61L13.78 84.61L13.02 84.61L12.42 84.61L12.42 75.08Z" fill="#8888A4" fill-opacity="1.000000" fill-rule="evenodd"/>
	<path id="Форма 322 (Граница)" d="M11.81 74.77L12.27 74.77L13.02 74.77L13.48 74.77L13.78 74.77L14.24 74.77L14.84 74.77L15.45 74.77L15.45 84.3L14.84 84.3L14.24 84.3L13.78 84.3L13.48 84.3L13.02 84.3L12.27 84.3L11.81 84.3L11.81 74.77Z" fill="#8888A4" fill-opacity="1.000000" fill-rule="evenodd"/>
	<path id="Форма 323 (Граница)" d="M15.14 76.31L15.6 76.31L16.2 76.31L16.66 76.31L17.11 76.31L17.57 76.31L18.02 76.31L18.33 76.31L18.63 76.31L18.63 85.83L18.33 85.83L18.02 85.83L17.57 85.83L17.11 85.83L16.66 85.83L16.2 85.83L15.6 85.83L15.14 85.83L15.14 76.31Z" fill="#8888A4" fill-opacity="1.000000" fill-rule="evenodd"/>
	<path id="Форма 324 (Граница)" d="M18.48 78.14L18.93 78.14L19.69 78.14L20.14 78.14L20.45 78.14L20.75 78.14L21.05 78.14L21.36 78.14L21.81 78.14L22.26 78.14L22.57 78.14L23.17 78.14L23.93 78.14L24.39 78.14L24.39 87.67L23.93 87.67L23.17 87.67L22.57 87.67L22.26 87.67L21.81 87.67L21.36 87.67L21.05 87.67L20.75 87.67L20.45 87.67L20.14 87.67L19.69 87.67L18.93 87.67L18.48 87.67L18.48 78.14Z" fill="#8888A4" fill-opacity="1.000000" fill-rule="evenodd"/>
	<path id="Форма 325 (Граница)" d="M25.45 80.29L25.9 80.29L26.51 80.29L26.96 80.29L27.42 80.29L27.87 80.29L28.17 80.29L28.48 80.29L28.88 80.29L29.08 80.29L29.84 80.29L30.6 80.29L31.05 80.29L31.05 89.81L30.6 89.81L29.84 89.81L29.08 89.81L28.88 89.81L28.48 89.81L28.17 89.81L27.87 89.81L27.42 89.81L26.96 89.81L26.51 89.81L25.9 89.81L25.45 89.81L25.45 80.29Z" fill="#8888A4" fill-opacity="1.000000" fill-rule="evenodd"/>
	<path id="Форма 326 (Граница)" d="M23.93 78.76L24.54 78.76L25.3 78.76L25.6 78.76L26.05 78.76L26.51 78.76L26.96 78.76L27.42 78.76L27.87 78.76L28.33 78.76L28.33 88.28L27.87 88.28L27.42 88.28L26.96 88.28L26.51 88.28L26.05 88.28L25.6 88.28L25.3 88.28L24.54 88.28L23.93 88.28L23.93 78.76Z" fill="#8888A4" fill-opacity="1.000000" fill-rule="evenodd"/>
	<path id="Форма 327 (Граница)" d="M30.9 76.61L31.35 76.61L32.11 76.61L32.57 76.61L32.87 76.61L33.32 76.61L33.78 76.61L34.23 76.61L34.69 76.61L34.99 76.61L35.45 76.61L35.9 76.61L36.2 76.61L36.2 86.14L35.9 86.14L35.45 86.14L34.99 86.14L34.69 86.14L34.23 86.14L33.78 86.14L33.32 86.14L32.87 86.14L32.57 86.14L32.11 86.14L31.35 86.14L30.9 86.14L30.9 76.61Z" fill="#8888A4" fill-opacity="1.000000" fill-rule="evenodd"/>
	<path id="Форма 328 (Граница)" d="M36.66 75.39L37.11 75.39L37.72 75.39L38.17 75.39L38.78 75.39L39.38 75.39L40.14 75.39L40.75 75.39L41.35 75.39L41.96 75.39L42.26 75.39L42.26 84.91L41.96 84.91L41.35 84.91L40.75 84.91L40.14 84.91L39.38 84.91L38.78 84.91L38.17 84.91L37.72 84.91L37.11 84.91L36.66 84.91L36.66 75.39Z" fill="#8888A4" fill-opacity="1.000000" fill-rule="evenodd"/>
	<path id="Форма 329 (Граница)" d="M39.38 70.79L40.14 70.79L41.05 70.79L41.35 70.79L41.66 70.79L42.26 70.79L43.02 70.79L43.63 70.79L44.08 70.79L44.38 70.79L44.69 70.79L44.69 80.31L44.38 80.31L44.08 80.31L43.63 80.31L43.02 80.31L42.26 80.31L41.66 80.31L41.35 80.31L41.05 80.31L40.14 80.31L39.38 80.31L39.38 70.79Z" fill="#8888A4" fill-opacity="1.000000" fill-rule="evenodd"/>
	<path id="Форма 330 (Граница)" d="M42.72 65.89L43.17 65.89L43.78 65.89L43.98 65.89L44.08 65.89L44.38 65.89L44.84 65.89L45.24 65.89L45.44 65.89L46.2 65.89L46.96 65.89L47.72 65.89L48.17 65.89L48.63 65.89L49.84 65.89L50.75 65.89L50.75 75.41L49.84 75.41L48.63 75.41L48.17 75.41L47.72 75.41L46.96 75.41L46.2 75.41L45.44 75.41L45.24 75.41L44.84 75.41L44.38 75.41L44.08 75.41L43.98 75.41L43.78 75.41L43.17 75.41L42.72 75.41L42.72 65.89Z" fill="#8888A4" fill-opacity="1.000000" fill-rule="evenodd"/>
	<path id="Форма 331 (Граница)" d="M35.45 77.22L35.9 77.22L36.51 77.22L36.61 77.22L36.81 77.22L37.26 77.22L37.87 77.22L38.48 77.22L38.78 77.22L39.08 77.22L39.69 77.22L40.14 77.22L40.14 86.75L39.69 86.75L39.08 86.75L38.78 86.75L38.48 86.75L37.87 86.75L37.26 86.75L36.81 86.75L36.61 86.75L36.51 86.75L35.9 86.75L35.45 86.75L35.45 77.22Z" fill="#8888A4" fill-opacity="1.000000" fill-rule="evenodd"/>
	<path id="Форма 332 (Граница)" d="M41.81 72.63L42.26 72.63L42.87 72.63L43.17 72.63L43.47 72.63L43.78 72.63L44.08 72.63L44.38 72.63L44.69 72.63L44.99 72.63L44.99 82.15L44.69 82.15L44.38 82.15L44.08 82.15L43.78 82.15L43.47 82.15L43.17 82.15L42.87 82.15L42.26 82.15L41.81 82.15L41.81 72.63Z" fill="#8888A4" fill-opacity="1.000000" fill-rule="evenodd"/>
	<path id="Форма 333 (Граница)" d="M9.99 37.69L10.75 37.69L11.81 37.69L12.72 37.69L13.63 37.69L14.54 37.69L15.75 37.69L17.11 37.69L18.33 37.69L18.78 37.69L19.24 37.69L19.84 37.69L20.14 37.69L20.45 37.69L20.75 37.69L21.05 37.69L21.36 37.69L21.36 47.22L21.05 47.22L20.75 47.22L20.45 47.22L20.14 47.22L19.84 47.22L19.24 47.22L18.78 47.22L18.33 47.22L17.11 47.22L15.75 47.22L14.54 47.22L13.63 47.22L12.72 47.22L11.81 47.22L10.75 47.22L9.99 47.22L9.99 37.69Z" fill="#C5C7D6" fill-opacity="1.000000" fill-rule="evenodd"/>
	<path id="Форма 334 (Граница)" d="M7.57 41.06L8.02 41.06L8.78 41.06L9.54 41.06L10.6 41.06L11.81 41.06L13.18 41.06L14.39 41.06L14.84 41.06L15.3 41.06L15.6 41.06L16.2 41.06L16.96 41.06L17.57 41.06L18.17 41.06L18.78 41.06L19.24 41.06L19.69 41.06L20.14 41.06L20.45 41.06L20.75 41.06L21.05 41.06L21.36 41.06L21.66 41.06L22.11 41.06L22.57 41.06L22.87 41.06L23.17 41.06L23.48 41.06L23.78 41.06L24.08 41.06L24.08 50.59L23.78 50.59L23.48 50.59L23.17 50.59L22.87 50.59L22.57 50.59L22.11 50.59L21.66 50.59L21.36 50.59L21.05 50.59L20.75 50.59L20.45 50.59L20.14 50.59L19.69 50.59L19.24 50.59L18.78 50.59L18.17 50.59L17.57 50.59L16.96 50.59L16.2 50.59L15.6 50.59L15.3 50.59L14.84 50.59L14.39 50.59L13.18 50.59L11.81 50.59L10.6 50.59L9.54 50.59L8.78 50.59L8.02 50.59L7.57 50.59L7.57 41.06Z" fill="#C5C7D6" fill-opacity="1.000000" fill-rule="evenodd"/>
	<path id="Форма 335 (Граница)" d="M6.96 46.27L7.57 46.27L8.33 46.27L8.78 46.27L9.54 46.27L10.6 46.27L11.81 46.27L13.18 46.27L14.24 46.27L15.14 46.27L16.05 46.27L16.81 46.27L17.57 46.27L18.17 46.27L18.78 46.27L19.24 46.27L20.3 46.27L21.51 46.27L21.96 46.27L22.42 46.27L22.87 46.27L23.17 46.27L23.17 55.8L22.87 55.8L22.42 55.8L21.96 55.8L21.51 55.8L20.3 55.8L19.24 55.8L18.78 55.8L18.17 55.8L17.57 55.8L16.81 55.8L16.05 55.8L15.14 55.8L14.24 55.8L13.18 55.8L11.81 55.8L10.6 55.8L9.54 55.8L8.78 55.8L8.33 55.8L7.57 55.8L6.96 55.8L6.96 46.27Z" fill="#C5C7D6" fill-opacity="1.000000" fill-rule="evenodd"/>
	<path id="Форма 336 (Граница)" d="M5.9 49.03L5.45 49.03L5.45 58.56L7.87 58.56L8.63 58.56L10.3 58.56L11.36 58.56L13.02 58.56L13.78 58.56L16.51 58.56L17.72 58.56L21.96 58.56L21.96 49.03L17.72 49.03L16.51 49.03L13.78 49.03L13.02 49.03L11.36 49.03L10.3 49.03L8.63 49.03L7.87 49.03L5.9 49.03Z" fill="#C5C7D6" fill-opacity="1.000000" fill-rule="evenodd"/>
	<path id="Форма 337 (Граница)" d="M4.69 52.4L4.24 52.4L4.24 61.93L5.75 61.93L6.66 61.93L10.3 61.93L11.21 61.93L12.87 61.93L14.24 61.93L16.81 61.93L17.57 61.93L19.84 61.93L20.9 61.93L22.57 61.93L22.57 52.4L20.9 52.4L19.84 52.4L17.57 52.4L16.81 52.4L14.24 52.4L12.87 52.4L11.21 52.4L10.3 52.4L6.66 52.4L5.75 52.4L4.69 52.4Z" fill="#C5C7D6" fill-opacity="1.000000" fill-rule="evenodd"/>
	<path id="Форма 338 (Граница)" d="M5.75 59.76L6.21 59.76L6.96 59.76L7.27 59.76L7.57 59.76L8.02 59.76L8.48 59.76L8.78 59.76L9.08 59.76L9.99 59.76L10.6 59.76L11.21 59.76L12.42 59.76L13.48 59.76L14.24 59.76L15.45 59.76L16.81 59.76L17.57 59.76L18.17 59.76L18.63 59.76L19.24 59.76L19.99 59.76L20.45 59.76L20.75 59.76L21.05 59.76L21.36 59.76L21.66 59.76L21.96 59.76L21.96 69.28L21.66 69.28L21.36 69.28L21.05 69.28L20.75 69.28L20.45 69.28L19.99 69.28L19.24 69.28L18.63 69.28L18.17 69.28L17.57 69.28L16.81 69.28L15.45 69.28L14.24 69.28L13.48 69.28L12.42 69.28L11.21 69.28L10.6 69.28L9.99 69.28L9.08 69.28L8.78 69.28L8.48 69.28L8.02 69.28L7.57 69.28L7.27 69.28L6.96 69.28L6.21 69.28L5.75 69.28L5.75 59.76Z" fill="#C5C7D6" fill-opacity="1.000000" fill-rule="evenodd"/>
	<path id="Форма 339 (Граница)" d="M8.48 65.27L9.08 65.27L9.84 65.27L10.3 65.27L11.66 65.27L13.63 65.27L14.54 65.27L15.45 65.27L17.11 65.27L18.48 65.27L19.54 65.27L20.3 65.27L21.05 65.27L21.81 65.27L22.27 65.27L22.57 65.27L23.48 65.27L24.54 65.27L24.84 65.27L25.14 65.27L25.6 65.27L25.9 65.27L25.9 74.8L25.6 74.8L25.14 74.8L24.84 74.8L24.54 74.8L23.48 74.8L22.57 74.8L22.27 74.8L21.81 74.8L21.05 74.8L20.3 74.8L19.54 74.8L18.48 74.8L17.11 74.8L15.45 74.8L14.54 74.8L13.63 74.8L11.66 74.8L10.3 74.8L9.84 74.8L9.08 74.8L8.48 74.8L8.48 65.27Z" fill="#C5C7D6" fill-opacity="1.000000" fill-rule="evenodd"/>
	<path id="Форма 340 (Граница)" d="M12.72 70.18L13.18 70.18L13.78 70.18L14.08 70.18L14.54 70.18L15.14 70.18L16.2 70.18L17.57 70.18L18.63 70.18L19.54 70.18L20.3 70.18L20.7 70.18L20.9 70.18L21.66 70.18L22.26 70.18L22.57 70.18L22.75 70.18L22.87 70.18L23.33 70.18L23.78 70.18L24.08 70.18L24.54 70.18L24.99 70.18L25.29 70.18L25.75 70.18L26.2 70.18L26.51 70.18L26.81 70.18L27.11 70.18L27.11 79.7L26.81 79.7L26.51 79.7L26.2 79.7L25.75 79.7L25.29 79.7L24.99 79.7L24.54 79.7L24.08 79.7L23.78 79.7L23.33 79.7L22.87 79.7L22.75 79.7L22.57 79.7L22.27 79.7L21.66 79.7L20.9 79.7L20.7 79.7L20.3 79.7L19.54 79.7L18.63 79.7L17.57 79.7L16.2 79.7L15.14 79.7L14.54 79.7L14.08 79.7L13.78 79.7L13.18 79.7L12.72 79.7L12.72 70.18Z" fill="#C5C7D6" fill-opacity="1.000000" fill-rule="evenodd"/>
	<path id="Форма 341 (Граница)" d="M19.69 73.55L20.3 73.55L21.05 73.55L21.36 73.55L21.81 73.55L22.57 73.55L23.33 73.55L23.78 73.55L24.23 73.55L24.69 73.55L24.99 73.55L25.29 73.55L25.6 73.55L25.9 73.55L26.36 73.55L26.81 73.55L27.11 73.55L27.57 73.55L28.02 73.55L28.48 73.55L29.08 73.55L29.84 73.55L30.6 73.55L31.05 73.55L31.35 73.55L31.35 83.07L31.05 83.07L30.6 83.07L29.84 83.07L29.08 83.07L28.48 83.07L28.02 83.07L27.57 83.07L27.11 83.07L26.81 83.07L26.36 83.07L25.9 83.07L25.6 83.07L25.3 83.07L24.99 83.07L24.69 83.07L24.23 83.07L23.78 83.07L23.33 83.07L22.57 83.07L21.81 83.07L21.36 83.07L21.05 83.07L20.3 83.07L19.69 83.07L19.69 73.55Z" fill="#C5C7D6" fill-opacity="1.000000" fill-rule="evenodd"/>
	<path id="Форма 342 (Граница)" d="M29.08 66.19L29.54 66.19L30.14 66.19L30.6 66.19L31.05 66.19L31.51 66.19L31.96 66.19L32.57 66.19L33.47 66.19L33.93 66.19L34.38 66.19L35.14 66.19L35.9 66.19L36.66 66.19L37.41 66.19L38.02 66.19L38.32 66.19L38.78 66.19L39.23 66.19L39.69 66.19L40.29 66.19L41.05 66.19L41.66 66.19L42.11 66.19L42.57 66.19L42.87 66.19L43.17 66.19L43.47 66.19L43.47 75.72L43.17 75.72L42.87 75.72L42.57 75.72L42.11 75.72L41.66 75.72L41.05 75.72L40.29 75.72L39.69 75.72L39.23 75.72L38.78 75.72L38.32 75.72L38.02 75.72L37.41 75.72L36.66 75.72L35.9 75.72L35.14 75.72L34.38 75.72L33.93 75.72L33.48 75.72L32.57 75.72L31.96 75.72L31.51 75.72L31.05 75.72L30.6 75.72L30.14 75.72L29.54 75.72L29.08 75.72L29.08 66.19Z" fill="#C5C7D6" fill-opacity="1.000000" fill-rule="evenodd"/>
	<path id="Форма 343 (Граница)" d="M30.6 71.71L31.05 71.71L31.81 71.71L32.26 71.71L32.72 71.71L33.17 71.71L33.63 71.71L34.08 71.71L34.18 71.71L34.38 71.71L34.69 71.71L34.79 71.71L34.99 71.71L35.19 71.71L35.29 71.71L36.2 71.71L37.26 71.71L37.26 81.23L36.2 81.23L35.29 81.23L35.19 81.23L34.99 81.23L34.79 81.23L34.69 81.23L34.38 81.23L34.18 81.23L34.08 81.23L33.63 81.23L33.17 81.23L32.72 81.23L32.26 81.23L31.81 81.23L31.05 81.23L30.6 81.23L30.6 71.71Z" fill="#C5C7D6" fill-opacity="1.000000" fill-rule="evenodd"/>
	<path id="Форма 344 (Граница)" d="M36.05 58.53L36.66 58.53L37.57 58.53L38.32 58.53L39.23 58.53L39.99 58.53L40.75 58.53L41.2 58.53L41.66 58.53L42.57 58.53L43.02 58.53L43.47 58.53L44.38 58.53L45.14 58.53L45.75 58.53L46.35 58.53L46.96 58.53L48.02 58.53L49.08 58.53L49.53 58.53L49.84 58.53L50.29 58.53L51.05 58.53L51.66 58.53L52.11 58.53L52.56 58.53L53.02 58.53L53.47 58.53L53.78 58.53L54.08 58.53L54.38 58.53L54.69 58.53L54.99 58.53L55.29 58.53L55.75 58.53L56.2 58.53L56.5 58.53L56.5 68.06L56.2 68.06L55.75 68.06L55.29 68.06L54.99 68.06L54.69 68.06L54.38 68.06L54.08 68.06L53.78 68.06L53.47 68.06L53.02 68.06L52.56 68.06L52.11 68.06L51.66 68.06L51.05 68.06L50.29 68.06L49.84 68.06L49.53 68.06L49.08 68.06L48.02 68.06L46.96 68.06L46.35 68.06L45.75 68.06L45.14 68.06L44.38 68.06L43.47 68.06L43.02 68.06L42.57 68.06L41.66 68.06L41.2 68.06L40.75 68.06L39.99 68.06L39.23 68.06L38.32 68.06L37.57 68.06L36.66 68.06L36.05 68.06L36.05 58.53Z" fill="#C5C7D6" fill-opacity="1.000000" fill-rule="evenodd"/>
	<path id="Форма 345 (Граница)" d="M63.02 59.47L62.56 59.47L61.96 59.47L61.5 59.47L60.9 59.47L60.29 59.47L59.53 59.47L59.08 59.47L58.62 59.47L57.72 59.47L57.26 59.47L56.81 59.47L55.59 59.47L54.08 59.47L50.6 59.47L47.11 59.47L45.9 59.47L44.84 59.47L44.24 59.47L43.63 59.47L41.96 59.47L40.75 59.47L40.29 59.47L39.69 59.47L39.23 59.47L38.32 59.47L37.42 59.47L37.11 59.47L37.11 49.95L37.42 49.95L38.32 49.95L39.23 49.95L39.69 49.95L40.29 49.95L40.75 49.95L41.96 49.95L43.63 49.95L44.24 49.95L44.84 49.95L45.9 49.95L47.11 49.95L50.6 49.95L54.08 49.95L55.59 49.95L56.81 49.95L57.26 49.95L57.72 49.95L58.62 49.95L59.08 49.95L59.53 49.95L60.29 49.95L60.9 49.95L61.5 49.95L61.96 49.95L62.56 49.95L63.02 49.95L63.02 59.47Z" fill="#C5C7D6" fill-opacity="1.000000" fill-rule="evenodd"/>
	<path id="Форма 346 (Граница)" d="M30.75 49.34L30.29 49.34L30.29 58.86L37.41 58.86L38.02 58.86L40.14 58.86L41.35 58.86L43.17 58.86L43.17 49.34L41.35 49.34L40.14 49.34L38.02 49.34L37.41 49.34L30.75 49.34Z" fill="#C5C7D6" fill-opacity="1.000000" fill-rule="evenodd"/>
	<path id="Форма 347 (Граница)" d="M27.26 54.85L27.72 54.85L28.33 54.85L28.63 54.85L29.08 54.85L29.69 54.85L29.99 54.85L30.29 54.85L31.05 54.85L31.81 54.85L32.72 54.85L33.63 54.85L34.38 54.85L35.14 54.85L35.75 54.85L36.2 54.85L36.96 54.85L37.72 54.85L37.72 64.38L36.96 64.38L36.2 64.38L35.75 64.38L35.14 64.38L34.38 64.38L33.63 64.38L32.72 64.38L31.81 64.38L31.05 64.38L30.29 64.38L29.99 64.38L29.69 64.38L29.08 64.38L28.63 64.38L28.33 64.38L27.72 64.38L27.26 64.38L27.26 54.85Z" fill="#C5C7D6" fill-opacity="1.000000" fill-rule="evenodd"/>
	<path id="Форма 348 (Граница)" d="M29.99 60.06L29.39 60.06L29.39 69.59L34.54 69.59L39.38 69.59L39.38 60.06L34.54 60.06L29.99 60.06Z" fill="#C5C7D6" fill-opacity="1.000000" fill-rule="evenodd"/>
	<path id="Форма 349 (Граница)" d="M30.29 43.82L29.69 43.82L29.69 53.35L40.6 53.35L43.17 53.35L52.41 53.35L52.41 43.82L43.17 43.82L40.6 43.82L30.29 43.82Z" fill="#C5C7D6" fill-opacity="1.000000" fill-rule="evenodd"/>
	<path id="Форма 350 (Граница)" d="M63.02 51.81L62.41 51.81L61.65 51.81L60.29 51.81L58.32 51.81L56.96 51.81L55.9 51.81L55.14 51.81L54.69 51.81L53.93 51.81L53.93 42.29L54.69 42.29L55.14 42.29L55.9 42.29L56.96 42.29L58.32 42.29L60.29 42.29L61.65 42.29L62.41 42.29L63.02 42.29L63.02 51.81Z" fill="#C5C7D6" fill-opacity="1.000000" fill-rule="evenodd"/>
	<path id="Форма 351 (Граница)" d="M51.2 49.67L50.75 49.67L50.14 49.67L49.69 49.67L49.38 49.67L49.08 49.67L48.63 49.67L48.17 49.67L47.56 49.67L47.11 49.67L46.66 49.67L46.2 49.67L45.6 49.67L43.47 49.67L41.5 49.67L40.9 49.67L40.6 49.67L40.29 49.67L39.23 49.67L38.32 49.67L37.87 49.67L37.26 49.67L36.81 49.67L36.51 49.67L35.75 49.67L35.75 40.14L36.51 40.14L36.81 40.14L37.26 40.14L37.87 40.14L38.32 40.14L39.23 40.14L40.29 40.14L40.6 40.14L40.9 40.14L41.5 40.14L43.47 40.14L45.6 40.14L46.2 40.14L46.66 40.14L47.11 40.14L47.56 40.14L48.17 40.14L48.63 40.14L49.08 40.14L49.38 40.14L49.69 40.14L50.14 40.14L50.75 40.14L51.2 40.14L51.2 49.67Z" fill="#C5C7D6" fill-opacity="1.000000" fill-rule="evenodd"/>
	<path id="Форма 352 (Граница)" d="M46.35 44.15L45.9 44.15L45.29 44.15L44.84 44.15L43.93 44.15L42.87 44.15L41.96 44.15L41.51 44.15L41.05 44.15L40.14 44.15L39.69 44.15L39.23 44.15L38.48 44.15L37.87 44.15L36.2 44.15L34.54 44.15L34.08 44.15L33.78 44.15L33.48 44.15L33.48 34.63L33.78 34.63L34.08 34.63L34.54 34.63L36.2 34.63L37.87 34.63L38.48 34.63L39.23 34.63L39.69 34.63L40.14 34.63L41.05 34.63L41.51 34.63L41.96 34.63L42.87 34.63L43.93 34.63L44.84 34.63L45.29 34.63L45.9 34.63L46.35 34.63L46.35 44.15Z" fill="#C5C7D6" fill-opacity="1.000000" fill-rule="evenodd"/>
	<path id="Форма 353 (Граница)" d="M27.57 33.71L28.02 33.71L28.78 33.71L29.23 33.71L29.69 33.71L29.99 33.71L30.29 33.71L31.05 33.71L31.96 33.71L32.57 33.71L33.02 33.71L33.32 33.71L33.63 33.71L34.23 33.71L34.69 33.71L34.99 33.71L34.99 43.23L34.69 43.23L34.23 43.23L33.63 43.23L33.32 43.23L33.02 43.23L32.57 43.23L31.96 43.23L31.05 43.23L30.29 43.23L29.99 43.23L29.69 43.23L29.23 43.23L28.78 43.23L28.02 43.23L27.57 43.23L27.57 33.71Z" fill="#C5C7D6" fill-opacity="1.000000" fill-rule="evenodd"/>
	<path id="Форма 354 (Граница)" d="M45.44 36.8L44.99 36.8L44.23 36.8L43.47 36.8L42.41 36.8L41.05 36.8L39.84 36.8L39.08 36.8L38.32 36.8L37.57 36.8L36.81 36.8L36.81 27.27L37.57 27.27L38.32 27.27L39.08 27.27L39.84 27.27L41.05 27.27L42.41 27.27L43.47 27.27L44.23 27.27L44.99 27.27L45.44 27.27L45.44 36.8Z" fill="#C5C7D6" fill-opacity="1.000000" fill-rule="evenodd"/>
	<path id="Форма 355 (Граница)" d="M46.05 31.89L45.6 31.89L44.99 31.89L44.69 31.89L44.38 31.89L43.93 31.89L43.32 31.89L42.72 31.89L41.96 31.89L41.5 31.89L41.05 31.89L40.14 31.89L39.69 31.89L39.23 31.89L38.48 31.89L38.02 31.89L37.72 31.89L37.72 22.37L38.02 22.37L38.48 22.37L39.23 22.37L39.69 22.37L40.14 22.37L41.05 22.37L41.5 22.37L41.96 22.37L42.72 22.37L43.32 22.37L43.93 22.37L44.38 22.37L44.69 22.37L44.99 22.37L45.6 22.37L46.05 22.37L46.05 31.89Z" fill="#C5C7D6" fill-opacity="1.000000" fill-rule="evenodd"/>
	<path id="Форма 356 (Граница)" d="M43.63 28.83L43.17 28.83L42.57 28.83L42.26 28.83L41.81 28.83L41.35 28.83L40.9 28.83L40.44 28.83L40.44 19.3L40.9 19.3L41.35 19.3L41.81 19.3L42.26 19.3L42.57 19.3L43.17 19.3L43.63 19.3L43.63 28.83Z" fill="#C5C7D6" fill-opacity="1.000000" fill-rule="evenodd"/>
	<path id="Форма 357 (Граница)" d="M34.23 23.9L34.69 23.9L35.29 23.9L35.9 23.9L36.66 23.9L36.96 23.9L37.26 23.9L37.72 23.9L38.02 23.9L38.32 23.9L38.63 23.9L38.63 33.43L38.32 33.43L38.02 33.43L37.72 33.43L37.26 33.43L36.96 33.43L36.66 33.43L35.9 33.43L35.29 33.43L34.69 33.43L34.23 33.43L34.23 23.9Z" fill="#C5C7D6" fill-opacity="1.000000" fill-rule="evenodd"/>
	<path id="Форма 358 (Граница)" d="M24.54 27.27L25.14 27.27L25.9 27.27L26.36 27.27L26.96 27.27L27.72 27.27L28.78 27.27L29.69 27.27L30.6 27.27L31.51 27.27L31.81 27.27L32.11 27.27L32.57 27.27L32.57 36.8L32.11 36.8L31.81 36.8L31.51 36.8L30.6 36.8L29.69 36.8L28.78 36.8L27.72 36.8L26.96 36.8L26.36 36.8L25.9 36.8L25.14 36.8L24.54 36.8L24.54 27.27Z" fill="#C5C7D6" fill-opacity="1.000000" fill-rule="evenodd"/>
	<path id="Форма 359 (Граница)" d="M16.96 21.75L17.42 21.75L18.17 21.75L18.93 21.75L19.99 21.75L21.2 21.75L22.42 21.75L23.02 21.75L23.63 21.75L24.69 21.75L25.45 21.75L25.9 21.75L26.2 21.75L26.51 21.75L26.51 31.28L26.2 31.28L25.9 31.28L25.45 31.28L24.69 31.28L23.63 31.28L23.02 31.28L22.42 31.28L21.2 31.28L19.99 31.28L18.93 31.28L18.17 31.28L17.42 31.28L16.96 31.28L16.96 21.75Z" fill="#C5C7D6" fill-opacity="1.000000" fill-rule="evenodd"/>
	<path id="Форма 360 (Граница)" d="M10.9 19.3L11.36 19.3L12.11 19.3L12.42 19.3L12.72 19.3L13.63 19.3L14.24 19.3L14.84 19.3L16.21 19.3L16.96 19.3L17.72 19.3L19.08 19.3L19.99 19.3L21.36 19.3L21.36 28.83L19.99 28.83L19.08 28.83L17.72 28.83L16.96 28.83L16.21 28.83L14.84 28.83L14.24 28.83L13.63 28.83L12.72 28.83L12.42 28.83L12.11 28.83L11.36 28.83L10.9 28.83L10.9 19.3Z" fill="#C5C7D6" fill-opacity="1.000000" fill-rule="evenodd"/>
	<path id="Форма 361 (Граница)" d="M4.24 15.93L4.69 15.93L5.3 15.93L5.75 15.93L6.81 15.93L7.57 15.93L8.33 15.93L10.15 15.93L12.11 15.93L13.63 15.93L14.99 15.93L16.05 15.93L16.51 15.93L16.51 25.46L16.05 25.46L14.99 25.46L13.63 25.46L12.11 25.46L10.15 25.46L8.33 25.46L7.57 25.46L6.81 25.46L5.75 25.46L5.3 25.46L4.69 25.46L4.24 25.46L4.24 15.93Z" fill="#C5C7D6" fill-opacity="1.000000" fill-rule="evenodd"/>
	<path id="Форма 362 (Граница)" d="M0 14.4L0.45 14.4L1.06 14.4L1.36 14.4L2.12 14.4L3.33 14.4L3.93 14.4L4.54 14.4L5.6 14.4L6.21 14.4L6.51 14.4L6.51 23.92L6.21 23.92L5.6 23.92L4.54 23.92L3.93 23.92L3.33 23.92L2.12 23.92L1.36 23.92L1.06 23.92L0.45 23.92L0 23.92L0 14.4Z" fill="#C5C7D6" fill-opacity="1.000000" fill-rule="evenodd"/>
	<path id="Форма 363 (Граница)" d="M6.66 11.95L7.27 11.95L8.33 11.95L8.93 11.95L9.54 11.95L10.15 11.95L10.6 11.95L11.05 11.95L11.05 21.47L10.6 21.47L10.15 21.47L9.54 21.47L8.93 21.47L8.33 21.47L7.27 21.47L6.66 21.47L6.66 11.95Z" fill="#C5C7D6" fill-opacity="1.000000" fill-rule="evenodd"/>
	<path id="Форма 364 (Граница)" d="M18.48 17.18L17.87 17.18L16.96 17.18L16.66 17.18L16.36 17.18L15.9 17.18L15.3 17.18L14.54 17.18L14.24 17.18L13.93 17.18L13.48 17.18L13.18 17.18L12.12 17.18L12.12 7.66L13.18 7.66L13.48 7.66L13.93 7.66L14.24 7.66L14.54 7.66L15.3 7.66L15.9 7.66L16.36 7.66L16.66 7.66L16.96 7.66L17.87 7.66L18.48 7.66L18.48 17.18Z" fill="#C5C7D6" fill-opacity="1.000000" fill-rule="evenodd"/>
	<path id="Форма 365 (Граница)" d="M17.87 12.89L17.42 12.89L16.81 12.89L16.36 12.89L15.9 12.89L15.45 12.89L14.84 12.89L14.39 12.89L14.08 12.89L14.08 3.37L14.39 3.37L14.84 3.37L15.45 3.37L15.9 3.37L16.36 3.37L16.81 3.37L17.42 3.37L17.87 3.37L17.87 12.89Z" fill="#C5C7D6" fill-opacity="1.000000" fill-rule="evenodd"/>
	<path id="Форма 366 (Граница)" d="M17.27 9.52L16.81 9.52L16.21 9.52L15.9 9.52L15.9 0L16.21 0L16.81 0L17.27 0L17.27 9.52Z" fill="#C5C7D6" fill-opacity="1.000000" fill-rule="evenodd"/>
	<path id="Форма 367 (Граница)" d="M10.9 3.98L11.36 3.98L11.96 3.98L12.42 3.98L13.02 3.98L13.43 3.98L13.63 3.98L14.08 3.98L14.54 3.98L14.99 3.98L14.99 13.5L14.54 13.5L14.08 13.5L13.63 13.5L13.43 13.5L13.02 13.5L12.42 13.5L11.96 13.5L11.36 13.5L10.9 13.5L10.9 3.98Z" fill="#C5C7D6" fill-opacity="1.000000" fill-rule="evenodd"/>
	<path id="Форма 368 (Граница)" d="M36.96 36.8L36.51 36.8L35.9 36.8L34.38 36.8L30.45 36.8L30.45 27.27L34.38 27.27L35.9 27.27L36.51 27.27L36.96 27.27L36.96 36.8Z" fill="#C5C7D6" fill-opacity="1.000000" fill-rule="evenodd"/>
	<path id="Форма 369 (Граница)" d="M25.45 64.66L25.9 64.66L26.51 64.66L26.96 64.66L27.57 64.66L28.02 64.66L28.48 64.66L28.93 64.66L29.23 64.66L29.54 64.66L29.54 74.19L29.23 74.19L28.93 74.19L28.48 74.19L28.02 74.19L27.57 74.19L26.96 74.19L26.51 74.19L25.9 74.19L25.45 74.19L25.45 64.66Z" fill="#FF83A0" fill-opacity="1.000000" fill-rule="evenodd"/>
	<path id="Форма 370 (Граница)" d="M21.21 59.76L21.66 59.76L22.27 59.76L22.57 59.76L23.02 59.76L23.63 59.76L24.24 59.76L24.69 59.76L25.14 59.76L25.6 59.76L25.6 69.28L25.14 69.28L24.69 69.28L24.24 69.28L23.63 69.28L23.02 69.28L22.57 69.28L22.27 69.28L21.66 69.28L21.21 69.28L21.21 59.76Z" fill="#FF83A0" fill-opacity="1.000000" fill-rule="evenodd"/>
	<path id="Форма 371 (Граница)" d="M28.17 65.91L27.72 65.91L27.11 65.91L26.66 65.91L26.2 65.91L25.75 65.91L25.14 65.91L24.84 65.91L24.54 65.91L24.08 65.91L23.63 65.91L23.17 65.91L23.17 56.38L23.63 56.38L24.08 56.38L24.54 56.38L24.84 56.38L25.14 56.38L25.75 56.38L26.2 56.38L26.66 56.38L27.11 56.38L27.72 56.38L28.17 56.38L28.17 65.91Z" fill="#FF83A0" fill-opacity="1.000000" fill-rule="evenodd"/>
	<path id="Форма 372 (Граница)" d="M21.96 53.01L21.51 53.01L21.51 62.54L23.17 62.54L23.78 62.54L26.66 62.54L26.66 53.01L23.78 53.01L23.17 53.01L21.96 53.01Z" fill="#FF83A0" fill-opacity="1.000000" fill-rule="evenodd"/>
	<path id="Форма 373 (Граница)" d="M28.78 56.72L28.33 56.72L27.72 56.72L27.42 56.72L27.11 56.72L26.81 56.72L26.61 56.72L26.51 56.72L26.2 56.72L25.9 56.72L25.6 56.72L24.99 56.72L23.48 56.72L23.48 47.19L24.99 47.19L25.6 47.19L25.9 47.19L26.2 47.19L26.51 47.19L26.61 47.19L26.81 47.19L27.11 47.19L27.42 47.19L27.72 47.19L28.33 47.19L28.78 47.19L28.78 56.72Z" fill="#FF83A0" fill-opacity="1.000000" fill-rule="evenodd"/>
	<path id="Форма 374 (Граница)" d="M23.63 41.37L24.08 41.37L24.69 41.37L24.99 41.37L26.2 41.37L27.42 41.37L27.42 50.89L26.2 50.89L24.99 50.89L24.69 50.89L24.08 50.89L23.63 50.89L23.63 41.37Z" fill="#FF83A0" fill-opacity="1.000000" fill-rule="evenodd"/>
	<path id="Форма 375 (Граница)" d="M23.33 38.61L23.78 38.61L24.23 38.61L24.69 38.61L25.3 38.61L25.75 38.61L26.36 38.61L26.81 38.61L27.11 38.61L27.11 48.14L26.81 48.14L26.36 48.14L25.75 48.14L25.3 48.14L24.69 48.14L24.23 48.14L23.78 48.14L23.33 48.14L23.33 38.61Z" fill="#FF83A0" fill-opacity="1.000000" fill-rule="evenodd"/>
	<path id="Форма 376 (Граница)" d="M23.02 34.93L23.48 34.93L24.08 34.93L24.54 34.93L24.84 34.93L25.14 34.93L25.75 34.93L26.2 34.93L26.51 34.93L26.96 34.93L26.96 44.46L26.51 44.46L26.2 44.46L25.75 44.46L25.14 44.46L24.84 44.46L24.54 44.46L24.08 44.46L23.48 44.46L23.02 44.46L23.02 34.93Z" fill="#FF83A0" fill-opacity="1.000000" fill-rule="evenodd"/>
	<path id="Форма 377 (Граница)" d="M29.08 50.59L28.63 50.59L27.87 50.59L26.81 50.59L26.81 41.06L27.87 41.06L28.63 41.06L29.08 41.06L29.08 50.59Z" fill="#FF83A0" fill-opacity="1.000000" fill-rule="evenodd"/>
	<path id="Форма 378 (Граница)" d="M31.2 56.41L30.75 56.41L30.14 56.41L29.84 56.41L29.54 56.41L28.93 56.41L28.32 56.41L27.72 56.41L27.11 56.41L26.66 56.41L26.2 56.41L26.2 46.88L26.66 46.88L27.11 46.88L27.72 46.88L28.32 46.88L28.93 46.88L29.54 46.88L29.84 46.88L30.14 46.88L30.75 46.88L31.2 46.88L31.2 56.41Z" fill="#FF83A0" fill-opacity="1.000000" fill-rule="evenodd"/>
	<path id="Форма 379 (Граница)" d="M26.66 24.82L27.57 24.82L28.93 24.82L29.39 24.82L29.84 24.82L31.05 24.82L32.42 24.82L33.48 24.82L33.93 24.82L34.38 24.82L34.99 24.82L35.29 24.82L35.29 34.34L34.99 34.34L34.38 34.34L33.93 34.34L33.48 34.34L32.42 34.34L31.05 34.34L29.84 34.34L29.39 34.34L28.93 34.34L27.57 34.34L26.66 34.34L26.66 24.82Z" fill="#FF83A0" fill-opacity="1.000000" fill-rule="evenodd"/>
	<path id="Форма 380 (Граница)" d="M50.59 41.67L51.05 41.67L51.66 41.67L52.11 41.67L52.56 41.67L53.02 41.67L53.62 41.67L54.23 41.67L54.53 41.67L54.84 41.67L55.29 41.67L55.59 41.67L55.59 51.2L55.29 51.2L54.84 51.2L54.53 51.2L54.23 51.2L53.62 51.2L53.02 51.2L52.56 51.2L52.11 51.2L51.66 51.2L51.05 51.2L50.59 51.2L50.59 41.67Z" fill="#FF83A0" fill-opacity="1.000000" fill-rule="evenodd"/>
	<path id="Форма 381 (Граница)" d="M56.35 39.53L56.81 39.53L57.41 39.53L57.87 39.53L58.32 39.53L58.78 39.53L59.23 39.53L59.53 39.53L59.53 49.05L59.23 49.05L58.78 49.05L58.32 49.05L57.87 49.05L57.41 49.05L56.81 49.05L56.35 49.05L56.35 39.53Z" fill="#FF83A0" fill-opacity="1.000000" fill-rule="evenodd"/>
	<path id="Форма 382 (Граница)" d="M53.93 40.45L54.38 40.45L54.99 40.45L55.44 40.45L55.59 40.45L56.05 40.45L56.35 40.45L56.65 40.45L57.26 40.45L57.87 40.45L58.17 40.45L58.47 40.45L58.93 40.45L59.68 40.45L60.59 40.45L61.05 40.45L61.05 49.97L60.59 49.97L59.68 49.97L58.93 49.97L58.47 49.97L58.17 49.97L57.87 49.97L57.26 49.97L56.65 49.97L56.35 49.97L56.05 49.97L55.59 49.97L55.44 49.97L54.99 49.97L54.38 49.97L53.93 49.97L53.93 40.45Z" fill="#FF83A0" fill-opacity="1.000000" fill-rule="evenodd"/>
	<path id="Форма 383 (Граница)" d="M27.57 30.05L27.11 30.05L26.36 30.05L25.75 30.05L24.99 30.05L23.93 30.05L23.02 30.05L22.42 30.05L21.81 30.05L21.36 30.05L21.36 20.53L21.81 20.53L22.42 20.53L23.02 20.53L23.93 20.53L24.99 20.53L25.75 20.53L26.36 20.53L27.11 20.53L27.57 20.53L27.57 30.05Z" fill="#FF83A0" fill-opacity="1.000000" fill-rule="evenodd"/>
	<path id="Форма 384 (Граница)" d="M8.18 7.96L8.63 7.96L9.24 7.96L9.54 7.96L9.84 7.96L10.15 7.96L10.45 7.96L10.45 17.49L10.15 17.49L9.84 17.49L9.54 17.49L9.24 17.49L8.63 17.49L8.18 17.49L8.18 7.96Z" fill="#FF83A0" fill-opacity="1.000000" fill-rule="evenodd"/>
	<path id="Форма 385 (Граница)" d="M4.24 9.8L4.69 9.8L5.3 9.8L5.4 9.8L5.6 9.8L6.21 9.8L6.96 9.8L7.27 9.8L7.57 9.8L8.18 9.8L8.63 9.8L8.63 19.33L8.18 19.33L7.57 19.33L7.27 19.33L6.96 19.33L6.21 19.33L5.6 19.33L5.4 19.33L5.3 19.33L4.69 19.33L4.24 19.33L4.24 9.8Z" fill="#FF83A0" fill-opacity="1.000000" fill-rule="evenodd"/>
	<path id="Форма 386 (Граница)" d="M0.6 13.79L1.21 13.79L1.96 13.79L2.42 13.79L3.18 13.79L4.09 13.79L4.84 13.79L4.84 23.31L4.09 23.31L3.18 23.31L2.42 23.31L1.96 23.31L1.21 23.31L0.6 23.31L0.6 13.79Z" fill="#FF83A0" fill-opacity="1.000000" fill-rule="evenodd"/>
	<path id="Форма 387 (Граница)" d="M3.03 22.06L3.48 22.06L4.09 22.06L4.54 22.06L6.06 22.06L7.72 22.06L8.48 22.06L8.48 31.59L7.72 31.59L6.06 31.59L4.54 31.59L4.09 31.59L3.48 31.59L3.03 31.59L3.03 22.06Z" fill="#FF83A0" fill-opacity="1.000000" fill-rule="evenodd"/>
	<path id="Форма 388 (Граница)" d="M47.56 35.88L46.96 35.88L46.2 35.88L45.9 35.88L45.44 35.88L44.99 35.88L44.99 26.35L45.44 26.35L45.9 26.35L46.2 26.35L46.96 26.35L47.56 26.35L47.56 35.88Z" fill="#FF83A0" fill-opacity="1.000000" fill-rule="evenodd"/>
	<path id="Форма 389 (Граница)" d="M42.41 33.71L42.87 33.71L43.47 33.71L43.58 33.71L43.78 33.71L44.23 33.71L44.99 33.71L45.6 33.71L45.9 33.71L45.9 43.23L45.6 43.23L44.99 43.23L44.23 43.23L43.78 43.23L43.58 43.23L43.47 43.23L42.87 43.23L42.41 43.23L42.41 33.71Z" fill="#FF83A0" fill-opacity="1.000000" fill-rule="evenodd"/>
	<path id="Форма 390 (Граница)" d="M50.6 62.51L51.05 62.51L51.66 62.51L51.76 62.51L51.96 62.51L52.41 62.51L52.87 62.51L53.32 62.51L53.93 62.51L54.38 62.51L54.69 62.51L54.99 62.51L54.99 72.04L54.69 72.04L54.38 72.04L53.93 72.04L53.32 72.04L52.87 72.04L52.41 72.04L51.96 72.04L51.76 72.04L51.66 72.04L51.05 72.04L50.6 72.04L50.6 62.51Z" fill="#FF83A0" fill-opacity="1.000000" fill-rule="evenodd"/>
	<path id="Форма 391 (Граница)" d="M56.65 69.89L55.9 69.89L54.84 69.89L54.08 69.89L53.32 69.89L52.87 69.89L52.87 60.37L53.32 60.37L54.08 60.37L54.84 60.37L55.9 60.37L56.65 60.37L56.65 69.89Z" fill="#FF83A0" fill-opacity="1.000000" fill-rule="evenodd"/>
	<path id="Форма 392 (Граница)" d="M60.9 66.52L60.44 66.52L59.69 66.52L59.08 66.52L58.32 66.52L57.56 66.52L56.96 66.52L56.35 66.52L55.59 66.52L54.84 66.52L54.84 57L55.59 57L56.35 57L56.96 57L57.56 57L58.32 57L59.08 57L59.69 57L60.44 57L60.9 57L60.9 66.52Z" fill="#FF83A0" fill-opacity="1.000000" fill-rule="evenodd"/>
	<path id="Форма 393 (Граница)" d="M8.18 70.18L8.63 70.18L9.24 70.18L9.24 79.7L8.63 79.7L8.18 79.7L8.18 70.18Z" fill="#FF83A0" fill-opacity="1.000000" fill-rule="evenodd"/>
	<path id="Форма 394 (Граница)" d="M5.75 65.58L6.21 65.58L6.81 65.58L7.27 65.58L7.87 65.58L8.08 65.58L8.48 65.58L8.93 65.58L9.69 65.58L10.75 65.58L10.75 75.1L9.69 75.1L8.93 75.1L8.48 75.1L8.08 75.1L7.87 75.1L7.27 75.1L6.81 75.1L6.21 75.1L5.75 75.1L5.75 65.58Z" fill="#FF83A0" fill-opacity="1.000000" fill-rule="evenodd"/>
	<path id="Форма 395 (Граница)" d="M11.21 81.23L10.75 81.23L10.15 81.23L9.84 81.23L9.54 81.23L9.08 81.23L9.08 71.71L9.54 71.71L9.84 71.71L10.15 71.71L10.75 71.71L11.21 71.71L11.21 81.23Z" fill="#FF83A0" fill-opacity="1.000000" fill-rule="evenodd"/>
	<path id="Форма 396 (Граница)" d="M13.02 84.3L12.42 84.3L11.66 84.3L11.21 84.3L10.6 84.3L9.99 84.3L9.99 74.77L10.6 74.77L11.21 74.77L11.66 74.77L12.42 74.77L13.02 74.77L13.02 84.3Z" fill="#FF83A0" fill-opacity="1.000000" fill-rule="evenodd"/>
	<path id="Форма 397 (Граница)" d="M28.17 42.59L28.63 42.59L29.23 42.59L29.54 42.59L29.99 42.59L30.45 42.59L30.9 42.59L31.35 42.59L31.66 42.59L32.11 42.59L32.11 52.12L31.66 52.12L31.35 52.12L30.9 52.12L30.45 52.12L29.99 52.12L29.54 52.12L29.23 52.12L28.63 52.12L28.17 52.12L28.17 42.59Z" fill="#8888A4" fill-opacity="1.000000" fill-rule="evenodd"/>
	<path id="Форма 398 (Граница)" d="M28.17 50.26L28.63 50.26L29.23 50.26L29.54 50.26L29.84 50.26L30.14 50.26L30.45 50.26L30.9 50.26L31.35 50.26L31.35 59.78L30.9 59.78L30.45 59.78L30.14 59.78L29.84 59.78L29.54 59.78L29.23 59.78L28.63 59.78L28.17 59.78L28.17 50.26Z" fill="#8888A4" fill-opacity="1.000000" fill-rule="evenodd"/>
	<path id="Форма 399 (Граница)" d="M25.45 54.55L25.9 54.55L26.51 54.55L26.81 54.55L27.11 54.55L27.42 54.55L27.72 54.55L28.02 54.55L28.32 54.55L28.32 64.07L28.02 64.07L27.72 64.07L27.42 64.07L27.11 64.07L26.81 64.07L26.51 64.07L25.9 64.07L25.45 64.07L25.45 54.55Z" fill="#8888A4" fill-opacity="1.000000" fill-rule="evenodd"/>
	<path id="Форма 400 (Граница)" d="M26.05 60.37L26.51 60.37L27.11 60.37L27.42 60.37L27.72 60.37L28.02 60.37L28.33 60.37L28.33 69.89L28.02 69.89L27.72 69.89L27.42 69.89L27.11 69.89L26.51 69.89L26.05 69.89L26.05 60.37Z" fill="#8888A4" fill-opacity="1.000000" fill-rule="evenodd"/>
	<path id="Форма 401 (Граница)" d="M29.69 75.72L29.23 75.72L28.63 75.72L28.32 75.72L28.02 75.72L28.02 66.19L28.32 66.19L28.63 66.19L29.23 66.19L29.69 66.19L29.69 75.72Z" fill="#8888A4" fill-opacity="1.000000" fill-rule="evenodd"/>
	<path id="Форма 402 (Граница)" d="M60.29 51.51L59.68 51.51L58.78 51.51L58.17 51.51L57.87 51.51L57.56 51.51L57.26 51.51L56.96 51.51L56.5 51.51L56.2 51.51L56.2 41.98L56.5 41.98L56.96 41.98L57.26 41.98L57.56 41.98L57.87 41.98L58.17 41.98L58.78 41.98L59.68 41.98L60.29 41.98L60.29 51.51Z" fill="#8888A4" fill-opacity="1.000000" fill-rule="evenodd"/>
	<path id="Форма 403 (Граница)" d="M52.41 57.92L53.02 57.92L53.78 57.92L54.23 57.92L54.53 57.92L54.84 57.92L55.44 57.92L55.44 67.44L54.84 67.44L54.53 67.44L54.23 67.44L53.78 67.44L53.02 67.44L52.41 67.44L52.41 57.92Z" fill="#8888A4" fill-opacity="1.000000" fill-rule="evenodd"/>
	<path id="Форма 404 (Граница)" d="M7.27 66.19L7.72 66.19L8.33 66.19L8.48 66.19L8.63 66.19L9.24 66.19L9.69 66.19L10.15 66.19L11.05 66.19L11.05 75.72L10.15 75.72L9.69 75.72L9.24 75.72L8.63 75.72L8.48 75.72L8.33 75.72L7.72 75.72L7.27 75.72L7.27 66.19Z" fill="#8888A4" fill-opacity="1.000000" fill-rule="evenodd"/>
	<path id="Форма 405 (Граница)" d="M8.78 12.56L9.24 12.56L9.99 12.56L10.6 12.56L10.6 22.09L9.99 22.09L9.24 22.09L8.78 22.09L8.78 12.56Z" fill="#8888A4" fill-opacity="1.000000" fill-rule="evenodd"/>
	<path id="Форма 406 (Граница)" d="M5.15 16.85L5.6 16.85L6.36 16.85L6.81 16.85L7.57 16.85L8.48 16.85L9.39 16.85L9.39 26.38L8.48 26.38L7.57 26.38L6.81 26.38L6.36 26.38L5.6 26.38L5.15 26.38L5.15 16.85Z" fill="#8888A4" fill-opacity="1.000000" fill-rule="evenodd"/>
	<path id="Форма 407 (Граница)" d="M19.08 13.81L18.63 13.81L18.02 13.81L17.72 13.81L17.27 13.81L16.81 13.81L16.81 4.29L17.27 4.29L17.72 4.29L18.02 4.29L18.63 4.29L19.08 4.29L19.08 13.81Z" fill="#8888A4" fill-opacity="1.000000" fill-rule="evenodd"/>
	<path id="Форма 408 (Граница)" d="M46.96 36.49L46.5 36.49L45.75 36.49L44.99 36.49L44.54 36.49L44.08 36.49L43.47 36.49L43.47 26.96L44.08 26.96L44.54 26.96L44.99 26.96L45.75 26.96L46.5 26.96L46.96 26.96L46.96 36.49Z" fill="#8888A4" fill-opacity="1.000000" fill-rule="evenodd"/>
	<path id="Форма 409 (Граница)" d="M9.08 25.13L9.54 25.13L10.15 25.13L10.3 25.13L10.45 25.13L10.9 25.13L11.36 25.13L11.51 25.13L11.66 25.13L11.96 25.13L12.27 25.13L12.57 25.13L12.87 25.13L12.87 34.65L12.57 34.65L12.27 34.65L11.96 34.65L11.66 34.65L11.51 34.65L11.36 34.65L10.9 34.65L10.45 34.65L10.3 34.65L10.15 34.65L9.54 34.65L9.08 34.65L9.08 25.13Z" fill="#8888A4" fill-opacity="1.000000" fill-rule="evenodd"/>
	<path id="Форма 410 (Граница)" d="M13.63 28.5L14.24 28.5L14.99 28.5L15.3 28.5L15.6 28.5L16.05 28.5L16.51 28.5L16.96 28.5L17.57 28.5L18.02 28.5L18.32 28.5L18.48 28.5L18.63 28.5L18.93 28.5L19.39 28.5L19.84 28.5L20.29 28.5L20.75 28.5L21.05 28.5L21.36 28.5L21.66 28.5L21.96 28.5L22.26 28.5L22.26 38.02L21.96 38.02L21.66 38.02L21.36 38.02L21.05 38.02L20.75 38.02L20.29 38.02L19.84 38.02L19.39 38.02L18.93 38.02L18.63 38.02L18.48 38.02L18.33 38.02L18.02 38.02L17.57 38.02L16.96 38.02L16.51 38.02L16.05 38.02L15.6 38.02L15.3 38.02L14.99 38.02L14.24 38.02L13.63 38.02L13.63 28.5Z" fill="#8888A4" fill-opacity="1.000000" fill-rule="evenodd"/>
	<path id="Форма 411 (Граница)" d="M25.14 39.86L24.54 39.86L23.78 39.86L23.33 39.86L23.02 39.86L22.72 39.86L22.27 39.86L22.27 30.34L22.72 30.34L23.02 30.34L23.33 30.34L23.78 30.34L24.54 30.34L25.14 30.34L25.14 39.86Z" fill="#8888A4" fill-opacity="1.000000" fill-rule="evenodd"/>
	<path id="Форма 412 (Граница)" d="M25.75 34.01L26.2 34.01L26.96 34.01L27.42 34.01L27.72 34.01L27.72 43.54L27.42 43.54L26.96 43.54L26.2 43.54L25.75 43.54L25.75 34.01Z" fill="#C5C7D6" fill-opacity="1.000000" fill-rule="evenodd"/>
	<path id="Форма 413 (Граница)" d="M37.57 16.54L38.02 16.54L38.63 16.54L39.08 16.54L39.28 16.54L39.69 16.54L40.14 16.54L40.44 16.54L40.75 16.54L41.05 16.54L41.05 26.07L40.75 26.07L40.44 26.07L40.14 26.07L39.69 26.07L39.28 26.07L39.08 26.07L38.63 26.07L38.02 26.07L37.57 26.07L37.57 16.54Z" fill="#C5C7D6" fill-opacity="1.000000" fill-rule="evenodd"/>
</svg>
