<svg width="67.823730" height="185.649811" viewBox="0 0 67.8237 185.65" fill="none" xmlns="http://www.w3.org/2000/svg" xmlns:xlink="http://www.w3.org/1999/xlink">
	<desc>
			Created with Pixso.
	</desc>
	<defs/>
	<path id="Форма 118" d="M1.45 137.45L2.91 137.45C3.88 137.45 4.61 137.45 5.1 137.45C5.59 137.45 6.07 137.45 6.56 137.45C7.04 137.45 7.53 137.45 8.02 137.45C8.5 137.45 8.99 137.45 9.48 137.45C9.96 137.45 10.69 137.45 11.66 137.45C12.64 137.45 13.49 137.45 14.22 137.45C14.95 137.45 15.8 137.45 16.77 137.45C17.74 137.45 18.59 137.45 19.32 137.45C20.05 137.45 20.9 137.45 21.87 137.45C22.85 137.45 23.7 137.45 24.43 137.45C25.16 137.45 26.13 137.45 27.34 137.45C28.56 137.45 29.65 137.45 30.63 137.45C31.6 137.45 34.76 137.45 40.11 137.45C45.45 137.45 49.22 137.45 51.41 137.45C53.6 137.45 55.42 137.45 56.88 137.45C58.34 137.45 59.31 137.45 59.8 137.45C60.28 137.45 60.65 137.45 60.89 137.45C61.13 137.45 61.62 137.45 62.35 137.45C63.08 137.45 63.56 137.45 63.81 137.45C64.05 137.45 64.29 137.45 64.54 137.45C64.78 137.45 65.02 137.45 65.27 137.45" stroke="#232931" stroke-opacity="1.000000" stroke-width="50.000000"/>
	<path id="Форма 119" d="M2.18 109.74L3.28 109.74C4.01 109.74 4.49 109.74 4.74 109.74C4.98 109.74 5.34 109.74 5.83 109.74C6.32 109.74 6.8 109.74 7.29 109.74C7.77 109.74 8.26 109.74 8.75 109.74C9.23 109.74 9.72 109.74 10.21 109.74C10.69 109.74 11.18 109.74 11.66 109.74C12.15 109.74 12.64 109.74 13.12 109.74C13.61 109.74 14.09 109.74 14.58 109.74C15.07 109.74 16.65 109.74 19.32 109.74C22 109.74 24.06 109.74 25.52 109.74C26.98 109.74 27.95 109.74 28.44 109.74C28.92 109.74 29.77 109.74 30.99 109.74C32.21 109.74 33.06 109.74 33.54 109.74C34.03 109.74 34.64 109.74 35.37 109.74C36.09 109.74 36.7 109.74 37.19 109.74C37.67 109.74 38.04 109.74 38.28 109.74C38.53 109.74 38.77 109.74 39.01 109.74C39.25 109.74 39.5 109.74 39.74 109.74C39.98 109.74 40.35 109.74 40.84 109.74C41.32 109.74 41.69 109.74 41.93 109.74C42.17 109.74 42.42 109.74 42.66 109.74C42.9 109.74 43.27 109.74 43.75 109.74C44.24 109.74 44.72 109.74 45.21 109.74C45.7 109.74 46.18 109.74 46.67 109.74C47.16 109.74 47.52 109.74 47.76 109.74C48.01 109.74 48.25 109.74 48.49 109.74C48.74 109.74 48.98 109.74 49.22 109.74C49.47 109.74 49.71 109.74 49.95 109.74C50.19 109.74 50.68 109.74 51.41 109.74C52.14 109.74 52.63 109.74 52.87 109.74C53.11 109.74 53.48 109.74 53.96 109.74C54.45 109.74 54.81 109.74 55.06 109.74C55.3 109.74 55.54 109.74 55.79 109.74C56.03 109.74 56.27 109.74 56.51 109.74C56.76 109.74 57 109.74 57.24 109.74C57.49 109.74 57.73 109.74 57.97 109.74C58.22 109.74 58.46 109.74 58.7 109.74C58.95 109.74 59.19 109.74 59.43 109.74C59.67 109.74 59.92 109.74 60.16 109.74C60.4 109.74 60.65 109.74 60.89 109.74C61.13 109.74 61.38 109.74 61.62 109.74C61.86 109.74 62.23 109.74 62.71 109.74C63.2 109.74 63.56 109.74 63.81 109.74C64.05 109.74 64.29 109.74 64.54 109.74C64.78 109.74 65.02 109.74 65.27 109.74C65.51 109.74 65.75 109.74 66 109.74" stroke="#232931" stroke-opacity="1.000000" stroke-width="50.000000"/>
	<path id="Форма 120" d="M66.36 81.3L65.27 81.3C64.54 81.3 64.05 81.3 63.81 81.3C63.56 81.3 63.2 81.3 62.71 81.3C62.23 81.3 61.86 81.3 61.62 81.3C61.38 81.3 61.13 81.3 60.89 81.3C60.65 81.3 60.28 81.3 59.8 81.3C59.31 81.3 58.95 81.3 58.7 81.3C58.46 81.3 57.97 81.3 57.24 81.3C56.51 81.3 56.03 81.3 55.79 81.3C55.54 81.3 53.84 81.3 50.68 81.3C47.52 81.3 45.58 81.3 44.85 81.3C44.12 81.3 43.51 81.3 43.02 81.3C42.54 81.3 42.05 81.3 41.56 81.3C41.08 81.3 40.47 81.3 39.74 81.3C39.01 81.3 38.28 81.3 37.55 81.3C36.82 81.3 36.22 81.3 35.73 81.3C35.24 81.3 34.88 81.3 34.64 81.3C34.39 81.3 34.15 81.3 33.91 81.3C33.66 81.3 33.42 81.3 33.18 81.3C32.93 81.3 32.21 81.3 30.99 81.3C29.77 81.3 29.04 81.3 28.8 81.3C28.56 81.3 28.19 81.3 27.71 81.3C27.22 81.3 26.86 81.3 26.61 81.3C26.37 81.3 26.13 81.3 25.88 81.3C25.64 81.3 25.28 81.3 24.79 81.3C24.3 81.3 23.94 81.3 23.7 81.3C23.45 81.3 23.21 81.3 22.97 81.3C22.72 81.3 22.48 81.3 22.24 81.3C22 81.3 21.75 81.3 21.51 81.3C21.27 81.3 21.02 81.3 20.78 81.3C20.54 81.3 20.29 81.3 20.05 81.3C19.81 81.3 19.56 81.3 19.32 81.3C19.08 81.3 18.83 81.3 18.59 81.3C18.35 81.3 18.11 81.3 17.86 81.3C17.62 81.3 17.38 81.3 17.13 81.3C16.89 81.3 16.65 81.3 16.4 81.3C16.16 81.3 15.92 81.3 15.67 81.3C15.43 81.3 15.19 81.3 14.95 81.3C14.7 81.3 14.46 81.3 14.22 81.3C13.97 81.3 13.61 81.3 13.12 81.3C12.64 81.3 12.15 81.3 11.66 81.3C11.18 81.3 10.81 81.3 10.57 81.3C10.33 81.3 10.08 81.3 9.84 81.3C9.6 81.3 9.35 81.3 9.11 81.3C8.87 81.3 8.62 81.3 8.38 81.3C8.14 81.3 7.9 81.3 7.65 81.3C7.41 81.3 7.17 81.3 6.92 81.3C6.68 81.3 6.32 81.3 5.83 81.3C5.34 81.3 4.98 81.3 4.73 81.3C4.49 81.3 4.25 81.3 4.01 81.3C3.76 81.3 3.52 81.3 3.28 81.3C3.03 81.3 2.79 81.3 2.55 81.3C2.3 81.3 2.06 81.3 1.82 81.3C1.58 81.3 1.33 81.3 1.09 81.3" stroke="#232931" stroke-opacity="1.000000" stroke-width="50.000000"/>
	<path id="Форма 121" d="M5.1 55.77L6.19 55.77C6.92 55.77 7.41 55.77 7.65 55.77C7.9 55.77 8.14 55.77 8.38 55.77C8.62 55.77 8.99 55.77 9.48 55.77C9.96 55.77 10.33 55.77 10.57 55.77C10.81 55.77 11.06 55.77 11.3 55.77C11.54 55.77 11.79 55.77 12.03 55.77C12.27 55.77 12.51 55.77 12.76 55.77C13 55.77 13.24 55.77 13.49 55.77C13.73 55.77 14.95 55.77 17.13 55.77C19.32 55.77 20.78 55.77 21.51 55.77C22.24 55.77 22.85 55.77 23.33 55.77C23.82 55.77 24.3 55.77 24.79 55.77C25.28 55.77 25.76 55.77 26.25 55.77C26.74 55.77 27.47 55.77 28.44 55.77C29.41 55.77 30.02 55.77 30.26 55.77C30.5 55.77 31.23 55.77 32.45 55.77C33.66 55.77 34.39 55.77 34.64 55.77C34.88 55.77 35.12 55.77 35.37 55.77C35.61 55.77 35.97 55.77 36.46 55.77C36.95 55.77 37.31 55.77 37.55 55.77C37.8 55.77 38.04 55.77 38.28 55.77C38.53 55.77 38.77 55.77 39.01 55.77C39.25 55.77 39.62 55.77 40.11 55.77C40.59 55.77 40.96 55.77 41.2 55.77C41.44 55.77 41.69 55.77 41.93 55.77C42.17 55.77 42.42 55.77 42.66 55.77C42.9 55.77 43.27 55.77 43.75 55.77C44.24 55.77 44.6 55.77 44.85 55.77C45.09 55.77 45.45 55.77 45.94 55.77C46.43 55.77 46.91 55.77 47.4 55.77C47.88 55.77 48.37 55.77 48.86 55.77C49.34 55.77 49.95 55.77 50.68 55.77C51.41 55.77 51.9 55.77 52.14 55.77C52.38 55.77 52.63 55.77 52.87 55.77C53.11 55.77 53.35 55.77 53.6 55.77C53.84 55.77 54.08 55.77 54.33 55.77C54.57 55.77 54.81 55.77 55.06 55.77C55.3 55.77 55.54 55.77 55.79 55.77C56.03 55.77 56.27 55.77 56.51 55.77C56.76 55.77 57 55.77 57.24 55.77C57.49 55.77 57.73 55.77 57.97 55.77C58.22 55.77 58.46 55.77 58.7 55.77C58.95 55.77 59.19 55.77 59.43 55.77" stroke="#232931" stroke-opacity="1.000000" stroke-width="50.000000"/>
	<path id="Форма 122" d="M67.82 60.15L66 60.15C64.78 60.15 63.93 60.15 63.44 60.15C62.96 60.15 62.35 60.15 61.62 60.15C60.89 60.15 60.4 60.15 60.16 60.15C59.92 60.15 59.55 60.15 59.07 60.15C58.58 60.15 58.09 60.15 57.61 60.15C57.12 60.15 56.76 60.15 56.51 60.15C56.27 60.15 56.03 60.15 55.79 60.15C55.54 60.15 55.18 60.15 54.69 60.15C54.21 60.15 53.72 60.15 53.23 60.15C52.75 60.15 52.26 60.15 51.77 60.15C51.29 60.15 50.68 60.15 49.95 60.15C49.22 60.15 48.74 60.15 48.49 60.15C48.25 60.15 47.88 60.15 47.4 60.15C46.91 60.15 46.55 60.15 46.31 60.15C46.06 60.15 45.45 60.15 44.48 60.15C43.51 60.15 42.78 60.15 42.29 60.15C41.81 60.15 41.44 60.15 41.2 60.15C40.96 60.15 40.71 60.15 40.47 60.15C40.23 60.15 39.86 60.15 39.38 60.15C38.89 60.15 38.28 60.15 37.55 60.15C36.82 60.15 36.34 60.15 36.09 60.15C35.85 60.15 35.61 60.15 35.37 60.15C35.12 60.15 34.88 60.15 34.64 60.15C34.39 60.15 34.15 60.15 33.91 60.15C33.66 60.15 33.42 60.15 33.18 60.15C32.93 60.15 32.69 60.15 32.45 60.15C32.21 60.15 31.96 60.15 31.72 60.15C31.48 60.15 31.23 60.15 30.99 60.15C30.75 60.15 30.5 60.15 30.26 60.15C30.02 60.15 29.53 60.15 28.8 60.15C28.07 60.15 27.59 60.15 27.34 60.15C27.1 60.15 26.49 60.15 25.52 60.15C24.55 60.15 23.94 60.15 23.7 60.15C23.45 60.15 23.21 60.15 22.97 60.15C22.72 60.15 22.48 60.15 22.24 60.15C22 60.15 21.75 60.15 21.51 60.15C21.27 60.15 21.02 60.15 20.78 60.15C20.54 60.15 20.29 60.15 20.05 60.15C19.81 60.15 19.56 60.15 19.32 60.15C19.08 60.15 18.84 60.15 18.59 60.15C18.35 60.15 18.11 60.15 17.86 60.15C17.62 60.15 17.38 60.15 17.13 60.15C16.89 60.15 16.65 60.15 16.4 60.15C16.16 60.15 15.92 60.15 15.67 60.15C15.43 60.15 15.19 60.15 14.95 60.15C14.7 60.15 14.46 60.15 14.22 60.15" stroke="#232931" stroke-opacity="1.000000" stroke-width="50.000000"/>
	<path id="Форма 123" d="M2.91 58.69L4.37 58.69C5.34 58.69 5.95 58.69 6.19 58.69C6.44 58.69 6.68 58.69 6.92 58.69C7.17 58.69 7.41 58.69 7.65 58.69C7.9 58.69 8.14 58.69 8.38 58.69C8.63 58.69 9.11 58.69 9.84 58.69C10.57 58.69 11.06 58.69 11.3 58.69C11.54 58.69 11.79 58.69 12.03 58.69C12.27 58.69 12.64 58.69 13.12 58.69C13.61 58.69 13.97 58.69 14.22 58.69C14.46 58.69 14.7 58.69 14.95 58.69" stroke="#232931" stroke-opacity="1.000000" stroke-width="50.000000"/>
	<path id="Форма 124" d="M17.5 39L18.96 39C19.93 39 20.54 39 20.78 39C21.02 39 21.27 39 21.51 39C21.75 39 22.12 39 22.6 39C23.09 39 23.58 39 24.06 39C24.55 39 24.91 39 25.16 39C25.4 39 25.88 39 26.61 39C27.34 39 27.83 39 28.07 39C28.32 39 29.41 39 31.35 39C33.3 39 34.64 39 35.37 39C36.09 39 36.7 39 37.19 39C37.67 39 38.16 39 38.65 39C39.13 39 39.74 39 40.47 39C41.2 39 41.81 39 42.29 39C42.78 39 43.27 39 43.75 39C44.24 39 44.6 39 44.85 39C45.09 39 45.33 39 45.58 39C45.82 39 46.06 39 46.31 39C46.55 39 46.91 39 47.4 39C47.88 39 48.25 39 48.49 39C48.74 39 48.98 39 49.22 39C49.47 39 49.71 39 49.95 39C50.19 39 50.44 39 50.68 39C50.92 39 51.17 39 51.41 39C51.65 39 51.9 39 52.14 39C52.38 39 52.63 39 52.87 39C53.11 39 53.35 39 53.6 39C53.84 39 54.08 39 54.33 39C54.57 39 54.81 39 55.06 39C55.3 39 55.54 39 55.79 39" stroke="#232931" stroke-opacity="1.000000" stroke-width="50.000000"/>
	<path id="Форма 125" d="M27.71 26.6L29.17 26.6C30.14 26.6 30.87 26.6 31.35 26.6C31.84 26.6 32.21 26.6 32.45 26.6C32.69 26.6 33.06 26.6 33.54 26.6C34.03 26.6 34.39 26.6 34.64 26.6C34.88 26.6 35.12 26.6 35.37 26.6C35.61 26.6 35.97 26.6 36.46 26.6C36.95 26.6 37.31 26.6 37.55 26.6C37.8 26.6 38.04 26.6 38.28 26.6C38.53 26.6 38.77 26.6 39.01 26.6C39.26 26.6 39.5 26.6 39.74 26.6C39.98 26.6 40.47 26.6 41.2 26.6C41.93 26.6 42.78 26.6 43.75 26.6C44.73 26.6 45.33 26.6 45.58 26.6C45.82 26.6 46.18 26.6 46.67 26.6C47.16 26.6 47.52 26.6 47.76 26.6C48.01 26.6 48.25 26.6 48.49 26.6C48.74 26.6 48.98 26.6 49.22 26.6C49.47 26.6 49.71 26.6 49.95 26.6C50.19 26.6 50.44 26.6 50.68 26.6C50.92 26.6 51.17 26.6 51.41 26.6C51.65 26.6 51.9 26.6 52.14 26.6C52.38 26.6 52.63 26.6 52.87 26.6" stroke="#232931" stroke-opacity="1.000000" stroke-width="50.000000"/>
	<path id="Форма 126" d="M20.4 160.64L21.19 160.64C21.71 160.64 22.07 160.64 22.24 160.64C22.42 160.64 22.59 160.64 22.77 160.64C22.94 160.64 23.21 160.64 23.56 160.64C23.91 160.64 24.17 160.64 24.35 160.64C24.52 160.64 24.7 160.64 24.87 160.64C25.05 160.64 25.22 160.64 25.4 160.64" stroke="#232931" stroke-opacity="1.000000" stroke-width="50.000000"/>
	<path id="Форма 127" d="M42.4 157.64L43.03 157.64C43.45 157.64 43.8 157.64 44.08 157.64C44.36 157.64 44.57 157.64 44.71 157.64C44.85 157.64 44.99 157.64 45.14 157.64C45.28 157.64 45.42 157.64 45.56 157.64C45.7 157.64 45.84 157.64 45.98 157.64C46.12 157.64 46.26 157.64 46.4 157.64" stroke="#232931" stroke-opacity="1.000000" stroke-width="50.000000"/>
	<path id="Форма 128" d="M31.35 84.94L32.45 84.94C33.18 84.94 33.66 84.94 33.91 84.94C34.15 84.94 34.39 84.94 34.64 84.94C34.88 84.94 35.24 84.94 35.73 84.94C36.22 84.94 36.58 84.94 36.82 84.94C37.07 84.94 37.31 84.94 37.55 84.94C37.8 84.94 38.04 84.94 38.28 84.94" stroke="#FF203F" stroke-opacity="1.000000" stroke-width="50.000000"/>
	<path id="Форма 129" d="M32.08 125.05L33.54 125.05C34.51 125.05 35.24 125.05 35.73 125.05C36.22 125.05 36.58 125.05 36.82 125.05" stroke="#FF203F" stroke-opacity="1.000000" stroke-width="50.000000"/>
	<path id="Форма 130" d="M31.35 140.37L32.45 140.37C33.18 140.37 33.66 140.37 33.91 140.37C34.15 140.37 34.39 140.37 34.64 140.37C34.88 140.37 35.12 140.37 35.37 140.37C35.61 140.37 35.85 140.37 36.09 140.37" stroke="#FF203F" stroke-opacity="1.000000" stroke-width="50.000000"/>
	<path id="Форма 131" d="M0.72 142.56L1.82 142.56C2.55 142.56 3.03 142.56 3.28 142.56C3.52 142.56 3.76 142.56 4.01 142.56C4.25 142.56 4.49 142.56 4.74 142.56C4.98 142.56 5.22 142.56 5.46 142.56" stroke="#1E1F2E" stroke-opacity="1.000000" stroke-width="50.000000"/>
	<path id="Форма 132" d="M6.56 134.53L7.65 134.53C8.38 134.53 8.99 134.53 9.48 134.53C9.96 134.53 10.33 134.53 10.57 134.53C10.81 134.53 11.06 134.53 11.3 134.53C11.54 134.53 12.03 134.53 12.76 134.53C13.49 134.53 13.97 134.53 14.22 134.53C14.46 134.53 14.7 134.53 14.95 134.53C15.19 134.53 15.43 134.53 15.67 134.53C15.92 134.53 16.16 134.53 16.4 134.53C16.65 134.53 17.01 134.53 17.5 134.53C17.98 134.53 18.35 134.53 18.59 134.53" stroke="#1E1F2E" stroke-opacity="1.000000" stroke-width="50.000000"/>
	<path id="Форма 133" d="M30.63 132.35L29.17 132.35C28.19 132.35 27.59 132.35 27.34 132.35C27.1 132.35 26.86 132.35 26.61 132.35C26.37 132.35 26.01 132.35 25.52 132.35C25.03 132.35 24.67 132.35 24.43 132.35C24.18 132.35 23.94 132.35 23.7 132.35C23.45 132.35 23.21 132.35 22.97 132.35C22.72 132.35 22.12 132.35 21.14 132.35C20.17 132.35 19.44 132.35 18.96 132.35C18.47 132.35 18.11 132.35 17.86 132.35C17.62 132.35 17.38 132.35 17.13 132.35C16.89 132.35 16.65 132.35 16.4 132.35C16.16 132.35 15.92 132.35 15.67 132.35C15.43 132.35 15.19 132.35 14.95 132.35C14.7 132.35 14.46 132.35 14.22 132.35" stroke="#1E1F2E" stroke-opacity="1.000000" stroke-width="50.000000"/>
	<path id="Форма 134" d="M37.19 138.18L38.65 138.18C39.62 138.18 40.23 138.18 40.47 138.18C40.71 138.18 40.96 138.18 41.2 138.18C41.44 138.18 42.05 138.18 43.02 138.18C44 138.18 44.72 138.18 45.21 138.18" stroke="#1E1F2E" stroke-opacity="1.000000" stroke-width="50.000000"/>
	<path id="Форма 135" d="M64.17 135.26L62.71 135.26C61.74 135.26 61.01 135.26 60.53 135.26C60.04 135.26 59.67 135.26 59.43 135.26C59.19 135.26 58.95 135.26 58.7 135.26C58.46 135.26 58.09 135.26 57.61 135.26C57.12 135.26 56.76 135.26 56.51 135.26C56.27 135.26 56.03 135.26 55.79 135.26C55.54 135.26 55.3 135.26 55.06 135.26C54.81 135.26 54.57 135.26 54.33 135.26C54.08 135.26 53.84 135.26 53.6 135.26C53.35 135.26 53.11 135.26 52.87 135.26C52.63 135.26 52.26 135.26 51.77 135.26C51.29 135.26 50.92 135.26 50.68 135.26C50.44 135.26 50.07 135.26 49.59 135.26C49.1 135.26 48.74 135.26 48.49 135.26C48.25 135.26 48.01 135.26 47.76 135.26C47.52 135.26 47.28 135.26 47.03 135.26C46.79 135.26 46.55 135.26 46.31 135.26C46.06 135.26 45.82 135.26 45.58 135.26C45.33 135.26 45.09 135.26 44.85 135.26C44.6 135.26 44.36 135.26 44.12 135.26C43.87 135.26 43.63 135.26 43.39 135.26" stroke="#1E1F2E" stroke-opacity="1.000000" stroke-width="50.000000"/>
	<path id="Форма 136" d="M64.4 141.64L62.68 141.64C61.54 141.64 60.83 141.64 60.54 141.64C60.26 141.64 59.54 141.64 58.4 141.64C57.26 141.64 56.54 141.64 56.26 141.64C55.97 141.64 55.68 141.64 55.4 141.64" stroke="#1E1F2E" stroke-opacity="1.000000" stroke-width="50.000000"/>
	<path id="Форма 137" d="M0 135.99L1.45 135.99C2.43 135.99 3.03 135.99 3.28 135.99C3.52 135.99 3.76 135.99 4.01 135.99C4.25 135.99 4.49 135.99 4.74 135.99C4.98 135.99 5.22 135.99 5.46 135.99C5.71 135.99 5.95 135.99 6.19 135.99C6.44 135.99 7.04 135.99 8.02 135.99C8.99 135.99 9.72 135.99 10.21 135.99" stroke="#1E1F2E" stroke-opacity="1.000000" stroke-width="50.000000"/>
	<path id="Форма 138" d="M1.45 102.45L3.28 102.45C4.49 102.45 5.22 102.45 5.46 102.45C5.71 102.45 5.95 102.45 6.19 102.45C6.44 102.45 6.8 102.45 7.29 102.45C7.77 102.45 8.14 102.45 8.38 102.45C8.63 102.45 8.87 102.45 9.11 102.45C9.35 102.45 9.72 102.45 10.21 102.45" stroke="#1E1F2E" stroke-opacity="1.000000" stroke-width="50.000000"/>
	<path id="Форма 139" d="M67.09 100.99L66 100.99C65.27 100.99 64.78 100.99 64.54 100.99C64.29 100.99 64.05 100.99 63.81 100.99C63.56 100.99 63.32 100.99 63.08 100.99C62.84 100.99 62.47 100.99 61.98 100.99C61.5 100.99 60.77 100.99 59.8 100.99C58.82 100.99 58.09 100.99 57.61 100.99C57.12 100.99 56.64 100.99 56.15 100.99C55.66 100.99 55.3 100.99 55.06 100.99C54.81 100.99 53.72 100.99 51.77 100.99C49.83 100.99 48.74 100.99 48.49 100.99C48.25 100.99 48.01 100.99 47.76 100.99C47.52 100.99 47.28 100.99 47.03 100.99" stroke="#1E1F2E" stroke-opacity="1.000000" stroke-width="50.000000"/>
	<path id="Форма 140" d="M12.39 98.8L13.49 98.8C14.22 98.8 14.7 98.8 14.95 98.8C15.19 98.8 15.55 98.8 16.04 98.8" stroke="#1E1F2E" stroke-opacity="1.000000" stroke-width="50.000000"/>
	<path id="Форма 141" d="M50.32 96.61L49.22 96.61C48.49 96.61 48.01 96.61 47.76 96.61C47.52 96.61 47.28 96.61 47.03 96.61C46.79 96.61 46.55 96.61 46.31 96.61C46.06 96.61 45.7 96.61 45.21 96.61C44.72 96.61 44.24 96.61 43.75 96.61C43.27 96.61 42.78 96.61 42.29 96.61C41.81 96.61 41.32 96.61 40.84 96.61C40.35 96.61 39.98 96.61 39.74 96.61C39.5 96.61 39.13 96.61 38.65 96.61C38.16 96.61 37.8 96.61 37.55 96.61" stroke="#1E1F2E" stroke-opacity="1.000000" stroke-width="50.000000"/>
	<path id="Форма 142" d="M18.96 91.51L20.42 91.51C21.39 91.51 22.12 91.51 22.6 91.51C23.09 91.51 23.45 91.51 23.7 91.51C23.94 91.51 24.18 91.51 24.43 91.51C24.67 91.51 25.03 91.51 25.52 91.51C26.01 91.51 26.49 91.51 26.98 91.51C27.47 91.51 27.83 91.51 28.07 91.51C28.32 91.51 28.8 91.51 29.53 91.51C30.26 91.51 30.87 91.51 31.35 91.51" stroke="#1E1F2E" stroke-opacity="1.000000" stroke-width="50.000000"/>
	<path id="Форма 143" d="M4.37 70.36L5.46 70.36C6.19 70.36 6.68 70.36 6.92 70.36C7.17 70.36 7.41 70.36 7.65 70.36C7.9 70.36 8.14 70.36 8.38 70.36C8.62 70.36 8.99 70.36 9.48 70.36C9.96 70.36 10.45 70.36 10.93 70.36C11.42 70.36 11.79 70.36 12.03 70.36C12.27 70.36 12.51 70.36 12.76 70.36C13 70.36 13.24 70.36 13.49 70.36C13.73 70.36 13.97 70.36 14.22 70.36" stroke="#1E1F2E" stroke-opacity="1.000000" stroke-width="50.000000"/>
	<path id="Форма 144" d="M0.72 59.42L2.18 59.42C3.16 59.42 3.76 59.42 4.01 59.42C4.25 59.42 4.61 59.42 5.1 59.42C5.59 59.42 5.95 59.42 6.19 59.42C6.44 59.42 6.68 59.42 6.92 59.42C7.17 59.42 7.41 59.42 7.65 59.42C7.9 59.42 8.14 59.42 8.38 59.42C8.62 59.42 8.87 59.42 9.11 59.42C9.35 59.42 9.6 59.42 9.84 59.42" stroke="#1E1F2E" stroke-opacity="1.000000" stroke-width="50.000000"/>
	<path id="Форма 145" d="M52.5 67.44L53.96 67.44C54.93 67.44 55.54 67.44 55.79 67.44C56.03 67.44 56.39 67.44 56.88 67.44C57.37 67.44 57.73 67.44 57.97 67.44C58.22 67.44 58.58 67.44 59.07 67.44C59.55 67.44 60.04 67.44 60.53 67.44C61.01 67.44 61.5 67.44 61.98 67.44" stroke="#1E1F2E" stroke-opacity="1.000000" stroke-width="50.000000"/>
	<path id="Форма 146" d="M67.82 66.71L66.36 66.71C65.39 66.71 64.78 66.71 64.54 66.71C64.29 66.71 64.05 66.71 63.81 66.71C63.56 66.71 63.2 66.71 62.71 66.71C62.23 66.71 61.86 66.71 61.62 66.71C61.38 66.71 61.01 66.71 60.53 66.71C60.04 66.71 59.67 66.71 59.43 66.71C59.19 66.71 58.95 66.71 58.7 66.71" stroke="#1E1F2E" stroke-opacity="1.000000" stroke-width="50.000000"/>
	<path id="Форма 147" d="M23.33 71.82L22.24 71.82C21.51 71.82 21.02 71.82 20.78 71.82C20.54 71.82 20.29 71.82 20.05 71.82C19.81 71.82 19.44 71.82 18.96 71.82C18.47 71.82 18.11 71.82 17.86 71.82C17.62 71.82 17.25 71.82 16.77 71.82C16.28 71.82 15.92 71.82 15.67 71.82C15.43 71.82 15.19 71.82 14.95 71.82" stroke="#1E1F2E" stroke-opacity="1.000000" stroke-width="50.000000"/>
	<path id="Форма 148" d="M50.32 76.92L49.22 76.92C48.49 76.92 48.01 76.92 47.76 76.92C47.52 76.92 47.28 76.92 47.03 76.92C46.79 76.92 46.55 76.92 46.31 76.92C46.06 76.92 45.82 76.92 45.58 76.92C45.33 76.92 44.97 76.92 44.48 76.92C44 76.92 43.63 76.92 43.39 76.92C43.14 76.92 42.9 76.92 42.66 76.92" stroke="#1E1F2E" stroke-opacity="1.000000" stroke-width="50.000000"/>
	<path id="Форма 149" d="M55.42 67.44L53.96 67.44C52.99 67.44 52.38 67.44 52.14 67.44C51.9 67.44 51.65 67.44 51.41 67.44C51.17 67.44 50.92 67.44 50.68 67.44C50.44 67.44 50.19 67.44 49.95 67.44" stroke="#1E1F2E" stroke-opacity="1.000000" stroke-width="50.000000"/>
	<path id="Форма 150" d="M29.17 21.5L30.63 21.5C31.6 21.5 32.21 21.5 32.45 21.5C32.69 21.5 32.93 21.5 33.18 21.5C33.42 21.5 33.66 21.5 33.91 21.5C34.15 21.5 34.39 21.5 34.64 21.5C34.88 21.5 35.12 21.5 35.37 21.5C35.61 21.5 36.09 21.5 36.82 21.5C37.55 21.5 38.04 21.5 38.28 21.5C38.53 21.5 38.77 21.5 39.01 21.5C39.25 21.5 39.62 21.5 40.11 21.5C40.59 21.5 41.2 21.5 41.93 21.5C42.66 21.5 43.27 21.5 43.75 21.5C44.24 21.5 44.6 21.5 44.85 21.5C45.09 21.5 45.33 21.5 45.58 21.5C45.82 21.5 46.06 21.5 46.3 21.5C46.55 21.5 46.79 21.5 47.03 21.5C47.28 21.5 47.52 21.5 47.76 21.5C48.01 21.5 48.25 21.5 48.49 21.5C48.74 21.5 48.98 21.5 49.22 21.5C49.47 21.5 49.71 21.5 49.95 21.5" stroke="#1E1F2E" stroke-opacity="1.000000" stroke-width="43.000000"/>
	<path id="Форма 151" d="M39.38 22.95L40.47 22.95C41.2 22.95 41.69 22.95 41.93 22.95C42.17 22.95 42.42 22.95 42.66 22.95C42.9 22.95 43.14 22.95 43.39 22.95C43.63 22.95 43.87 22.95 44.12 22.95" stroke="#FF203F" stroke-opacity="1.000000" stroke-width="29.000000"/>
</svg>
