<svg width="84.635254" height="180.439697" viewBox="0 0 84.6353 180.44" fill="none" xmlns="http://www.w3.org/2000/svg" xmlns:xlink="http://www.w3.org/1999/xlink">
	<desc>
			Created with Pixso.
	</desc>
	<defs/>
	<path id="Форма 152" d="M24.5 153.98L25.07 153.98C25.44 153.98 25.69 153.98 25.82 153.98C25.95 153.98 26.07 153.98 26.2 153.98C26.32 153.98 26.51 153.98 26.76 153.98C27.01 153.98 27.2 153.98 27.33 153.98C27.45 153.98 27.64 153.98 27.89 153.98C28.14 153.98 28.46 153.98 28.84 153.98C29.21 153.98 29.59 153.98 29.97 153.98C30.34 153.98 30.59 153.98 30.72 153.98C30.85 153.98 31.03 153.98 31.29 153.98C31.54 153.98 31.73 153.98 31.85 153.98C31.98 153.98 32.1 153.98 32.23 153.98C32.35 153.98 32.48 153.98 32.61 153.98C32.73 153.98 32.86 153.98 32.98 153.98C33.11 153.98 33.3 153.98 33.55 153.98" stroke="#FF203F" stroke-opacity="1.000000" stroke-width="29.000000"/>
	<path id="Форма 153" d="M32.42 143.43L33.17 143.43C33.67 143.43 34.05 143.43 34.3 143.43C34.55 143.43 34.74 143.43 34.87 143.43C34.99 143.43 35.24 143.43 35.62 143.43C36 143.43 36.25 143.43 36.37 143.43C36.5 143.43 36.69 143.43 36.94 143.43C37.19 143.43 37.38 143.43 37.51 143.43C37.63 143.43 37.82 143.43 38.07 143.43" stroke="#FF203F" stroke-opacity="1.000000" stroke-width="29.000000"/>
	<path id="Форма 154" d="M39.58 154.74L41.84 154.74C43.35 154.74 44.29 154.74 44.67 154.74C45.05 154.74 45.3 154.74 45.42 154.74C45.55 154.74 45.67 154.74 45.8 154.74C45.93 154.74 46.05 154.74 46.18 154.74" stroke="#FF203F" stroke-opacity="1.000000" stroke-width="29.000000"/>
	<path id="Форма 155" d="M58.05 146.44L57.49 146.44C57.11 146.44 56.8 146.44 56.54 146.44C56.29 146.44 56.1 146.44 55.98 146.44C55.85 146.44 55.73 146.44 55.6 146.44C55.48 146.44 55.29 146.44 55.04 146.44C54.78 146.44 54.47 146.44 54.09 146.44C53.72 146.44 53.47 146.44 53.34 146.44C53.21 146.44 53.09 146.44 52.96 146.44C52.84 146.44 52.71 146.44 52.59 146.44C52.46 146.44 52.33 146.44 52.21 146.44C52.08 146.44 51.96 146.44 51.83 146.44C51.71 146.44 51.58 146.44 51.45 146.44C51.33 146.44 51.14 146.44 50.89 146.44C50.64 146.44 50.45 146.44 50.32 146.44C50.2 146.44 50.07 146.44 49.95 146.44C49.82 146.44 49.7 146.44 49.57 146.44C49.44 146.44 49.32 146.44 49.19 146.44" stroke="#FF203F" stroke-opacity="1.000000" stroke-width="29.000000"/>
	<path id="Форма 156" d="M52.4 161.14L51.64 161.14C51.14 161.14 50.76 161.14 50.51 161.14C50.26 161.14 50.01 161.14 49.76 161.14C49.51 161.14 49.26 161.14 49 161.14C48.75 161.14 48.56 161.14 48.44 161.14C48.31 161.14 48.19 161.14 48.06 161.14C47.94 161.14 47.81 161.14 47.68 161.14C47.56 161.14 47.31 161.14 46.93 161.14C46.55 161.14 46.24 161.14 45.99 161.14" stroke="#FF203F" stroke-opacity="1.000000" stroke-width="29.000000"/>
	<path id="Форма 157" d="M34.3 158.51L35.06 158.51C35.56 158.51 35.87 158.51 36 158.51C36.12 158.51 36.25 158.51 36.37 158.51C36.5 158.51 36.63 158.51 36.75 158.51C36.88 158.51 37.13 158.51 37.51 158.51" stroke="#FF203F" stroke-opacity="1.000000" stroke-width="29.000000"/>
	<path id="Форма 158" d="M61.82 153.98L61.07 153.98C60.57 153.98 60.25 153.98 60.13 153.98C60 153.98 59.81 153.98 59.56 153.98C59.31 153.98 59.12 153.98 58.99 153.98C58.87 153.98 58.68 153.98 58.43 153.98C58.18 153.98 57.99 153.98 57.86 153.98C57.74 153.98 57.61 153.98 57.49 153.98C57.36 153.98 57.24 153.98 57.11 153.98C56.98 153.98 56.8 153.98 56.54 153.98C56.29 153.98 56.1 153.98 55.98 153.98C55.85 153.98 55.66 153.98 55.41 153.98C55.16 153.98 54.97 153.98 54.85 153.98" stroke="#FB6800" stroke-opacity="1.000000" stroke-width="29.000000"/>
	<path id="Форма 159" d="M70.49 147.2L69.55 147.2C68.92 147.2 68.48 147.2 68.23 147.2C67.98 147.2 67.73 147.2 67.48 147.2C67.23 147.2 66.97 147.2 66.72 147.2C66.47 147.2 66.16 147.2 65.78 147.2C65.4 147.2 65.09 147.2 64.84 147.2C64.59 147.2 64.4 147.2 64.27 147.2C64.15 147.2 64.02 147.2 63.9 147.2C63.77 147.2 63.64 147.2 63.52 147.2C63.39 147.2 63.27 147.2 63.14 147.2C63.02 147.2 62.89 147.2 62.76 147.2C62.64 147.2 62.39 147.2 62.01 147.2" stroke="#FB6800" stroke-opacity="1.000000" stroke-width="29.000000"/>
	<path id="Форма 160" d="M75.39 141.54L74.26 141.54C73.51 141.54 73.01 141.54 72.75 141.54C72.5 141.54 72.25 141.54 72 141.54C71.75 141.54 71.5 141.54 71.25 141.54C71 141.54 70.81 141.54 70.68 141.54C70.56 141.54 70.37 141.54 70.12 141.54C69.86 141.54 69.68 141.54 69.55 141.54C69.42 141.54 69.11 141.54 68.61 141.54C68.11 141.54 67.79 141.54 67.67 141.54" stroke="#FB6800" stroke-opacity="1.000000" stroke-width="29.000000"/>
	<path id="Форма 161" d="M32.79 133.63L32.04 133.63C31.54 133.63 31.16 133.63 30.91 133.63C30.66 133.63 30.41 133.63 30.15 133.63C29.9 133.63 29.59 133.63 29.21 133.63C28.84 133.63 28.46 133.63 28.08 133.63C27.7 133.63 27.39 133.63 27.14 133.63C26.89 133.63 26.7 133.63 26.57 133.63C26.45 133.63 26.26 133.63 26.01 133.63C25.76 133.63 25.57 133.63 25.44 133.63C25.32 133.63 25.13 133.63 24.88 133.63C24.63 133.63 24.44 133.63 24.31 133.63C24.19 133.63 24.06 133.63 23.93 133.63" stroke="#FB6800" stroke-opacity="1.000000" stroke-width="29.000000"/>
	<path id="Форма 162" d="M18.47 140.41L19.22 140.41C19.72 140.41 20.1 140.41 20.35 140.41C20.6 140.41 20.79 140.41 20.92 140.41C21.04 140.41 21.23 140.41 21.48 140.41C21.74 140.41 21.92 140.41 22.05 140.41C22.17 140.41 22.3 140.41 22.43 140.41C22.55 140.41 22.68 140.41 22.8 140.41" stroke="#FB6800" stroke-opacity="1.000000" stroke-width="29.000000"/>
	<path id="Форма 163" d="M16.21 135.89L17.15 135.89C17.78 135.89 18.15 135.89 18.28 135.89C18.41 135.89 18.53 135.89 18.66 135.89C18.78 135.89 18.91 135.89 19.03 135.89C19.16 135.89 19.28 135.89 19.41 135.89C19.54 135.89 19.66 135.89 19.79 135.89C19.91 135.89 20.04 135.89 20.16 135.89" stroke="#FB6800" stroke-opacity="1.000000" stroke-width="29.000000"/>
	<path id="Форма 164" d="M13.19 132.12L13.76 132.12C14.13 132.12 14.38 132.12 14.51 132.12C14.64 132.12 14.76 132.12 14.89 132.12C15.01 132.12 15.26 132.12 15.64 132.12C16.02 132.12 16.39 132.12 16.77 132.12C17.15 132.12 17.59 132.12 18.09 132.12C18.59 132.12 18.91 132.12 19.03 132.12C19.16 132.12 19.47 132.12 19.98 132.12C20.48 132.12 20.79 132.12 20.92 132.12" stroke="#FB6800" stroke-opacity="1.000000" stroke-width="29.000000"/>
	<path id="Форма 165" d="M7.54 109.87L8.1 109.87C8.48 109.87 8.73 109.87 8.85 109.87C8.98 109.87 9.17 109.87 9.42 109.87C9.67 109.87 9.92 109.87 10.17 109.87C10.43 109.87 10.74 109.87 11.12 109.87C11.49 109.87 11.74 109.87 11.87 109.87C12 109.87 12.18 109.87 12.44 109.87C12.69 109.87 12.88 109.87 13 109.87C13.13 109.87 13.32 109.87 13.57 109.87C13.82 109.87 14.01 109.87 14.13 109.87C14.26 109.87 14.38 109.87 14.51 109.87C14.64 109.87 14.76 109.87 14.89 109.87" stroke="#FB6800" stroke-opacity="1.000000" stroke-width="29.000000"/>
	<path id="Форма 166" d="M21.48 105.35L20.54 105.35C19.91 105.35 19.54 105.35 19.41 105.35C19.28 105.35 19.1 105.35 18.84 105.35C18.59 105.35 18.34 105.35 18.09 105.35C17.84 105.35 17.59 105.35 17.34 105.35C17.09 105.35 16.83 105.35 16.58 105.35C16.33 105.35 16.14 105.35 16.02 105.35" stroke="#FB6800" stroke-opacity="1.000000" stroke-width="29.000000"/>
	<path id="Форма 167" d="M20.35 93.29L19.79 93.29C19.41 93.29 19.16 93.29 19.03 93.29C18.91 93.29 18.78 93.29 18.66 93.29C18.53 93.29 18.41 93.29 18.28 93.29C18.15 93.29 18.03 93.29 17.9 93.29C17.78 93.29 17.65 93.29 17.53 93.29C17.4 93.29 17.15 93.29 16.77 93.29C16.39 93.29 16.14 93.29 16.02 93.29C15.89 93.29 15.77 93.29 15.64 93.29" stroke="#FB6800" stroke-opacity="1.000000" stroke-width="29.000000"/>
	<path id="Форма 168" d="M14.7 95.55L15.26 95.55C15.64 95.55 15.89 95.55 16.02 95.55" stroke="#FB6800" stroke-opacity="1.000000" stroke-width="29.000000"/>
	<path id="Форма 169" d="M33.55 136.64L34.11 136.64C34.49 136.64 34.74 136.64 34.87 136.64C34.99 136.64 35.12 136.64 35.24 136.64C35.37 136.64 35.56 136.64 35.81 136.64C36.06 136.64 36.31 136.64 36.56 136.64C36.81 136.64 37.13 136.64 37.51 136.64C37.88 136.64 38.2 136.64 38.45 136.64C38.7 136.64 38.95 136.64 39.2 136.64C39.45 136.64 40.02 136.64 40.9 136.64C41.78 136.64 42.28 136.64 42.41 136.64C42.53 136.64 42.66 136.64 42.78 136.64" stroke="#FB6800" stroke-opacity="1.000000" stroke-width="29.000000"/>
	<path id="Форма 170" d="M49.38 134L48.63 134C48.12 134 47.81 134 47.68 134C47.56 134 47.37 134 47.12 134C46.87 134 46.68 134 46.55 134C46.43 134 46.18 134 45.8 134C45.42 134 45.11 134 44.86 134C44.61 134 44.35 134 44.1 134C43.85 134 43.66 134 43.54 134" stroke="#FB6800" stroke-opacity="1.000000" stroke-width="29.000000"/>
	<path id="Форма 171" d="M70.12 123.82L69.36 123.82C68.86 123.82 68.48 123.82 68.23 123.82C67.98 123.82 67.79 123.82 67.67 123.82C67.54 123.82 67.35 123.82 67.1 123.82C66.85 123.82 66.53 123.82 66.16 123.82C65.78 123.82 65.47 123.82 65.22 123.82C64.96 123.82 64.71 123.82 64.46 123.82" stroke="#E98939" stroke-opacity="1.000000" stroke-width="29.000000"/>
	<path id="Форма 172" d="M62.95 128.35L62.39 128.35C62.01 128.35 61.7 128.35 61.45 128.35C61.19 128.35 60.94 128.35 60.69 128.35C60.44 128.35 60.19 128.35 59.94 128.35C59.69 128.35 59.43 128.35 59.18 128.35C58.93 128.35 58.68 128.35 58.43 128.35C58.18 128.35 57.93 128.35 57.68 128.35C57.42 128.35 57.17 128.35 56.92 128.35C56.67 128.35 56.48 128.35 56.36 128.35C56.23 128.35 55.79 128.35 55.04 128.35" stroke="#E98939" stroke-opacity="1.000000" stroke-width="29.000000"/>
	<path id="Форма 173" d="M56.54 120.43L55.79 120.43C55.29 120.43 54.97 120.43 54.85 120.43C54.72 120.43 54.6 120.43 54.47 120.43C54.34 120.43 54.09 120.43 53.72 120.43C53.34 120.43 52.96 120.43 52.59 120.43C52.21 120.43 51.71 120.43 51.08 120.43C50.45 120.43 49.82 120.43 49.19 120.43C48.56 120.43 48.19 120.43 48.06 120.43C47.94 120.43 47.81 120.43 47.68 120.43C47.56 120.43 47.37 120.43 47.12 120.43" stroke="#E98939" stroke-opacity="1.000000" stroke-width="29.000000"/>
	<path id="Форма 174" d="M58.43 111.38L57.68 111.38C57.17 111.38 56.86 111.38 56.73 111.38C56.61 111.38 56.42 111.38 56.17 111.38C55.92 111.38 55.54 111.38 55.04 111.38C54.53 111.38 54.03 111.38 53.53 111.38C53.03 111.38 52.65 111.38 52.4 111.38C52.15 111.38 51.83 111.38 51.45 111.38C51.08 111.38 50.7 111.38 50.32 111.38C49.95 111.38 49.63 111.38 49.38 111.38C49.13 111.38 48.88 111.38 48.63 111.38C48.38 111.38 48.12 111.38 47.87 111.38C47.62 111.38 47.31 111.38 46.93 111.38C46.55 111.38 46.11 111.38 45.61 111.38C45.11 111.38 44.73 111.38 44.48 111.38C44.23 111.38 44.04 111.38 43.91 111.38C43.79 111.38 43.66 111.38 43.54 111.38" stroke="#E98939" stroke-opacity="1.000000" stroke-width="29.000000"/>
	<path id="Форма 175" d="M44.86 108.37L43.91 108.37C43.29 108.37 42.91 108.37 42.78 108.37C42.66 108.37 42.47 108.37 42.22 108.37C41.97 108.37 41.59 108.37 41.09 108.37C40.58 108.37 39.96 108.37 39.2 108.37C38.45 108.37 37.82 108.37 37.32 108.37C36.81 108.37 36.38 108.37 36 108.37C35.62 108.37 35.12 108.37 34.49 108.37C33.86 108.37 33.42 108.37 33.17 108.37C32.92 108.37 32.67 108.37 32.42 108.37C32.17 108.37 31.98 108.37 31.85 108.37C31.73 108.37 31.6 108.37 31.47 108.37C31.35 108.37 31.22 108.37 31.1 108.37" stroke="#E98939" stroke-opacity="1.000000" stroke-width="29.000000"/>
	<path id="Форма 176" d="M32.79 103.47L32.23 103.47C31.85 103.47 31.54 103.47 31.29 103.47C31.03 103.47 30.78 103.47 30.53 103.47C30.28 103.47 30.09 103.47 29.97 103.47C29.84 103.47 29.59 103.47 29.21 103.47C28.84 103.47 28.4 103.47 27.89 103.47C27.39 103.47 27.01 103.47 26.76 103.47C26.51 103.47 26.2 103.47 25.82 103.47C25.44 103.47 25.13 103.47 24.88 103.47C24.63 103.47 24.44 103.47 24.31 103.47C24.19 103.47 24.06 103.47 23.93 103.47C23.81 103.47 23.62 103.47 23.37 103.47C23.12 103.47 22.87 103.47 22.61 103.47" stroke="#E98939" stroke-opacity="1.000000" stroke-width="29.000000"/>
	<path id="Форма 177" d="M21.86 92.53L22.43 92.53C22.8 92.53 23.12 92.53 23.37 92.53C23.62 92.53 23.81 92.53 23.93 92.53C24.06 92.53 24.19 92.53 24.31 92.53C24.44 92.53 24.69 92.53 25.07 92.53C25.44 92.53 25.69 92.53 25.82 92.53C25.95 92.53 26.2 92.53 26.57 92.53C26.95 92.53 27.39 92.53 27.89 92.53C28.4 92.53 28.84 92.53 29.21 92.53" stroke="#E98939" stroke-opacity="1.000000" stroke-width="29.000000"/>
	<path id="Форма 178" d="M21.48 78.96L22.05 78.96C22.43 78.96 22.68 78.96 22.8 78.96C22.93 78.96 23.12 78.96 23.37 78.96C23.62 78.96 23.87 78.96 24.12 78.96C24.37 78.96 24.69 78.96 25.07 78.96C25.44 78.96 25.76 78.96 26.01 78.96C26.26 78.96 26.64 78.96 27.14 78.96C27.64 78.96 28.08 78.96 28.46 78.96C28.84 78.96 29.09 78.96 29.21 78.96C29.34 78.96 29.53 78.96 29.78 78.96" stroke="#E98939" stroke-opacity="1.000000" stroke-width="29.000000"/>
	<path id="Форма 179" d="M29.02 67.27L29.59 67.27C29.97 67.27 30.22 67.27 30.34 67.27C30.47 67.27 30.59 67.27 30.72 67.27C30.85 67.27 31.1 67.27 31.47 67.27C31.85 67.27 32.23 67.27 32.61 67.27C32.98 67.27 33.36 67.27 33.74 67.27C34.11 67.27 34.49 67.27 34.87 67.27C35.24 67.27 35.62 67.27 36 67.27C36.38 67.27 36.75 67.27 37.13 67.27C37.51 67.27 37.76 67.27 37.88 67.27C38.01 67.27 38.13 67.27 38.26 67.27C38.39 67.27 38.51 67.27 38.64 67.27C38.76 67.27 38.89 67.27 39.01 67.27" stroke="#E98939" stroke-opacity="1.000000" stroke-width="29.000000"/>
	<path id="Форма 180" d="M36.56 56.72L37.32 56.72C37.82 56.72 38.2 56.72 38.45 56.72C38.7 56.72 38.95 56.72 39.2 56.72C39.45 56.72 39.71 56.72 39.96 56.72C40.21 56.72 40.52 56.72 40.9 56.72C41.28 56.72 41.65 56.72 42.03 56.72C42.41 56.72 42.66 56.72 42.78 56.72" stroke="#E98939" stroke-opacity="1.000000" stroke-width="29.000000"/>
	<path id="Форма 181" d="M43.35 49.93L43.92 49.93C44.29 49.93 44.61 49.93 44.86 49.93C45.11 49.93 45.36 49.93 45.61 49.93C45.86 49.93 46.05 49.93 46.18 49.93C46.3 49.93 46.55 49.93 46.93 49.93C47.31 49.93 47.68 49.93 48.06 49.93C48.44 49.93 48.75 49.93 49 49.93C49.26 49.93 49.51 49.93 49.76 49.93C50.01 49.93 50.26 49.93 50.51 49.93C50.76 49.93 51.08 49.93 51.46 49.93C51.83 49.93 52.15 49.93 52.4 49.93" stroke="#E98939" stroke-opacity="1.000000" stroke-width="29.000000"/>
	<path id="Форма 182" d="M52.02 40.51L52.59 40.51C52.96 40.51 53.28 40.51 53.53 40.51C53.78 40.51 54.03 40.51 54.28 40.51C54.53 40.51 54.78 40.51 55.04 40.51C55.29 40.51 55.54 40.51 55.79 40.51C56.04 40.51 56.29 40.51 56.54 40.51C56.8 40.51 57.05 40.51 57.3 40.51C57.55 40.51 57.8 40.51 58.05 40.51" stroke="#E98939" stroke-opacity="1.000000" stroke-width="29.000000"/>
	<path id="Форма 183" d="M64.46 40.13L63.71 40.13C63.2 40.13 62.89 40.13 62.76 40.13C62.64 40.13 62.45 40.13 62.2 40.13C61.95 40.13 61.63 40.13 61.26 40.13C60.88 40.13 60.5 40.13 60.13 40.13C59.75 40.13 59.5 40.13 59.37 40.13" stroke="#E98939" stroke-opacity="1.000000" stroke-width="29.000000"/>
	<path id="Форма 184" d="M60.31 54.83L59.75 54.83C59.37 54.83 59.06 54.83 58.81 54.83C58.55 54.83 58.3 54.83 58.05 54.83C57.8 54.83 57.42 54.83 56.92 54.83C56.42 54.83 55.98 54.83 55.6 54.83C55.22 54.83 54.91 54.83 54.66 54.83C54.41 54.83 54.16 54.83 53.91 54.83C53.65 54.83 53.47 54.83 53.34 54.83C53.21 54.83 53.03 54.83 52.77 54.83C52.52 54.83 52.33 54.83 52.21 54.83C52.08 54.83 51.89 54.83 51.64 54.83C51.39 54.83 51.2 54.83 51.08 54.83" stroke="#E98939" stroke-opacity="1.000000" stroke-width="29.000000"/>
	<path id="Форма 185" d="M54.28 75.94L53.34 75.94C52.71 75.94 52.27 75.94 52.02 75.94C51.77 75.94 51.46 75.94 51.08 75.94C50.7 75.94 50.2 75.94 49.57 75.94C48.94 75.94 48.31 75.94 47.69 75.94C47.06 75.94 46.43 75.94 45.8 75.94C45.17 75.94 44.73 75.94 44.48 75.94C44.23 75.94 43.98 75.94 43.73 75.94C43.48 75.94 43.29 75.94 43.16 75.94" stroke="#E98939" stroke-opacity="1.000000" stroke-width="29.000000"/>
	<path id="Форма 186" d="M54.28 97.06L53.72 97.06C53.34 97.06 53.03 97.06 52.77 97.06C52.52 97.06 52.21 97.06 51.83 97.06C51.45 97.06 51.08 97.06 50.7 97.06C50.32 97.06 49.95 97.06 49.57 97.06C49.19 97.06 48.88 97.06 48.63 97.06C48.38 97.06 48 97.06 47.5 97.06C46.99 97.06 46.55 97.06 46.18 97.06C45.8 97.06 45.49 97.06 45.23 97.06C44.98 97.06 44.79 97.06 44.67 97.06" stroke="#E98939" stroke-opacity="1.000000" stroke-width="29.000000"/>
	<path id="Форма 187" d="M59.56 109.5L58.62 109.5C57.99 109.5 57.55 109.5 57.3 109.5C57.05 109.5 56.67 109.5 56.17 109.5C55.66 109.5 55.16 109.5 54.66 109.5C54.16 109.5 53.72 109.5 53.34 109.5C52.96 109.5 52.52 109.5 52.02 109.5C51.52 109.5 51.14 109.5 50.89 109.5C50.64 109.5 50.39 109.5 50.14 109.5C49.88 109.5 49.7 109.5 49.57 109.5C49.44 109.5 49.32 109.5 49.19 109.5" stroke="#E98939" stroke-opacity="1.000000" stroke-width="29.000000"/>
	<path id="Форма 188" d="M64.08 119.3L63.52 119.3C63.14 119.3 62.83 119.3 62.58 119.3C62.32 119.3 62.01 119.3 61.63 119.3C61.26 119.3 60.82 119.3 60.31 119.3C59.81 119.3 59.31 119.3 58.81 119.3C58.3 119.3 57.99 119.3 57.86 119.3C57.74 119.3 57.55 119.3 57.3 119.3C57.05 119.3 56.86 119.3 56.73 119.3C56.61 119.3 56.48 119.3 56.36 119.3C56.23 119.3 56.1 119.3 55.98 119.3" stroke="#E98939" stroke-opacity="1.000000" stroke-width="29.000000"/>
	<path id="Форма 189" d="M72 87.63L72.94 87.63C73.57 87.63 74.07 87.63 74.45 87.63C74.83 87.63 75.21 87.63 75.58 87.63C75.96 87.63 76.4 87.63 76.9 87.63C77.4 87.63 77.91 87.63 78.41 87.63C78.91 87.63 79.42 87.63 79.92 87.63C80.42 87.63 80.86 87.63 81.24 87.63C81.61 87.63 81.99 87.63 82.37 87.63C82.75 87.63 83 87.63 83.12 87.63" stroke="#E98939" stroke-opacity="1.000000" stroke-width="29.000000"/>
	<path id="Форма 190" d="M21.11 25.8L21.67 25.8C22.05 25.8 22.36 25.8 22.61 25.8C22.87 25.8 23.05 25.8 23.18 25.8C23.31 25.8 23.56 25.8 23.93 25.8C24.31 25.8 24.69 25.8 25.07 25.8C25.44 25.8 25.76 25.8 26.01 25.8C26.26 25.8 26.51 25.8 26.76 25.8C27.01 25.8 27.26 25.8 27.52 25.8C27.77 25.8 27.96 25.8 28.08 25.8C28.21 25.8 28.4 25.8 28.65 25.8C28.9 25.8 29.15 25.8 29.4 25.8" stroke="#E98939" stroke-opacity="1.000000" stroke-width="29.000000"/>
	<path id="Форма 191" d="M67.1 14.87L67.85 14.87C68.36 14.87 68.73 14.87 68.98 14.87C69.24 14.87 69.42 14.87 69.55 14.87C69.68 14.87 69.86 14.87 70.12 14.87C70.37 14.87 70.62 14.87 70.87 14.87C71.12 14.87 71.44 14.87 71.81 14.87C72.19 14.87 72.5 14.87 72.75 14.87" stroke="#E98939" stroke-opacity="1.000000" stroke-width="29.000000"/>
	<path id="Форма 192" d="M0 77.45L0.75 77.45C1.25 77.45 1.57 77.45 1.69 77.45C1.82 77.45 2.07 77.45 2.45 77.45C2.82 77.45 3.14 77.45 3.39 77.45C3.64 77.45 3.89 77.45 4.14 77.45C4.39 77.45 4.58 77.45 4.71 77.45C4.83 77.45 4.96 77.45 5.08 77.45C5.21 77.45 5.34 77.45 5.46 77.45C5.59 77.45 5.78 77.45 6.03 77.45" stroke="#E98939" stroke-opacity="1.000000" stroke-width="29.000000"/>
	<path id="Форма 193" d="M78.41 95.17L79.16 95.17C79.67 95.17 80.04 95.17 80.3 95.17C80.55 95.17 80.8 95.17 81.05 95.17C81.3 95.17 81.55 95.17 81.8 95.17C82.05 95.17 82.31 95.17 82.56 95.17C82.81 95.17 83.06 95.17 83.31 95.17C83.56 95.17 83.75 95.17 83.88 95.17C84 95.17 84.13 95.17 84.25 95.17C84.38 95.17 84.5 95.17 84.63 95.17" stroke="#FB6800" stroke-opacity="1.000000" stroke-width="29.000000"/>
	<path id="Форма 194" d="M6.03 71.8L4.9 71.8C4.14 71.8 3.64 71.8 3.39 71.8C3.14 71.8 2.89 71.8 2.63 71.8C2.38 71.8 2.13 71.8 1.88 71.8C1.63 71.8 1.44 71.8 1.31 71.8" stroke="#FB6800" stroke-opacity="1.000000" stroke-width="29.000000"/>
	<path id="Форма 195" d="M28.65 26.56L27.89 26.56C27.39 26.56 27.01 26.56 26.76 26.56C26.51 26.56 26.32 26.56 26.2 26.56C26.07 26.56 25.88 26.56 25.63 26.56C25.38 26.56 25.19 26.56 25.07 26.56" stroke="#FB6800" stroke-opacity="1.000000" stroke-width="29.000000"/>
	<path id="Форма 196" d="M69.36 14.5L70.12 14.5C70.62 14.5 71 14.5 71.25 14.5C71.5 14.5 71.69 14.5 71.81 14.5C71.94 14.5 72.06 14.5 72.19 14.5C72.32 14.5 72.5 14.5 72.76 14.5C73.01 14.5 73.19 14.5 73.32 14.5" stroke="#FB6800" stroke-opacity="1.000000" stroke-width="29.000000"/>
	<path id="Форма 197" d="M63.71 36.36L62.76 36.36C62.14 36.36 61.76 36.36 61.63 36.36C61.51 36.36 61.38 36.36 61.26 36.36C61.13 36.36 61.01 36.36 60.88 36.36" stroke="#FB6800" stroke-opacity="1.000000" stroke-width="29.000000"/>
	<path id="Форма 198" d="M57.3 34.85L57.86 34.85C58.24 34.85 58.49 34.85 58.62 34.85C58.74 34.85 58.93 34.85 59.18 34.85C59.43 34.85 59.62 34.85 59.75 34.85C59.87 34.85 60.06 34.85 60.31 34.85C60.57 34.85 60.75 34.85 60.88 34.85C61.01 34.85 61.32 34.85 61.82 34.85C62.32 34.85 62.64 34.85 62.76 34.85" stroke="#FB6800" stroke-opacity="1.000000" stroke-width="29.000000"/>
	<path id="Форма 199" d="M19.35 127.63L20.07 127.63C20.56 127.63 20.88 127.63 21.04 127.63C21.21 127.63 21.45 127.63 21.77 127.63C22.1 127.63 22.42 127.63 22.74 127.63C23.07 127.63 23.31 127.63 23.47 127.63C23.63 127.63 23.87 127.63 24.2 127.63C24.52 127.63 24.76 127.63 24.92 127.63C25.09 127.63 25.25 127.63 25.41 127.63C25.57 127.63 25.73 127.63 25.89 127.63C26.06 127.63 26.22 127.63 26.38 127.63C26.54 127.63 26.78 127.63 27.11 127.63" stroke="#FB6800" stroke-opacity="1.000000" stroke-width="29.000000"/>
	<path id="Форма 200" d="M31.96 138.29L32.68 138.29C33.17 138.29 33.49 138.29 33.65 138.29C33.81 138.29 33.98 138.29 34.14 138.29C34.3 138.29 34.54 138.29 34.86 138.29C35.19 138.29 35.43 138.29 35.59 138.29C35.75 138.29 36.24 138.29 37.05 138.29C37.86 138.29 38.34 138.29 38.5 138.29" stroke="#FB6800" stroke-opacity="1.000000" stroke-width="29.000000"/>
	<path id="Форма 201" d="M47.47 135.87L46.75 135.87C46.26 135.87 45.94 135.87 45.78 135.87C45.61 135.87 45.45 135.87 45.29 135.87C45.13 135.87 44.89 135.87 44.56 135.87C44.24 135.87 43.84 135.87 43.35 135.87C42.87 135.87 42.38 135.87 41.9 135.87C41.41 135.87 40.93 135.87 40.44 135.87C39.96 135.87 39.47 135.87 38.99 135.87" stroke="#FB6800" stroke-opacity="1.000000" stroke-width="29.000000"/>
	<path id="Форма 202" d="M22.26 110.17L21.53 110.17C21.04 110.17 20.56 110.17 20.07 110.17C19.59 110.17 19.1 110.17 18.62 110.17C18.13 110.17 17.57 110.17 16.92 110.17C16.28 110.17 15.71 110.17 15.23 110.17C14.74 110.17 14.26 110.17 13.77 110.17C13.29 110.17 12.96 110.17 12.8 110.17C12.64 110.17 12.48 110.17 12.32 110.17" stroke="#FB6800" stroke-opacity="1.000000" stroke-width="29.000000"/>
	<path id="Форма 203" d="M23.23 93.19L22.01 93.19C21.21 93.19 20.64 93.19 20.32 93.19C19.99 93.19 19.67 93.19 19.35 93.19C19.02 93.19 18.78 93.19 18.62 93.19" stroke="#FB6800" stroke-opacity="1.000000" stroke-width="29.000000"/>
	<path id="Форма 204" d="M57.17 153.33L57.9 153.33C58.38 153.33 58.79 153.33 59.11 153.33C59.44 153.33 59.76 153.33 60.08 153.33C60.41 153.33 60.89 153.33 61.54 153.33C62.18 153.33 62.83 153.33 63.48 153.33C64.12 153.33 64.85 153.33 65.66 153.33C66.47 153.33 67.11 153.33 67.6 153.33C68.08 153.33 68.49 153.33 68.81 153.33C69.13 153.33 69.38 153.33 69.54 153.33C69.7 153.33 69.86 153.33 70.02 153.33" stroke="#FB6800" stroke-opacity="1.000000" stroke-width="29.000000"/>
	<path id="Форма 205" d="M64.93 132.47L65.66 132.47C66.14 132.47 66.55 132.47 66.87 132.47C67.19 132.47 67.44 132.47 67.6 132.47C67.76 132.47 68 132.47 68.33 132.47C68.65 132.47 68.97 132.47 69.3 132.47C69.62 132.47 70.02 132.47 70.51 132.47C70.99 132.47 71.4 132.47 71.72 132.47C72.04 132.47 72.29 132.47 72.45 132.47" stroke="#FB6800" stroke-opacity="1.000000" stroke-width="29.000000"/>
	<path id="Форма 206" d="M62.02 55.85L61.05 55.85C60.41 55.85 60 55.85 59.84 55.85C59.68 55.85 59.52 55.85 59.35 55.85C59.19 55.85 59.03 55.85 58.87 55.85C58.71 55.85 58.47 55.85 58.14 55.85C57.82 55.85 57.58 55.85 57.41 55.85C57.25 55.85 56.93 55.85 56.45 55.85" stroke="#FB6800" stroke-opacity="1.000000" stroke-width="29.000000"/>
	<path id="Форма 207" d="M46.5 91.74L45.78 91.74C45.29 91.74 44.89 91.74 44.56 91.74C44.24 91.74 43.84 91.74 43.35 91.74C42.87 91.74 42.38 91.74 41.9 91.74C41.41 91.74 40.93 91.74 40.44 91.74C39.96 91.74 39.47 91.74 38.99 91.74C38.5 91.74 38.1 91.74 37.77 91.74C37.45 91.74 37.13 91.74 36.8 91.74C36.48 91.74 36.16 91.74 35.83 91.74C35.51 91.74 35.19 91.74 34.86 91.74C34.54 91.74 34.22 91.74 33.89 91.74C33.57 91.74 33.33 91.74 33.17 91.74C33.01 91.74 32.84 91.74 32.68 91.74" stroke="#E98939" stroke-opacity="1.000000" stroke-width="29.000000"/>
	<path id="Форма 208" d="M45.05 77.19L44.32 77.19C43.84 77.19 43.51 77.19 43.35 77.19C43.19 77.19 42.95 77.19 42.62 77.19C42.3 77.19 41.9 77.19 41.41 77.19C40.93 77.19 40.52 77.19 40.2 77.19C39.88 77.19 39.63 77.19 39.47 77.19C39.31 77.19 39.15 77.19 38.99 77.19C38.83 77.19 38.66 77.19 38.5 77.19C38.34 77.19 38.18 77.19 38.02 77.19C37.86 77.19 37.13 77.19 35.83 77.19" stroke="#E98939" stroke-opacity="1.000000" stroke-width="29.000000"/>
	<path id="Форма 209" d="M47.96 62.16L47.23 62.16C46.75 62.16 46.34 62.16 46.02 62.16C45.7 62.16 45.37 62.16 45.05 62.16C44.73 62.16 44.32 62.16 43.84 62.16C43.35 62.16 42.87 62.16 42.38 62.16C41.9 62.16 41.57 62.16 41.41 62.16C41.25 62.16 41.09 62.16 40.93 62.16C40.77 62.16 40.6 62.16 40.44 62.16C40.28 62.16 40.12 62.16 39.96 62.16" stroke="#E98939" stroke-opacity="1.000000" stroke-width="29.000000"/>
	<path id="Форма 210" d="M48.44 47.13L47.47 47.13C46.83 47.13 46.42 47.13 46.26 47.13C46.1 47.13 45.94 47.13 45.78 47.13C45.61 47.13 45.45 47.13 45.29 47.13C45.13 47.13 44.89 47.13 44.56 47.13C44.24 47.13 44 47.13 43.84 47.13C43.67 47.13 43.27 47.13 42.62 47.13" stroke="#E98939" stroke-opacity="1.000000" stroke-width="29.000000"/>
	<path id="Форма 211" d="M52.81 38.4L52.08 38.4C51.6 38.4 51.27 38.4 51.11 38.4C50.95 38.4 50.79 38.4 50.63 38.4C50.46 38.4 50.14 38.4 49.66 38.4C49.17 38.4 48.85 38.4 48.69 38.4C48.52 38.4 48.36 38.4 48.2 38.4" stroke="#E98939" stroke-opacity="1.000000" stroke-width="29.000000"/>
	<path id="Форма 212" d="M57.66 28.21L56.69 28.21C56.04 28.21 55.47 28.21 54.99 28.21C54.5 28.21 54.1 28.21 53.78 28.21C53.45 28.21 53.13 28.21 52.81 28.21C52.48 28.21 52.16 28.21 51.84 28.21C51.51 28.21 51.27 28.21 51.11 28.21C50.95 28.21 50.79 28.21 50.63 28.21" stroke="#E98939" stroke-opacity="1.000000" stroke-width="29.000000"/>
	<path id="Форма 213" d="M42.14 85.92L41.41 85.92C40.93 85.92 40.44 85.92 39.96 85.92C39.47 85.92 38.99 85.92 38.5 85.92C38.02 85.92 37.37 85.92 36.56 85.92C35.75 85.92 35.11 85.92 34.62 85.92C34.14 85.92 33.65 85.92 33.17 85.92C32.68 85.92 32.28 85.92 31.96 85.92C31.63 85.92 31.39 85.92 31.23 85.92C31.07 85.92 30.9 85.92 30.74 85.92" stroke="#E98939" stroke-opacity="1.000000" stroke-width="29.000000"/>
	<path id="Форма 214" d="M25.65 94.16L26.38 94.16C26.86 94.16 27.27 94.16 27.59 94.16C27.91 94.16 28.24 94.16 28.56 94.16C28.88 94.16 29.13 94.16 29.29 94.16C29.45 94.16 29.69 94.16 30.02 94.16C30.34 94.16 30.58 94.16 30.74 94.16C30.9 94.16 31.07 94.16 31.23 94.16C31.39 94.16 31.55 94.16 31.71 94.16C31.87 94.16 32.04 94.16 32.2 94.16C32.36 94.16 32.52 94.16 32.68 94.16C32.84 94.16 33.01 94.16 33.17 94.16C33.33 94.16 33.49 94.16 33.65 94.16C33.81 94.16 33.98 94.16 34.14 94.16C34.3 94.16 34.54 94.16 34.86 94.16" stroke="#E98939" stroke-opacity="1.000000" stroke-width="29.000000"/>
	<path id="Форма 215" d="M27.11 114.05L27.83 114.05C28.32 114.05 28.64 114.05 28.8 114.05C28.96 114.05 29.21 114.05 29.53 114.05C29.85 114.05 30.18 114.05 30.5 114.05C30.82 114.05 31.07 114.05 31.23 114.05C31.39 114.05 31.55 114.05 31.71 114.05C31.87 114.05 32.12 114.05 32.44 114.05C32.76 114.05 33.01 114.05 33.17 114.05C33.33 114.05 33.49 114.05 33.65 114.05C33.81 114.05 34.06 114.05 34.38 114.05C34.7 114.05 34.95 114.05 35.11 114.05C35.27 114.05 35.43 114.05 35.59 114.05C35.75 114.05 35.92 114.05 36.08 114.05C36.24 114.05 36.4 114.05 36.56 114.05" stroke="#E98939" stroke-opacity="1.000000" stroke-width="29.000000"/>
	<path id="Форма 216" d="M35.35 163.03L36.08 163.03C36.56 163.03 36.89 163.03 37.05 163.03C37.21 163.03 37.37 163.03 37.53 163.03C37.69 163.03 37.94 163.03 38.26 163.03C38.58 163.03 38.91 163.03 39.23 163.03C39.55 163.03 39.8 163.03 39.96 163.03C40.12 163.03 40.28 163.03 40.44 163.03" stroke="#FF203F" stroke-opacity="1.000000" stroke-width="29.000000"/>
	<path id="Форма 217" d="M39.71 165.45L40.44 165.45C40.93 165.45 41.25 165.45 41.41 165.45C41.57 165.45 41.9 165.45 42.38 165.45C42.87 165.45 43.27 165.45 43.59 165.45C43.92 165.45 44.24 165.45 44.56 165.45C44.89 165.45 45.21 165.45 45.53 165.45C45.86 165.45 46.18 165.45 46.5 165.45C46.83 165.45 47.15 165.45 47.47 165.45C47.8 165.45 48.04 165.45 48.2 165.45C48.36 165.45 48.52 165.45 48.69 165.45C48.85 165.45 49.01 165.45 49.17 165.45C49.33 165.45 49.57 165.45 49.9 165.45" stroke="#FF203F" stroke-opacity="1.000000" stroke-width="29.000000"/>
	<path id="Форма 218" d="M59.11 165.94L58.38 165.94C57.9 165.94 57.5 165.94 57.17 165.94C56.85 165.94 56.53 165.94 56.2 165.94C55.88 165.94 55.31 165.94 54.5 165.94C53.7 165.94 52.73 165.94 51.6 165.94C50.46 165.94 49.33 165.94 48.2 165.94C47.07 165.94 46.1 165.94 45.29 165.94C44.48 165.94 43.84 165.94 43.35 165.94" stroke="#FF203F" stroke-opacity="1.000000" stroke-width="29.000000"/>
	<path id="Форма 219" d="M23.23 154.78L23.95 154.78C24.44 154.78 24.76 154.78 24.92 154.78C25.09 154.78 25.25 154.78 25.41 154.78C25.57 154.78 25.81 154.78 26.14 154.78C26.46 154.78 26.78 154.78 27.11 154.78C27.43 154.78 27.75 154.78 28.08 154.78C28.4 154.78 28.8 154.78 29.29 154.78C29.77 154.78 30.18 154.78 30.5 154.78C30.82 154.78 31.15 154.78 31.47 154.78C31.79 154.78 32.04 154.78 32.2 154.78C32.36 154.78 32.52 154.78 32.68 154.78" stroke="#FF203F" stroke-opacity="1.000000" stroke-width="29.000000"/>
	<path id="Форма 220" d="M38.74 161.57L38.02 161.57C37.53 161.57 37.13 161.57 36.8 161.57C36.48 161.57 35.92 161.57 35.11 161.57C34.3 161.57 33.57 161.57 32.93 161.57C32.28 161.57 31.63 161.57 30.99 161.57C30.34 161.57 29.69 161.57 29.05 161.57C28.4 161.57 28 161.57 27.83 161.57C27.67 161.57 27.51 161.57 27.35 161.57" stroke="#FF203F" stroke-opacity="1.000000" stroke-width="29.000000"/>
</svg>
