<svg width="138.050049" height="199.000000" viewBox="0 0 138.05 199" fill="none" xmlns="http://www.w3.org/2000/svg" xmlns:xlink="http://www.w3.org/1999/xlink">
	<desc>
			Created with Pixso.
	</desc>
	<defs/>
	<path id="Форма 311 (Граница)" d="M9.95 56.92L10.95 56.92L12.27 56.92L13.27 56.92L14.6 56.92L15.26 56.92L15.92 56.92L17.58 56.92L18.91 56.92L19.91 56.92L20.9 56.92L21.9 56.92L22.89 56.92L22.89 77.98L21.9 77.98L20.9 77.98L19.91 77.98L18.91 77.98L17.58 77.98L15.92 77.98L15.26 77.98L14.6 77.98L13.27 77.98L12.27 77.98L10.95 77.98L9.95 77.98L9.95 56.92Z" fill="#DB2D88" fill-opacity="1.000000" fill-rule="evenodd"/>
	<path id="Форма 312 (Граница)" d="M40.48 87.47L39.49 87.47L37.83 87.47L36.5 87.47L35.17 87.47L34.51 87.47L33.84 87.47L32.18 87.47L29.86 87.47L25.22 87.47L21.23 87.47L20.24 87.47L19.57 87.47L19.57 66.4L20.24 66.4L21.23 66.4L25.22 66.4L29.86 66.4L32.18 66.4L33.84 66.4L34.51 66.4L35.17 66.4L36.5 66.4L37.83 66.4L39.49 66.4L40.48 66.4L40.48 87.47Z" fill="#DB2D88" fill-opacity="1.000000" fill-rule="evenodd"/>
	<path id="Форма 313 (Граница)" d="M51.76 94.24L50.77 94.24L49.11 94.24L47.78 94.24L45.79 94.24L43.8 94.24L42.47 94.24L41.48 94.24L40.81 94.24L40.81 73.18L41.48 73.18L42.47 73.18L43.8 73.18L45.79 73.18L47.78 73.18L49.11 73.18L50.77 73.18L51.76 73.18L51.76 94.24Z" fill="#DB2D88" fill-opacity="1.000000" fill-rule="evenodd"/>
	<path id="Форма 314 (Граница)" d="M15.26 81.99L16.26 81.99L17.91 81.99L18.91 81.99L20.57 81.99L22.89 81.99L24.22 81.99L24.88 81.99L25.88 81.99L27.54 81.99L27.54 103.05L25.88 103.05L24.88 103.05L24.22 103.05L22.89 103.05L20.57 103.05L18.91 103.05L17.91 103.05L16.26 103.05L15.26 103.05L15.26 81.99Z" fill="#DB2D88" fill-opacity="1.000000" fill-rule="evenodd"/>
	<path id="Форма 315 (Граница)" d="M10.62 97.57L11.61 97.57L12.94 97.57L13.93 97.57L15.59 97.57L16.59 97.57L17.58 97.57L19.24 97.57L20.24 97.57L20.24 118.64L19.24 118.64L17.58 118.64L16.59 118.64L15.59 118.64L13.93 118.64L12.94 118.64L11.61 118.64L10.62 118.64L10.62 97.57Z" fill="#DB2D88" fill-opacity="1.000000" fill-rule="evenodd"/>
	<path id="Форма 316 (Граница)" d="M5.97 107.06L6.96 107.06L8.29 107.06L8.96 107.06L9.95 107.06L10.95 107.06L11.94 107.06L13.27 107.06L14.27 107.06L14.27 128.12L13.27 128.12L11.94 128.12L10.95 128.12L9.95 128.12L8.96 128.12L8.29 128.12L6.96 128.12L5.97 128.12L5.97 107.06Z" fill="#DB2D88" fill-opacity="1.000000" fill-rule="evenodd"/>
	<path id="Форма 317 (Граница)" d="M3.65 119.94L2.65 119.94L2.65 141L9.29 141L10.95 141L12.61 141L12.61 119.94L10.95 119.94L9.29 119.94L3.65 119.94Z" fill="#DB2D88" fill-opacity="1.000000" fill-rule="evenodd"/>
	<path id="Форма 318 (Граница)" d="M4.64 134.84L5.97 134.84L7.63 134.84L8.62 134.84L9.95 134.84L11.28 134.84L13.27 134.84L15.26 134.84L16.92 134.84L18.58 134.84L18.58 155.91L16.92 155.91L15.26 155.91L13.27 155.91L11.28 155.91L9.95 155.91L8.62 155.91L7.63 155.91L5.97 155.91L4.64 155.91L4.64 134.84Z" fill="#DB2D88" fill-opacity="1.000000" fill-rule="evenodd"/>
	<path id="Форма 319 (Граница)" d="M12.61 145.69L13.93 145.69L15.59 145.69L16.59 145.69L18.25 145.69L20.24 145.69L21.57 145.69L22.23 145.69L22.23 166.75L21.57 166.75L20.24 166.75L18.25 166.75L16.59 166.75L15.59 166.75L13.93 166.75L12.61 166.75L12.61 145.69Z" fill="#DB2D88" fill-opacity="1.000000" fill-rule="evenodd"/>
	<path id="Форма 320 (Граница)" d="M18.58 156.53L19.58 156.53L21.23 156.53L22.23 156.53L23.56 156.53L24.88 156.53L25.55 156.53L26.21 156.53L26.88 156.53L26.88 177.59L26.21 177.59L25.55 177.59L24.88 177.59L23.56 177.59L22.23 177.59L21.23 177.59L19.58 177.59L18.58 177.59L18.58 156.53Z" fill="#DB2D88" fill-opacity="1.000000" fill-rule="evenodd"/>
	<path id="Форма 321 (Граница)" d="M27.21 166.02L28.53 166.02L30.19 166.02L30.86 166.02L31.85 166.02L31.85 187.08L30.86 187.08L30.19 187.08L28.53 187.08L27.21 187.08L27.21 166.02Z" fill="#DB2D88" fill-opacity="1.000000" fill-rule="evenodd"/>
	<path id="Форма 322 (Граница)" d="M25.88 165.34L26.87 165.34L28.53 165.34L29.53 165.34L30.19 165.34L31.19 165.34L32.52 165.34L33.84 165.34L33.84 186.4L32.52 186.4L31.19 186.4L30.19 186.4L29.53 186.4L28.53 186.4L26.87 186.4L25.88 186.4L25.88 165.34Z" fill="#DB2D88" fill-opacity="1.000000" fill-rule="evenodd"/>
	<path id="Форма 323 (Граница)" d="M33.18 168.73L34.17 168.73L35.5 168.73L36.5 168.73L37.49 168.73L38.49 168.73L39.48 168.73L40.15 168.73L40.81 168.73L40.81 189.79L40.15 189.79L39.48 189.79L38.49 189.79L37.49 189.79L36.5 189.79L35.5 189.79L34.17 189.79L33.18 189.79L33.18 168.73Z" fill="#DB2D88" fill-opacity="1.000000" fill-rule="evenodd"/>
	<path id="Форма 324 (Граница)" d="M40.48 172.79L41.48 172.79L43.14 172.79L44.13 172.79L44.79 172.79L45.46 172.79L46.12 172.79L46.79 172.79L47.78 172.79L48.78 172.79L49.44 172.79L50.77 172.79L52.43 172.79L53.42 172.79L53.42 193.85L52.43 193.85L50.77 193.85L49.44 193.85L48.78 193.85L47.78 193.85L46.79 193.85L46.12 193.85L45.46 193.85L44.79 193.85L44.13 193.85L43.14 193.85L41.48 193.85L40.48 193.85L40.48 172.79Z" fill="#DB2D88" fill-opacity="1.000000" fill-rule="evenodd"/>
	<path id="Форма 325 (Граница)" d="M55.75 177.54L56.74 177.54L58.07 177.54L59.06 177.54L60.06 177.54L61.06 177.54L61.72 177.54L62.38 177.54L63.27 177.54L63.71 177.54L65.37 177.54L67.03 177.54L68.02 177.54L68.02 198.6L67.03 198.6L65.37 198.6L63.71 198.6L63.27 198.6L62.38 198.6L61.72 198.6L61.06 198.6L60.06 198.6L59.06 198.6L58.07 198.6L56.74 198.6L55.75 198.6L55.75 177.54Z" fill="#DB2D88" fill-opacity="1.000000" fill-rule="evenodd"/>
	<path id="Форма 326 (Граница)" d="M52.43 174.15L53.76 174.15L55.41 174.15L56.08 174.15L57.07 174.15L58.07 174.15L59.07 174.15L60.06 174.15L61.06 174.15L62.05 174.15L62.05 195.21L61.06 195.21L60.06 195.21L59.07 195.21L58.07 195.21L57.07 195.21L56.08 195.21L55.41 195.21L53.76 195.21L52.43 195.21L52.43 174.15Z" fill="#DB2D88" fill-opacity="1.000000" fill-rule="evenodd"/>
	<path id="Форма 327 (Граница)" d="M67.69 169.4L68.69 169.4L70.35 169.4L71.34 169.4L72.01 169.4L73 169.4L74 169.4L74.99 169.4L75.99 169.4L76.65 169.4L77.65 169.4L78.64 169.4L79.31 169.4L79.31 190.47L78.64 190.47L77.65 190.47L76.65 190.47L75.99 190.47L74.99 190.47L74 190.47L73 190.47L72.01 190.47L71.34 190.47L70.35 190.47L68.69 190.47L67.69 190.47L67.69 169.4Z" fill="#DB2D88" fill-opacity="1.000000" fill-rule="evenodd"/>
	<path id="Форма 328 (Граница)" d="M80.3 166.69L81.3 166.69L82.63 166.69L83.62 166.69L84.94 166.69L86.28 166.69L87.93 166.69L89.26 166.69L90.59 166.69L91.92 166.69L92.58 166.69L92.58 187.76L91.92 187.76L90.59 187.76L89.26 187.76L87.93 187.76L86.28 187.76L84.95 187.76L83.62 187.76L82.63 187.76L81.3 187.76L80.3 187.76L80.3 166.69Z" fill="#DB2D88" fill-opacity="1.000000" fill-rule="evenodd"/>
	<path id="Форма 329 (Граница)" d="M86.28 156.53L87.93 156.53L89.93 156.53L90.59 156.53L91.25 156.53L92.58 156.53L94.24 156.53L95.57 156.53L96.56 156.53L97.23 156.53L97.89 156.53L97.89 177.59L97.23 177.59L96.56 177.59L95.57 177.59L94.24 177.59L92.58 177.59L91.25 177.59L90.59 177.59L89.93 177.59L87.93 177.59L86.28 177.59L86.28 156.53Z" fill="#DB2D88" fill-opacity="1.000000" fill-rule="evenodd"/>
	<path id="Форма 330 (Граница)" d="M93.58 145.69L94.57 145.69L95.9 145.69L96.34 145.69L96.56 145.69L97.23 145.69L98.22 145.69L99.11 145.69L99.55 145.69L101.21 145.69L102.87 145.69L104.53 145.69L105.52 145.69L106.52 145.69L109.17 145.69L111.17 145.69L111.17 166.75L109.17 166.75L106.52 166.75L105.52 166.75L104.53 166.75L102.87 166.75L101.21 166.75L99.55 166.75L99.11 166.75L98.22 166.75L97.23 166.75L96.56 166.75L96.34 166.75L95.9 166.75L94.57 166.75L93.58 166.75L93.58 145.69Z" fill="#DB2D88" fill-opacity="1.000000" fill-rule="evenodd"/>
	<path id="Форма 331 (Граница)" d="M77.65 170.76L78.64 170.76L79.97 170.76L80.19 170.76L80.64 170.76L81.63 170.76L82.96 170.76L84.29 170.76L84.95 170.76L85.61 170.76L86.94 170.76L87.94 170.76L87.94 191.82L86.94 191.82L85.61 191.82L84.95 191.82L84.29 191.82L82.96 191.82L81.63 191.82L80.64 191.82L80.19 191.82L79.97 191.82L78.64 191.82L77.65 191.82L77.65 170.76Z" fill="#DB2D88" fill-opacity="1.000000" fill-rule="evenodd"/>
	<path id="Форма 332 (Граница)" d="M91.59 160.59L92.58 160.59L93.91 160.59L94.57 160.59L95.24 160.59L95.9 160.59L96.56 160.59L97.23 160.59L97.89 160.59L98.55 160.59L98.55 181.66L97.89 181.66L97.23 181.66L96.56 181.66L95.9 181.66L95.24 181.66L94.57 181.66L93.91 181.66L92.58 181.66L91.59 181.66L91.59 160.59Z" fill="#DB2D88" fill-opacity="1.000000" fill-rule="evenodd"/>
	<path id="Форма 333 (Граница)" d="M21.9 83.34L23.56 83.34L25.88 83.34L27.87 83.34L29.86 83.34L31.85 83.34L34.51 83.34L37.49 83.34L40.15 83.34L41.15 83.34L42.14 83.34L43.47 83.34L44.13 83.34L44.8 83.34L45.46 83.34L46.12 83.34L46.79 83.34L46.79 104.41L46.12 104.41L45.46 104.41L44.8 104.41L44.13 104.41L43.47 104.41L42.14 104.41L41.15 104.41L40.15 104.41L37.49 104.41L34.51 104.41L31.85 104.41L29.86 104.41L27.87 104.41L25.88 104.41L23.56 104.41L21.9 104.41L21.9 83.34Z" fill="#FF1D6E" fill-opacity="1.000000" fill-rule="evenodd"/>
	<path id="Форма 334 (Граница)" d="M16.59 90.8L17.58 90.8L19.24 90.8L20.9 90.8L23.22 90.8L25.88 90.8L28.87 90.8L31.52 90.8L32.52 90.8L33.51 90.8L34.18 90.8L35.5 90.8L37.16 90.8L38.49 90.8L39.82 90.8L41.14 90.8L42.14 90.8L43.14 90.8L44.13 90.8L44.79 90.8L45.46 90.8L46.12 90.8L46.79 90.8L47.45 90.8L48.45 90.8L49.44 90.8L50.1 90.8L50.77 90.8L51.43 90.8L52.09 90.8L52.76 90.8L52.76 111.86L52.1 111.86L51.43 111.86L50.77 111.86L50.1 111.86L49.44 111.86L48.45 111.86L47.45 111.86L46.79 111.86L46.12 111.86L45.46 111.86L44.79 111.86L44.13 111.86L43.14 111.86L42.14 111.86L41.14 111.86L39.82 111.86L38.49 111.86L37.16 111.86L35.5 111.86L34.18 111.86L33.51 111.86L32.52 111.86L31.52 111.86L28.87 111.86L25.88 111.86L23.22 111.86L20.9 111.86L19.24 111.86L17.58 111.86L16.59 111.86L16.59 90.8Z" fill="#FF1D6E" fill-opacity="1.000000" fill-rule="evenodd"/>
	<path id="Форма 335 (Граница)" d="M15.26 102.32L16.59 102.32L18.25 102.32L19.24 102.32L20.9 102.32L23.22 102.32L25.88 102.32L28.87 102.32L31.19 102.32L33.18 102.32L35.17 102.32L36.83 102.32L38.49 102.32L39.82 102.32L41.14 102.32L42.14 102.32L44.46 102.32L47.12 102.32L48.11 102.32L49.11 102.32L50.1 102.32L50.77 102.32L50.77 123.38L50.1 123.38L49.11 123.38L48.11 123.38L47.12 123.38L44.46 123.38L42.14 123.38L41.14 123.38L39.82 123.38L38.49 123.38L36.83 123.38L35.17 123.38L33.18 123.38L31.19 123.38L28.87 123.38L25.88 123.38L23.22 123.38L20.9 123.38L19.24 123.38L18.25 123.38L16.59 123.38L15.26 123.38L15.26 102.32Z" fill="#FF1D6E" fill-opacity="1.000000" fill-rule="evenodd"/>
	<path id="Форма 336 (Граница)" d="M12.94 108.42L11.94 108.42L11.94 129.48L17.25 129.48L18.91 129.48L22.56 129.48L24.88 129.48L28.53 129.48L30.19 129.48L36.17 129.48L38.82 129.48L48.11 129.48L48.11 108.42L38.82 108.42L36.17 108.42L30.19 108.42L28.53 108.42L24.88 108.42L22.56 108.42L18.91 108.42L17.25 108.42L12.94 108.42Z" fill="#FF1D6E" fill-opacity="1.000000" fill-rule="evenodd"/>
	<path id="Форма 337 (Граница)" d="M10.28 115.87L9.29 115.87L9.29 136.93L12.61 136.93L14.6 136.93L22.56 136.93L24.55 136.93L28.2 136.93L31.19 136.93L36.83 136.93L38.49 136.93L43.47 136.93L45.79 136.93L49.44 136.93L49.44 115.87L45.79 115.87L43.47 115.87L38.49 115.87L36.83 115.87L31.19 115.87L28.2 115.87L24.55 115.87L22.56 115.87L14.6 115.87L12.61 115.87L10.28 115.87Z" fill="#FF1D6E" fill-opacity="1.000000" fill-rule="evenodd"/>
	<path id="Форма 338 (Граница)" d="M12.61 132.13L13.6 132.13L15.26 132.13L15.92 132.13L16.59 132.13L17.58 132.13L18.58 132.13L19.24 132.13L19.91 132.13L21.9 132.13L23.22 132.13L24.55 132.13L27.21 132.13L29.53 132.13L31.19 132.13L33.84 132.13L36.83 132.13L38.49 132.13L39.82 132.13L40.81 132.13L42.14 132.13L43.8 132.13L44.79 132.13L45.46 132.13L46.12 132.13L46.79 132.13L47.45 132.13L48.11 132.13L48.11 153.2L47.45 153.2L46.79 153.2L46.12 153.2L45.46 153.2L44.79 153.2L43.8 153.2L42.14 153.2L40.81 153.2L39.82 153.2L38.49 153.2L36.83 153.2L33.84 153.2L31.19 153.2L29.53 153.2L27.21 153.2L24.55 153.2L23.22 153.2L21.9 153.2L19.91 153.2L19.24 153.2L18.58 153.2L17.58 153.2L16.59 153.2L15.92 153.2L15.26 153.2L13.6 153.2L12.61 153.2L12.61 132.13Z" fill="#FF1D6E" fill-opacity="1.000000" fill-rule="evenodd"/>
	<path id="Форма 339 (Граница)" d="M18.58 144.33L19.91 144.33L21.57 144.33L22.56 144.33L25.55 144.33L29.86 144.33L31.85 144.33L33.84 144.33L37.49 144.33L40.48 144.33L42.8 144.33L44.46 144.33L46.12 144.33L47.78 144.33L48.78 144.33L49.44 144.33L51.43 144.33L53.76 144.33L54.42 144.33L55.08 144.33L56.08 144.33L56.74 144.33L56.74 165.39L56.08 165.39L55.08 165.39L54.42 165.39L53.76 165.39L51.43 165.39L49.44 165.39L48.78 165.39L47.78 165.39L46.12 165.39L44.46 165.39L42.8 165.39L40.48 165.39L37.49 165.39L33.84 165.39L31.85 165.39L29.86 165.39L25.55 165.39L22.56 165.39L21.57 165.39L19.91 165.39L18.58 165.39L18.58 144.33Z" fill="#FF1D6E" fill-opacity="1.000000" fill-rule="evenodd"/>
	<path id="Форма 340 (Граница)" d="M27.87 155.17L28.87 155.17L30.19 155.17L30.86 155.17L31.85 155.17L33.18 155.17L35.5 155.17L38.49 155.17L40.81 155.17L42.8 155.17L44.46 155.17L45.35 155.17L45.79 155.17L47.45 155.17L48.78 155.17L49.44 155.17L49.84 155.17L50.1 155.17L51.1 155.17L52.1 155.17L52.76 155.17L53.75 155.17L54.75 155.17L55.41 155.17L56.41 155.17L57.4 155.17L58.07 155.17L58.73 155.17L59.4 155.17L59.4 176.24L58.73 176.24L58.07 176.24L57.4 176.24L56.41 176.24L55.41 176.24L54.75 176.24L53.75 176.24L52.76 176.24L52.1 176.24L51.1 176.24L50.1 176.24L49.84 176.24L49.44 176.24L48.79 176.24L47.45 176.24L45.79 176.24L45.35 176.24L44.46 176.24L42.8 176.24L40.81 176.24L38.49 176.24L35.5 176.24L33.18 176.24L31.85 176.24L30.86 176.24L30.19 176.24L28.87 176.24L27.87 176.24L27.87 155.17Z" fill="#FF1D6E" fill-opacity="1.000000" fill-rule="evenodd"/>
	<path id="Форма 341 (Граница)" d="M43.14 162.63L44.46 162.63L46.12 162.63L46.79 162.63L47.78 162.63L49.44 162.63L51.1 162.63L52.1 162.63L53.09 162.63L54.09 162.63L54.75 162.63L55.41 162.63L56.08 162.63L56.74 162.63L57.74 162.63L58.73 162.63L59.4 162.63L60.39 162.63L61.39 162.63L62.38 162.63L63.71 162.63L65.37 162.63L67.03 162.63L68.02 162.63L68.69 162.63L68.69 183.69L68.02 183.69L67.03 183.69L65.37 183.69L63.71 183.69L62.38 183.69L61.39 183.69L60.39 183.69L59.4 183.69L58.73 183.69L57.74 183.69L56.74 183.69L56.08 183.69L55.41 183.69L54.75 183.69L54.09 183.69L53.09 183.69L52.1 183.69L51.1 183.69L49.44 183.69L47.78 183.69L46.79 183.69L46.12 183.69L44.46 183.69L43.14 183.69L43.14 162.63Z" fill="#FF1D6E" fill-opacity="1.000000" fill-rule="evenodd"/>
	<path id="Форма 342 (Граница)" d="M63.71 146.36L64.71 146.36L66.03 146.36L67.03 146.36L68.02 146.36L69.02 146.36L70.01 146.36L71.34 146.36L73.33 146.36L74.33 146.36L75.32 146.36L76.98 146.36L78.64 146.36L80.3 146.36L81.96 146.36L83.29 146.36L83.95 146.36L84.95 146.36L85.94 146.36L86.94 146.36L88.27 146.36L89.93 146.36L91.25 146.36L92.25 146.36L93.24 146.36L93.91 146.36L94.57 146.36L95.24 146.36L95.24 167.43L94.57 167.43L93.91 167.43L93.24 167.43L92.25 167.43L91.25 167.43L89.93 167.43L88.27 167.43L86.94 167.43L85.94 167.43L84.95 167.43L83.95 167.43L83.29 167.43L81.96 167.43L80.3 167.43L78.64 167.43L76.98 167.43L75.32 167.43L74.33 167.43L73.33 167.43L71.34 167.43L70.01 167.43L69.02 167.43L68.02 167.43L67.03 167.43L66.03 167.43L64.71 167.43L63.71 167.43L63.71 146.36Z" fill="#FF1D6E" fill-opacity="1.000000" fill-rule="evenodd"/>
	<path id="Форма 343 (Граница)" d="M67.03 158.56L68.02 158.56L69.68 158.56L70.68 158.56L71.68 158.56L72.67 158.56L73.67 158.56L74.66 158.56L74.88 158.56L75.33 158.56L75.99 158.56L76.21 158.56L76.65 158.56L77.1 158.56L77.32 158.56L79.31 158.56L81.63 158.56L81.63 179.62L79.31 179.62L77.32 179.62L77.1 179.62L76.65 179.62L76.21 179.62L75.99 179.62L75.33 179.62L74.88 179.62L74.66 179.62L73.67 179.62L72.67 179.62L71.68 179.62L70.68 179.62L69.68 179.62L68.02 179.62L67.03 179.62L67.03 158.56Z" fill="#FF1D6E" fill-opacity="1.000000" fill-rule="evenodd"/>
	<path id="Форма 344 (Граница)" d="M78.98 129.42L80.3 129.42L82.29 129.42L83.95 129.42L85.94 129.42L87.6 129.42L89.26 129.42L90.26 129.42L91.25 129.42L93.24 129.42L94.24 129.42L95.24 129.42L97.23 129.42L98.89 129.42L100.21 129.42L101.54 129.42L102.87 129.42L105.19 129.42L107.51 129.42L108.51 129.42L109.17 129.42L110.17 129.42L111.83 129.42L113.16 129.42L114.15 129.42L115.15 129.42L116.14 129.42L117.14 129.42L117.8 129.42L118.47 129.42L119.13 129.42L119.79 129.42L120.46 129.42L121.12 129.42L122.12 129.42L123.11 129.42L123.78 129.42L123.78 150.49L123.11 150.49L122.12 150.49L121.12 150.49L120.46 150.49L119.79 150.49L119.13 150.49L118.47 150.49L117.8 150.49L117.14 150.49L116.14 150.49L115.15 150.49L114.15 150.49L113.16 150.49L111.83 150.49L110.17 150.49L109.17 150.49L108.51 150.49L107.51 150.49L105.19 150.49L102.87 150.49L101.54 150.49L100.21 150.49L98.89 150.49L97.23 150.49L95.24 150.49L94.24 150.49L93.24 150.49L91.25 150.49L90.26 150.49L89.26 150.49L87.6 150.49L85.94 150.49L83.95 150.49L82.29 150.49L80.3 150.49L78.98 150.49L78.98 129.42Z" fill="#FF1D6E" fill-opacity="1.000000" fill-rule="evenodd"/>
	<path id="Форма 345 (Граница)" d="M138.05 131.51L137.05 131.51L135.72 131.51L134.73 131.51L133.4 131.51L132.07 131.51L130.41 131.51L129.42 131.51L128.42 131.51L126.43 131.51L125.43 131.51L124.44 131.51L121.79 131.51L118.47 131.51L110.83 131.51L103.2 131.51L100.55 131.51L98.22 131.51L96.9 131.51L95.57 131.51L91.92 131.51L89.26 131.51L88.27 131.51L86.94 131.51L85.95 131.51L83.95 131.51L81.96 131.51L81.3 131.51L81.3 110.45L81.96 110.45L83.95 110.45L85.95 110.45L86.94 110.45L88.27 110.45L89.26 110.45L91.92 110.45L95.57 110.45L96.9 110.45L98.22 110.45L100.55 110.45L103.2 110.45L110.83 110.45L118.47 110.45L121.79 110.45L124.44 110.45L125.43 110.45L126.43 110.45L128.42 110.45L129.42 110.45L130.41 110.45L132.07 110.45L133.4 110.45L134.73 110.45L135.72 110.45L137.05 110.45L138.05 110.45L138.05 131.51Z" fill="#FF1D6E" fill-opacity="1.000000" fill-rule="evenodd"/>
	<path id="Форма 346 (Граница)" d="M67.36 109.09L66.36 109.09L66.36 130.16L81.96 130.16L83.29 130.16L87.93 130.16L90.59 130.16L94.57 130.16L94.57 109.09L90.59 109.09L87.93 109.09L83.29 109.09L81.96 109.09L67.36 109.09Z" fill="#FF1D6E" fill-opacity="1.000000" fill-rule="evenodd"/>
	<path id="Форма 347 (Граница)" d="M59.73 121.29L60.72 121.29L62.05 121.29L62.72 121.29L63.71 121.29L65.04 121.29L65.7 121.29L66.37 121.29L68.02 121.29L69.68 121.29L71.67 121.29L73.67 121.29L75.33 121.29L76.98 121.29L78.31 121.29L79.31 121.29L80.97 121.29L82.63 121.29L82.63 142.35L80.97 142.35L79.31 142.35L78.31 142.35L76.98 142.35L75.33 142.35L73.67 142.35L71.67 142.35L69.68 142.35L68.02 142.35L66.37 142.35L65.7 142.35L65.04 142.35L63.71 142.35L62.72 142.35L62.05 142.35L60.72 142.35L59.73 142.35L59.73 121.29Z" fill="#FF1D6E" fill-opacity="1.000000" fill-rule="evenodd"/>
	<path id="Форма 348 (Граница)" d="M65.7 132.81L64.37 132.81L64.37 153.87L75.66 153.87L86.28 153.87L86.28 132.81L75.66 132.81L65.7 132.81Z" fill="#FF1D6E" fill-opacity="1.000000" fill-rule="evenodd"/>
	<path id="Форма 349 (Граница)" d="M66.36 96.9L65.04 96.9L65.04 117.96L88.93 117.96L94.57 117.96L114.82 117.96L114.82 96.9L94.57 96.9L88.93 96.9L66.36 96.9Z" fill="#FF1D6E" fill-opacity="1.000000" fill-rule="evenodd"/>
	<path id="Форма 350 (Граница)" d="M138.04 114.57L136.72 114.57L135.06 114.57L132.07 114.57L127.76 114.57L124.77 114.57L122.45 114.57L120.79 114.57L119.79 114.57L118.13 114.57L118.13 93.51L119.79 93.51L120.79 93.51L122.45 93.51L124.77 93.51L127.76 93.51L132.07 93.51L135.06 93.51L136.72 93.51L138.04 93.51L138.04 114.57Z" fill="#FF1D6E" fill-opacity="1.000000" fill-rule="evenodd"/>
	<path id="Форма 351 (Граница)" d="M112.16 109.83L111.16 109.83L109.84 109.83L108.84 109.83L108.18 109.83L107.51 109.83L106.52 109.83L105.52 109.83L104.2 109.83L103.2 109.83L102.21 109.83L101.21 109.83L99.88 109.83L95.24 109.83L90.92 109.83L89.59 109.83L88.93 109.83L88.27 109.83L85.94 109.83L83.95 109.83L82.96 109.83L81.63 109.83L80.63 109.83L79.97 109.83L78.31 109.83L78.31 88.76L79.97 88.76L80.63 88.76L81.63 88.76L82.96 88.76L83.95 88.76L85.94 88.76L88.27 88.76L88.93 88.76L89.59 88.76L90.92 88.76L95.24 88.76L99.88 88.76L101.21 88.76L102.21 88.76L103.2 88.76L104.2 88.76L105.52 88.76L106.52 88.76L107.51 88.76L108.18 88.76L108.84 88.76L109.84 88.76L111.16 88.76L112.16 88.76L112.16 109.83Z" fill="#FF1D6E" fill-opacity="1.000000" fill-rule="evenodd"/>
	<path id="Форма 352 (Граница)" d="M101.54 97.63L100.55 97.63L99.22 97.63L98.22 97.63L96.23 97.63L93.91 97.63L91.92 97.63L90.93 97.63L89.93 97.63L87.93 97.63L86.94 97.63L85.94 97.63L84.28 97.63L82.96 97.63L79.31 97.63L75.66 97.63L74.66 97.63L74 97.63L73.33 97.63L73.33 76.57L74 76.57L74.66 76.57L75.66 76.57L79.31 76.57L82.96 76.57L84.28 76.57L85.94 76.57L86.94 76.57L87.93 76.57L89.93 76.57L90.93 76.57L91.92 76.57L93.91 76.57L96.23 76.57L98.22 76.57L99.22 76.57L100.55 76.57L101.54 76.57L101.54 97.63Z" fill="#FF1D6E" fill-opacity="1.000000" fill-rule="evenodd"/>
	<path id="Форма 353 (Граница)" d="M60.39 74.53L61.39 74.53L63.05 74.53L64.04 74.53L65.04 74.53L65.7 74.53L66.37 74.53L68.03 74.53L70.02 74.53L71.34 74.53L72.34 74.53L73 74.53L73.67 74.53L74.99 74.53L75.99 74.53L76.65 74.53L76.65 95.6L75.99 95.6L74.99 95.6L73.67 95.6L73 95.6L72.34 95.6L71.34 95.6L70.02 95.6L68.03 95.6L66.37 95.6L65.7 95.6L65.04 95.6L64.04 95.6L63.05 95.6L61.39 95.6L60.39 95.6L60.39 74.53Z" fill="#FF1D6E" fill-opacity="1.000000" fill-rule="evenodd"/>
	<path id="Форма 354 (Граница)" d="M99.55 81.37L98.55 81.37L96.89 81.37L95.24 81.37L92.91 81.37L89.93 81.37L87.27 81.37L85.61 81.37L83.95 81.37L82.29 81.37L80.63 81.37L80.63 60.3L82.29 60.3L83.95 60.3L85.61 60.3L87.27 60.3L89.93 60.3L92.91 60.3L95.24 60.3L96.89 60.3L98.55 60.3L99.55 60.3L99.55 81.37Z" fill="#FF1D6E" fill-opacity="1.000000" fill-rule="evenodd"/>
	<path id="Форма 355 (Граница)" d="M100.88 70.52L99.88 70.52L98.55 70.52L97.89 70.52L97.23 70.52L96.23 70.52L94.9 70.52L93.58 70.52L91.92 70.52L90.92 70.52L89.93 70.52L87.93 70.52L86.94 70.52L85.94 70.52L84.28 70.52L83.29 70.52L82.63 70.52L82.63 49.46L83.29 49.46L84.28 49.46L85.94 49.46L86.94 49.46L87.93 49.46L89.93 49.46L90.92 49.46L91.92 49.46L93.58 49.46L94.9 49.46L96.23 49.46L97.23 49.46L97.89 49.46L98.55 49.46L99.88 49.46L100.88 49.46L100.88 70.52Z" fill="#FF1D6E" fill-opacity="1.000000" fill-rule="evenodd"/>
	<path id="Форма 356 (Граница)" d="M95.57 63.75L94.57 63.75L93.25 63.75L92.58 63.75L91.59 63.75L90.59 63.75L89.59 63.75L88.6 63.75L88.6 42.69L89.59 42.69L90.59 42.69L91.59 42.69L92.58 42.69L93.25 42.69L94.57 42.69L95.57 42.69L95.57 63.75Z" fill="#FF1D6E" fill-opacity="1.000000" fill-rule="evenodd"/>
	<path id="Форма 357 (Граница)" d="M74.99 52.85L75.99 52.85L77.32 52.85L78.64 52.85L80.3 52.85L80.97 52.85L81.63 52.85L82.63 52.85L83.29 52.85L83.95 52.85L84.62 52.85L84.62 73.91L83.95 73.91L83.29 73.91L82.63 73.91L81.63 73.91L80.97 73.91L80.3 73.91L78.64 73.91L77.32 73.91L75.99 73.91L74.99 73.91L74.99 52.85Z" fill="#FF1D6E" fill-opacity="1.000000" fill-rule="evenodd"/>
	<path id="Форма 358 (Граница)" d="M53.76 60.3L55.08 60.3L56.74 60.3L57.74 60.3L59.07 60.3L60.72 60.3L63.05 60.3L65.04 60.3L67.03 60.3L69.02 60.3L69.68 60.3L70.35 60.3L71.34 60.3L71.34 81.37L70.35 81.37L69.68 81.37L69.02 81.37L67.03 81.37L65.04 81.37L63.05 81.37L60.72 81.37L59.07 81.37L57.74 81.37L56.74 81.37L55.08 81.37L53.76 81.37L53.76 60.3Z" fill="#FF1D6E" fill-opacity="1.000000" fill-rule="evenodd"/>
	<path id="Форма 359 (Граница)" d="M37.16 48.11L38.16 48.11L39.82 48.11L41.48 48.11L43.8 48.11L46.45 48.11L49.11 48.11L50.44 48.11L51.76 48.11L54.09 48.11L55.75 48.11L56.74 48.11L57.4 48.11L58.07 48.11L58.07 69.17L57.4 69.17L56.74 69.17L55.75 69.17L54.09 69.17L51.76 69.17L50.44 69.17L49.11 69.17L46.45 69.17L43.8 69.17L41.48 69.17L39.82 69.17L38.16 69.17L37.16 69.17L37.16 48.11Z" fill="#FF1D6E" fill-opacity="1.000000" fill-rule="evenodd"/>
	<path id="Форма 360 (Граница)" d="M23.89 42.69L24.88 42.69L26.54 42.69L27.21 42.69L27.87 42.69L29.86 42.69L31.19 42.69L32.52 42.69L35.5 42.69L37.16 42.69L38.82 42.69L41.81 42.69L43.8 42.69L46.79 42.69L46.79 63.75L43.8 63.75L41.81 63.75L38.82 63.75L37.16 63.75L35.5 63.75L32.52 63.75L31.19 63.75L29.86 63.75L27.87 63.75L27.21 63.75L26.54 63.75L24.88 63.75L23.89 63.75L23.89 42.69Z" fill="#FF1D6E" fill-opacity="1.000000" fill-rule="evenodd"/>
	<path id="Форма 361 (Граница)" d="M9.29 35.23L10.28 35.23L11.61 35.23L12.6 35.23L14.93 35.23L16.59 35.23L18.25 35.23L22.23 35.23L26.54 35.23L29.86 35.23L32.85 35.23L35.17 35.23L36.17 35.23L36.17 56.29L35.17 56.29L32.85 56.29L29.86 56.29L26.54 56.29L22.23 56.29L18.25 56.29L16.59 56.29L14.93 56.29L12.6 56.29L11.61 56.29L10.28 56.29L9.29 56.29L9.29 35.23Z" fill="#FF1D6E" fill-opacity="1.000000" fill-rule="evenodd"/>
	<path id="Форма 362 (Граница)" d="M0 31.84L0.99 31.84L2.32 31.84L2.98 31.84L4.64 31.84L7.3 31.84L8.62 31.84L9.95 31.84L12.27 31.84L13.6 31.84L14.26 31.84L14.26 52.91L13.6 52.91L12.27 52.91L9.95 52.91L8.62 52.91L7.3 52.91L4.64 52.91L2.98 52.91L2.32 52.91L0.99 52.91L0 52.91L0 31.84Z" fill="#FF1D6E" fill-opacity="1.000000" fill-rule="evenodd"/>
	<path id="Форма 363 (Граница)" d="M14.6 26.42L15.92 26.42L18.25 26.42L19.58 26.42L20.9 26.42L22.23 26.42L23.23 26.42L24.22 26.42L24.22 47.48L23.23 47.48L22.23 47.48L20.9 47.48L19.58 47.48L18.25 47.48L15.92 47.48L14.6 47.48L14.6 26.42Z" fill="#FF1D6E" fill-opacity="1.000000" fill-rule="evenodd"/>
	<path id="Форма 364 (Граница)" d="M40.48 38L39.15 38L37.16 38L36.5 38L35.84 38L34.84 38L33.51 38L31.85 38L31.19 38L30.53 38L29.53 38L28.87 38L26.54 38L26.54 16.94L28.87 16.94L29.53 16.94L30.53 16.94L31.19 16.94L31.85 16.94L33.51 16.94L34.84 16.94L35.84 16.94L36.5 16.94L37.16 16.94L39.15 16.94L40.48 16.94L40.48 38Z" fill="#FF1D6E" fill-opacity="1.000000" fill-rule="evenodd"/>
	<path id="Форма 365 (Граница)" d="M39.15 28.51L38.16 28.51L36.83 28.51L35.84 28.51L34.84 28.51L33.84 28.51L32.52 28.51L31.52 28.51L30.86 28.51L30.86 7.45L31.52 7.45L32.52 7.45L33.84 7.45L34.84 7.45L35.84 7.45L36.83 7.45L38.16 7.45L39.15 7.45L39.15 28.51Z" fill="#FF1D6E" fill-opacity="1.000000" fill-rule="evenodd"/>
	<path id="Форма 366 (Граница)" d="M37.83 21.06L36.83 21.06L35.5 21.06L34.84 21.06L34.84 0L35.5 0L36.83 0L37.83 0L37.83 21.06Z" fill="#FF1D6E" fill-opacity="1.000000" fill-rule="evenodd"/>
	<path id="Форма 367 (Граница)" d="M23.89 8.8L24.88 8.8L26.21 8.8L27.21 8.8L28.53 8.8L29.42 8.8L29.86 8.8L30.86 8.8L31.85 8.8L32.85 8.8L32.85 29.87L31.85 29.87L30.86 29.87L29.86 29.87L29.42 29.87L28.53 29.87L27.21 29.87L26.21 29.87L24.88 29.87L23.89 29.87L23.89 8.8Z" fill="#FF1D6E" fill-opacity="1.000000" fill-rule="evenodd"/>
	<path id="Форма 368 (Граница)" d="M80.97 81.37L79.97 81.37L78.64 81.37L75.32 81.37L66.7 81.37L66.7 60.3L75.32 60.3L78.64 60.3L79.97 60.3L80.97 60.3L80.97 81.37Z" fill="#FF1D6E" fill-opacity="1.000000" fill-rule="evenodd"/>
	<path id="Форма 369 (Граница)" d="M55.75 142.98L56.74 142.98L58.07 142.98L59.06 142.98L60.39 142.98L61.39 142.98L62.38 142.98L63.38 142.98L64.04 142.98L64.71 142.98L64.71 164.04L64.04 164.04L63.38 164.04L62.38 164.04L61.39 164.04L60.39 164.04L59.06 164.04L58.07 164.04L56.74 164.04L55.75 164.04L55.75 142.98Z" fill="#FF83A0" fill-opacity="1.000000" fill-rule="evenodd"/>
	<path id="Форма 370 (Граница)" d="M46.45 132.13L47.45 132.13L48.78 132.13L49.44 132.13L50.44 132.13L51.76 132.13L53.09 132.13L54.09 132.13L55.08 132.13L56.08 132.13L56.08 153.2L55.08 153.2L54.09 153.2L53.09 153.2L51.76 153.2L50.44 153.2L49.44 153.2L48.78 153.2L47.45 153.2L46.45 153.2L46.45 132.13Z" fill="#FF83A0" fill-opacity="1.000000" fill-rule="evenodd"/>
	<path id="Форма 371 (Граница)" d="M61.72 145.74L60.72 145.74L59.4 145.74L58.4 145.74L57.41 145.74L56.41 145.74L55.08 145.74L54.42 145.74L53.76 145.74L52.76 145.74L51.76 145.74L50.77 145.74L50.77 124.68L51.76 124.68L52.76 124.68L53.76 124.68L54.42 124.68L55.08 124.68L56.41 124.68L57.41 124.68L58.4 124.68L59.4 124.68L60.72 124.68L61.72 124.68L61.72 145.74Z" fill="#FF83A0" fill-opacity="1.000000" fill-rule="evenodd"/>
	<path id="Форма 372 (Граница)" d="M48.11 117.23L47.12 117.23L47.12 138.29L50.77 138.29L52.1 138.29L58.4 138.29L58.4 117.23L52.1 117.23L50.77 117.23L48.11 117.23Z" fill="#FF83A0" fill-opacity="1.000000" fill-rule="evenodd"/>
	<path id="Форма 373 (Граница)" d="M63.05 125.41L62.05 125.41L60.72 125.41L60.06 125.41L59.4 125.41L58.73 125.41L58.29 125.41L58.07 125.41L57.41 125.41L56.74 125.41L56.08 125.41L54.75 125.41L51.43 125.41L51.43 104.35L54.75 104.35L56.08 104.35L56.74 104.35L57.41 104.35L58.07 104.35L58.29 104.35L58.73 104.35L59.4 104.35L60.06 104.35L60.72 104.35L62.05 104.35L63.05 104.35L63.05 125.41Z" fill="#FF83A0" fill-opacity="1.000000" fill-rule="evenodd"/>
	<path id="Форма 374 (Граница)" d="M51.76 91.48L52.76 91.48L54.09 91.48L54.75 91.48L57.41 91.48L60.06 91.48L60.06 112.54L57.41 112.54L54.75 112.54L54.09 112.54L52.76 112.54L51.76 112.54L51.76 91.48Z" fill="#FF83A0" fill-opacity="1.000000" fill-rule="evenodd"/>
	<path id="Форма 375 (Граница)" d="M51.1 85.38L52.1 85.38L53.09 85.38L54.09 85.38L55.41 85.38L56.41 85.38L57.74 85.38L58.73 85.38L59.4 85.38L59.4 106.44L58.73 106.44L57.74 106.44L56.41 106.44L55.41 106.44L54.09 106.44L53.09 106.44L52.1 106.44L51.1 106.44L51.1 85.38Z" fill="#FF83A0" fill-opacity="1.000000" fill-rule="evenodd"/>
	<path id="Форма 376 (Граница)" d="M50.44 77.25L51.43 77.25L52.76 77.25L53.75 77.25L54.42 77.25L55.08 77.25L56.41 77.25L57.4 77.25L58.07 77.25L59.06 77.25L59.06 98.31L58.07 98.31L57.4 98.31L56.41 98.31L55.08 98.31L54.42 98.31L53.75 98.31L52.76 98.31L51.43 98.31L50.44 98.31L50.44 77.25Z" fill="#FF83A0" fill-opacity="1.000000" fill-rule="evenodd"/>
	<path id="Форма 377 (Граница)" d="M63.71 111.86L62.71 111.86L61.06 111.86L58.73 111.86L58.73 90.8L61.06 90.8L62.71 90.8L63.71 90.8L63.71 111.86Z" fill="#FF83A0" fill-opacity="1.000000" fill-rule="evenodd"/>
	<path id="Форма 378 (Граница)" d="M68.36 124.74L67.36 124.74L66.03 124.74L65.37 124.74L64.71 124.74L63.38 124.74L62.05 124.74L60.72 124.74L59.4 124.74L58.4 124.74L57.4 124.74L57.4 103.67L58.4 103.67L59.4 103.67L60.72 103.67L62.05 103.67L63.38 103.67L64.71 103.67L65.37 103.67L66.03 103.67L67.36 103.67L68.36 103.67L68.36 124.74Z" fill="#FF83A0" fill-opacity="1.000000" fill-rule="evenodd"/>
	<path id="Форма 379 (Граница)" d="M58.4 54.88L60.39 54.88L63.38 54.88L64.37 54.88L65.37 54.88L68.02 54.88L71.01 54.88L73.33 54.88L74.33 54.88L75.32 54.88L76.65 54.88L77.32 54.88L77.32 75.95L76.65 75.95L75.32 75.95L74.33 75.95L73.33 75.95L71.01 75.95L68.02 75.95L65.37 75.95L64.37 75.95L63.38 75.95L60.39 75.95L58.4 75.95L58.4 54.88Z" fill="#FF83A0" fill-opacity="1.000000" fill-rule="evenodd"/>
	<path id="Форма 380 (Граница)" d="M110.83 92.15L111.83 92.15L113.16 92.15L114.15 92.15L115.15 92.15L116.14 92.15L117.47 92.15L118.8 92.15L119.46 92.15L120.12 92.15L121.12 92.15L121.78 92.15L121.78 113.22L121.12 113.22L120.12 113.22L119.46 113.22L118.8 113.22L117.47 113.22L116.14 113.22L115.15 113.22L114.15 113.22L113.16 113.22L111.83 113.22L110.83 113.22L110.83 92.15Z" fill="#FF83A0" fill-opacity="1.000000" fill-rule="evenodd"/>
	<path id="Форма 381 (Граница)" d="M123.44 87.41L124.44 87.41L125.77 87.41L126.76 87.41L127.76 87.41L128.75 87.41L129.75 87.41L130.41 87.41L130.41 108.47L129.75 108.47L128.75 108.47L127.76 108.47L126.76 108.47L125.77 108.47L124.44 108.47L123.44 108.47L123.44 87.41Z" fill="#FF83A0" fill-opacity="1.000000" fill-rule="evenodd"/>
	<path id="Форма 382 (Граница)" d="M118.13 89.44L119.13 89.44L120.46 89.44L121.45 89.44L121.78 89.44L122.78 89.44L123.44 89.44L124.11 89.44L125.43 89.44L126.76 89.44L127.43 89.44L128.09 89.44L129.08 89.44L130.74 89.44L132.74 89.44L133.73 89.44L133.73 110.51L132.74 110.51L130.74 110.51L129.08 110.51L128.09 110.51L127.43 110.51L126.76 110.51L125.43 110.51L124.11 110.51L123.44 110.51L122.78 110.51L121.78 110.51L121.45 110.51L120.46 110.51L119.13 110.51L118.13 110.51L118.13 89.44Z" fill="#FF83A0" fill-opacity="1.000000" fill-rule="evenodd"/>
	<path id="Форма 383 (Граница)" d="M60.39 66.46L59.4 66.46L57.74 66.46L56.41 66.46L54.75 66.46L52.43 66.46L50.44 66.46L49.11 66.46L47.78 66.46L46.79 66.46L46.79 45.4L47.78 45.4L49.11 45.4L50.44 45.4L52.43 45.4L54.75 45.4L56.41 45.4L57.74 45.4L59.4 45.4L60.39 45.4L60.39 66.46Z" fill="#FF83A0" fill-opacity="1.000000" fill-rule="evenodd"/>
	<path id="Форма 384 (Граница)" d="M17.91 17.61L18.91 17.61L20.24 17.61L20.9 17.61L21.56 17.61L22.23 17.61L22.89 17.61L22.89 38.68L22.23 38.68L21.56 38.68L20.9 38.68L20.24 38.68L18.91 38.68L17.91 38.68L17.91 17.61Z" fill="#FF83A0" fill-opacity="1.000000" fill-rule="evenodd"/>
	<path id="Форма 385 (Граница)" d="M9.29 21.68L10.28 21.68L11.61 21.68L11.83 21.68L12.27 21.68L13.6 21.68L15.26 21.68L15.92 21.68L16.59 21.68L17.92 21.68L18.91 21.68L18.91 42.74L17.92 42.74L16.59 42.74L15.92 42.74L15.26 42.74L13.6 42.74L12.27 42.74L11.83 42.74L11.61 42.74L10.28 42.74L9.29 42.74L9.29 21.68Z" fill="#FF83A0" fill-opacity="1.000000" fill-rule="evenodd"/>
	<path id="Форма 386 (Граница)" d="M1.32 30.49L2.65 30.49L4.31 30.49L5.31 30.49L6.96 30.49L8.96 30.49L10.61 30.49L10.61 51.55L8.96 51.55L6.96 51.55L5.31 51.55L4.31 51.55L2.65 51.55L1.32 51.55L1.32 30.49Z" fill="#FF83A0" fill-opacity="1.000000" fill-rule="evenodd"/>
	<path id="Форма 387 (Граница)" d="M6.63 48.78L7.63 48.78L8.96 48.78L9.95 48.78L13.27 48.78L16.92 48.78L18.58 48.78L18.58 69.85L16.92 69.85L13.27 69.85L9.95 69.85L8.96 69.85L7.63 69.85L6.63 69.85L6.63 48.78Z" fill="#FF83A0" fill-opacity="1.000000" fill-rule="evenodd"/>
	<path id="Форма 388 (Граница)" d="M104.2 79.33L102.87 79.33L101.21 79.33L100.55 79.33L99.55 79.33L98.55 79.33L98.55 58.27L99.55 58.27L100.55 58.27L101.21 58.27L102.87 58.27L104.2 58.27L104.2 79.33Z" fill="#FF83A0" fill-opacity="1.000000" fill-rule="evenodd"/>
	<path id="Форма 389 (Граница)" d="M92.91 74.53L93.91 74.53L95.24 74.53L95.46 74.53L95.9 74.53L96.89 74.53L98.55 74.53L99.88 74.53L100.55 74.53L100.55 95.6L99.88 95.6L98.55 95.6L96.89 95.6L95.9 95.6L95.46 95.6L95.24 95.6L93.91 95.6L92.91 95.6L92.91 74.53Z" fill="#FF83A0" fill-opacity="1.000000" fill-rule="evenodd"/>
	<path id="Форма 390 (Граница)" d="M110.83 138.23L111.83 138.23L113.16 138.23L113.38 138.23L113.82 138.23L114.82 138.23L115.81 138.23L116.81 138.23L118.13 138.23L119.13 138.23L119.79 138.23L120.46 138.23L120.46 159.29L119.79 159.29L119.13 159.29L118.13 159.29L116.81 159.29L115.81 159.29L114.82 159.29L113.82 159.29L113.38 159.29L113.16 159.29L111.83 159.29L110.83 159.29L110.83 138.23Z" fill="#FF83A0" fill-opacity="1.000000" fill-rule="evenodd"/>
	<path id="Форма 391 (Граница)" d="M124.11 154.55L122.45 154.55L120.13 154.55L118.47 154.55L116.81 154.55L115.81 154.55L115.81 133.49L116.81 133.49L118.47 133.49L120.13 133.49L122.45 133.49L124.11 133.49L124.11 154.55Z" fill="#FF83A0" fill-opacity="1.000000" fill-rule="evenodd"/>
	<path id="Форма 392 (Граница)" d="M133.4 147.1L132.4 147.1L130.75 147.1L129.42 147.1L127.76 147.1L126.1 147.1L124.77 147.1L123.44 147.1L121.79 147.1L120.13 147.1L120.13 126.03L121.79 126.03L123.44 126.03L124.77 126.03L126.1 126.03L127.76 126.03L129.42 126.03L130.75 126.03L132.4 126.03L133.4 126.03L133.4 147.1Z" fill="#FF83A0" fill-opacity="1.000000" fill-rule="evenodd"/>
	<path id="Форма 393 (Граница)" d="M17.92 155.17L18.91 155.17L20.24 155.17L20.24 176.24L18.91 176.24L17.92 176.24L17.92 155.17Z" fill="#FF83A0" fill-opacity="1.000000" fill-rule="evenodd"/>
	<path id="Форма 394 (Граница)" d="M12.61 145.01L13.6 145.01L14.93 145.01L15.92 145.01L17.25 145.01L17.69 145.01L18.58 145.01L19.57 145.01L21.23 145.01L23.56 145.01L23.56 166.07L21.23 166.07L19.57 166.07L18.58 166.07L17.69 166.07L17.25 166.07L15.92 166.07L14.93 166.07L13.6 166.07L12.61 166.07L12.61 145.01Z" fill="#FF83A0" fill-opacity="1.000000" fill-rule="evenodd"/>
	<path id="Форма 395 (Граница)" d="M24.55 179.62L23.56 179.62L22.23 179.62L21.57 179.62L20.9 179.62L19.91 179.62L19.91 158.56L20.9 158.56L21.57 158.56L22.23 158.56L23.56 158.56L24.55 158.56L24.55 179.62Z" fill="#FF83A0" fill-opacity="1.000000" fill-rule="evenodd"/>
	<path id="Форма 396 (Граница)" d="M28.54 186.4L27.21 186.4L25.55 186.4L24.55 186.4L23.23 186.4L21.9 186.4L21.9 165.34L23.23 165.34L24.55 165.34L25.55 165.34L27.21 165.34L28.54 165.34L28.54 186.4Z" fill="#FF83A0" fill-opacity="1.000000" fill-rule="evenodd"/>
	<path id="Форма 397 (Граница)" d="M61.72 94.19L62.71 94.19L64.04 94.19L64.71 94.19L65.7 94.19L66.7 94.19L67.69 94.19L68.69 94.19L69.35 94.19L70.35 94.19L70.35 115.25L69.35 115.25L68.69 115.25L67.69 115.25L66.7 115.25L65.7 115.25L64.71 115.25L64.04 115.25L62.71 115.25L61.72 115.25L61.72 94.19Z" fill="#65CDFE" fill-opacity="1.000000" fill-rule="evenodd"/>
	<path id="Форма 398 (Граница)" d="M61.72 111.13L62.71 111.13L64.04 111.13L64.71 111.13L65.37 111.13L66.03 111.13L66.7 111.13L67.69 111.13L68.69 111.13L68.69 132.19L67.69 132.19L66.7 132.19L66.03 132.19L65.37 132.19L64.71 132.19L64.04 132.19L62.71 132.19L61.72 132.19L61.72 111.13Z" fill="#65CDFE" fill-opacity="1.000000" fill-rule="evenodd"/>
	<path id="Форма 399 (Граница)" d="M55.75 120.61L56.74 120.61L58.07 120.61L58.73 120.61L59.4 120.61L60.06 120.61L60.72 120.61L61.39 120.61L62.05 120.61L62.05 141.68L61.39 141.68L60.72 141.68L60.06 141.68L59.4 141.68L58.73 141.68L58.07 141.68L56.74 141.68L55.75 141.68L55.75 120.61Z" fill="#65CDFE" fill-opacity="1.000000" fill-rule="evenodd"/>
	<path id="Форма 400 (Граница)" d="M57.07 133.49L58.07 133.49L59.4 133.49L60.06 133.49L60.72 133.49L61.39 133.49L62.05 133.49L62.05 154.55L61.39 154.55L60.72 154.55L60.06 154.55L59.4 154.55L58.07 154.55L57.07 154.55L57.07 133.49Z" fill="#65CDFE" fill-opacity="1.000000" fill-rule="evenodd"/>
	<path id="Форма 401 (Граница)" d="M65.04 167.43L64.04 167.43L62.72 167.43L62.05 167.43L61.39 167.43L61.39 146.36L62.05 146.36L62.72 146.36L64.04 146.36L65.04 146.36L65.04 167.43Z" fill="#65CDFE" fill-opacity="1.000000" fill-rule="evenodd"/>
	<path id="Форма 402 (Граница)" d="M132.07 113.89L130.74 113.89L128.75 113.89L127.43 113.89L126.76 113.89L126.1 113.89L125.43 113.89L124.77 113.89L123.78 113.89L123.11 113.89L123.11 92.83L123.78 92.83L124.77 92.83L125.43 92.83L126.1 92.83L126.76 92.83L127.43 92.83L128.75 92.83L130.74 92.83L132.07 92.83L132.07 113.89Z" fill="#65CDFE" fill-opacity="1.000000" fill-rule="evenodd"/>
	<path id="Форма 403 (Граница)" d="M114.82 128.07L116.14 128.07L117.8 128.07L118.8 128.07L119.46 128.07L120.12 128.07L121.45 128.07L121.45 149.13L120.12 149.13L119.46 149.13L118.8 149.13L117.8 149.13L116.14 149.13L114.82 149.13L114.82 128.07Z" fill="#65CDFE" fill-opacity="1.000000" fill-rule="evenodd"/>
	<path id="Форма 404 (Граница)" d="M15.92 146.36L16.92 146.36L18.25 146.36L18.58 146.36L18.91 146.36L20.24 146.36L21.23 146.36L22.23 146.36L24.22 146.36L24.22 167.43L22.23 167.43L21.23 167.43L20.24 167.43L18.91 167.43L18.58 167.43L18.25 167.43L16.92 167.43L15.92 167.43L15.92 146.36Z" fill="#65CDFE" fill-opacity="1.000000" fill-rule="evenodd"/>
	<path id="Форма 405 (Граница)" d="M19.24 27.78L20.24 27.78L21.9 27.78L23.22 27.78L23.23 48.84L21.9 48.84L20.24 48.84L19.24 48.84L19.24 27.78Z" fill="#65CDFE" fill-opacity="1.000000" fill-rule="evenodd"/>
	<path id="Форма 406 (Граница)" d="M11.28 37.26L12.27 37.26L13.93 37.26L14.93 37.26L16.59 37.26L18.58 37.26L20.57 37.26L20.57 58.33L18.58 58.33L16.59 58.33L14.93 58.33L13.93 58.33L12.27 58.33L11.28 58.33L11.28 37.26Z" fill="#65CDFE" fill-opacity="1.000000" fill-rule="evenodd"/>
	<path id="Форма 407 (Граница)" d="M41.81 30.54L40.81 30.54L39.48 30.54L38.82 30.54L37.83 30.54L36.83 30.54L36.83 9.48L37.83 9.48L38.82 9.48L39.48 9.48L40.81 9.48L41.81 9.48L41.81 30.54Z" fill="#65CDFE" fill-opacity="1.000000" fill-rule="evenodd"/>
	<path id="Форма 408 (Граница)" d="M102.87 80.69L101.87 80.69L100.21 80.69L98.55 80.69L97.56 80.69L96.56 80.69L95.24 80.69L95.24 59.63L96.56 59.63L97.56 59.63L98.55 59.63L100.21 59.63L101.87 59.63L102.87 59.63L102.87 80.69Z" fill="#65CDFE" fill-opacity="1.000000" fill-rule="evenodd"/>
	<path id="Форма 409 (Граница)" d="M19.91 55.56L20.9 55.56L22.23 55.56L22.56 55.56L22.89 55.56L23.89 55.56L24.88 55.56L25.22 55.56L25.55 55.56L26.21 55.56L26.88 55.56L27.54 55.56L28.2 55.56L28.2 76.62L27.54 76.62L26.88 76.62L26.21 76.62L25.55 76.62L25.22 76.62L24.88 76.62L23.89 76.62L22.89 76.62L22.56 76.62L22.23 76.62L20.9 76.62L19.91 76.62L19.91 55.56Z" fill="#DB2D88" fill-opacity="1.000000" fill-rule="evenodd"/>
	<path id="Форма 410 (Граница)" d="M29.86 63.01L31.19 63.01L32.85 63.01L33.51 63.01L34.17 63.01L35.17 63.01L36.17 63.01L37.16 63.01L38.49 63.01L39.48 63.01L40.14 63.01L40.48 63.01L40.81 63.01L41.48 63.01L42.47 63.01L43.47 63.01L44.46 63.01L45.46 63.01L46.12 63.01L46.79 63.01L47.45 63.01L48.11 63.01L48.78 63.01L48.78 84.08L48.11 84.08L47.45 84.08L46.79 84.08L46.12 84.08L45.46 84.08L44.46 84.08L43.47 84.08L42.47 84.08L41.48 84.08L40.82 84.08L40.48 84.08L40.15 84.08L39.48 84.08L38.49 84.08L37.16 84.08L36.17 84.08L35.17 84.08L34.17 84.08L33.51 84.08L32.85 84.08L31.19 84.08L29.86 84.08L29.86 63.01Z" fill="#DB2D88" fill-opacity="1.000000" fill-rule="evenodd"/>
	<path id="Форма 411 (Граница)" d="M55.08 88.14L53.75 88.14L52.09 88.14L51.1 88.14L50.44 88.14L49.77 88.14L48.78 88.14L48.78 67.08L49.77 67.08L50.44 67.08L51.1 67.08L52.09 67.08L53.75 67.08L55.08 67.08L55.08 88.14Z" fill="#DB2D88" fill-opacity="1.000000" fill-rule="evenodd"/>
	<path id="Форма 412 (Граница)" d="M56.41 75.21L57.4 75.21L59.06 75.21L60.06 75.21L60.72 75.21L60.72 96.27L60.06 96.27L59.06 96.27L57.4 96.27L56.41 96.27L56.41 75.21Z" fill="#FF1D6E" fill-opacity="1.000000" fill-rule="evenodd"/>
	<path id="Форма 413 (Граница)" d="M82.29 36.59L83.29 36.59L84.62 36.59L85.61 36.59L86.06 36.59L86.94 36.59L87.94 36.59L88.6 36.59L89.26 36.59L89.93 36.59L89.93 57.65L89.26 57.65L88.6 57.65L87.94 57.65L86.94 57.65L86.06 57.65L85.61 57.65L84.62 57.65L83.29 57.65L82.29 57.65L82.29 36.59Z" fill="#FF1D6E" fill-opacity="1.000000" fill-rule="evenodd"/>
</svg>
