<svg width="46.016357" height="65.867912" viewBox="0 0 46.0164 65.8679" fill="none" xmlns="http://www.w3.org/2000/svg" xmlns:xlink="http://www.w3.org/1999/xlink">
	<desc>
			Created with Pixso.
	</desc>
	<defs/>
	<path id="Форма 311 (Граница)" d="M3.31 18.87L3.65 18.87L4.09 18.87L4.42 18.87L4.86 18.87L5.08 18.87L5.3 18.87L5.86 18.87L6.3 18.87L6.63 18.87L6.96 18.87L7.3 18.87L7.63 18.87L7.63 25.86L7.3 25.86L6.96 25.86L6.63 25.86L6.3 25.86L5.86 25.86L5.3 25.86L5.08 25.86L4.86 25.86L4.42 25.86L4.09 25.86L3.65 25.86L3.31 25.86L3.31 18.87Z" fill="#DB2D88" fill-opacity="1.000000" fill-rule="evenodd"/>
	<path id="Форма 312 (Граница)" d="M13.49 29.01L13.16 29.01L12.61 29.01L12.16 29.01L11.72 29.01L11.5 29.01L11.28 29.01L10.72 29.01L9.95 29.01L8.4 29.01L7.07 29.01L6.74 29.01L6.52 29.01L6.52 22.02L6.74 22.02L7.07 22.02L8.4 22.02L9.95 22.02L10.72 22.02L11.28 22.02L11.5 22.02L11.72 22.02L12.16 22.02L12.61 22.02L13.16 22.02L13.49 22.02L13.49 29.01Z" fill="#DB2D88" fill-opacity="1.000000" fill-rule="evenodd"/>
	<path id="Форма 313 (Граница)" d="M17.25 31.25L16.92 31.25L16.37 31.25L15.92 31.25L15.26 31.25L14.6 31.25L14.15 31.25L13.82 31.25L13.6 31.25L13.6 24.27L13.82 24.27L14.15 24.27L14.6 24.27L15.26 24.27L15.92 24.27L16.37 24.27L16.92 24.27L17.25 24.27L17.25 31.25Z" fill="#DB2D88" fill-opacity="1.000000" fill-rule="evenodd"/>
	<path id="Форма 314 (Граница)" d="M5.08 27.19L5.42 27.19L5.97 27.19L6.3 27.19L6.85 27.19L7.63 27.19L8.07 27.19L8.29 27.19L8.62 27.19L9.18 27.19L9.18 34.17L8.62 34.17L8.29 34.17L8.07 34.17L7.63 34.17L6.85 34.17L6.3 34.17L5.97 34.17L5.42 34.17L5.08 34.17L5.08 27.19Z" fill="#DB2D88" fill-opacity="1.000000" fill-rule="evenodd"/>
	<path id="Форма 315 (Граница)" d="M3.53 32.36L3.87 32.36L4.31 32.36L4.64 32.36L5.19 32.36L5.53 32.36L5.86 32.36L6.41 32.36L6.74 32.36L6.74 39.34L6.41 39.34L5.86 39.34L5.53 39.34L5.19 39.34L4.64 39.34L4.31 39.34L3.87 39.34L3.53 39.34L3.53 32.36Z" fill="#DB2D88" fill-opacity="1.000000" fill-rule="evenodd"/>
	<path id="Форма 316 (Граница)" d="M1.99 35.5L2.32 35.5L2.76 35.5L2.98 35.5L3.31 35.5L3.65 35.5L3.98 35.5L4.42 35.5L4.75 35.5L4.75 42.49L4.42 42.49L3.98 42.49L3.65 42.49L3.31 42.49L2.98 42.49L2.76 42.49L2.32 42.49L1.99 42.49L1.99 35.5Z" fill="#DB2D88" fill-opacity="1.000000" fill-rule="evenodd"/>
	<path id="Форма 317 (Граница)" d="M1.21 39.77L0.88 39.77L0.88 46.76L3.09 46.76L3.65 46.76L4.2 46.76L4.2 39.77L3.65 39.77L3.09 39.77L1.21 39.77Z" fill="#DB2D88" fill-opacity="1.000000" fill-rule="evenodd"/>
	<path id="Форма 318 (Граница)" d="M1.54 44.72L1.99 44.72L2.54 44.72L2.87 44.72L3.31 44.72L3.76 44.72L4.42 44.72L5.08 44.72L5.64 44.72L6.19 44.72L6.19 51.7L5.64 51.7L5.08 51.7L4.42 51.7L3.76 51.7L3.31 51.7L2.87 51.7L2.54 51.7L1.99 51.7L1.54 51.7L1.54 44.72Z" fill="#DB2D88" fill-opacity="1.000000" fill-rule="evenodd"/>
	<path id="Форма 319 (Граница)" d="M4.2 48.31L4.64 48.31L5.19 48.31L5.53 48.31L6.08 48.31L6.74 48.31L7.18 48.31L7.41 48.31L7.41 55.3L7.18 55.3L6.74 55.3L6.08 55.3L5.53 55.3L5.19 55.3L4.64 55.3L4.2 55.3L4.2 48.31Z" fill="#DB2D88" fill-opacity="1.000000" fill-rule="evenodd"/>
	<path id="Форма 320 (Граница)" d="M6.19 51.91L6.52 51.91L7.07 51.91L7.41 51.91L7.85 51.91L8.29 51.91L8.51 51.91L8.73 51.91L8.95 51.91L8.95 58.9L8.73 58.9L8.51 58.9L8.29 58.9L7.85 58.9L7.41 58.9L7.07 58.9L6.52 58.9L6.19 58.9L6.19 51.91Z" fill="#DB2D88" fill-opacity="1.000000" fill-rule="evenodd"/>
	<path id="Форма 321 (Граница)" d="M9.07 55.06L9.51 55.06L10.06 55.06L10.28 55.06L10.61 55.06L10.61 62.04L10.28 62.04L10.06 62.04L9.51 62.04L9.07 62.04L9.07 55.06Z" fill="#DB2D88" fill-opacity="1.000000" fill-rule="evenodd"/>
	<path id="Форма 322 (Граница)" d="M8.62 54.83L8.95 54.83L9.51 54.83L9.84 54.83L10.06 54.83L10.39 54.83L10.84 54.83L11.28 54.83L11.28 61.82L10.84 61.82L10.39 61.82L10.06 61.82L9.84 61.82L9.51 61.82L8.95 61.82L8.62 61.82L8.62 54.83Z" fill="#DB2D88" fill-opacity="1.000000" fill-rule="evenodd"/>
	<path id="Форма 323 (Граница)" d="M11.06 55.96L11.39 55.96L11.83 55.96L12.16 55.96L12.49 55.96L12.83 55.96L13.16 55.96L13.38 55.96L13.6 55.96L13.6 62.94L13.38 62.94L13.16 62.94L12.83 62.94L12.49 62.94L12.16 62.94L11.83 62.94L11.39 62.94L11.06 62.94L11.06 55.96Z" fill="#DB2D88" fill-opacity="1.000000" fill-rule="evenodd"/>
	<path id="Форма 324 (Граница)" d="M13.49 57.3L13.82 57.3L14.38 57.3L14.71 57.3L14.93 57.3L15.15 57.3L15.37 57.3L15.59 57.3L15.92 57.3L16.26 57.3L16.48 57.3L16.92 57.3L17.47 57.3L17.8 57.3L17.8 64.29L17.47 64.29L16.92 64.29L16.48 64.29L16.26 64.29L15.92 64.29L15.59 64.29L15.37 64.29L15.15 64.29L14.93 64.29L14.71 64.29L14.38 64.29L13.82 64.29L13.49 64.29L13.49 57.3Z" fill="#DB2D88" fill-opacity="1.000000" fill-rule="evenodd"/>
	<path id="Форма 325 (Граница)" d="M18.58 58.88L18.91 58.88L19.35 58.88L19.68 58.88L20.02 58.88L20.35 58.88L20.57 58.88L20.79 58.88L21.09 58.88L21.23 58.88L21.79 58.88L22.34 58.88L22.67 58.88L22.67 65.86L22.34 65.86L21.79 65.86L21.23 65.86L21.09 65.86L20.79 65.86L20.57 65.86L20.35 65.86L20.02 65.86L19.68 65.86L19.35 65.86L18.91 65.86L18.58 65.86L18.58 58.88Z" fill="#DB2D88" fill-opacity="1.000000" fill-rule="evenodd"/>
	<path id="Форма 326 (Граница)" d="M17.47 57.75L17.91 57.75L18.47 57.75L18.69 57.75L19.02 57.75L19.35 57.75L19.68 57.75L20.02 57.75L20.35 57.75L20.68 57.75L20.68 64.74L20.35 64.74L20.02 64.74L19.68 64.74L19.35 64.74L19.02 64.74L18.69 64.74L18.47 64.74L17.91 64.74L17.47 64.74L17.47 57.75Z" fill="#DB2D88" fill-opacity="1.000000" fill-rule="evenodd"/>
	<path id="Форма 327 (Граница)" d="M22.56 56.18L22.89 56.18L23.45 56.18L23.78 56.18L24 56.18L24.33 56.18L24.66 56.18L24.99 56.18L25.33 56.18L25.55 56.18L25.88 56.18L26.21 56.18L26.43 56.18L26.43 63.17L26.21 63.17L25.88 63.17L25.55 63.17L25.33 63.17L24.99 63.17L24.66 63.17L24.33 63.17L24 63.17L23.78 63.17L23.45 63.17L22.89 63.17L22.56 63.17L22.56 56.18Z" fill="#DB2D88" fill-opacity="1.000000" fill-rule="evenodd"/>
	<path id="Форма 328 (Граница)" d="M26.76 55.28L27.1 55.28L27.54 55.28L27.87 55.28L28.31 55.28L28.76 55.28L29.31 55.28L29.75 55.28L30.19 55.28L30.64 55.28L30.86 55.28L30.86 62.27L30.64 62.27L30.19 62.27L29.75 62.27L29.31 62.27L28.76 62.27L28.31 62.27L27.87 62.27L27.54 62.27L27.1 62.27L26.76 62.27L26.76 55.28Z" fill="#DB2D88" fill-opacity="1.000000" fill-rule="evenodd"/>
	<path id="Форма 329 (Граница)" d="M28.76 51.91L29.31 51.91L29.97 51.91L30.19 51.91L30.41 51.91L30.86 51.91L31.41 51.91L31.85 51.91L32.18 51.91L32.41 51.91L32.63 51.91L32.63 58.9L32.41 58.9L32.18 58.9L31.85 58.9L31.41 58.9L30.86 58.9L30.41 58.9L30.19 58.9L29.97 58.9L29.31 58.9L28.76 58.9L28.76 51.91Z" fill="#DB2D88" fill-opacity="1.000000" fill-rule="evenodd"/>
	<path id="Форма 330 (Граница)" d="M31.19 48.31L31.52 48.31L31.96 48.31L32.11 48.31L32.18 48.31L32.41 48.31L32.74 48.31L33.03 48.31L33.18 48.31L33.73 48.31L34.29 48.31L34.84 48.31L35.17 48.31L35.5 48.31L36.39 48.31L37.05 48.31L37.05 55.3L36.39 55.3L35.5 55.3L35.17 55.3L34.84 55.3L34.29 55.3L33.73 55.3L33.18 55.3L33.03 55.3L32.74 55.3L32.41 55.3L32.18 55.3L32.11 55.3L31.96 55.3L31.52 55.3L31.19 55.3L31.19 48.31Z" fill="#DB2D88" fill-opacity="1.000000" fill-rule="evenodd"/>
	<path id="Форма 331 (Граница)" d="M25.88 56.63L26.21 56.63L26.65 56.63L26.73 56.63L26.87 56.63L27.21 56.63L27.65 56.63L28.09 56.63L28.31 56.63L28.53 56.63L28.98 56.63L29.31 56.63L29.31 63.62L28.98 63.62L28.53 63.62L28.31 63.62L28.09 63.62L27.65 63.62L27.21 63.62L26.87 63.62L26.73 63.62L26.65 63.62L26.21 63.62L25.88 63.62L25.88 56.63Z" fill="#DB2D88" fill-opacity="1.000000" fill-rule="evenodd"/>
	<path id="Форма 332 (Граница)" d="M30.53 53.26L30.86 53.26L31.3 53.26L31.52 53.26L31.74 53.26L31.96 53.26L32.18 53.26L32.41 53.26L32.63 53.26L32.85 53.26L32.85 60.24L32.63 60.24L32.41 60.24L32.18 60.24L31.96 60.24L31.74 60.24L31.52 60.24L31.3 60.24L30.86 60.24L30.53 60.24L30.53 53.26Z" fill="#DB2D88" fill-opacity="1.000000" fill-rule="evenodd"/>
	<path id="Форма 333 (Граница)" d="M7.3 27.64L7.85 27.64L8.62 27.64L9.29 27.64L9.95 27.64L10.61 27.64L11.5 27.64L12.49 27.64L13.38 27.64L13.71 27.64L14.04 27.64L14.49 27.64L14.71 27.64L14.93 27.64L15.15 27.64L15.37 27.64L15.59 27.64L15.59 34.62L15.37 34.62L15.15 34.62L14.93 34.62L14.71 34.62L14.49 34.62L14.04 34.62L13.71 34.62L13.38 34.62L12.49 34.62L11.5 34.62L10.61 34.62L9.95 34.62L9.29 34.62L8.62 34.62L7.85 34.62L7.3 34.62L7.3 27.64Z" fill="#FF1D6E" fill-opacity="1.000000" fill-rule="evenodd"/>
	<path id="Форма 334 (Граница)" d="M5.53 30.11L5.86 30.11L6.41 30.11L6.96 30.11L7.74 30.11L8.62 30.11L9.62 30.11L10.5 30.11L10.84 30.11L11.17 30.11L11.39 30.11L11.83 30.11L12.38 30.11L12.83 30.11L13.27 30.11L13.71 30.11L14.04 30.11L14.38 30.11L14.71 30.11L14.93 30.11L15.15 30.11L15.37 30.11L15.59 30.11L15.81 30.11L16.14 30.11L16.48 30.11L16.7 30.11L16.92 30.11L17.14 30.11L17.36 30.11L17.58 30.11L17.58 37.1L17.36 37.1L17.14 37.1L16.92 37.1L16.7 37.1L16.48 37.1L16.14 37.1L15.81 37.1L15.59 37.1L15.37 37.1L15.15 37.1L14.93 37.1L14.71 37.1L14.38 37.1L14.04 37.1L13.71 37.1L13.27 37.1L12.83 37.1L12.38 37.1L11.83 37.1L11.39 37.1L11.17 37.1L10.84 37.1L10.5 37.1L9.62 37.1L8.62 37.1L7.74 37.1L6.96 37.1L6.41 37.1L5.86 37.1L5.53 37.1L5.53 30.11Z" fill="#FF1D6E" fill-opacity="1.000000" fill-rule="evenodd"/>
	<path id="Форма 335 (Граница)" d="M5.08 33.93L5.53 33.93L6.08 33.93L6.41 33.93L6.96 33.93L7.74 33.93L8.62 33.93L9.62 33.93L10.39 33.93L11.06 33.93L11.72 33.93L12.27 33.93L12.83 33.93L13.27 33.93L13.71 33.93L14.04 33.93L14.82 33.93L15.7 33.93L16.03 33.93L16.37 33.93L16.7 33.93L16.92 33.93L16.92 40.92L16.7 40.92L16.37 40.92L16.03 40.92L15.7 40.92L14.82 40.92L14.04 40.92L13.71 40.92L13.27 40.92L12.83 40.92L12.27 40.92L11.72 40.92L11.06 40.92L10.39 40.92L9.62 40.92L8.62 40.92L7.74 40.92L6.96 40.92L6.41 40.92L6.08 40.92L5.53 40.92L5.08 40.92L5.08 33.93Z" fill="#FF1D6E" fill-opacity="1.000000" fill-rule="evenodd"/>
	<path id="Форма 336 (Граница)" d="M4.31 35.95L3.98 35.95L3.98 42.94L5.75 42.94L6.3 42.94L7.52 42.94L8.29 42.94L9.51 42.94L10.06 42.94L12.05 42.94L12.94 42.94L16.03 42.94L16.03 35.95L12.94 35.95L12.05 35.95L10.06 35.95L9.51 35.95L8.29 35.95L7.52 35.95L6.3 35.95L5.75 35.95L4.31 35.95Z" fill="#FF1D6E" fill-opacity="1.000000" fill-rule="evenodd"/>
	<path id="Форма 337 (Граница)" d="M3.42 38.43L3.09 38.43L3.09 45.41L4.2 45.41L4.86 45.41L7.52 45.41L8.18 45.41L9.4 45.41L10.39 45.41L12.27 45.41L12.83 45.41L14.49 45.41L15.26 45.41L16.48 45.41L16.48 38.43L15.26 38.43L14.49 38.43L12.83 38.43L12.27 38.43L10.39 38.43L9.4 38.43L8.18 38.43L7.52 38.43L4.86 38.43L4.2 38.43L3.42 38.43Z" fill="#FF1D6E" fill-opacity="1.000000" fill-rule="evenodd"/>
	<path id="Форма 338 (Граница)" d="M4.2 43.82L4.53 43.82L5.08 43.82L5.3 43.82L5.53 43.82L5.86 43.82L6.19 43.82L6.41 43.82L6.63 43.82L7.3 43.82L7.74 43.82L8.18 43.82L9.07 43.82L9.84 43.82L10.39 43.82L11.28 43.82L12.27 43.82L12.83 43.82L13.27 43.82L13.6 43.82L14.04 43.82L14.6 43.82L14.93 43.82L15.15 43.82L15.37 43.82L15.59 43.82L15.81 43.82L16.03 43.82L16.03 50.81L15.81 50.81L15.59 50.81L15.37 50.81L15.15 50.81L14.93 50.81L14.6 50.81L14.04 50.81L13.6 50.81L13.27 50.81L12.83 50.81L12.27 50.81L11.28 50.81L10.39 50.81L9.84 50.81L9.07 50.81L8.18 50.81L7.74 50.81L7.3 50.81L6.63 50.81L6.41 50.81L6.19 50.81L5.86 50.81L5.53 50.81L5.3 50.81L5.08 50.81L4.53 50.81L4.2 50.81L4.2 43.82Z" fill="#FF1D6E" fill-opacity="1.000000" fill-rule="evenodd"/>
	<path id="Форма 339 (Граница)" d="M6.19 47.87L6.63 47.87L7.19 47.87L7.52 47.87L8.51 47.87L9.95 47.87L10.61 47.87L11.28 47.87L12.49 47.87L13.49 47.87L14.26 47.87L14.82 47.87L15.37 47.87L15.92 47.87L16.26 47.87L16.48 47.87L17.14 47.87L17.91 47.87L18.14 47.87L18.36 47.87L18.69 47.87L18.91 47.87L18.91 54.85L18.69 54.85L18.36 54.85L18.14 54.85L17.91 54.85L17.14 54.85L16.48 54.85L16.26 54.85L15.92 54.85L15.37 54.85L14.82 54.85L14.26 54.85L13.49 54.85L12.49 54.85L11.28 54.85L10.61 54.85L9.95 54.85L8.51 54.85L7.52 54.85L7.19 54.85L6.63 54.85L6.19 54.85L6.19 47.87Z" fill="#FF1D6E" fill-opacity="1.000000" fill-rule="evenodd"/>
	<path id="Форма 340 (Граница)" d="M9.29 51.46L9.62 51.46L10.06 51.46L10.28 51.46L10.61 51.46L11.06 51.46L11.83 51.46L12.83 51.46L13.6 51.46L14.26 51.46L14.82 51.46L15.11 51.46L15.26 51.46L15.81 51.46L16.26 51.46L16.48 51.46L16.61 51.46L16.7 51.46L17.03 51.46L17.36 51.46L17.58 51.46L17.91 51.46L18.25 51.46L18.47 51.46L18.8 51.46L19.13 51.46L19.35 51.46L19.57 51.46L19.79 51.46L19.8 58.45L19.57 58.45L19.35 58.45L19.13 58.45L18.8 58.45L18.47 58.45L18.25 58.45L17.91 58.45L17.58 58.45L17.36 58.45L17.03 58.45L16.7 58.45L16.61 58.45L16.48 58.45L16.26 58.45L15.81 58.45L15.26 58.45L15.11 58.45L14.82 58.45L14.26 58.45L13.6 58.45L12.83 58.45L11.83 58.45L11.06 58.45L10.61 58.45L10.28 58.45L10.06 58.45L9.62 58.45L9.29 58.45L9.29 51.46Z" fill="#FF1D6E" fill-opacity="1.000000" fill-rule="evenodd"/>
	<path id="Форма 341 (Граница)" d="M14.38 53.93L14.82 53.93L15.37 53.93L15.59 53.93L15.92 53.93L16.48 53.93L17.03 53.93L17.36 53.93L17.69 53.93L18.03 53.93L18.25 53.93L18.47 53.93L18.69 53.93L18.91 53.93L19.24 53.93L19.57 53.93L19.79 53.93L20.13 53.93L20.46 53.93L20.79 53.93L21.23 53.93L21.79 53.93L22.34 53.93L22.67 53.93L22.89 53.93L22.89 60.92L22.67 60.92L22.34 60.92L21.79 60.92L21.23 60.92L20.79 60.92L20.46 60.92L20.13 60.92L19.8 60.92L19.57 60.92L19.24 60.92L18.91 60.92L18.69 60.92L18.47 60.92L18.25 60.92L18.03 60.92L17.69 60.92L17.36 60.92L17.03 60.92L16.48 60.92L15.92 60.92L15.59 60.92L15.37 60.92L14.82 60.92L14.38 60.92L14.38 53.93Z" fill="#FF1D6E" fill-opacity="1.000000" fill-rule="evenodd"/>
	<path id="Форма 342 (Граница)" d="M21.23 48.54L21.57 48.54L22.01 48.54L22.34 48.54L22.67 48.54L23 48.54L23.34 48.54L23.78 48.54L24.44 48.54L24.77 48.54L25.1 48.54L25.66 48.54L26.21 48.54L26.76 48.54L27.32 48.54L27.76 48.54L27.98 48.54L28.31 48.54L28.64 48.54L28.98 48.54L29.42 48.54L29.97 48.54L30.41 48.54L30.75 48.54L31.08 48.54L31.3 48.54L31.52 48.54L31.74 48.54L31.74 55.52L31.52 55.52L31.3 55.52L31.08 55.52L30.75 55.52L30.41 55.52L29.97 55.52L29.42 55.52L28.98 55.52L28.64 55.52L28.31 55.52L27.98 55.52L27.76 55.52L27.32 55.52L26.76 55.52L26.21 55.52L25.66 55.52L25.1 55.52L24.77 55.52L24.44 55.52L23.78 55.52L23.34 55.52L23 55.52L22.67 55.52L22.34 55.52L22.01 55.52L21.57 55.52L21.23 55.52L21.23 48.54Z" fill="#FF1D6E" fill-opacity="1.000000" fill-rule="evenodd"/>
	<path id="Форма 343 (Граница)" d="M22.34 52.58L22.67 52.58L23.22 52.58L23.56 52.58L23.89 52.58L24.22 52.58L24.55 52.58L24.88 52.58L24.96 52.58L25.1 52.58L25.33 52.58L25.4 52.58L25.55 52.58L25.7 52.58L25.77 52.58L26.43 52.58L27.21 52.58L27.21 59.57L26.43 59.57L25.77 59.57L25.7 59.57L25.55 59.57L25.4 59.57L25.33 59.57L25.1 59.57L24.96 59.57L24.88 59.57L24.55 59.57L24.22 59.57L23.89 59.57L23.56 59.57L23.22 59.57L22.67 59.57L22.34 59.57L22.34 52.58Z" fill="#FF1D6E" fill-opacity="1.000000" fill-rule="evenodd"/>
	<path id="Форма 344 (Граница)" d="M26.32 42.92L26.76 42.92L27.43 42.92L27.98 42.92L28.64 42.92L29.2 42.92L29.75 42.92L30.08 42.92L30.41 42.92L31.08 42.92L31.41 42.92L31.74 42.92L32.41 42.92L32.96 42.92L33.4 42.92L33.84 42.92L34.29 42.92L35.06 42.92L35.83 42.92L36.17 42.92L36.39 42.92L36.72 42.92L37.27 42.92L37.72 42.92L38.05 42.92L38.38 42.92L38.71 42.92L39.04 42.92L39.26 42.92L39.49 42.92L39.71 42.92L39.93 42.92L40.15 42.92L40.37 42.92L40.7 42.92L41.03 42.92L41.25 42.92L41.25 49.91L41.03 49.91L40.7 49.91L40.37 49.91L40.15 49.91L39.93 49.91L39.71 49.91L39.49 49.91L39.26 49.91L39.04 49.91L38.71 49.91L38.38 49.91L38.05 49.91L37.72 49.91L37.27 49.91L36.72 49.91L36.39 49.91L36.17 49.91L35.83 49.91L35.06 49.91L34.29 49.91L33.84 49.91L33.4 49.91L32.96 49.91L32.41 49.91L31.74 49.91L31.41 49.91L31.08 49.91L30.41 49.91L30.08 49.91L29.75 49.91L29.2 49.91L28.64 49.91L27.98 49.91L27.43 49.91L26.76 49.91L26.32 49.91L26.32 42.92Z" fill="#FF1D6E" fill-opacity="1.000000" fill-rule="evenodd"/>
	<path id="Форма 345 (Граница)" d="M46.01 43.61L45.68 43.61L45.24 43.61L44.91 43.61L44.46 43.61L44.02 43.61L43.47 43.61L43.14 43.61L42.8 43.61L42.14 43.61L41.81 43.61L41.48 43.61L40.59 43.61L39.49 43.61L36.94 43.61L34.4 43.61L33.51 43.61L32.74 43.61L32.3 43.61L31.85 43.61L30.64 43.61L29.75 43.61L29.42 43.61L28.98 43.61L28.64 43.61L27.98 43.61L27.32 43.61L27.1 43.61L27.1 36.63L27.32 36.63L27.98 36.63L28.64 36.63L28.98 36.63L29.42 36.63L29.75 36.63L30.64 36.63L31.85 36.63L32.3 36.63L32.74 36.63L33.51 36.63L34.4 36.63L36.94 36.63L39.49 36.63L40.59 36.63L41.48 36.63L41.81 36.63L42.14 36.63L42.8 36.63L43.14 36.63L43.47 36.63L44.02 36.63L44.46 36.63L44.91 36.63L45.24 36.63L45.68 36.63L46.01 36.63L46.01 43.61Z" fill="#FF1D6E" fill-opacity="1.000000" fill-rule="evenodd"/>
	<path id="Форма 346 (Граница)" d="M22.45 36.18L22.12 36.18L22.12 43.16L27.32 43.16L27.76 43.16L29.31 43.16L30.19 43.16L31.52 43.16L31.52 36.18L30.19 36.18L29.31 36.18L27.76 36.18L27.32 36.18L22.45 36.18Z" fill="#FF1D6E" fill-opacity="1.000000" fill-rule="evenodd"/>
	<path id="Форма 347 (Граница)" d="M19.91 40.22L20.24 40.22L20.68 40.22L20.9 40.22L21.23 40.22L21.68 40.22L21.9 40.22L22.12 40.22L22.67 40.22L23.22 40.22L23.89 40.22L24.55 40.22L25.11 40.22L25.66 40.22L26.1 40.22L26.43 40.22L26.99 40.22L27.54 40.22L27.54 47.21L26.99 47.21L26.43 47.21L26.1 47.21L25.66 47.21L25.11 47.21L24.55 47.21L23.89 47.21L23.22 47.21L22.67 47.21L22.12 47.21L21.9 47.21L21.68 47.21L21.23 47.21L20.9 47.21L20.68 47.21L20.24 47.21L19.91 47.21L19.91 40.22Z" fill="#FF1D6E" fill-opacity="1.000000" fill-rule="evenodd"/>
	<path id="Форма 348 (Граница)" d="M21.9 44.04L21.45 44.04L21.45 51.03L25.22 51.03L28.76 51.03L28.76 44.04L25.22 44.04L21.9 44.04Z" fill="#FF1D6E" fill-opacity="1.000000" fill-rule="evenodd"/>
	<path id="Форма 349 (Граница)" d="M22.12 32.13L21.68 32.13L21.68 39.12L29.64 39.12L31.52 39.12L38.27 39.12L38.27 32.13L31.52 32.13L29.64 32.13L22.12 32.13Z" fill="#FF1D6E" fill-opacity="1.000000" fill-rule="evenodd"/>
	<path id="Форма 350 (Граница)" d="M46.01 37.99L45.57 37.99L45.02 37.99L44.02 37.99L42.58 37.99L41.59 37.99L40.81 37.99L40.26 37.99L39.93 37.99L39.37 37.99L39.37 31.01L39.93 31.01L40.26 31.01L40.81 31.01L41.59 31.01L42.58 31.01L44.02 31.01L45.02 31.01L45.57 31.01L46.01 31.01L46.01 37.99Z" fill="#FF1D6E" fill-opacity="1.000000" fill-rule="evenodd"/>
	<path id="Форма 351 (Граница)" d="M37.38 36.42L37.05 36.42L36.61 36.42L36.28 36.42L36.06 36.42L35.83 36.42L35.5 36.42L35.17 36.42L34.73 36.42L34.4 36.42L34.06 36.42L33.73 36.42L33.29 36.42L31.74 36.42L30.3 36.42L29.86 36.42L29.64 36.42L29.42 36.42L28.64 36.42L27.98 36.42L27.65 36.42L27.21 36.42L26.87 36.42L26.65 36.42L26.1 36.42L26.1 29.44L26.65 29.44L26.87 29.44L27.21 29.44L27.65 29.44L27.98 29.44L28.64 29.44L29.42 29.44L29.64 29.44L29.86 29.44L30.3 29.44L31.74 29.44L33.29 29.44L33.73 29.44L34.06 29.44L34.4 29.44L34.73 29.44L35.17 29.44L35.5 29.44L35.83 29.44L36.06 29.44L36.28 29.44L36.61 29.44L37.05 29.44L37.38 29.44L37.38 36.42Z" fill="#FF1D6E" fill-opacity="1.000000" fill-rule="evenodd"/>
	<path id="Форма 352 (Граница)" d="M33.84 32.38L33.51 32.38L33.07 32.38L32.74 32.38L32.07 32.38L31.3 32.38L30.64 32.38L30.31 32.38L29.97 32.38L29.31 32.38L28.98 32.38L28.64 32.38L28.09 32.38L27.65 32.38L26.43 32.38L25.22 32.38L24.88 32.38L24.66 32.38L24.44 32.38L24.44 25.39L24.66 25.39L24.88 25.39L25.22 25.39L26.43 25.39L27.65 25.39L28.09 25.39L28.64 25.39L28.98 25.39L29.31 25.39L29.97 25.39L30.31 25.39L30.64 25.39L31.3 25.39L32.07 25.39L32.74 25.39L33.07 25.39L33.51 25.39L33.84 25.39L33.84 32.38Z" fill="#FF1D6E" fill-opacity="1.000000" fill-rule="evenodd"/>
	<path id="Форма 353 (Граница)" d="M20.13 24.72L20.46 24.72L21.01 24.72L21.34 24.72L21.68 24.72L21.9 24.72L22.12 24.72L22.67 24.72L23.34 24.72L23.78 24.72L24.11 24.72L24.33 24.72L24.55 24.72L24.99 24.72L25.33 24.72L25.55 24.72L25.55 31.7L25.33 31.7L24.99 31.7L24.55 31.7L24.33 31.7L24.11 31.7L23.78 31.7L23.34 31.7L22.67 31.7L22.12 31.7L21.9 31.7L21.68 31.7L21.34 31.7L21.01 31.7L20.46 31.7L20.13 31.7L20.13 24.72Z" fill="#FF1D6E" fill-opacity="1.000000" fill-rule="evenodd"/>
	<path id="Форма 354 (Граница)" d="M33.18 26.98L32.85 26.98L32.29 26.98L31.74 26.98L30.97 26.98L29.97 26.98L29.09 26.98L28.53 26.98L27.98 26.98L27.43 26.98L26.87 26.98L26.87 20L27.43 20L27.98 20L28.53 20L29.09 20L29.97 20L30.97 20L31.74 20L32.29 20L32.85 20L33.18 20L33.18 26.98Z" fill="#FF1D6E" fill-opacity="1.000000" fill-rule="evenodd"/>
	<path id="Форма 355 (Граница)" d="M33.62 23.39L33.29 23.39L32.85 23.39L32.63 23.39L32.41 23.39L32.07 23.39L31.63 23.39L31.19 23.39L30.64 23.39L30.3 23.39L29.97 23.39L29.31 23.39L28.98 23.39L28.64 23.39L28.09 23.39L27.76 23.39L27.54 23.39L27.54 16.4L27.76 16.4L28.09 16.4L28.64 16.4L28.98 16.4L29.31 16.4L29.97 16.4L30.3 16.4L30.64 16.4L31.19 16.4L31.63 16.4L32.07 16.4L32.41 16.4L32.63 16.4L32.85 16.4L33.29 16.4L33.62 16.4L33.62 23.39Z" fill="#FF1D6E" fill-opacity="1.000000" fill-rule="evenodd"/>
	<path id="Форма 356 (Граница)" d="M31.85 21.14L31.52 21.14L31.08 21.14L30.86 21.14L30.53 21.14L30.19 21.14L29.86 21.14L29.53 21.14L29.53 14.15L29.86 14.15L30.19 14.15L30.53 14.15L30.86 14.15L31.08 14.15L31.52 14.15L31.85 14.15L31.85 21.14Z" fill="#FF1D6E" fill-opacity="1.000000" fill-rule="evenodd"/>
	<path id="Форма 357 (Граница)" d="M24.99 17.52L25.33 17.52L25.77 17.52L26.21 17.52L26.76 17.52L26.99 17.52L27.21 17.52L27.54 17.52L27.76 17.52L27.98 17.52L28.2 17.52L28.2 24.51L27.98 24.51L27.76 24.51L27.54 24.51L27.21 24.51L26.99 24.51L26.76 24.51L26.21 24.51L25.77 24.51L25.33 24.51L24.99 24.51L24.99 17.52Z" fill="#FF1D6E" fill-opacity="1.000000" fill-rule="evenodd"/>
	<path id="Форма 358 (Граница)" d="M17.91 20L18.36 20L18.91 20L19.24 20L19.68 20L20.24 20L21.01 20L21.68 20L22.34 20L23 20L23.22 20L23.45 20L23.78 20L23.78 26.98L23.45 26.98L23.22 26.98L23 26.98L22.34 26.98L21.68 26.98L21.01 26.98L20.24 26.98L19.68 26.98L19.24 26.98L18.91 26.98L18.36 26.98L17.91 26.98L17.91 20Z" fill="#FF1D6E" fill-opacity="1.000000" fill-rule="evenodd"/>
	<path id="Форма 359 (Граница)" d="M12.38 15.95L12.72 15.95L13.27 15.95L13.82 15.95L14.6 15.95L15.48 15.95L16.37 15.95L16.81 15.95L17.25 15.95L18.03 15.95L18.58 15.95L18.91 15.95L19.13 15.95L19.35 15.95L19.35 22.94L19.13 22.94L18.91 22.94L18.58 22.94L18.03 22.94L17.25 22.94L16.81 22.94L16.37 22.94L15.48 22.94L14.6 22.94L13.82 22.94L13.27 22.94L12.72 22.94L12.38 22.94L12.38 15.95Z" fill="#FF1D6E" fill-opacity="1.000000" fill-rule="evenodd"/>
	<path id="Форма 360 (Граница)" d="M7.96 14.15L8.29 14.15L8.84 14.15L9.07 14.15L9.29 14.15L9.95 14.15L10.39 14.15L10.84 14.15L11.83 14.15L12.38 14.15L12.94 14.15L13.93 14.15L14.6 14.15L15.59 14.15L15.59 21.14L14.6 21.14L13.93 21.14L12.94 21.14L12.38 21.14L11.83 21.14L10.84 21.14L10.39 21.14L9.95 21.14L9.29 21.14L9.07 21.14L8.84 21.14L8.29 21.14L7.96 21.14L7.96 14.15Z" fill="#FF1D6E" fill-opacity="1.000000" fill-rule="evenodd"/>
	<path id="Форма 361 (Граница)" d="M3.09 11.68L3.42 11.68L3.87 11.68L4.2 11.68L4.97 11.68L5.53 11.68L6.08 11.68L7.41 11.68L8.84 11.68L9.95 11.68L10.95 11.68L11.72 11.68L12.05 11.68L12.05 18.67L11.72 18.67L10.95 18.67L9.95 18.67L8.84 18.67L7.41 18.67L6.08 18.67L5.53 18.67L4.97 18.67L4.2 18.67L3.87 18.67L3.42 18.67L3.09 18.67L3.09 11.68Z" fill="#FF1D6E" fill-opacity="1.000000" fill-rule="evenodd"/>
	<path id="Форма 362 (Граница)" d="M0 10.56L0.33 10.56L0.77 10.56L0.99 10.56L1.54 10.56L2.43 10.56L2.87 10.56L3.31 10.56L4.09 10.56L4.53 10.56L4.75 10.56L4.75 17.54L4.53 17.54L4.09 17.54L3.31 17.54L2.87 17.54L2.43 17.54L1.54 17.54L0.99 17.54L0.77 17.54L0.33 17.54L0 17.54L0 10.56Z" fill="#FF1D6E" fill-opacity="1.000000" fill-rule="evenodd"/>
	<path id="Форма 363 (Граница)" d="M4.86 8.76L5.3 8.76L6.08 8.76L6.52 8.76L6.96 8.76L7.41 8.76L7.74 8.76L8.07 8.76L8.07 15.75L7.74 15.75L7.41 15.75L6.96 15.75L6.52 15.75L6.08 15.75L5.3 15.75L4.86 15.75L4.86 8.76Z" fill="#FF1D6E" fill-opacity="1.000000" fill-rule="evenodd"/>
	<path id="Форма 364 (Граница)" d="M13.49 12.6L13.05 12.6L12.38 12.6L12.16 12.6L11.94 12.6L11.61 12.6L11.17 12.6L10.61 12.6L10.39 12.6L10.17 12.6L9.84 12.6L9.62 12.6L8.84 12.6L8.84 5.61L9.62 5.61L9.84 5.61L10.17 5.61L10.39 5.61L10.61 5.61L11.17 5.61L11.61 5.61L11.94 5.61L12.16 5.61L12.38 5.61L13.05 5.61L13.49 5.61L13.49 12.6Z" fill="#FF1D6E" fill-opacity="1.000000" fill-rule="evenodd"/>
	<path id="Форма 365 (Граница)" d="M13.05 9.45L12.72 9.45L12.27 9.45L11.94 9.45L11.61 9.45L11.28 9.45L10.84 9.45L10.5 9.45L10.28 9.45L10.28 2.47L10.5 2.47L10.84 2.47L11.28 2.47L11.61 2.47L11.94 2.47L12.27 2.47L12.72 2.47L13.05 2.47L13.05 9.45Z" fill="#FF1D6E" fill-opacity="1.000000" fill-rule="evenodd"/>
	<path id="Форма 366 (Граница)" d="M12.61 6.98L12.27 6.98L11.83 6.98L11.61 6.98L11.61 0L11.83 0L12.27 0L12.61 0L12.61 6.98Z" fill="#FF1D6E" fill-opacity="1.000000" fill-rule="evenodd"/>
	<path id="Форма 367 (Граница)" d="M7.96 2.92L8.29 2.92L8.73 2.92L9.07 2.92L9.51 2.92L9.8 2.92L9.95 2.92L10.28 2.92L10.61 2.92L10.95 2.92L10.95 9.9L10.61 9.9L10.28 9.9L9.95 9.9L9.8 9.9L9.51 9.9L9.07 9.9L8.73 9.9L8.29 9.9L7.96 9.9L7.96 2.92Z" fill="#FF1D6E" fill-opacity="1.000000" fill-rule="evenodd"/>
	<path id="Форма 368 (Граница)" d="M26.99 26.98L26.65 26.98L26.21 26.98L25.1 26.98L22.23 26.98L22.23 20L25.1 20L26.21 20L26.65 20L26.99 20L26.99 26.98Z" fill="#FF1D6E" fill-opacity="1.000000" fill-rule="evenodd"/>
	<path id="Форма 369 (Граница)" d="M18.58 47.42L18.91 47.42L19.35 47.42L19.68 47.42L20.13 47.42L20.46 47.42L20.79 47.42L21.12 47.42L21.34 47.42L21.57 47.42L21.57 54.4L21.34 54.4L21.12 54.4L20.79 54.4L20.46 54.4L20.13 54.4L19.68 54.4L19.35 54.4L18.91 54.4L18.58 54.4L18.58 47.42Z" fill="#FF83A0" fill-opacity="1.000000" fill-rule="evenodd"/>
	<path id="Форма 370 (Граница)" d="M15.48 43.82L15.81 43.82L16.26 43.82L16.48 43.82L16.81 43.82L17.25 43.82L17.69 43.82L18.03 43.82L18.36 43.82L18.69 43.82L18.69 50.81L18.36 50.81L18.03 50.81L17.69 50.81L17.25 50.81L16.81 50.81L16.48 50.81L16.26 50.81L15.81 50.81L15.48 50.81L15.48 43.82Z" fill="#FF83A0" fill-opacity="1.000000" fill-rule="evenodd"/>
	<path id="Форма 371 (Граница)" d="M20.57 48.33L20.24 48.33L19.8 48.33L19.46 48.33L19.13 48.33L18.8 48.33L18.36 48.33L18.14 48.33L17.91 48.33L17.58 48.33L17.25 48.33L16.92 48.33L16.92 41.35L17.25 41.35L17.58 41.35L17.91 41.35L18.14 41.35L18.36 41.35L18.8 41.35L19.13 41.35L19.46 41.35L19.8 41.35L20.24 41.35L20.57 41.35L20.57 48.33Z" fill="#FF83A0" fill-opacity="1.000000" fill-rule="evenodd"/>
	<path id="Форма 372 (Граница)" d="M16.03 38.88L15.7 38.88L15.7 45.86L16.92 45.86L17.36 45.86L19.46 45.86L19.46 38.88L17.36 38.88L16.92 38.88L16.03 38.88Z" fill="#FF83A0" fill-opacity="1.000000" fill-rule="evenodd"/>
	<path id="Форма 373 (Граница)" d="M21.01 41.59L20.68 41.59L20.24 41.59L20.02 41.59L19.8 41.59L19.57 41.59L19.43 41.59L19.35 41.59L19.13 41.59L18.91 41.59L18.69 41.59L18.25 41.59L17.14 41.59L17.14 34.61L18.25 34.61L18.69 34.61L18.91 34.61L19.13 34.61L19.35 34.61L19.43 34.61L19.57 34.61L19.8 34.61L20.02 34.61L20.24 34.61L20.68 34.61L21.01 34.61L21.01 41.59Z" fill="#FF83A0" fill-opacity="1.000000" fill-rule="evenodd"/>
	<path id="Форма 374 (Граница)" d="M17.25 30.34L17.58 30.34L18.03 30.34L18.25 30.34L19.13 30.34L20.02 30.34L20.02 37.32L19.13 37.32L18.25 37.32L18.03 37.32L17.58 37.32L17.25 37.32L17.25 30.34Z" fill="#FF83A0" fill-opacity="1.000000" fill-rule="evenodd"/>
	<path id="Форма 375 (Граница)" d="M17.03 28.31L17.36 28.31L17.69 28.31L18.03 28.31L18.47 28.31L18.8 28.31L19.24 28.31L19.57 28.31L19.79 28.31L19.8 35.3L19.57 35.3L19.24 35.3L18.8 35.3L18.47 35.3L18.03 35.3L17.69 35.3L17.36 35.3L17.03 35.3L17.03 28.31Z" fill="#FF83A0" fill-opacity="1.000000" fill-rule="evenodd"/>
	<path id="Форма 376 (Граница)" d="M16.81 25.62L17.14 25.62L17.58 25.62L17.91 25.62L18.14 25.62L18.36 25.62L18.8 25.62L19.13 25.62L19.35 25.62L19.68 25.62L19.68 32.6L19.35 32.6L19.13 32.6L18.8 32.6L18.36 32.6L18.14 32.6L17.91 32.6L17.58 32.6L17.14 32.6L16.81 32.6L16.81 25.62Z" fill="#FF83A0" fill-opacity="1.000000" fill-rule="evenodd"/>
	<path id="Форма 377 (Граница)" d="M21.23 37.1L20.9 37.1L20.35 37.1L19.57 37.1L19.57 30.11L20.35 30.11L20.9 30.11L21.23 30.11L21.23 37.1Z" fill="#FF83A0" fill-opacity="1.000000" fill-rule="evenodd"/>
	<path id="Форма 378 (Граница)" d="M22.78 41.37L22.45 41.37L22.01 41.37L21.79 41.37L21.57 41.37L21.12 41.37L20.68 41.37L20.24 41.37L19.8 41.37L19.46 41.37L19.13 41.37L19.13 34.38L19.46 34.38L19.8 34.38L20.24 34.38L20.68 34.38L21.12 34.38L21.57 34.38L21.79 34.38L22.01 34.38L22.45 34.38L22.78 34.38L22.78 41.37Z" fill="#FF83A0" fill-opacity="1.000000" fill-rule="evenodd"/>
	<path id="Форма 379 (Граница)" d="M19.46 18.2L20.13 18.2L21.12 18.2L21.45 18.2L21.79 18.2L22.67 18.2L23.67 18.2L24.44 18.2L24.77 18.2L25.1 18.2L25.55 18.2L25.77 18.2L25.77 25.18L25.55 25.18L25.1 25.18L24.77 25.18L24.44 25.18L23.67 25.18L22.67 25.18L21.79 25.18L21.45 25.18L21.12 25.18L20.13 25.18L19.46 25.18L19.46 18.2Z" fill="#FF83A0" fill-opacity="1.000000" fill-rule="evenodd"/>
	<path id="Форма 380 (Граница)" d="M36.94 30.56L37.27 30.56L37.72 30.56L38.05 30.56L38.38 30.56L38.71 30.56L39.15 30.56L39.6 30.56L39.82 30.56L40.04 30.56L40.37 30.56L40.59 30.56L40.59 37.55L40.37 37.55L40.04 37.55L39.82 37.55L39.6 37.55L39.15 37.55L38.71 37.55L38.38 37.55L38.05 37.55L37.72 37.55L37.27 37.55L36.94 37.55L36.94 30.56Z" fill="#FF83A0" fill-opacity="1.000000" fill-rule="evenodd"/>
	<path id="Форма 381 (Граница)" d="M41.14 28.99L41.48 28.99L41.92 28.99L42.25 28.99L42.58 28.99L42.91 28.99L43.25 28.99L43.47 28.99L43.47 35.97L43.25 35.97L42.91 35.97L42.58 35.97L42.25 35.97L41.92 35.97L41.48 35.97L41.14 35.97L41.14 28.99Z" fill="#FF83A0" fill-opacity="1.000000" fill-rule="evenodd"/>
	<path id="Форма 382 (Граница)" d="M39.37 29.66L39.71 29.66L40.15 29.66L40.48 29.66L40.59 29.66L40.92 29.66L41.14 29.66L41.37 29.66L41.81 29.66L42.25 29.66L42.47 29.66L42.69 29.66L43.02 29.66L43.58 29.66L44.24 29.66L44.57 29.66L44.57 36.65L44.24 36.65L43.58 36.65L43.02 36.65L42.69 36.65L42.47 36.65L42.25 36.65L41.81 36.65L41.37 36.65L41.14 36.65L40.92 36.65L40.59 36.65L40.48 36.65L40.15 36.65L39.71 36.65L39.37 36.65L39.37 29.66Z" fill="#FF83A0" fill-opacity="1.000000" fill-rule="evenodd"/>
	<path id="Форма 383 (Граница)" d="M20.13 22.04L19.8 22.04L19.24 22.04L18.8 22.04L18.25 22.04L17.47 22.04L16.81 22.04L16.37 22.04L15.92 22.04L15.59 22.04L15.59 15.05L15.92 15.05L16.37 15.05L16.81 15.05L17.47 15.05L18.25 15.05L18.8 15.05L19.24 15.05L19.8 15.05L20.13 15.05L20.13 22.04Z" fill="#FF83A0" fill-opacity="1.000000" fill-rule="evenodd"/>
	<path id="Форма 384 (Граница)" d="M5.97 5.84L6.3 5.84L6.74 5.84L6.96 5.84L7.18 5.84L7.41 5.84L7.63 5.84L7.63 12.82L7.41 12.82L7.18 12.82L6.96 12.82L6.74 12.82L6.3 12.82L5.97 12.82L5.97 5.84Z" fill="#FF83A0" fill-opacity="1.000000" fill-rule="evenodd"/>
	<path id="Форма 385 (Граница)" d="M3.09 7.19L3.42 7.19L3.87 7.19L3.94 7.19L4.09 7.19L4.53 7.19L5.08 7.19L5.3 7.19L5.53 7.19L5.97 7.19L6.3 7.19L6.3 14.17L5.97 14.17L5.53 14.17L5.3 14.17L5.08 14.17L4.53 14.17L4.09 14.17L3.94 14.17L3.87 14.17L3.42 14.17L3.09 14.17L3.09 7.19Z" fill="#FF83A0" fill-opacity="1.000000" fill-rule="evenodd"/>
	<path id="Форма 386 (Граница)" d="M0.44 10.11L0.88 10.11L1.43 10.11L1.77 10.11L2.32 10.11L2.98 10.11L3.54 10.11L3.54 17.09L2.98 17.09L2.32 17.09L1.77 17.09L1.43 17.09L0.88 17.09L0.44 17.09L0.44 10.11Z" fill="#FF83A0" fill-opacity="1.000000" fill-rule="evenodd"/>
	<path id="Форма 387 (Граница)" d="M2.21 16.18L2.54 16.18L2.98 16.18L3.31 16.18L4.42 16.18L5.64 16.18L6.19 16.18L6.19 23.16L5.64 23.16L4.42 23.16L3.31 23.16L2.98 23.16L2.54 23.16L2.21 23.16L2.21 16.18Z" fill="#FF83A0" fill-opacity="1.000000" fill-rule="evenodd"/>
	<path id="Форма 388 (Граница)" d="M34.73 26.31L34.29 26.31L33.73 26.31L33.51 26.31L33.18 26.31L32.85 26.31L32.85 19.32L33.18 19.32L33.51 19.32L33.73 19.32L34.29 19.32L34.73 19.32L34.73 26.31Z" fill="#FF83A0" fill-opacity="1.000000" fill-rule="evenodd"/>
	<path id="Форма 389 (Граница)" d="M30.97 24.72L31.3 24.72L31.74 24.72L31.82 24.72L31.96 24.72L32.3 24.72L32.85 24.72L33.29 24.72L33.51 24.72L33.51 31.7L33.29 31.7L32.85 31.7L32.3 31.7L31.96 31.7L31.82 31.7L31.74 31.7L31.3 31.7L30.97 31.7L30.97 24.72Z" fill="#FF83A0" fill-opacity="1.000000" fill-rule="evenodd"/>
	<path id="Форма 390 (Граница)" d="M36.94 45.84L37.27 45.84L37.72 45.84L37.79 45.84L37.94 45.84L38.27 45.84L38.6 45.84L38.93 45.84L39.37 45.84L39.71 45.84L39.93 45.84L40.15 45.84L40.15 52.83L39.93 52.83L39.71 52.83L39.37 52.83L38.93 52.83L38.6 52.83L38.27 52.83L37.94 52.83L37.79 52.83L37.72 52.83L37.27 52.83L36.94 52.83L36.94 45.84Z" fill="#FF83A0" fill-opacity="1.000000" fill-rule="evenodd"/>
	<path id="Форма 391 (Граница)" d="M41.37 51.25L40.81 51.25L40.04 51.25L39.49 51.25L38.93 51.25L38.6 51.25L38.6 44.27L38.93 44.27L39.49 44.27L40.04 44.27L40.81 44.27L41.37 44.27L41.37 51.25Z" fill="#FF83A0" fill-opacity="1.000000" fill-rule="evenodd"/>
	<path id="Форма 392 (Граница)" d="M44.46 48.78L44.13 48.78L43.58 48.78L43.14 48.78L42.58 48.78L42.03 48.78L41.59 48.78L41.14 48.78L40.59 48.78L40.04 48.78L40.04 41.8L40.59 41.8L41.14 41.8L41.59 41.8L42.03 41.8L42.58 41.8L43.14 41.8L43.58 41.8L44.13 41.8L44.46 41.8L44.46 48.78Z" fill="#FF83A0" fill-opacity="1.000000" fill-rule="evenodd"/>
	<path id="Форма 393 (Граница)" d="M5.97 51.46L6.3 51.46L6.74 51.46L6.74 58.45L6.3 58.45L5.97 58.45L5.97 51.46Z" fill="#FF83A0" fill-opacity="1.000000" fill-rule="evenodd"/>
	<path id="Форма 394 (Граница)" d="M4.2 48.09L4.53 48.09L4.97 48.09L5.3 48.09L5.75 48.09L5.89 48.09L6.19 48.09L6.52 48.09L7.07 48.09L7.85 48.09L7.85 55.08L7.07 55.08L6.52 55.08L6.19 55.08L5.89 55.08L5.75 55.08L5.3 55.08L4.97 55.08L4.53 55.08L4.2 55.08L4.2 48.09Z" fill="#FF83A0" fill-opacity="1.000000" fill-rule="evenodd"/>
	<path id="Форма 395 (Граница)" d="M8.18 59.57L7.85 59.57L7.41 59.57L7.19 59.57L6.96 59.57L6.63 59.57L6.63 52.58L6.96 52.58L7.19 52.58L7.41 52.58L7.85 52.58L8.18 52.58L8.18 59.57Z" fill="#FF83A0" fill-opacity="1.000000" fill-rule="evenodd"/>
	<path id="Форма 396 (Граница)" d="M9.51 61.82L9.07 61.82L8.51 61.82L8.18 61.82L7.74 61.82L7.3 61.82L7.3 54.83L7.74 54.83L8.18 54.83L8.51 54.83L9.07 54.83L9.51 54.83L9.51 61.82Z" fill="#FF83A0" fill-opacity="1.000000" fill-rule="evenodd"/>
	<path id="Форма 397 (Граница)" d="M20.57 31.23L20.9 31.23L21.34 31.23L21.57 31.23L21.9 31.23L22.23 31.23L22.56 31.23L22.89 31.23L23.11 31.23L23.45 31.23L23.45 38.22L23.11 38.22L22.89 38.22L22.56 38.22L22.23 38.22L21.9 38.22L21.57 38.22L21.34 38.22L20.9 38.22L20.57 38.22L20.57 31.23Z" fill="#65CDFE" fill-opacity="1.000000" fill-rule="evenodd"/>
	<path id="Форма 398 (Граница)" d="M20.57 36.85L20.9 36.85L21.34 36.85L21.57 36.85L21.79 36.85L22.01 36.85L22.23 36.85L22.56 36.85L22.89 36.85L22.89 43.84L22.56 43.84L22.23 43.84L22.01 43.84L21.79 43.84L21.57 43.84L21.34 43.84L20.9 43.84L20.57 43.84L20.57 36.85Z" fill="#65CDFE" fill-opacity="1.000000" fill-rule="evenodd"/>
	<path id="Форма 399 (Граница)" d="M18.58 40L18.91 40L19.35 40L19.57 40L19.79 40L20.02 40L20.24 40L20.46 40L20.68 40L20.68 46.98L20.46 46.98L20.24 46.98L20.02 46.98L19.8 46.98L19.57 46.98L19.35 46.98L18.91 46.98L18.58 46.98L18.58 40Z" fill="#65CDFE" fill-opacity="1.000000" fill-rule="evenodd"/>
	<path id="Форма 400 (Граница)" d="M19.02 44.27L19.35 44.27L19.8 44.27L20.02 44.27L20.24 44.27L20.46 44.27L20.68 44.27L20.68 51.25L20.46 51.25L20.24 51.25L20.02 51.25L19.8 51.25L19.35 51.25L19.02 51.25L19.02 44.27Z" fill="#65CDFE" fill-opacity="1.000000" fill-rule="evenodd"/>
	<path id="Форма 401 (Граница)" d="M21.68 55.52L21.34 55.52L20.9 55.52L20.68 55.52L20.46 55.52L20.46 48.54L20.68 48.54L20.9 48.54L21.34 48.54L21.68 48.54L21.68 55.52Z" fill="#65CDFE" fill-opacity="1.000000" fill-rule="evenodd"/>
	<path id="Форма 402 (Граница)" d="M44.02 37.77L43.58 37.77L42.91 37.77L42.47 37.77L42.25 37.77L42.03 37.77L41.81 37.77L41.59 37.77L41.25 37.77L41.03 37.77L41.03 30.78L41.25 30.78L41.59 30.78L41.81 30.78L42.03 30.78L42.25 30.78L42.47 30.78L42.91 30.78L43.58 30.78L44.02 30.78L44.02 37.77Z" fill="#65CDFE" fill-opacity="1.000000" fill-rule="evenodd"/>
	<path id="Форма 403 (Граница)" d="M38.27 42.47L38.71 42.47L39.26 42.47L39.6 42.47L39.82 42.47L40.04 42.47L40.48 42.47L40.48 49.46L40.04 49.46L39.82 49.46L39.6 49.46L39.26 49.46L38.71 49.46L38.27 49.46L38.27 42.47Z" fill="#65CDFE" fill-opacity="1.000000" fill-rule="evenodd"/>
	<path id="Форма 404 (Граница)" d="M5.3 48.54L5.64 48.54L6.08 48.54L6.19 48.54L6.3 48.54L6.74 48.54L7.07 48.54L7.41 48.54L8.07 48.54L8.07 55.52L7.41 55.52L7.07 55.52L6.74 55.52L6.3 55.52L6.19 55.52L6.08 55.52L5.64 55.52L5.3 55.52L5.3 48.54Z" fill="#65CDFE" fill-opacity="1.000000" fill-rule="evenodd"/>
	<path id="Форма 405 (Граница)" d="M6.41 9.21L6.74 9.21L7.3 9.21L7.74 9.21L7.74 16.19L7.3 16.19L6.74 16.19L6.41 16.19L6.41 9.21Z" fill="#65CDFE" fill-opacity="1.000000" fill-rule="evenodd"/>
	<path id="Форма 406 (Граница)" d="M3.76 12.36L4.09 12.36L4.64 12.36L4.97 12.36L5.53 12.36L6.19 12.36L6.85 12.36L6.85 19.34L6.19 19.34L5.53 19.34L4.97 19.34L4.64 19.34L4.09 19.34L3.76 19.34L3.76 12.36Z" fill="#65CDFE" fill-opacity="1.000000" fill-rule="evenodd"/>
	<path id="Форма 407 (Граница)" d="M13.93 10.13L13.6 10.13L13.16 10.13L12.94 10.13L12.61 10.13L12.27 10.13L12.27 3.14L12.61 3.14L12.94 3.14L13.16 3.14L13.6 3.14L13.93 3.14L13.93 10.13Z" fill="#65CDFE" fill-opacity="1.000000" fill-rule="evenodd"/>
	<path id="Форма 408 (Граница)" d="M34.29 26.76L33.95 26.76L33.4 26.76L32.85 26.76L32.52 26.76L32.18 26.76L31.74 26.76L31.74 19.77L32.18 19.77L32.52 19.77L32.85 19.77L33.4 19.77L33.95 19.77L34.29 19.77L34.29 26.76Z" fill="#65CDFE" fill-opacity="1.000000" fill-rule="evenodd"/>
	<path id="Форма 409 (Граница)" d="M6.63 18.42L6.96 18.42L7.41 18.42L7.52 18.42L7.63 18.42L7.96 18.42L8.29 18.42L8.4 18.42L8.51 18.42L8.73 18.42L8.95 18.42L9.18 18.42L9.4 18.42L9.4 25.41L9.18 25.41L8.95 25.41L8.73 25.41L8.51 25.41L8.4 25.41L8.29 25.41L7.96 25.41L7.63 25.41L7.52 25.41L7.41 25.41L6.96 25.41L6.63 25.41L6.63 18.42Z" fill="#DB2D88" fill-opacity="1.000000" fill-rule="evenodd"/>
	<path id="Форма 410 (Граница)" d="M9.95 20.9L10.39 20.9L10.95 20.9L11.17 20.9L11.39 20.9L11.72 20.9L12.05 20.9L12.38 20.9L12.83 20.9L13.16 20.9L13.38 20.9L13.49 20.9L13.6 20.9L13.82 20.9L14.15 20.9L14.49 20.9L14.82 20.9L15.15 20.9L15.37 20.9L15.59 20.9L15.81 20.9L16.03 20.9L16.26 20.9L16.26 27.88L16.03 27.88L15.81 27.88L15.59 27.88L15.37 27.88L15.15 27.88L14.82 27.88L14.49 27.88L14.15 27.88L13.82 27.88L13.6 27.88L13.49 27.88L13.38 27.88L13.16 27.88L12.83 27.88L12.38 27.88L12.05 27.88L11.72 27.88L11.39 27.88L11.17 27.88L10.95 27.88L10.39 27.88L9.95 27.88L9.95 20.9Z" fill="#DB2D88" fill-opacity="1.000000" fill-rule="evenodd"/>
	<path id="Форма 411 (Граница)" d="M18.36 29.23L17.91 29.23L17.36 29.23L17.03 29.23L16.81 29.23L16.59 29.23L16.26 29.23L16.26 22.24L16.59 22.24L16.81 22.24L17.03 22.24L17.36 22.24L17.91 22.24L18.36 22.24L18.36 29.23Z" fill="#DB2D88" fill-opacity="1.000000" fill-rule="evenodd"/>
	<path id="Форма 412 (Граница)" d="M18.8 24.94L19.13 24.94L19.68 24.94L20.02 24.94L20.24 24.94L20.24 31.93L20.02 31.93L19.68 31.93L19.13 31.93L18.8 31.93L18.8 24.94Z" fill="#FF1D6E" fill-opacity="1.000000" fill-rule="evenodd"/>
	<path id="Форма 413 (Граница)" d="M27.43 12.13L27.76 12.13L28.2 12.13L28.53 12.13L28.68 12.13L28.98 12.13L29.31 12.13L29.53 12.13L29.75 12.13L29.97 12.13L29.97 19.12L29.75 19.12L29.53 19.12L29.31 19.12L28.98 19.12L28.68 19.12L28.53 19.12L28.2 19.12L27.76 19.12L27.43 19.12L27.43 12.13Z" fill="#FF1D6E" fill-opacity="1.000000" fill-rule="evenodd"/>
</svg>
