<svg width="154.434875" height="335.260864" viewBox="0 0 154.435 335.261" fill="none" xmlns="http://www.w3.org/2000/svg" xmlns:xlink="http://www.w3.org/1999/xlink">
	<desc>
			Created with Pixso.
	</desc>
	<defs/>
	<path id="Форма 122" d="M11.13 298.41L13.91 298.41C15.76 298.41 17.15 298.41 18.08 298.41C19.01 298.41 19.71 298.41 20.17 298.41C20.63 298.41 21.1 298.41 21.56 298.41C22.02 298.41 22.49 298.41 22.95 298.41C23.42 298.41 24.11 298.41 25.04 298.41C25.97 298.41 26.66 298.41 27.13 298.41C27.59 298.41 28.05 298.41 28.52 298.41C28.98 298.41 29.44 298.41 29.91 298.41C30.37 298.41 30.84 298.41 31.3 298.41C31.76 298.41 32.23 298.41 32.69 298.41C33.15 298.41 33.62 298.41 34.08 298.41" stroke="#744BCB" stroke-opacity="1.000000" stroke-width="57.000000"/>
	<path id="Форма 123" d="M1.39 274.76L4.17 274.76C6.02 274.76 7.42 274.76 8.34 274.76C9.27 274.76 10.2 274.76 11.13 274.76C12.05 274.76 12.98 274.76 13.91 274.76C14.84 274.76 15.76 274.76 16.69 274.76C17.62 274.76 18.55 274.76 19.47 274.76C20.4 274.76 21.33 274.76 22.26 274.76C23.18 274.76 23.88 274.76 24.34 274.76C24.81 274.76 25.5 274.76 26.43 274.76" stroke="#744BCB" stroke-opacity="1.000000" stroke-width="57.000000"/>
	<path id="Форма 124" d="M0 248.32L2.08 248.32C3.47 248.32 4.4 248.32 4.86 248.32C5.33 248.32 6.02 248.32 6.95 248.32C7.88 248.32 8.57 248.32 9.04 248.32C9.5 248.32 9.97 248.32 10.43 248.32C10.89 248.32 11.59 248.32 12.52 248.32C13.44 248.32 14.14 248.32 14.6 248.32C15.07 248.32 15.76 248.32 16.69 248.32C17.62 248.32 18.31 248.32 18.78 248.32" stroke="#744BCB" stroke-opacity="1.000000" stroke-width="57.000000"/>
	<path id="Форма 125" d="M1.39 214.93L4.17 214.93C6.02 214.93 7.18 214.93 7.65 214.93C8.11 214.93 8.81 214.93 9.73 214.93C10.66 214.93 11.59 214.93 12.52 214.93C13.44 214.93 14.84 214.93 16.69 214.93C18.55 214.93 20.17 214.93 21.56 214.93C22.95 214.93 24.34 214.93 25.73 214.93C27.13 214.93 28.28 214.93 29.21 214.93C30.14 214.93 30.84 214.93 31.3 214.93C31.76 214.93 32.23 214.93 32.69 214.93" stroke="#744BCB" stroke-opacity="1.000000" stroke-width="57.000000"/>
	<path id="Форма 126" d="M9.73 185.71L12.52 185.71C14.37 185.71 15.76 185.71 16.69 185.71C17.62 185.71 18.55 185.71 19.47 185.71C20.4 185.71 21.1 185.71 21.56 185.71C22.02 185.71 22.72 185.71 23.65 185.71C24.57 185.71 25.27 185.71 25.73 185.71C26.2 185.71 26.66 185.71 27.13 185.71" stroke="#744BCB" stroke-opacity="1.000000" stroke-width="57.000000"/>
	<path id="Форма 127" d="M25.04 159.28L27.82 159.28C29.68 159.28 30.84 159.28 31.3 159.28C31.76 159.28 32.23 159.28 32.69 159.28C33.15 159.28 33.85 159.28 34.78 159.28C35.71 159.28 36.4 159.28 36.86 159.28" stroke="#744BCB" stroke-opacity="1.000000" stroke-width="57.000000"/>
	<path id="Форма 128" d="M40.34 143.97L42.43 143.97C43.82 143.97 44.75 143.97 45.21 143.97C45.68 143.97 46.37 143.97 47.3 143.97C48.23 143.97 48.92 143.97 49.39 143.97C49.85 143.97 50.55 143.97 51.47 143.97C52.4 143.97 53.1 143.97 53.56 143.97C54.02 143.97 54.49 143.97 54.95 143.97" stroke="#744BCB" stroke-opacity="1.000000" stroke-width="57.000000"/>
	<path id="Форма 129" d="M33.39 153.71L36.86 153.71C39.18 153.71 40.81 153.71 41.73 153.71C42.66 153.71 43.36 153.71 43.82 153.71" stroke="#744BCB" stroke-opacity="1.000000" stroke-width="57.000000"/>
	<path id="Форма 130" d="M57.04 120.32L60.52 120.32C62.84 120.32 64.46 120.32 65.39 120.32C66.31 120.32 67.24 120.32 68.17 120.32C69.1 120.32 70.02 120.32 70.95 120.32C71.88 120.32 72.81 120.32 73.73 120.32C74.66 120.32 75.59 120.32 76.52 120.32C77.44 120.32 78.14 120.32 78.6 120.32C79.07 120.32 79.53 120.32 80 120.32C80.46 120.32 80.92 120.32 81.39 120.32" stroke="#744BCB" stroke-opacity="1.000000" stroke-width="57.000000"/>
	<path id="Форма 131" d="M70.95 100.84L73.04 100.84C74.43 100.84 75.59 100.84 76.52 100.84C77.44 100.84 78.14 100.84 78.6 100.84C79.07 100.84 79.76 100.84 80.69 100.84C81.62 100.84 82.55 100.84 83.47 100.84C84.4 100.84 85.56 100.84 86.95 100.84C88.34 100.84 89.5 100.84 90.43 100.84C91.36 100.84 92.28 100.84 93.21 100.84C94.14 100.84 95.07 100.84 96 100.84C96.92 100.84 98.08 100.84 99.47 100.84C100.87 100.84 101.79 100.84 102.26 100.84" stroke="#744BCB" stroke-opacity="1.000000" stroke-width="57.000000"/>
	<path id="Форма 132" d="M89.04 73.02L91.82 73.02C93.68 73.02 94.84 73.02 95.3 73.02C95.76 73.02 96.46 73.02 97.39 73.02C98.31 73.02 99.01 73.02 99.47 73.02C99.94 73.02 100.4 73.02 100.87 73.02C101.33 73.02 102.02 73.02 102.95 73.02C103.88 73.02 104.58 73.02 105.04 73.02C105.5 73.02 105.97 73.02 106.43 73.02" stroke="#744BCB" stroke-opacity="1.000000" stroke-width="57.000000"/>
	<path id="Форма 133" d="M98.78 50.76L100.87 50.76C102.26 50.76 103.18 50.76 103.65 50.76C104.11 50.76 104.58 50.76 105.04 50.76C105.5 50.76 105.97 50.76 106.43 50.76C106.89 50.76 107.36 50.76 107.82 50.76" stroke="#744BCB" stroke-opacity="1.000000" stroke-width="57.000000"/>
	<path id="Форма 134" d="M27.82 306.76L32 306.76C34.78 306.76 36.63 306.76 37.56 306.76C38.49 306.76 39.42 306.76 40.34 306.76C41.27 306.76 42.2 306.76 43.13 306.76C44.05 306.76 45.21 306.76 46.6 306.76C48 306.76 49.15 306.76 50.08 306.76" stroke="#744BCB" stroke-opacity="1.000000" stroke-width="57.000000"/>
	<path id="Форма 135" d="M52.86 306.76L54.95 306.76C56.34 306.76 57.27 306.76 57.73 306.76C58.2 306.76 58.66 306.76 59.13 306.76C59.59 306.76 60.05 306.76 60.52 306.76C60.98 306.76 61.44 306.76 61.91 306.76C62.37 306.76 63.07 306.76 64 306.76C64.92 306.76 65.62 306.76 66.08 306.76C66.55 306.76 67.24 306.76 68.17 306.76C69.1 306.76 70.02 306.76 70.95 306.76C71.88 306.76 72.57 306.76 73.04 306.76C73.5 306.76 74.2 306.76 75.13 306.76C76.05 306.76 77.91 306.76 80.69 306.76C83.47 306.76 85.1 306.76 85.56 306.76C86.02 306.76 86.49 306.76 86.95 306.76C87.42 306.76 87.88 306.76 88.34 306.76C88.81 306.76 89.27 306.76 89.73 306.76C90.2 306.76 90.66 306.76 91.13 306.76C91.59 306.76 92.05 306.76 92.52 306.76C92.98 306.76 93.44 306.76 93.91 306.76C94.37 306.76 94.84 306.76 95.3 306.76C95.76 306.76 96.23 306.76 96.69 306.76" stroke="#744BCB" stroke-opacity="1.000000" stroke-width="57.000000"/>
	<path id="Форма 136" d="M45.91 305.37L48.69 305.37C50.55 305.37 51.71 305.37 52.17 305.37C52.63 305.37 53.1 305.37 53.56 305.37C54.02 305.37 54.95 305.37 56.34 305.37C57.73 305.37 58.89 305.37 59.82 305.37C60.75 305.37 61.91 305.37 63.3 305.37C64.69 305.37 66.08 305.37 67.47 305.37C68.86 305.37 70.02 305.37 70.95 305.37C71.88 305.37 73.04 305.37 74.43 305.37" stroke="#744BCB" stroke-opacity="1.000000" stroke-width="57.000000"/>
	<path id="Форма 137" d="M90.43 291.45L93.91 291.45C96.23 291.45 97.85 291.45 98.78 291.45C99.71 291.45 100.87 291.45 102.26 291.45C103.65 291.45 104.81 291.45 105.73 291.45C106.66 291.45 107.59 291.45 108.52 291.45C109.44 291.45 110.6 291.45 112 291.45C113.39 291.45 114.55 291.45 115.47 291.45C116.4 291.45 117.1 291.45 117.56 291.45C118.02 291.45 118.95 291.45 120.34 291.45C121.73 291.45 122.89 291.45 123.82 291.45" stroke="#744BCB" stroke-opacity="1.000000" stroke-width="57.000000"/>
	<path id="Форма 138" d="M147.47 291.45L143.3 291.45C140.52 291.45 138.2 291.45 136.34 291.45C134.49 291.45 133.33 291.45 132.87 291.45C132.4 291.45 131.94 291.45 131.47 291.45C131.01 291.45 130.31 291.45 129.39 291.45C128.46 291.45 127.3 291.45 125.91 291.45C124.52 291.45 123.59 291.45 123.13 291.45C122.66 291.45 122.2 291.45 121.73 291.45C121.27 291.45 120.81 291.45 120.34 291.45C119.88 291.45 119.42 291.45 118.95 291.45" stroke="#744BCB" stroke-opacity="1.000000" stroke-width="57.000000"/>
	<path id="Форма 139" d="M150.26 260.84L148.17 260.84C146.78 260.84 145.85 260.84 145.39 260.84C144.92 260.84 144.23 260.84 143.3 260.84C142.37 260.84 141.44 260.84 140.52 260.84C139.59 260.84 138.66 260.84 137.73 260.84C136.81 260.84 135.88 260.84 134.95 260.84C134.02 260.84 133.1 260.84 132.17 260.84C131.24 260.84 130.31 260.84 129.39 260.84C128.46 260.84 127.53 260.84 126.6 260.84C125.68 260.84 124.98 260.84 124.52 260.84" stroke="#744BCB" stroke-opacity="1.000000" stroke-width="57.000000"/>
	<path id="Форма 140" d="M154.43 228.84L150.95 228.84C148.63 228.84 147.01 228.84 146.08 228.84C145.15 228.84 144.46 228.84 144 228.84C143.53 228.84 142.84 228.84 141.91 228.84C140.98 228.84 140.05 228.84 139.13 228.84C138.2 228.84 137.27 228.84 136.34 228.84C135.42 228.84 134.26 228.84 132.87 228.84C131.47 228.84 130.55 228.84 130.08 228.84C129.62 228.84 129.15 228.84 128.69 228.84" stroke="#744BCB" stroke-opacity="1.000000" stroke-width="57.000000"/>
	<path id="Форма 141" d="M144.69 198.23L141.91 198.23C140.05 198.23 138.66 198.23 137.73 198.23C136.81 198.23 136.11 198.23 135.65 198.23C135.18 198.23 134.72 198.23 134.26 198.23C133.79 198.23 133.1 198.23 132.17 198.23C131.24 198.23 130.31 198.23 129.39 198.23C128.46 198.23 127.76 198.23 127.3 198.23" stroke="#744BCB" stroke-opacity="1.000000" stroke-width="57.000000"/>
	<path id="Форма 142" d="M116.87 182.93L114.08 182.93C112.23 182.93 110.84 182.93 109.91 182.93C108.98 182.93 108.05 182.93 107.13 182.93C106.2 182.93 105.5 182.93 105.04 182.93C104.58 182.93 103.88 182.93 102.95 182.93C102.02 182.93 101.33 182.93 100.87 182.93C100.4 182.93 99.94 182.93 99.47 182.93C99.01 182.93 98.55 182.93 98.08 182.93C97.62 182.93 97.15 182.93 96.69 182.93C96.23 182.93 95.76 182.93 95.3 182.93" stroke="#744BCB" stroke-opacity="1.000000" stroke-width="57.000000"/>
	<path id="Форма 143" d="M126.6 180.15L123.82 180.15C121.97 180.15 120.81 180.15 120.34 180.15C119.88 180.15 119.42 180.15 118.95 180.15C118.49 180.15 117.56 180.15 116.17 180.15C114.78 180.15 113.62 180.15 112.69 180.15C111.76 180.15 110.84 180.15 109.91 180.15C108.98 180.15 108.29 180.15 107.82 180.15C107.36 180.15 106.89 180.15 106.43 180.15C105.97 180.15 105.5 180.15 105.04 180.15" stroke="#744BCB" stroke-opacity="1.000000" stroke-width="57.000000"/>
	<path id="Форма 144" d="M119.65 160.67L116.87 160.67C115.01 160.67 113.85 160.67 113.39 160.67C112.92 160.67 112.46 160.67 112 160.67C111.53 160.67 110.84 160.67 109.91 160.67C108.98 160.67 108.29 160.67 107.82 160.67C107.36 160.67 106.89 160.67 106.43 160.67" stroke="#744BCB" stroke-opacity="1.000000" stroke-width="57.000000"/>
	<path id="Форма 145" d="M125.21 132.84L123.13 132.84C121.73 132.84 120.58 132.84 119.65 132.84C118.72 132.84 118.02 132.84 117.56 132.84C117.1 132.84 116.63 132.84 116.17 132.84C115.71 132.84 115.24 132.84 114.78 132.84C114.31 132.84 113.85 132.84 113.39 132.84" stroke="#744BCB" stroke-opacity="1.000000" stroke-width="57.000000"/>
	<path id="Форма 146" d="M132.17 111.97L130.08 111.97C128.69 111.97 127.76 111.97 127.3 111.97C126.84 111.97 126.37 111.97 125.91 111.97C125.44 111.97 124.98 111.97 124.52 111.97C124.05 111.97 123.59 111.97 123.13 111.97C122.66 111.97 122.2 111.97 121.73 111.97C121.27 111.97 120.81 111.97 120.34 111.97C119.88 111.97 119.42 111.97 118.95 111.97C118.49 111.97 118.02 111.97 117.56 111.97" stroke="#744BCB" stroke-opacity="1.000000" stroke-width="57.000000"/>
	<path id="Форма 147" d="M130.78 82.76L128.69 82.76C127.3 82.76 126.14 82.76 125.21 82.76C124.29 82.76 123.59 82.76 123.13 82.76C122.66 82.76 122.2 82.76 121.73 82.76C121.27 82.76 120.34 82.76 118.95 82.76C117.56 82.76 115.94 82.76 114.08 82.76C112.23 82.76 110.6 82.76 109.21 82.76C107.82 82.76 106.43 82.76 105.04 82.76C103.65 82.76 102.72 82.76 102.26 82.76C101.79 82.76 101.1 82.76 100.17 82.76C99.24 82.76 98.55 82.76 98.08 82.76C97.62 82.76 97.15 82.76 96.69 82.76" stroke="#744BCB" stroke-opacity="1.000000" stroke-width="57.000000"/>
	<path id="Форма 148" d="M118.26 52.15L116.17 52.15C114.78 52.15 113.85 52.15 113.39 52.15C112.92 52.15 112.46 52.15 112 52.15C111.53 52.15 111.07 52.15 110.6 52.15C110.14 52.15 109.68 52.15 109.21 52.15C108.75 52.15 108.29 52.15 107.82 52.15C107.36 52.15 106.89 52.15 106.43 52.15" stroke="#744BCB" stroke-opacity="1.000000" stroke-width="57.000000"/>
	<path id="Форма 149" d="M114.08 28.5L111.3 28.5C109.44 28.5 108.29 28.5 107.82 28.5C107.36 28.5 106.89 28.5 106.43 28.5C105.97 28.5 105.5 28.5 105.04 28.5" stroke="#744BCB" stroke-opacity="1.000000" stroke-width="57.000000"/>
	<path id="Форма 85" d="M43.13 287.28L45.91 287.28C47.76 287.28 48.92 287.28 49.39 287.28C49.85 287.28 50.31 287.28 50.78 287.28C51.24 287.28 51.71 287.28 52.17 287.28C52.63 287.28 53.1 287.28 53.56 287.28C54.02 287.28 54.72 287.28 55.65 287.28C56.57 287.28 57.27 287.28 57.73 287.28C58.2 287.28 58.66 287.28 59.13 287.28C59.59 287.28 60.29 287.28 61.21 287.28C62.14 287.28 62.84 287.28 63.3 287.28C63.76 287.28 64.46 287.28 65.39 287.28C66.31 287.28 67.01 287.28 67.47 287.28C67.94 287.28 68.4 287.28 68.86 287.28C69.33 287.28 69.79 287.28 70.26 287.28C70.72 287.28 71.18 287.28 71.65 287.28C72.11 287.28 72.57 287.28 73.04 287.28C73.5 287.28 73.97 287.28 74.43 287.28C74.89 287.28 75.36 287.28 75.82 287.28C76.29 287.28 76.75 287.28 77.21 287.28C77.68 287.28 78.14 287.28 78.6 287.28C79.07 287.28 79.53 287.28 80 287.28C80.46 287.28 80.92 287.28 81.39 287.28C81.85 287.28 82.31 287.28 82.78 287.28C83.24 287.28 83.71 287.28 84.17 287.28C84.63 287.28 85.1 287.28 85.56 287.28C86.02 287.28 86.49 287.28 86.95 287.28C87.42 287.28 87.88 287.28 88.34 287.28C88.81 287.28 89.27 287.28 89.73 287.28C90.2 287.28 90.66 287.28 91.13 287.28C91.59 287.28 92.05 287.28 92.52 287.28C92.98 287.28 93.44 287.28 93.91 287.28C94.37 287.28 94.84 287.28 95.3 287.28" stroke="#15DEFD" stroke-opacity="1.000000" stroke-width="57.000000"/>
	<path id="Форма 86" d="M22.26 270.58L25.04 270.58C26.89 270.58 28.05 270.58 28.52 270.58C28.98 270.58 29.44 270.58 29.91 270.58C30.37 270.58 30.84 270.58 31.3 270.58C31.76 270.58 32.23 270.58 32.69 270.58C33.15 270.58 33.62 270.58 34.08 270.58C34.55 270.58 35.01 270.58 35.47 270.58C35.94 270.58 36.63 270.58 37.56 270.58C38.49 270.58 39.18 270.58 39.65 270.58C40.11 270.58 40.81 270.58 41.73 270.58C42.66 270.58 43.36 270.58 43.82 270.58C44.29 270.58 45.68 270.58 48 270.58C50.31 270.58 51.94 270.58 52.86 270.58C53.79 270.58 54.49 270.58 54.95 270.58C55.42 270.58 56.11 270.58 57.04 270.58C57.97 270.58 58.66 270.58 59.13 270.58C59.59 270.58 60.05 270.58 60.52 270.58C60.98 270.58 61.68 270.58 62.6 270.58C63.53 270.58 64.23 270.58 64.69 270.58C65.15 270.58 65.85 270.58 66.78 270.58C67.71 270.58 68.63 270.58 69.56 270.58C70.49 270.58 71.42 270.58 72.34 270.58C73.27 270.58 73.97 270.58 74.43 270.58C74.89 270.58 75.36 270.58 75.82 270.58C76.29 270.58 76.98 270.58 77.91 270.58C78.84 270.58 79.53 270.58 80 270.58C80.46 270.58 80.92 270.58 81.39 270.58C81.85 270.58 82.55 270.58 83.47 270.58C84.4 270.58 85.1 270.58 85.56 270.58C86.02 270.58 86.49 270.58 86.95 270.58C87.42 270.58 87.88 270.58 88.34 270.58C88.81 270.58 89.5 270.58 90.43 270.58C91.36 270.58 92.05 270.58 92.52 270.58C92.98 270.58 93.44 270.58 93.91 270.58C94.37 270.58 94.84 270.58 95.3 270.58C95.76 270.58 96.23 270.58 96.69 270.58C97.15 270.58 97.62 270.58 98.08 270.58C98.55 270.58 99.01 270.58 99.47 270.58C99.94 270.58 100.4 270.58 100.87 270.58C101.33 270.58 101.79 270.58 102.26 270.58C102.72 270.58 103.18 270.58 103.65 270.58C104.11 270.58 104.58 270.58 105.04 270.58C105.5 270.58 105.97 270.58 106.43 270.58C106.89 270.58 107.36 270.58 107.82 270.58C108.29 270.58 108.75 270.58 109.21 270.58C109.68 270.58 110.14 270.58 110.6 270.58C111.07 270.58 111.53 270.58 112 270.58C112.46 270.58 112.92 270.58 113.39 270.58C113.85 270.58 114.31 270.58 114.78 270.58C115.24 270.58 115.71 270.58 116.17 270.58C116.63 270.58 117.1 270.58 117.56 270.58C118.02 270.58 118.49 270.58 118.95 270.58" stroke="#15DEFD" stroke-opacity="1.000000" stroke-width="57.000000"/>
	<path id="Форма 87" d="M140.52 242.76L138.43 242.76C137.04 242.76 136.11 242.76 135.65 242.76C135.18 242.76 134.49 242.76 133.56 242.76C132.63 242.76 131.94 242.76 131.47 242.76C131.01 242.76 130.31 242.76 129.39 242.76C128.46 242.76 127.53 242.76 126.6 242.76C125.68 242.76 124.05 242.76 121.73 242.76C119.42 242.76 117.33 242.76 115.47 242.76C113.62 242.76 112.23 242.76 111.3 242.76C110.37 242.76 109.44 242.76 108.52 242.76C107.59 242.76 106.89 242.76 106.43 242.76C105.97 242.76 105.04 242.76 103.65 242.76C102.26 242.76 101.33 242.76 100.87 242.76C100.4 242.76 99.94 242.76 99.47 242.76C99.01 242.76 98.55 242.76 98.08 242.76C97.62 242.76 96.92 242.76 96 242.76C95.07 242.76 94.37 242.76 93.91 242.76C93.44 242.76 92.98 242.76 92.52 242.76C92.05 242.76 91.36 242.76 90.43 242.76C89.5 242.76 88.81 242.76 88.34 242.76C87.88 242.76 87.42 242.76 86.95 242.76C86.49 242.76 86.02 242.76 85.56 242.76C85.1 242.76 84.4 242.76 83.47 242.76C82.55 242.76 81.62 242.76 80.69 242.76C79.76 242.76 79.07 242.76 78.6 242.76C78.14 242.76 77.68 242.76 77.21 242.76C76.75 242.76 76.29 242.76 75.82 242.76C75.36 242.76 74.89 242.76 74.43 242.76C73.97 242.76 73.5 242.76 73.04 242.76C72.57 242.76 72.11 242.76 71.65 242.76C71.18 242.76 70.72 242.76 70.26 242.76C69.79 242.76 69.33 242.76 68.86 242.76C68.4 242.76 67.94 242.76 67.47 242.76C67.01 242.76 66.55 242.76 66.08 242.76C65.62 242.76 65.15 242.76 64.69 242.76C64.23 242.76 63.76 242.76 63.3 242.76C62.84 242.76 62.37 242.76 61.91 242.76C61.44 242.76 60.98 242.76 60.52 242.76C60.05 242.76 59.59 242.76 59.13 242.76C58.66 242.76 58.2 242.76 57.73 242.76C57.27 242.76 56.81 242.76 56.34 242.76C55.88 242.76 55.42 242.76 54.95 242.76C54.49 242.76 54.02 242.76 53.56 242.76C53.1 242.76 52.63 242.76 52.17 242.76C51.71 242.76 51.24 242.76 50.78 242.76C50.31 242.76 49.85 242.76 49.39 242.76C48.92 242.76 48.46 242.76 48 242.76C47.53 242.76 47.07 242.76 46.6 242.76C46.14 242.76 45.68 242.76 45.21 242.76C44.75 242.76 44.29 242.76 43.82 242.76C43.36 242.76 42.89 242.76 42.43 242.76C41.97 242.76 41.5 242.76 41.04 242.76C40.57 242.76 40.11 242.76 39.65 242.76C39.18 242.76 38.72 242.76 38.26 242.76C37.79 242.76 37.1 242.76 36.17 242.76C35.24 242.76 34.08 242.76 32.69 242.76C31.3 242.76 30.37 242.76 29.91 242.76C29.44 242.76 28.98 242.76 28.52 242.76C28.05 242.76 27.36 242.76 26.43 242.76C25.5 242.76 24.81 242.76 24.34 242.76C23.88 242.76 23.42 242.76 22.95 242.76C22.49 242.76 22.02 242.76 21.56 242.76C21.1 242.76 20.63 242.76 20.17 242.76C19.71 242.76 19.24 242.76 18.78 242.76C18.31 242.76 17.85 242.76 17.39 242.76C16.92 242.76 16.46 242.76 16 242.76" stroke="#15DEFD" stroke-opacity="1.000000" stroke-width="57.000000"/>
	<path id="Форма 88" d="M22.26 209.37L25.04 209.37C26.89 209.37 28.05 209.37 28.52 209.37C28.98 209.37 29.44 209.37 29.91 209.37C30.37 209.37 30.84 209.37 31.3 209.37C31.76 209.37 32.23 209.37 32.69 209.37C33.15 209.37 33.62 209.37 34.08 209.37C34.55 209.37 35.01 209.37 35.47 209.37C35.94 209.37 36.4 209.37 36.86 209.37C37.33 209.37 37.79 209.37 38.26 209.37C38.72 209.37 39.18 209.37 39.65 209.37C40.11 209.37 40.57 209.37 41.04 209.37C41.5 209.37 41.97 209.37 42.43 209.37C42.89 209.37 43.36 209.37 43.82 209.37C44.29 209.37 44.75 209.37 45.21 209.37C45.68 209.37 46.14 209.37 46.6 209.37C47.07 209.37 47.76 209.37 48.69 209.37C49.62 209.37 50.31 209.37 50.78 209.37C51.24 209.37 51.94 209.37 52.86 209.37C53.79 209.37 54.49 209.37 54.95 209.37C55.42 209.37 56.11 209.37 57.04 209.37C57.97 209.37 58.66 209.37 59.13 209.37C59.59 209.37 60.52 209.37 61.91 209.37C63.3 209.37 64.23 209.37 64.69 209.37C65.15 209.37 66.08 209.37 67.47 209.37C68.86 209.37 69.79 209.37 70.26 209.37C70.72 209.37 71.42 209.37 72.34 209.37C73.27 209.37 74.2 209.37 75.13 209.37C76.05 209.37 76.75 209.37 77.21 209.37C77.68 209.37 78.14 209.37 78.6 209.37C79.07 209.37 79.53 209.37 80 209.37C80.46 209.37 80.92 209.37 81.39 209.37C81.85 209.37 82.31 209.37 82.78 209.37C83.24 209.37 83.71 209.37 84.17 209.37C84.63 209.37 85.33 209.37 86.26 209.37C87.18 209.37 88.11 209.37 89.04 209.37C89.97 209.37 90.66 209.37 91.13 209.37C91.59 209.37 92.05 209.37 92.52 209.37C92.98 209.37 93.44 209.37 93.91 209.37C94.37 209.37 94.84 209.37 95.3 209.37C95.76 209.37 96.23 209.37 96.69 209.37C97.15 209.37 97.62 209.37 98.08 209.37" stroke="#15DEFD" stroke-opacity="1.000000" stroke-width="57.000000"/>
	<path id="Форма 89" d="M133.56 216.32L130.78 216.32C128.92 216.32 127.76 216.32 127.3 216.32C126.84 216.32 126.37 216.32 125.91 216.32C125.44 216.32 124.98 216.32 124.52 216.32C124.05 216.32 123.59 216.32 123.13 216.32C122.66 216.32 122.2 216.32 121.73 216.32C121.27 216.32 120.81 216.32 120.34 216.32C119.88 216.32 119.18 216.32 118.26 216.32C117.33 216.32 116.63 216.32 116.17 216.32C115.71 216.32 115.24 216.32 114.78 216.32C114.31 216.32 113.85 216.32 113.39 216.32C112.92 216.32 112.46 216.32 112 216.32C111.53 216.32 111.07 216.32 110.6 216.32C110.14 216.32 109.68 216.32 109.21 216.32C108.75 216.32 108.29 216.32 107.82 216.32C107.36 216.32 106.89 216.32 106.43 216.32C105.97 216.32 105.5 216.32 105.04 216.32C104.58 216.32 104.11 216.32 103.65 216.32C103.18 216.32 102.72 216.32 102.26 216.32C101.79 216.32 101.33 216.32 100.87 216.32C100.4 216.32 99.94 216.32 99.47 216.32C99.01 216.32 98.55 216.32 98.08 216.32C97.62 216.32 97.15 216.32 96.69 216.32C96.23 216.32 95.76 216.32 95.3 216.32C94.84 216.32 94.37 216.32 93.91 216.32" stroke="#15DEFD" stroke-opacity="1.000000" stroke-width="57.000000"/>
	<path id="Форма 90" d="M32 180.15L34.08 180.15C35.47 180.15 36.63 180.15 37.56 180.15C38.49 180.15 39.18 180.15 39.65 180.15C40.11 180.15 40.81 180.15 41.73 180.15C42.66 180.15 43.36 180.15 43.82 180.15C44.28 180.15 44.98 180.15 45.91 180.15C46.84 180.15 47.53 180.15 48 180.15C48.46 180.15 49.15 180.15 50.08 180.15C51.01 180.15 51.94 180.15 52.86 180.15C53.79 180.15 54.95 180.15 56.34 180.15C57.73 180.15 58.66 180.15 59.13 180.15C59.59 180.15 60.05 180.15 60.52 180.15C60.98 180.15 61.44 180.15 61.91 180.15C62.37 180.15 62.84 180.15 63.3 180.15C63.76 180.15 64.23 180.15 64.69 180.15C65.15 180.15 65.62 180.15 66.08 180.15C66.55 180.15 67.01 180.15 67.47 180.15C67.94 180.15 68.4 180.15 68.86 180.15C69.33 180.15 69.79 180.15 70.26 180.15C70.72 180.15 71.18 180.15 71.65 180.15C72.11 180.15 72.57 180.15 73.04 180.15C73.5 180.15 73.97 180.15 74.43 180.15C74.89 180.15 75.36 180.15 75.82 180.15C76.28 180.15 76.75 180.15 77.21 180.15C77.68 180.15 78.14 180.15 78.6 180.15C79.07 180.15 79.53 180.15 80 180.15C80.46 180.15 80.92 180.15 81.39 180.15C81.85 180.15 82.31 180.15 82.78 180.15" stroke="#15DEFD" stroke-opacity="1.000000" stroke-width="57.000000"/>
	<path id="Форма 91" d="M59.82 162.06L62.6 162.06C64.46 162.06 65.62 162.06 66.08 162.06C66.55 162.06 67.01 162.06 67.47 162.06C67.94 162.06 68.4 162.06 68.86 162.06" stroke="#15DEFD" stroke-opacity="1.000000" stroke-width="57.000000"/>
	<path id="Форма 92" d="M48.69 162.06L51.47 162.06C53.33 162.06 54.49 162.06 54.95 162.06C55.42 162.06 55.88 162.06 56.34 162.06C56.81 162.06 57.27 162.06 57.73 162.06C58.2 162.06 58.66 162.06 59.13 162.06C59.59 162.06 60.28 162.06 61.21 162.06C62.14 162.06 62.84 162.06 63.3 162.06C63.76 162.06 64.23 162.06 64.69 162.06C65.15 162.06 65.62 162.06 66.08 162.06C66.55 162.06 67.01 162.06 67.47 162.06C67.94 162.06 68.4 162.06 68.86 162.06C69.33 162.06 69.79 162.06 70.26 162.06C70.72 162.06 71.18 162.06 71.65 162.06C72.11 162.06 72.57 162.06 73.04 162.06" stroke="#15DEFD" stroke-opacity="1.000000" stroke-width="57.000000"/>
	<path id="Форма 93" d="M59.82 148.15L62.6 148.15C64.46 148.15 65.62 148.15 66.08 148.15C66.55 148.15 67.01 148.15 67.47 148.15" stroke="#15DEFD" stroke-opacity="1.000000" stroke-width="57.000000"/>
	<path id="Форма 94" d="M9.73 255.28L11.82 255.28C13.21 255.28 14.14 255.28 14.6 255.28C15.07 255.28 15.53 255.28 16 255.28C16.46 255.28 16.92 255.28 17.39 255.28C17.85 255.28 18.31 255.28 18.78 255.28C19.24 255.28 19.71 255.28 20.17 255.28C20.63 255.28 21.1 255.28 21.56 255.28C22.02 255.28 22.49 255.28 22.95 255.28C23.42 255.28 23.88 255.28 24.34 255.28C24.81 255.28 25.27 255.28 25.73 255.28C26.2 255.28 26.66 255.28 27.13 255.28C27.59 255.28 28.28 255.28 29.21 255.28C30.14 255.28 30.84 255.28 31.3 255.28" stroke="#0ED2F8" stroke-opacity="1.000000" stroke-width="57.000000"/>
	<path id="Форма 95" d="M41.73 280.32L38.95 280.32C37.1 280.32 35.94 280.32 35.47 280.32C35.01 280.32 34.31 280.32 33.39 280.32C32.46 280.32 31.76 280.32 31.3 280.32C30.84 280.32 30.37 280.32 29.91 280.32C29.44 280.32 28.98 280.32 28.52 280.32C28.05 280.32 27.59 280.32 27.13 280.32C26.66 280.32 26.2 280.32 25.73 280.32C25.27 280.32 24.81 280.32 24.34 280.32C23.88 280.32 23.42 280.32 22.95 280.32" stroke="#0ED2F8" stroke-opacity="1.000000" stroke-width="57.000000"/>
	<path id="Форма 96" d="M119.65 216.32L121.73 216.32C123.13 216.32 124.05 216.32 124.52 216.32C124.98 216.32 125.44 216.32 125.91 216.32C126.37 216.32 127.07 216.32 128 216.32C128.92 216.32 129.62 216.32 130.08 216.32C130.55 216.32 131.01 216.32 131.47 216.32C131.94 216.32 132.4 216.32 132.87 216.32C133.33 216.32 134.02 216.32 134.95 216.32C135.88 216.32 136.58 216.32 137.04 216.32C137.5 216.32 137.97 216.32 138.43 216.32C138.89 216.32 139.36 216.32 139.82 216.32C140.28 216.32 140.75 216.32 141.21 216.32" stroke="#0ED2F8" stroke-opacity="1.000000" stroke-width="57.000000"/>
	<path id="Форма 97" d="M148.87 252.5L146.08 252.5C144.23 252.5 143.07 252.5 142.6 252.5C142.14 252.5 141.68 252.5 141.21 252.5C140.75 252.5 140.28 252.5 139.82 252.5C139.36 252.5 138.89 252.5 138.43 252.5C137.97 252.5 137.04 252.5 135.65 252.5C134.26 252.5 133.33 252.5 132.87 252.5C132.4 252.5 131.71 252.5 130.78 252.5C129.85 252.5 129.16 252.5 128.69 252.5" stroke="#0ED2F8" stroke-opacity="1.000000" stroke-width="57.000000"/>
	<path id="Форма 98" d="M137.73 284.5L134.95 284.5C133.1 284.5 131.94 284.5 131.47 284.5C131.01 284.5 130.55 284.5 130.08 284.5C129.62 284.5 129.15 284.5 128.69 284.5C128.23 284.5 127.76 284.5 127.3 284.5C126.84 284.5 126.37 284.5 125.91 284.5C125.44 284.5 124.98 284.5 124.52 284.5C124.05 284.5 123.13 284.5 121.73 284.5C120.34 284.5 119.42 284.5 118.95 284.5" stroke="#0ED2F8" stroke-opacity="1.000000" stroke-width="57.000000"/>
	<path id="Форма 99" d="M58.43 283.1L55.65 283.1C53.79 283.1 52.4 283.1 51.47 283.1C50.55 283.1 49.85 283.1 49.39 283.1C48.92 283.1 48.23 283.1 47.3 283.1C46.37 283.1 45.68 283.1 45.21 283.1C44.75 283.1 44.29 283.1 43.82 283.1C43.36 283.1 42.89 283.1 42.43 283.1C41.97 283.1 41.5 283.1 41.04 283.1C40.57 283.1 40.11 283.1 39.65 283.1" stroke="#0ED2F8" stroke-opacity="1.000000" stroke-width="57.000000"/>
	<path id="Форма 100" d="M44.52 231.63L46.6 231.63C48 231.63 48.92 231.63 49.39 231.63C49.85 231.63 50.55 231.63 51.47 231.63C52.4 231.63 53.33 231.63 54.26 231.63C55.18 231.63 55.88 231.63 56.34 231.63C56.81 231.63 57.27 231.63 57.73 231.63C58.2 231.63 58.89 231.63 59.82 231.63C60.75 231.63 61.44 231.63 61.91 231.63C62.37 231.63 63.07 231.63 64 231.63C64.92 231.63 65.85 231.63 66.78 231.63C67.71 231.63 68.63 231.63 69.56 231.63C70.49 231.63 71.42 231.63 72.34 231.63C73.27 231.63 73.97 231.63 74.43 231.63C74.89 231.63 75.36 231.63 75.82 231.63C76.29 231.63 76.75 231.63 77.21 231.63C77.68 231.63 78.14 231.63 78.6 231.63C79.07 231.63 79.53 231.63 80 231.63C80.46 231.63 80.92 231.63 81.39 231.63C81.85 231.63 82.31 231.63 82.78 231.63C83.24 231.63 83.94 231.63 84.86 231.63C85.79 231.63 86.49 231.63 86.95 231.63C87.42 231.63 87.88 231.63 88.34 231.63C88.81 231.63 89.27 231.63 89.73 231.63C90.2 231.63 90.66 231.63 91.13 231.63C91.59 231.63 92.05 231.63 92.52 231.63C92.98 231.63 93.44 231.63 93.91 231.63C94.37 231.63 94.84 231.63 95.3 231.63" stroke="#CDFFFD" stroke-opacity="1.000000" stroke-width="57.000000"/>
	<path id="Форма 101" d="M107.13 246.93L104.34 246.93C102.49 246.93 101.33 246.93 100.87 246.93C100.4 246.93 99.94 246.93 99.47 246.93C99.01 246.93 98.55 246.93 98.08 246.93C97.62 246.93 96.92 246.93 96 246.93C95.07 246.93 94.37 246.93 93.91 246.93C93.44 246.93 92.75 246.93 91.82 246.93C90.89 246.93 90.2 246.93 89.73 246.93C89.27 246.93 88.81 246.93 88.34 246.93C87.88 246.93 87.42 246.93 86.95 246.93C86.49 246.93 86.02 246.93 85.56 246.93C85.1 246.93 84.63 246.93 84.17 246.93C83.71 246.93 83.24 246.93 82.78 246.93C82.31 246.93 81.85 246.93 81.39 246.93C80.92 246.93 80.46 246.93 80 246.93C79.53 246.93 79.07 246.93 78.6 246.93C78.14 246.93 77.68 246.93 77.21 246.93C76.75 246.93 76.29 246.93 75.82 246.93C75.36 246.93 74.89 246.93 74.43 246.93C73.97 246.93 73.5 246.93 73.04 246.93C72.57 246.93 72.11 246.93 71.65 246.93C71.18 246.93 70.72 246.93 70.26 246.93C69.79 246.93 69.33 246.93 68.86 246.93C68.4 246.93 67.94 246.93 67.47 246.93C67.01 246.93 66.55 246.93 66.08 246.93C65.62 246.93 65.15 246.93 64.69 246.93C64.23 246.93 63.76 246.93 63.3 246.93C62.84 246.93 62.37 246.93 61.91 246.93" stroke="#CDFFFD" stroke-opacity="1.000000" stroke-width="57.000000"/>
	<path id="Форма 102" d="M18.08 191.28L20.17 191.28C21.56 191.28 22.49 191.28 22.95 191.28C23.42 191.28 23.88 191.28 24.34 191.28C24.81 191.28 25.27 191.28 25.73 191.28C26.2 191.28 26.66 191.28 27.13 191.28" stroke="#1E48AC" stroke-opacity="1.000000" stroke-width="57.000000"/>
	<path id="Форма 103" d="M32 166.23L34.08 166.23C35.47 166.23 36.4 166.23 36.86 166.23C37.33 166.23 37.79 166.23 38.26 166.23C38.72 166.23 39.18 166.23 39.65 166.23C40.11 166.23 40.57 166.23 41.04 166.23" stroke="#1E48AC" stroke-opacity="1.000000" stroke-width="57.000000"/>
	<path id="Форма 104" d="M26.43 167.63L29.21 167.63C31.07 167.63 32.23 167.63 32.69 167.63C33.15 167.63 33.85 167.63 34.78 167.63C35.71 167.63 36.4 167.63 36.86 167.63C37.33 167.63 38.02 167.63 38.95 167.63C39.88 167.63 40.57 167.63 41.04 167.63C41.5 167.63 41.97 167.63 42.43 167.63C42.89 167.63 43.36 167.63 43.82 167.63C44.29 167.63 44.75 167.63 45.21 167.63C45.68 167.63 46.37 167.63 47.3 167.63" stroke="#1E48AC" stroke-opacity="1.000000" stroke-width="57.000000"/>
	<path id="Форма 105" d="M47.3 143.97L50.08 143.97C51.94 143.97 53.1 143.97 53.56 143.97C54.02 143.97 54.49 143.97 54.95 143.97C55.42 143.97 56.34 143.97 57.73 143.97C59.13 143.97 60.28 143.97 61.21 143.97C62.14 143.97 62.84 143.97 63.3 143.97C63.76 143.97 64.23 143.97 64.69 143.97C65.15 143.97 65.85 143.97 66.78 143.97C67.71 143.97 68.63 143.97 69.56 143.97C70.49 143.97 71.18 143.97 71.65 143.97C72.11 143.97 72.57 143.97 73.04 143.97C73.5 143.97 74.89 143.97 77.21 143.97C79.53 143.97 81.15 143.97 82.08 143.97" stroke="#1E48AC" stroke-opacity="1.000000" stroke-width="57.000000"/>
	<path id="Форма 106" d="M72.34 116.15L74.43 116.15C75.82 116.15 76.75 116.15 77.21 116.15C77.68 116.15 78.14 116.15 78.6 116.15C79.07 116.15 79.53 116.15 80 116.15C80.46 116.15 80.92 116.15 81.39 116.15C81.85 116.15 82.31 116.15 82.78 116.15" stroke="#1E48AC" stroke-opacity="1.000000" stroke-width="57.000000"/>
	<path id="Форма 107" d="M101.56 114.76L98.78 114.76C96.92 114.76 95.53 114.76 94.6 114.76C93.68 114.76 92.98 114.76 92.52 114.76C92.05 114.76 91.59 114.76 91.13 114.76C90.66 114.76 90.2 114.76 89.73 114.76C89.27 114.76 88.81 114.76 88.34 114.76C87.88 114.76 87.42 114.76 86.95 114.76C86.49 114.76 86.02 114.76 85.56 114.76C85.1 114.76 84.63 114.76 84.17 114.76C83.71 114.76 83.24 114.76 82.78 114.76C82.31 114.76 81.85 114.76 81.39 114.76C80.92 114.76 80.46 114.76 80 114.76C79.53 114.76 79.07 114.76 78.6 114.76" stroke="#1E48AC" stroke-opacity="1.000000" stroke-width="57.000000"/>
	<path id="Форма 108" d="M101.56 91.1L98.78 91.1C96.92 91.1 95.76 91.1 95.3 91.1C94.84 91.1 94.37 91.1 93.91 91.1C93.44 91.1 92.75 91.1 91.82 91.1C90.89 91.1 90.2 91.1 89.73 91.1C89.27 91.1 88.81 91.1 88.34 91.1" stroke="#1E48AC" stroke-opacity="1.000000" stroke-width="57.000000"/>
	<path id="Форма 109" d="M98.78 102.23L101.56 102.23C103.42 102.23 104.58 102.23 105.04 102.23C105.5 102.23 105.97 102.23 106.43 102.23C106.89 102.23 107.36 102.23 107.82 102.23C108.29 102.23 108.98 102.23 109.91 102.23" stroke="#1E48AC" stroke-opacity="1.000000" stroke-width="57.000000"/>
	<path id="Форма 110" d="M52.86 155.1L54.95 155.1C56.34 155.1 57.27 155.1 57.73 155.1C58.2 155.1 58.66 155.1 59.13 155.1C59.59 155.1 60.05 155.1 60.52 155.1C60.98 155.1 61.44 155.1 61.91 155.1C62.37 155.1 62.84 155.1 63.3 155.1C63.76 155.1 64.23 155.1 64.69 155.1C65.15 155.1 65.62 155.1 66.08 155.1C66.55 155.1 67.01 155.1 67.47 155.1C67.94 155.1 68.4 155.1 68.86 155.1C69.33 155.1 69.79 155.1 70.26 155.1" stroke="#15BEFF" stroke-opacity="1.000000" stroke-width="57.000000"/>
	<path id="Форма 111" d="M75.13 138.41L77.91 138.41C79.76 138.41 80.92 138.41 81.39 138.41C81.85 138.41 82.31 138.41 82.78 138.41C83.24 138.41 83.71 138.41 84.17 138.41C84.63 138.41 85.56 138.41 86.95 138.41C88.34 138.41 89.27 138.41 89.73 138.41" stroke="#15BEFF" stroke-opacity="1.000000" stroke-width="57.000000"/>
	<path id="Форма 112" d="M66.78 148.15L69.56 148.15C71.42 148.15 72.57 148.15 73.04 148.15C73.5 148.15 73.97 148.15 74.43 148.15C74.89 148.15 75.36 148.15 75.82 148.15C76.29 148.15 76.75 148.15 77.21 148.15C77.68 148.15 78.14 148.15 78.6 148.15C79.07 148.15 79.53 148.15 80 148.15C80.46 148.15 80.92 148.15 81.39 148.15" stroke="#15BEFF" stroke-opacity="1.000000" stroke-width="57.000000"/>
	<path id="Форма 113" d="M89.04 120.32L91.82 120.32C93.68 120.32 94.84 120.32 95.3 120.32C95.76 120.32 96.23 120.32 96.69 120.32C97.15 120.32 97.62 120.32 98.08 120.32C98.55 120.32 99.01 120.32 99.47 120.32C99.94 120.32 100.4 120.32 100.87 120.32C101.33 120.32 101.79 120.32 102.26 120.32C102.72 120.32 103.18 120.32 103.65 120.32C104.11 120.32 104.58 120.32 105.04 120.32C105.5 120.32 105.97 120.32 106.43 120.32" stroke="#15BEFF" stroke-opacity="1.000000" stroke-width="57.000000"/>
	<path id="Форма 114" d="M100.17 92.5L102.95 92.5C104.81 92.5 105.97 92.5 106.43 92.5C106.89 92.5 107.36 92.5 107.82 92.5C108.29 92.5 108.75 92.5 109.21 92.5C109.68 92.5 110.14 92.5 110.6 92.5C111.07 92.5 111.53 92.5 112 92.5" stroke="#15BEFF" stroke-opacity="1.000000" stroke-width="57.000000"/>
	<path id="Форма 115" d="M104.34 70.23L106.43 70.23C107.82 70.23 108.75 70.23 109.21 70.23C109.68 70.23 110.14 70.23 110.6 70.23C111.07 70.23 111.53 70.23 112 70.23" stroke="#15BEFF" stroke-opacity="1.000000" stroke-width="57.000000"/>
	<path id="Форма 116" d="M107.13 85.54L109.21 85.54C110.6 85.54 111.53 85.54 112 85.54C112.46 85.54 112.92 85.54 113.39 85.54C113.85 85.54 114.31 85.54 114.78 85.54C115.24 85.54 115.71 85.54 116.17 85.54" stroke="#15DEFD" stroke-opacity="1.000000" stroke-width="57.000000"/>
	<path id="Форма 117" d="M101.56 120.32L104.34 120.32C106.2 120.32 107.36 120.32 107.82 120.32C108.29 120.32 108.75 120.32 109.21 120.32" stroke="#15DEFD" stroke-opacity="1.000000" stroke-width="57.000000"/>
	<path id="Форма 118" d="M101.56 130.06L98.78 130.06C96.92 130.06 95.76 130.06 95.3 130.06C94.84 130.06 94.37 130.06 93.91 130.06" stroke="#15DEFD" stroke-opacity="1.000000" stroke-width="57.000000"/>
	<path id="Форма 119" d="M104.34 169.02L101.56 169.02C99.71 169.02 98.31 169.02 97.39 169.02C96.46 169.02 95.76 169.02 95.3 169.02C94.84 169.02 94.14 169.02 93.21 169.02C92.28 169.02 91.59 169.02 91.13 169.02C90.66 169.02 89.97 169.02 89.04 169.02C88.11 169.02 87.42 169.02 86.95 169.02C86.49 169.02 86.02 169.02 85.56 169.02C85.1 169.02 84.63 169.02 84.17 169.02C83.71 169.02 83.24 169.02 82.78 169.02C82.31 169.02 81.85 169.02 81.39 169.02" stroke="#15DEFD" stroke-opacity="1.000000" stroke-width="57.000000"/>
	<path id="Форма 120" d="M107.13 103.63L109.91 103.63C111.76 103.63 113.15 103.63 114.08 103.63C115.01 103.63 115.71 103.63 116.17 103.63C116.63 103.63 117.1 103.63 117.56 103.63C118.02 103.63 118.49 103.63 118.95 103.63C119.42 103.63 120.11 103.63 121.04 103.63" stroke="#15DEFD" stroke-opacity="1.000000" stroke-width="57.000000"/>
	<path id="Форма 121" d="M109.91 180.15L107.13 180.15C105.27 180.15 104.11 180.15 103.65 180.15C103.18 180.15 102.72 180.15 102.26 180.15" stroke="#15DEFD" stroke-opacity="1.000000" stroke-width="57.000000"/>
</svg>
