<svg width="435.944824" height="461.969604" viewBox="0 0 435.945 461.97" fill="none" xmlns="http://www.w3.org/2000/svg" xmlns:xlink="http://www.w3.org/1999/xlink">
	<desc>
			Created with Pixso.
	</desc>
	<defs/>
	<path id="Форма 437 (Граница)" d="M0 34.56L4.93 34.56L10.69 34.56L14.8 34.56L22.2 34.56L22.2 114.71L14.8 114.71L10.69 114.71L4.93 114.71L0 114.71L0 34.56Z" fill="#29112D" fill-opacity="1.000000" fill-rule="evenodd"/>
	<path id="Форма 438 (Граница)" d="M202.34 137.75L181.78 137.75L157.1 137.75L138.18 137.75L115.97 137.75L101.17 137.75L84.72 137.75L68.27 137.75L40.3 137.75L18.91 137.75L15.62 137.75L12.33 137.75L9.87 137.75L9.87 57.6L12.33 57.6L15.62 57.6L18.91 57.6L40.3 57.6L68.27 57.6L84.72 57.6L101.17 57.6L115.97 57.6L138.18 57.6L157.1 57.6L181.78 57.6L202.34 57.6L202.34 137.75Z" fill="#29112D" fill-opacity="1.000000" fill-rule="evenodd"/>
	<path id="Форма 439 (Граница)" d="M11.51 108.61L14.8 108.61L22.2 108.61L28.78 108.61L31.25 108.61L33.72 108.61L39.48 108.61L42.71 108.61L46.06 108.61L49.35 108.61L52.64 108.61L62.51 108.61L74.85 108.61L80.6 108.61L86.36 108.61L98.7 108.61L112.68 108.61L128.31 108.61L164.5 108.61L193.29 108.61L194.11 108.61L194.94 108.61L194.94 188.77L194.11 188.77L193.29 188.77L164.5 188.77L128.31 188.77L112.68 188.77L98.7 188.77L86.36 188.77L80.6 188.77L74.85 188.77L62.51 188.77L52.64 188.77L49.35 188.77L46.06 188.77L42.71 188.77L39.48 188.77L33.72 188.77L31.25 188.77L28.78 188.77L22.2 188.77L14.8 188.77L11.51 188.77L11.51 108.61Z" fill="#29112D" fill-opacity="1.000000" fill-rule="evenodd"/>
	<path id="Форма 440 (Граница)" d="M167.79 234.85L163.68 234.85L140.65 234.85L113.51 234.85L102.81 234.85L97.05 234.85L94.86 234.85L90.47 234.85L83.07 234.85L78.96 234.85L74.85 234.85L65.8 234.85L65.8 154.69L74.85 154.69L78.96 154.69L83.07 154.69L90.47 154.69L94.86 154.69L97.05 154.69L102.81 154.69L113.51 154.69L140.65 154.69L163.68 154.69L167.79 154.69L167.79 234.85Z" fill="#29112D" fill-opacity="1.000000" fill-rule="evenodd"/>
	<path id="Форма 441 (Граница)" d="M435.94 429.05L429.36 429.05L421.96 429.05L416.2 429.05L409.62 429.05L403.04 429.05L394.81 429.05L386.59 429.05L375.07 429.05L331.48 429.05L287.06 429.05L278.01 429.05L275.54 429.05L273.9 429.05L269.79 429.05L269.79 348.89L273.9 348.89L275.54 348.89L278.01 348.89L287.06 348.89L331.48 348.89L375.07 348.89L386.59 348.89L394.81 348.89L403.04 348.89L409.62 348.89L416.2 348.89L421.96 348.89L429.36 348.89L435.94 348.89L435.94 429.05Z" fill="#29112D" fill-opacity="1.000000" fill-rule="evenodd"/>
	<path id="Форма 442 (Граница)" d="M412.91 378.03L406.33 378.03L398.93 378.03L395.64 378.03L391.52 378.03L386.59 378.03L380.83 378.03L375.07 378.03L371.78 378.03L368.49 378.03L347.93 378.03L327.37 378.03L323.25 378.03L322.43 378.03L321.61 378.03L318.32 378.03L318.32 297.87L321.61 297.87L322.43 297.87L323.25 297.87L327.37 297.87L347.93 297.87L368.49 297.87L371.78 297.87L375.07 297.87L380.83 297.87L386.59 297.87L391.52 297.87L395.64 297.87L398.93 297.87L406.33 297.87L412.91 297.87L412.91 378.03Z" fill="#29112D" fill-opacity="1.000000" fill-rule="evenodd"/>
	<path id="Форма 443 (Граница)" d="M304.33 381.81L307.62 381.81L311.74 381.81L312.56 381.81L313.38 381.81L315.03 381.81L316.67 381.81L319.14 381.81L329.01 381.81L338.88 381.81L341.35 381.81L342.17 381.81L342.99 381.81L343.82 381.81L344.64 381.81L345.46 381.81L346.28 381.81L347.11 381.81L347.93 381.81L348.75 381.81L349.57 381.81L350.4 381.81L351.22 381.81L352.04 381.81L352.86 381.81L356.15 381.81L359.44 381.81L361.09 381.81L370.14 381.81L379.19 381.81L380.01 381.81L380.83 381.81L381.65 381.81L382.48 381.81L383.3 381.81L384.12 381.81L386.59 381.81L389.06 381.81L389.88 381.81L390.7 381.81L391.52 381.81L392.35 381.81L394.81 381.81L397.28 381.81L398.93 381.81L399.75 381.81L400.57 381.81L402.22 381.81L402.22 461.97L400.57 461.97L399.75 461.97L398.93 461.97L397.28 461.97L394.81 461.97L392.35 461.97L391.52 461.97L390.7 461.97L389.88 461.97L389.06 461.97L386.59 461.97L384.12 461.97L383.3 461.97L382.48 461.97L381.65 461.97L380.83 461.97L380.01 461.97L379.19 461.97L370.14 461.97L361.09 461.97L359.44 461.97L356.15 461.97L352.86 461.97L352.04 461.97L351.22 461.97L350.4 461.97L349.57 461.97L348.75 461.97L347.93 461.97L347.11 461.97L346.28 461.97L345.46 461.97L344.64 461.97L343.82 461.97L342.99 461.97L342.17 461.97L341.35 461.97L338.88 461.97L329.01 461.97L319.14 461.97L316.67 461.97L315.03 461.97L313.38 461.97L312.56 461.97L311.74 461.97L307.62 461.97L304.33 461.97L304.33 381.81Z" fill="#29112D" fill-opacity="1.000000" fill-rule="evenodd"/>
	<path id="Форма 444 (Граница)" d="M23.03 27.97L29.61 27.97L37.83 27.97L44.41 27.97L51.81 27.97L55.93 27.97L57.57 27.97L59.22 27.97L62.51 27.97L64.98 27.97L74.02 27.97L85.54 27.97L88.83 27.97L92.12 27.97L96.23 27.97L97.05 27.97L97.88 27.97L99.52 27.97L101.17 27.97L103.64 27.97L111.04 27.97L118.44 27.97L120.91 27.97L122.55 27.97L125.02 27.97L127.49 27.97L129.13 27.97L132.42 27.97L135.71 27.97L136.26 27.97L137.36 27.97L140.65 27.97L143.94 27.97L145.58 27.97L147.23 27.97L148.05 27.97L148.87 27.97L150.52 27.97L152.16 27.97L153.81 27.97L156.28 27.97L156.28 108.13L153.81 108.13L152.16 108.13L150.52 108.13L148.87 108.13L148.05 108.13L147.23 108.13L145.58 108.13L143.94 108.13L140.65 108.13L137.36 108.13L136.26 108.13L135.71 108.13L132.42 108.13L129.13 108.13L127.49 108.13L125.02 108.13L122.55 108.13L120.91 108.13L118.44 108.13L111.04 108.13L103.64 108.13L101.17 108.13L99.52 108.13L97.88 108.13L97.05 108.13L96.23 108.13L92.12 108.13L88.83 108.13L85.54 108.13L74.02 108.13L64.98 108.13L62.51 108.13L59.22 108.13L57.57 108.13L55.93 108.13L51.81 108.13L44.41 108.13L37.83 108.13L29.61 108.13L23.03 108.13L23.03 27.97Z" fill="#29112D" fill-opacity="1.000000" fill-rule="evenodd"/>
	<path id="Форма 445 (Граница)" d="M161.21 80.15L154.63 80.15L147.23 80.15L143.94 80.15L140.65 80.15L138.18 80.15L134.07 80.15L131.6 80.15L129.13 80.15L125.84 80.15L115.15 80.15L101.17 80.15L93.76 80.15L88.83 80.15L86.36 80.15L84.72 80.15L80.6 80.15L76.49 80.15L75.67 80.15L74.85 80.15L74.04 80.15L73.2 80.15L71.56 80.15L69.91 80.15L68.27 80.15L66.62 80.15L64.98 80.15L63.33 80.15L61.69 80.15L60.86 80.15L60.04 80.15L57.57 80.15L54.28 80.15L51.81 80.15L50.99 80.15L50.17 80.15L48.52 80.15L46.88 80.15L45.23 80.15L45.23 0L46.88 0L48.52 0L50.17 0L50.99 0L51.81 0L54.28 0L57.57 0L60.04 0L60.86 0L61.69 0L63.33 0L64.98 0L66.62 0L68.27 0L69.91 0L71.56 0L73.2 0L74.04 0L74.85 0L75.67 0L76.49 0L80.6 0L84.72 0L86.36 0L88.83 0L93.76 0L101.17 0L115.15 0L125.84 0L129.13 0L131.6 0L134.07 0L138.18 0L140.65 0L143.94 0L147.23 0L154.63 0L161.21 0L161.21 80.15Z" fill="#29112D" fill-opacity="1.000000" fill-rule="evenodd"/>
	<path id="Форма 446 (Граница)" d="M27.96 60.89L31.25 60.89L36.19 60.89L38.65 60.89L40.3 60.89L42.77 60.89L46.88 60.89L49.35 60.89L51.81 60.89L54.28 60.89L56.75 60.89L61.69 60.89L74.85 60.89L88.83 60.89L98.7 60.89L108.57 60.89L113.51 60.89L118.44 60.89L123.38 60.89L125.84 60.89L129.13 60.89L132.42 60.89L134.07 60.89L135.71 60.89L137.36 60.89L138.18 60.89L139 60.89L140.65 60.89L142.29 60.89L143.12 60.89L143.94 60.89L143.94 141.05L143.12 141.05L142.29 141.05L140.65 141.05L139 141.05L138.18 141.05L137.36 141.05L135.71 141.05L134.07 141.05L132.42 141.05L129.13 141.05L125.84 141.05L123.38 141.05L118.44 141.05L113.51 141.05L108.57 141.05L98.7 141.05L88.83 141.05L74.85 141.05L61.69 141.05L56.75 141.05L54.28 141.05L51.81 141.05L49.35 141.05L46.88 141.05L42.77 141.05L40.3 141.05L38.65 141.05L36.19 141.05L31.25 141.05L27.96 141.05L27.96 60.89Z" fill="#6F0940" fill-opacity="1.000000" fill-rule="evenodd"/>
	<path id="Форма 447 (Граница)" d="M144.76 103.19L139 103.19L132.42 103.19L128.31 103.19L123.38 103.19L121.73 103.19L120.09 103.19L118.44 103.19L116.8 103.19L112.68 103.19L108.57 103.19L101.99 103.19L93.76 103.19L89.65 103.19L87.18 103.19L83.07 103.19L83.07 23.04L87.18 23.04L89.65 23.04L93.76 23.04L101.99 23.04L108.57 23.04L112.68 23.04L116.8 23.04L118.44 23.04L120.09 23.04L121.73 23.04L123.38 23.04L128.31 23.04L132.42 23.04L139 23.04L144.76 23.04L144.76 103.19Z" fill="#6F0940" fill-opacity="1.000000" fill-rule="evenodd"/>
	<path id="Форма 448 (Граница)" d="M172.73 188.77L169.44 188.77L154.63 188.77L139.83 188.77L135.71 188.77L132.42 188.77L126.67 188.77L120.91 188.77L115.15 188.77L100.34 188.77L87.18 188.77L85.56 188.77L83.89 188.77L81.43 188.77L79.78 188.77L78.96 188.77L78.14 188.77L76.49 188.77L74.02 188.77L71.56 188.77L71.56 108.61L74.02 108.61L76.49 108.61L78.14 108.61L78.96 108.61L79.78 108.61L81.43 108.61L83.89 108.61L85.56 108.61L87.18 108.61L100.34 108.61L115.15 108.61L120.91 108.61L126.67 108.61L132.42 108.61L135.71 108.61L139.83 108.61L154.63 108.61L169.44 108.61L172.73 108.61L172.73 188.77Z" fill="#6F0940" fill-opacity="1.000000" fill-rule="evenodd"/>
	<path id="Форма 449 (Граница)" d="M403.04 386.26L388.23 386.26L372.6 386.26L369.31 386.26L366.85 386.26L364.38 386.26L361.09 386.26L359.44 386.26L351.22 386.26L341.35 386.26L338.06 386.26L338.06 306.1L341.35 306.1L351.22 306.1L359.44 306.1L361.09 306.1L364.38 306.1L366.85 306.1L369.31 306.1L372.6 306.1L388.23 306.1L403.04 306.1L403.04 386.26Z" fill="#6F0940" fill-opacity="1.000000" fill-rule="evenodd"/>
	<path id="Форма 450 (Граница)" d="M309.27 363.7L314.2 363.7L319.96 363.7L325.72 363.7L332.3 363.7L335.54 363.7L335.59 363.7L339.7 363.7L342.15 363.7L344.64 363.7L362.73 363.7L381.65 363.7L389.06 363.7L393.99 363.7L394.81 363.7L395.64 363.7L397.28 363.7L399.75 363.7L399.75 443.86L397.28 443.86L395.64 443.86L394.81 443.86L393.99 443.86L389.06 443.86L381.65 443.86L362.73 443.86L344.64 443.86L342.15 443.86L339.7 443.86L335.59 443.86L335.54 443.86L332.3 443.86L325.72 443.86L319.96 443.86L314.2 443.86L309.27 443.86L309.27 363.7Z" fill="#6F0940" fill-opacity="1.000000" fill-rule="evenodd"/>
	<path id="Форма 451 (Граница)" d="M67.44 60.89L74.85 60.89L83.07 60.89L88.83 60.89L94.59 60.89L96.23 60.89L96.23 141.05L94.59 141.05L88.83 141.05L83.07 141.05L74.85 141.05L67.44 141.05L67.44 60.89Z" fill="#508069" fill-opacity="1.000000" fill-rule="evenodd"/>
	<path id="Форма 452 (Граница)" d="M380.01 417.53L375.9 417.53L370.96 417.53L369.31 417.53L366.85 417.53L364.38 417.53L363.55 417.53L362.73 417.53L361.09 417.53L359.44 417.53L355.33 417.53L355.33 337.37L359.44 337.37L361.09 337.37L362.73 337.37L363.55 337.37L364.38 337.37L366.85 337.37L369.31 337.37L370.96 337.37L375.9 337.37L380.01 337.37L380.01 417.53Z" fill="#508069" fill-opacity="1.000000" fill-rule="evenodd"/>
</svg>
