<svg width="178.143799" height="192.256592" viewBox="0 0 178.144 192.257" fill="none" xmlns="http://www.w3.org/2000/svg" xmlns:xlink="http://www.w3.org/1999/xlink">
	<desc>
			Created with Pixso.
	</desc>
	<defs/>
	<path id="Форма 428" d="M19.18 42L21.24 42C22.61 42 23.52 42 23.98 42C24.43 42 24.89 42 25.35 42C25.8 42 26.26 42 26.72 42C27.17 42 27.86 42 28.77 42C29.69 42 30.37 42 30.83 42C31.28 42 31.74 42 32.2 42C32.65 42 33.34 42 34.25 42C35.17 42 35.85 42 36.31 42C36.77 42 37.22 42 37.68 42C38.14 42 38.82 42 39.73 42C40.65 42 43.39 42 47.96 42C52.52 42 55.04 42 55.49 42C55.95 42 56.41 42 56.86 42C57.32 42 57.78 42 58.23 42C58.69 42 59.15 42 59.6 42C60.06 42 60.52 42 60.98 42C61.43 42 61.89 42 62.35 42C62.8 42 63.26 42 63.72 42" stroke="#FF203F" stroke-opacity="1.000000" stroke-width="84.000000"/>
	<path id="Форма 429" d="M0 77.62L2.74 77.62C4.56 77.62 5.7 77.62 6.16 77.62C6.62 77.62 7.08 77.62 7.53 77.62C7.99 77.62 8.45 77.62 8.9 77.62C9.36 77.62 9.82 77.62 10.27 77.62C10.73 77.62 11.19 77.62 11.64 77.62C12.1 77.62 12.56 77.62 13.01 77.62C13.47 77.62 15.75 77.62 19.86 77.62C23.98 77.62 26.95 77.62 28.77 77.62C30.6 77.62 31.74 77.62 32.2 77.62C32.65 77.62 33.34 77.62 34.25 77.62C35.17 77.62 35.85 77.62 36.31 77.62C36.77 77.62 37.22 77.62 37.68 77.62C38.14 77.62 38.59 77.62 39.05 77.62C39.51 77.62 39.96 77.62 40.42 77.62C40.88 77.62 41.33 77.62 41.79 77.62C42.25 77.62 42.7 77.62 43.16 77.62C43.62 77.62 44.53 77.62 45.9 77.62C47.27 77.62 48.19 77.62 48.64 77.62C49.1 77.62 49.56 77.62 50.01 77.62C50.47 77.62 50.93 77.62 51.38 77.62C51.84 77.62 52.3 77.62 52.75 77.62C53.21 77.62 53.67 77.62 54.12 77.62C54.58 77.62 55.04 77.62 55.49 77.62C55.95 77.62 56.41 77.62 56.86 77.62C57.32 77.62 57.78 77.62 58.23 77.62C58.69 77.62 59.15 77.62 59.6 77.62C60.06 77.62 60.52 77.62 60.98 77.62C61.43 77.62 61.89 77.62 62.35 77.62C62.8 77.62 63.26 77.62 63.72 77.62C64.17 77.62 64.63 77.62 65.09 77.62C65.54 77.62 66 77.62 66.46 77.62C66.91 77.62 67.37 77.62 67.83 77.62C68.28 77.62 68.74 77.62 69.2 77.62C69.65 77.62 70.11 77.62 70.57 77.62C71.02 77.62 71.48 77.62 71.94 77.62C72.39 77.62 72.85 77.62 73.31 77.62C73.76 77.62 74.22 77.62 74.68 77.62C75.14 77.62 75.59 77.62 76.05 77.62C76.51 77.62 76.96 77.62 77.42 77.62C77.88 77.62 78.33 77.62 78.79 77.62C79.25 77.62 79.7 77.62 80.16 77.62C80.62 77.62 81.07 77.62 81.53 77.62" stroke="#FF203F" stroke-opacity="1.000000" stroke-width="84.000000"/>
	<path id="Форма 430" d="M28.77 113.25L31.51 113.25C33.34 113.25 34.48 113.25 34.94 113.25C35.39 113.25 36.08 113.25 36.99 113.25C37.91 113.25 39.51 113.25 41.79 113.25C44.07 113.25 45.9 113.25 47.27 113.25C48.64 113.25 49.55 113.25 50.01 113.25C50.47 113.25 51.15 113.25 52.07 113.25C52.98 113.25 53.67 113.25 54.12 113.25C54.58 113.25 55.04 113.25 55.49 113.25C55.95 113.25 56.41 113.25 56.86 113.25C57.32 113.25 57.78 113.25 58.23 113.25C58.69 113.25 59.15 113.25 59.6 113.25C60.06 113.25 60.52 113.25 60.97 113.25C61.43 113.25 61.89 113.25 62.34 113.25C62.8 113.25 63.26 113.25 63.72 113.25C64.17 113.25 64.63 113.25 65.09 113.25C65.54 113.25 66 113.25 66.46 113.25C66.91 113.25 67.37 113.25 67.83 113.25C68.28 113.25 68.97 113.25 69.88 113.25C70.8 113.25 71.48 113.25 71.94 113.25C72.39 113.25 72.85 113.25 73.31 113.25C73.76 113.25 74.22 113.25 74.68 113.25C75.13 113.25 75.59 113.25 76.05 113.25C76.51 113.25 76.96 113.25 77.42 113.25C77.88 113.25 78.33 113.25 78.79 113.25C79.25 113.25 79.7 113.25 80.16 113.25C80.62 113.25 81.07 113.25 81.53 113.25C81.99 113.25 82.44 113.25 82.9 113.25C83.36 113.25 83.81 113.25 84.27 113.25C84.73 113.25 85.18 113.25 85.64 113.25C86.1 113.25 86.55 113.25 87.01 113.25C87.47 113.25 87.92 113.25 88.38 113.25C88.84 113.25 89.29 113.25 89.75 113.25C90.21 113.25 90.67 113.25 91.12 113.25C91.58 113.25 92.04 113.25 92.49 113.25C92.95 113.25 93.41 113.25 93.86 113.25C94.32 113.25 94.78 113.25 95.23 113.25C95.69 113.25 96.15 113.25 96.6 113.25C97.06 113.25 97.52 113.25 97.97 113.25C98.43 113.25 98.89 113.25 99.34 113.25C99.8 113.25 100.26 113.25 100.71 113.25C101.17 113.25 101.63 113.25 102.08 113.25C102.54 113.25 103 113.25 103.46 113.25C103.91 113.25 104.37 113.25 104.83 113.25C105.28 113.25 105.74 113.25 106.2 113.25C106.65 113.25 107.11 113.25 107.57 113.25" stroke="#FF203F" stroke-opacity="1.000000" stroke-width="84.000000"/>
	<path id="Форма 431" d="M72.62 135.18L74.68 135.18C76.05 135.18 76.96 135.18 77.42 135.18C77.88 135.18 78.33 135.18 78.79 135.18C79.25 135.18 79.93 135.18 80.84 135.18C81.76 135.18 82.44 135.18 82.9 135.18C83.36 135.18 84.5 135.18 86.33 135.18C88.15 135.18 89.29 135.18 89.75 135.18C90.21 135.18 90.67 135.18 91.12 135.18C91.58 135.18 92.04 135.18 92.49 135.18C92.95 135.18 93.41 135.18 93.86 135.18C94.32 135.18 94.78 135.18 95.23 135.18C95.69 135.18 96.15 135.18 96.6 135.18C97.06 135.18 97.52 135.18 97.97 135.18C98.43 135.18 98.89 135.18 99.34 135.18C99.8 135.18 100.26 135.18 100.71 135.18C101.17 135.18 101.63 135.18 102.09 135.18C102.54 135.18 103 135.18 103.46 135.18C103.91 135.18 104.37 135.18 104.83 135.18C105.28 135.18 105.74 135.18 106.2 135.18C106.65 135.18 107.11 135.18 107.57 135.18C108.02 135.18 108.48 135.18 108.94 135.18" stroke="#FF203F" stroke-opacity="1.000000" stroke-width="84.000000"/>
	<path id="Форма 432" d="M86.33 150.25L88.38 150.25C89.75 150.25 90.89 150.25 91.81 150.25C92.72 150.25 93.41 150.25 93.86 150.25C94.32 150.25 94.78 150.25 95.23 150.25C95.69 150.25 96.15 150.25 96.6 150.25" stroke="#FF203F" stroke-opacity="1.000000" stroke-width="84.000000"/>
	<path id="Форма 433" d="M87.7 85.85L89.75 85.85C91.12 85.85 92.04 85.85 92.49 85.85C92.95 85.85 93.41 85.85 93.86 85.85C94.32 85.85 94.78 85.85 95.23 85.85C95.69 85.85 96.15 85.85 96.6 85.85C97.06 85.85 97.52 85.85 97.97 85.85C98.43 85.85 98.89 85.85 99.34 85.85C99.8 85.85 100.72 85.85 102.09 85.85C103.46 85.85 104.37 85.85 104.83 85.85C105.28 85.85 105.74 85.85 106.2 85.85C106.65 85.85 107.11 85.85 107.57 85.85C108.02 85.85 108.48 85.85 108.94 85.85C109.39 85.85 109.85 85.85 110.31 85.85C110.76 85.85 111.22 85.85 111.68 85.85C112.13 85.85 112.59 85.85 113.05 85.85C113.51 85.85 113.96 85.85 114.42 85.85C114.88 85.85 115.33 85.85 115.79 85.85C116.25 85.85 116.7 85.85 117.16 85.85C117.62 85.85 118.07 85.85 118.53 85.85C118.99 85.85 119.44 85.85 119.9 85.85C120.36 85.85 120.81 85.85 121.27 85.85C121.73 85.85 122.18 85.85 122.64 85.85C123.1 85.85 123.55 85.85 124.01 85.85C124.47 85.85 124.92 85.85 125.38 85.85C125.84 85.85 126.29 85.85 126.75 85.85C127.21 85.85 127.67 85.85 128.12 85.85C128.58 85.85 129.03 85.85 129.49 85.85C129.95 85.85 130.41 85.85 130.86 85.85C131.32 85.85 131.78 85.85 132.23 85.85C132.69 85.85 133.15 85.85 133.6 85.85C134.06 85.85 134.52 85.85 134.97 85.85C135.43 85.85 135.89 85.85 136.34 85.85C136.8 85.85 137.26 85.85 137.71 85.85C138.17 85.85 138.63 85.85 139.08 85.85C139.54 85.85 140 85.85 140.46 85.85" stroke="#FF203F" stroke-opacity="1.000000" stroke-width="84.000000"/>
	<path id="Форма 434" d="M109.62 110.51L113.73 110.51C116.47 110.51 118.07 110.51 118.53 110.51C118.99 110.51 119.44 110.51 119.9 110.51C120.36 110.51 120.81 110.51 121.27 110.51C121.73 110.51 122.18 110.51 122.64 110.51C123.1 110.51 123.55 110.51 124.01 110.51C124.47 110.51 124.92 110.51 125.38 110.51C125.84 110.51 126.29 110.51 126.75 110.51C127.21 110.51 127.67 110.51 128.12 110.51C128.58 110.51 129.03 110.51 129.49 110.51C129.95 110.51 130.41 110.51 130.86 110.51C131.32 110.51 131.78 110.51 132.23 110.51C132.69 110.51 133.15 110.51 133.6 110.51" stroke="#FF203F" stroke-opacity="1.000000" stroke-width="84.000000"/>
	<path id="Форма 435" d="M130.18 99.55L132.23 99.55C133.6 99.55 134.52 99.55 134.97 99.55C135.43 99.55 135.89 99.55 136.34 99.55C136.8 99.55 137.26 99.55 137.71 99.55C138.17 99.55 138.86 99.55 139.77 99.55C140.68 99.55 141.6 99.55 142.51 99.55C143.42 99.55 144.11 99.55 144.57 99.55C145.02 99.55 145.48 99.55 145.94 99.55C146.39 99.55 146.85 99.55 147.31 99.55" stroke="#FF203F" stroke-opacity="1.000000" stroke-width="84.000000"/>
	<path id="Форма 436" d="M137.03 83.11L139.77 83.11C141.6 83.11 142.74 83.11 143.2 83.11C143.65 83.11 144.79 83.11 146.62 83.11C148.45 83.11 149.82 83.11 150.73 83.11C151.64 83.11 152.33 83.11 152.79 83.11C153.24 83.11 153.7 83.11 154.16 83.11C154.61 83.11 155.07 83.11 155.53 83.11C155.99 83.11 156.44 83.11 156.9 83.11C157.36 83.11 157.81 83.11 158.27 83.11C158.73 83.11 159.18 83.11 159.64 83.11C160.1 83.11 160.55 83.11 161.01 83.11C161.47 83.11 161.92 83.11 162.38 83.11" stroke="#FF203F" stroke-opacity="1.000000" stroke-width="84.000000"/>
	<path id="Форма 437" d="M178.14 76.25L176.08 76.25C174.71 76.25 173.8 76.25 173.34 76.25C172.89 76.25 172.2 76.25 171.29 76.25C170.37 76.25 168.78 76.25 166.49 76.25C164.21 76.25 162.84 76.25 162.38 76.25C161.92 76.25 161.47 76.25 161.01 76.25C160.55 76.25 160.1 76.25 159.64 76.25C159.18 76.25 158.73 76.25 158.27 76.25C157.81 76.25 157.36 76.25 156.9 76.25C156.44 76.25 155.99 76.25 155.53 76.25C155.07 76.25 154.61 76.25 154.16 76.25C153.7 76.25 153.24 76.25 152.79 76.25" stroke="#FF203F" stroke-opacity="1.000000" stroke-width="84.000000"/>
	<path id="Форма 438" d="M160.32 50.22L157.58 50.22C155.76 50.22 154.39 50.22 153.47 50.22C152.56 50.22 151.87 50.22 151.42 50.22C150.96 50.22 150.5 50.22 150.05 50.22C149.59 50.22 149.13 50.22 148.68 50.22C148.22 50.22 147.76 50.22 147.31 50.22C146.85 50.22 146.39 50.22 145.94 50.22C145.48 50.22 145.02 50.22 144.57 50.22C144.11 50.22 143.42 50.22 142.51 50.22C141.6 50.22 140.91 50.22 140.45 50.22C140 50.22 139.54 50.22 139.08 50.22C138.63 50.22 137.49 50.22 135.66 50.22C133.83 50.22 132.69 50.22 132.23 50.22C131.78 50.22 131.09 50.22 130.18 50.22C129.26 50.22 128.58 50.22 128.12 50.22C127.67 50.22 127.21 50.22 126.75 50.22C126.29 50.22 125.84 50.22 125.38 50.22C124.92 50.22 124.47 50.22 124.01 50.22C123.55 50.22 123.1 50.22 122.64 50.22C122.18 50.22 121.73 50.22 121.27 50.22C120.81 50.22 120.36 50.22 119.9 50.22C119.44 50.22 118.99 50.22 118.53 50.22C118.07 50.22 117.62 50.22 117.16 50.22C116.7 50.22 116.25 50.22 115.79 50.22C115.33 50.22 114.88 50.22 114.42 50.22C113.96 50.22 113.51 50.22 113.05 50.22C112.59 50.22 112.13 50.22 111.68 50.22C111.22 50.22 110.76 50.22 110.31 50.22C109.85 50.22 109.39 50.22 108.94 50.22C108.48 50.22 108.02 50.22 107.57 50.22C107.11 50.22 106.65 50.22 106.2 50.22C105.74 50.22 105.28 50.22 104.83 50.22" stroke="#FF203F" stroke-opacity="1.000000" stroke-width="84.000000"/>
	<path id="Форма 439" d="M120.59 44.74L123.33 44.74C125.15 44.74 126.29 44.74 126.75 44.74C127.21 44.74 127.67 44.74 128.12 44.74C128.58 44.74 129.49 44.74 130.86 44.74C132.23 44.74 133.38 44.74 134.29 44.74C135.2 44.74 135.89 44.74 136.34 44.74C136.8 44.74 137.26 44.74 137.71 44.74C138.17 44.74 138.63 44.74 139.08 44.74C139.54 44.74 140 44.74 140.46 44.74C140.91 44.74 141.37 44.74 141.83 44.74C142.28 44.74 142.74 44.74 143.2 44.74C143.65 44.74 144.11 44.74 144.57 44.74C145.02 44.74 145.48 44.74 145.94 44.74C146.39 44.74 146.85 44.74 147.31 44.74C147.76 44.74 148.22 44.74 148.68 44.74" stroke="#FF203F" stroke-opacity="1.000000" stroke-width="84.000000"/>
</svg>
