<svg width="834.390015" height="928.689941" viewBox="0 0 834.39 928.69" fill="none" xmlns="http://www.w3.org/2000/svg" xmlns:xlink="http://www.w3.org/1999/xlink">
	<desc>
			Created with Pixso.
	</desc>
	<defs/>
	<path id="Форма 361" d="M95.26 385.5L103.47 385.5C108.95 385.5 112.78 385.5 114.97 385.5C117.16 385.5 121.54 385.5 128.11 385.5C134.68 385.5 140.16 385.5 144.53 385.5C148.92 385.5 153.3 385.5 157.67 385.5C162.06 385.5 166.44 385.5 170.82 385.5C175.2 385.5 179.58 385.5 183.96 385.5C188.34 385.5 193.81 385.5 200.38 385.5C206.95 385.5 221.19 385.5 243.09 385.5" stroke="#2CB3BC" stroke-opacity="1.000000" stroke-width="160.000000"/>
	<path id="Форма 362" d="M338.35 306.66L323.57 306.66C313.71 306.66 308.24 306.66 307.14 306.66C306.05 306.66 302.76 306.66 297.29 306.66C291.81 306.66 287.43 306.66 284.15 306.66C280.86 306.66 277.03 306.66 272.65 306.66C268.27 306.66 264.44 306.66 261.15 306.66C257.87 306.66 254.58 306.66 251.3 306.66C248.01 306.66 244.73 306.66 241.44 306.66C238.16 306.66 233.78 306.66 228.3 306.66C222.83 306.66 219.54 306.66 218.45 306.66C217.35 306.66 216.26 306.66 215.16 306.66C214.07 306.66 212.97 306.66 211.88 306.66C210.78 306.66 209.69 306.66 208.59 306.66" stroke="#2CB3BC" stroke-opacity="1.000000" stroke-width="160.000000"/>
	<path id="Форма 363" d="M144.53 247.53L152.75 247.53C158.22 247.53 162.06 247.53 164.25 247.53C166.44 247.53 169.72 247.53 174.1 247.53C178.48 247.53 182.86 247.53 187.24 247.53C191.62 247.53 194.91 247.53 197.1 247.53C199.29 247.53 201.48 247.53 203.67 247.53C205.86 247.53 208.05 247.53 210.24 247.53C212.43 247.53 217.9 247.53 226.66 247.53" stroke="#2CB3BC" stroke-opacity="1.000000" stroke-width="160.000000"/>
	<path id="Форма 372" d="M174.1 346.08L188.88 346.08C198.74 346.08 205.31 346.08 208.59 346.08C211.88 346.08 215.71 346.08 220.09 346.08C224.47 346.08 228.85 346.08 233.23 346.08C237.61 346.08 240.35 346.08 241.44 346.08C242.54 346.08 244.18 346.08 246.37 346.08C248.56 346.08 250.75 346.08 252.94 346.08C255.13 346.08 257.32 346.08 259.51 346.08C261.7 346.08 263.34 346.08 264.44 346.08C265.53 346.08 271.01 346.08 280.86 346.08C290.72 346.08 296.74 346.08 298.93 346.08" stroke="#26BBBA" stroke-opacity="1.000000" stroke-width="160.000000"/>
	<path id="Форма 379" d="M105.12 293.52L118.26 293.52C127.02 293.52 132.49 293.52 134.68 293.52C136.87 293.52 140.7 293.52 146.18 293.52C151.65 293.52 156.03 293.52 159.32 293.52C162.6 293.52 165.34 293.52 167.53 293.52C169.72 293.52 172.46 293.52 175.74 293.52C179.03 293.52 182.31 293.52 185.6 293.52C188.88 293.52 192.72 293.52 197.1 293.52C201.48 293.52 204.21 293.52 205.31 293.52C206.4 293.52 208.59 293.52 211.88 293.52C215.16 293.52 217.35 293.52 218.45 293.52C219.54 293.52 220.64 293.52 221.73 293.52C222.83 293.52 223.92 293.52 225.02 293.52" stroke="#2BD8D7" stroke-opacity="1.000000" stroke-width="160.000000"/>
	<path id="Форма 387" d="M220.09 336.23L197.1 336.23C181.77 336.23 173.01 336.23 170.82 336.23C168.63 336.23 166.98 336.23 165.89 336.23C164.79 336.23 163.7 336.23 162.6 336.23C161.51 336.23 157.13 336.23 149.46 336.23C141.8 336.23 137.42 336.23 136.32 336.23" stroke="#60F9AF" stroke-opacity="1.000000" stroke-width="160.000000"/>
	<path id="Форма 358" d="M0 822.41L9.85 822.41C16.42 822.41 21.35 822.41 24.63 822.41C27.92 822.41 35.58 822.41 47.63 822.41C59.67 822.41 68.98 822.41 75.55 822.41C82.12 822.41 87.6 822.41 91.98 822.41C96.36 822.41 101.28 822.41 106.76 822.41C112.23 822.41 117.16 822.41 121.54 822.41C125.92 822.41 130.85 822.41 136.32 822.41C141.8 822.41 147.27 822.41 152.75 822.41C158.22 822.41 163.15 822.41 167.53 822.41C171.91 822.41 175.2 822.41 177.39 822.41C179.58 822.41 182.86 822.41 187.24 822.41C191.62 822.41 194.36 822.41 195.45 822.41" stroke="#2CB3BC" stroke-opacity="1.000000" stroke-width="160.000000"/>
	<path id="Форма 359" d="M49.27 730.43L57.48 730.43C62.96 730.43 67.88 730.43 72.26 730.43C76.64 730.43 82.12 730.43 88.69 730.43C95.26 730.43 100.19 730.43 103.47 730.43C106.76 730.43 109.5 730.43 111.69 730.43C113.88 730.43 116.07 730.43 118.26 730.43C120.45 730.43 123.73 730.43 128.11 730.43C132.49 730.43 142.35 730.43 157.67 730.43" stroke="#2CB3BC" stroke-opacity="1.000000" stroke-width="160.000000"/>
	<path id="Форма 360" d="M137.97 789.56L144.53 789.56C148.92 789.56 152.2 789.56 154.39 789.56C156.58 789.56 159.32 789.56 162.6 789.56C165.89 789.56 168.63 789.56 170.82 789.56C173.01 789.56 175.74 789.56 179.03 789.56C182.31 789.56 185.6 789.56 188.88 789.56C192.17 789.56 195.45 789.56 198.74 789.56C202.02 789.56 205.31 789.56 208.59 789.56C211.88 789.56 215.16 789.56 218.45 789.56C221.73 789.56 225.02 789.56 228.3 789.56" stroke="#2CB3BC" stroke-opacity="1.000000" stroke-width="160.000000"/>
	<path id="Форма 373" d="M121.54 799.41L129.75 799.41C135.23 799.41 138.51 799.41 139.61 799.41C140.7 799.41 143.44 799.41 147.82 799.41C152.2 799.41 156.03 799.41 159.32 799.41C162.6 799.41 164.79 799.41 165.89 799.41C166.98 799.41 169.17 799.41 172.46 799.41C175.74 799.41 179.03 799.41 182.31 799.41C185.6 799.41 188.88 799.41 192.17 799.41C195.45 799.41 202.02 799.41 211.88 799.41C221.73 799.41 227.21 799.41 228.3 799.41" stroke="#26BBBA" stroke-opacity="1.000000" stroke-width="160.000000"/>
	<path id="Форма 374" d="M65.7 848.69L70.62 848.69C73.91 848.69 76.65 848.69 78.84 848.69C81.03 848.69 83.22 848.69 85.41 848.69C87.6 848.69 89.24 848.69 90.33 848.69C91.43 848.69 93.07 848.69 95.26 848.69C97.45 848.69 99.64 848.69 101.83 848.69C104.02 848.69 106.21 848.69 108.4 848.69C110.59 848.69 112.23 848.69 113.33 848.69C114.42 848.69 116.07 848.69 118.26 848.69C120.45 848.69 123.73 848.69 128.11 848.69C132.49 848.69 135.23 848.69 136.32 848.69" stroke="#26BBBA" stroke-opacity="1.000000" stroke-width="160.000000"/>
	<path id="Форма 380" d="M45.99 763.28L55.84 763.28C62.41 763.28 67.34 763.28 70.62 763.28C73.91 763.28 78.83 763.28 85.41 763.28C91.98 763.28 97.45 763.28 101.83 763.28C106.21 763.28 110.59 763.28 114.97 763.28C119.35 763.28 123.73 763.28 128.11 763.28C132.49 763.28 136.87 763.28 141.25 763.28" stroke="#2BD8D7" stroke-opacity="1.000000" stroke-width="160.000000"/>
	<path id="Форма 388" d="M68.98 789.56L77.19 789.56C82.67 789.56 86.5 789.56 88.69 789.56C90.88 789.56 93.07 789.56 95.26 789.56C97.45 789.56 99.09 789.56 100.19 789.56C101.28 789.56 102.38 789.56 103.47 789.56C104.57 789.56 105.66 789.56 106.76 789.56C107.85 789.56 108.95 789.56 110.04 789.56C111.14 789.56 112.23 789.56 113.33 789.56C114.42 789.56 115.52 789.56 116.61 789.56" stroke="#60F9AF" stroke-opacity="1.000000" stroke-width="160.000000"/>
	<path id="Форма 370" d="M390.91 832.26L397.48 832.26C401.86 832.26 405.15 832.26 407.34 832.26C409.53 832.26 412.81 832.26 417.19 832.26C421.57 832.26 425.4 832.26 428.69 832.26C431.97 832.26 434.71 832.26 436.9 832.26" stroke="#2CB3BC" stroke-opacity="1.000000" stroke-width="160.000000"/>
	<path id="Форма 371" d="M512.46 799.41L504.24 799.41C498.77 799.41 494.94 799.41 492.75 799.41C490.56 799.41 487.82 799.41 484.53 799.41C481.25 799.41 479.06 799.41 477.96 799.41C476.87 799.41 475.23 799.41 473.04 799.41C470.85 799.41 469.2 799.41 468.11 799.41C467.01 799.41 465.37 799.41 463.18 799.41C460.99 799.41 459.35 799.41 458.25 799.41C457.16 799.41 450.04 799.41 436.9 799.41" stroke="#2CB3BC" stroke-opacity="1.000000" stroke-width="160.000000"/>
	<path id="Форма 375" d="M367.92 779.7L374.49 779.7C378.87 779.7 381.6 779.7 382.7 779.7C383.79 779.7 385.98 779.7 389.27 779.7C392.55 779.7 394.74 779.7 395.84 779.7C396.93 779.7 398.58 779.7 400.77 779.7C402.96 779.7 405.15 779.7 407.34 779.7C409.53 779.7 411.72 779.7 413.91 779.7C416.1 779.7 417.74 779.7 418.83 779.7C419.93 779.7 423.21 779.7 428.69 779.7C434.16 779.7 437.45 779.7 438.54 779.7C439.64 779.7 440.73 779.7 441.83 779.7" stroke="#26BBBA" stroke-opacity="1.000000" stroke-width="160.000000"/>
	<path id="Форма 381" d="M381.06 815.84L389.27 815.84C394.74 815.84 398.03 815.84 399.12 815.84C400.22 815.84 401.86 815.84 404.05 815.84C406.24 815.84 408.43 815.84 410.62 815.84C412.81 815.84 414.45 815.84 415.55 815.84C416.64 815.84 418.29 815.84 420.48 815.84C422.67 815.84 425.4 815.84 428.69 815.84C431.97 815.84 435.26 815.84 438.54 815.84" stroke="#2BD8D7" stroke-opacity="1.000000" stroke-width="160.000000"/>
	<path id="Форма 389" d="M400.77 802.7L407.34 802.7C411.72 802.7 414.45 802.7 415.55 802.7C416.64 802.7 417.74 802.7 418.83 802.7C419.93 802.7 421.02 802.7 422.12 802.7C423.21 802.7 424.31 802.7 425.4 802.7C426.5 802.7 428.14 802.7 430.33 802.7C432.52 802.7 434.71 802.7 436.9 802.7C439.09 802.7 443.47 802.7 450.04 802.7C456.61 802.7 460.44 802.7 461.54 802.7C462.63 802.7 463.73 802.7 464.82 802.7" stroke="#60F9AF" stroke-opacity="1.000000" stroke-width="160.000000"/>
	<path id="Форма 367" d="M512.46 346.08L519.03 346.08C523.4 346.08 530.52 346.08 540.38 346.08C550.23 346.08 557.35 346.08 561.73 346.08C566.11 346.08 570.49 346.08 574.87 346.08C579.25 346.08 583.08 346.08 586.37 346.08C589.65 346.08 592.94 346.08 596.22 346.08C599.51 346.08 602.79 346.08 606.08 346.08C609.36 346.08 611.55 346.08 612.65 346.08C613.74 346.08 614.84 346.08 615.93 346.08C617.03 346.08 620.31 346.08 625.79 346.08C631.26 346.08 634.55 346.08 635.64 346.08C636.74 346.08 637.83 346.08 638.93 346.08" stroke="#2CB3BC" stroke-opacity="1.000000" stroke-width="160.000000"/>
	<path id="Форма 377" d="M479.61 372.36L502.6 372.36C517.93 372.36 526.69 372.36 528.88 372.36C531.07 372.36 534.36 372.36 538.74 372.36C543.12 372.36 546.4 372.36 548.59 372.36C550.78 372.36 552.97 372.36 555.16 372.36C557.35 372.36 559.54 372.36 561.73 372.36C563.92 372.36 566.11 372.36 568.3 372.36C570.49 372.36 572.13 372.36 573.23 372.36C574.32 372.36 578.15 372.36 584.73 372.36C591.3 372.36 595.13 372.36 596.22 372.36" stroke="#26BBBA" stroke-opacity="1.000000" stroke-width="160.000000"/>
	<path id="Форма 382" d="M620.86 395.36L602.79 395.36C590.75 395.36 583.63 395.36 581.44 395.36C579.25 395.36 575.96 395.36 571.59 395.36C567.21 395.36 564.47 395.36 563.37 395.36C562.28 395.36 561.18 395.36 560.09 395.36C558.99 395.36 557.9 395.36 556.8 395.36" stroke="#2BD8D7" stroke-opacity="1.000000" stroke-width="160.000000"/>
	<path id="Форма 390" d="M499.32 382.22L514.1 382.22C523.95 382.22 529.43 382.22 530.52 382.22C531.62 382.22 533.81 382.22 537.09 382.22C540.38 382.22 542.57 382.22 543.66 382.22C544.76 382.22 545.85 382.22 546.95 382.22C548.04 382.22 549.14 382.22 550.23 382.22C551.33 382.22 552.97 382.22 555.16 382.22C557.35 382.22 558.99 382.22 560.09 382.22C561.18 382.22 563.92 382.22 568.3 382.22C572.68 382.22 575.42 382.22 576.51 382.22C577.61 382.22 579.25 382.22 581.44 382.22C583.63 382.22 585.27 382.22 586.37 382.22" stroke="#60F9AF" stroke-opacity="1.000000" stroke-width="160.000000"/>
	<path id="Форма 368" d="M732.55 80L737.48 80C740.76 80 747.88 80 758.83 80C769.78 80 777.99 80 783.47 80C788.94 80 792.23 80 793.32 80C794.42 80 795.51 80 796.61 80C797.7 80 799.89 80 803.18 80C806.46 80 809.2 80 811.39 80C813.58 80 815.22 80 816.32 80C817.41 80 819.06 80 821.25 80C823.44 80 826.17 80 829.46 80" stroke="#2CB3BC" stroke-opacity="1.000000" stroke-width="160.000000"/>
	<path id="Форма 369" d="M660.28 122.7L675.06 122.7C684.92 122.7 692.58 122.7 698.06 122.7C703.53 122.7 707.91 122.7 711.2 122.7C714.48 122.7 717.22 122.7 719.41 122.7C721.6 122.7 723.79 122.7 725.98 122.7C728.17 122.7 730.36 122.7 732.55 122.7C734.74 122.7 736.38 122.7 737.48 122.7C738.57 122.7 740.22 122.7 742.41 122.7C744.6 122.7 747.88 122.7 752.26 122.7" stroke="#2CB3BC" stroke-opacity="1.000000" stroke-width="160.000000"/>
	<path id="Форма 378" d="M722.7 132.56L742.41 132.56C755.55 132.56 763.76 132.56 767.04 132.56C770.33 132.56 775.8 132.56 783.47 132.56C791.13 132.56 796.06 132.56 798.25 132.56C800.44 132.56 802.63 132.56 804.82 132.56C807.01 132.56 809.2 132.56 811.39 132.56C813.58 132.56 815.22 132.56 816.32 132.56C817.41 132.56 819.06 132.56 821.25 132.56C823.44 132.56 825.63 132.56 827.82 132.56C830.01 132.56 832.2 132.56 834.39 132.56" stroke="#26BBBA" stroke-opacity="1.000000" stroke-width="160.000000"/>
	<path id="Форма 383" d="M676.71 116.13L688.2 116.13C695.87 116.13 700.25 116.13 701.34 116.13C702.44 116.13 704.08 116.13 706.27 116.13" stroke="#2BD8D7" stroke-opacity="1.000000" stroke-width="160.000000"/>
	<path id="Форма 384" d="M791.68 116.13L768.69 116.13C753.36 116.13 744.6 116.13 742.41 116.13C740.22 116.13 738.03 116.13 735.84 116.13C733.65 116.13 731.46 116.13 729.27 116.13C727.08 116.13 725.43 116.13 724.34 116.13C723.24 116.13 722.15 116.13 721.05 116.13C719.96 116.13 718.86 116.13 717.77 116.13C716.67 116.13 715.03 116.13 712.84 116.13" stroke="#2BD8D7" stroke-opacity="1.000000" stroke-width="160.000000"/>
	<path id="Форма 385" d="M693.13 132.56L699.7 132.56C704.08 132.56 706.82 132.56 707.91 132.56C709.01 132.56 711.2 132.56 714.48 132.56C717.77 132.56 720.51 132.56 722.7 132.56C724.89 132.56 726.53 132.56 727.62 132.56C728.72 132.56 729.81 132.56 730.91 132.56C732 132.56 733.1 132.56 734.19 132.56C735.29 132.56 736.38 132.56 737.48 132.56" stroke="#2BD8D7" stroke-opacity="1.000000" stroke-width="160.000000"/>
	<path id="Форма 391" d="M653.71 80L660.28 80C664.66 80 667.95 80 670.14 80C672.33 80 674.52 80 676.71 80C678.9 80 680.54 80 681.63 80C682.73 80 683.82 80 684.92 80C686.01 80 687.11 80 688.2 80C689.3 80 693.13 80 699.7 80C706.27 80 710.1 80 711.2 80C712.29 80 713.39 80 714.48 80C715.58 80 716.67 80 717.77 80C718.86 80 719.96 80 721.05 80C722.15 80 723.24 80 724.34 80" stroke="#60F9AF" stroke-opacity="1.000000" stroke-width="160.000000"/>
	<path id="Форма 392" d="M752.26 148.98L747.33 148.98C744.05 148.98 741.31 148.98 739.12 148.98C736.93 148.98 734.19 148.98 730.91 148.98C727.62 148.98 724.34 148.98 721.05 148.98C717.77 148.98 715.03 148.98 712.84 148.98C710.65 148.98 707.91 148.98 704.63 148.98C701.34 148.98 698.61 148.98 696.42 148.98C694.23 148.98 692.04 148.98 689.85 148.98C687.66 148.98 686.01 148.98 684.92 148.98C683.82 148.98 682.73 148.98 681.63 148.98" stroke="#60F9AF" stroke-opacity="1.000000" stroke-width="160.000000"/>
	<path id="Форма 364" d="M676.71 671.3L683.28 671.3C687.66 671.3 690.94 671.3 693.13 671.3C695.32 671.3 699.15 671.3 704.63 671.3C710.1 671.3 714.48 671.3 717.77 671.3C721.05 671.3 724.34 671.3 727.62 671.3C730.91 671.3 733.65 671.3 735.84 671.3C738.03 671.3 741.31 671.3 745.69 671.3C750.07 671.3 754.45 671.3 758.83 671.3C763.21 671.3 767.04 671.3 770.33 671.3C773.61 671.3 776.9 671.3 780.18 671.3C783.47 671.3 790.59 671.3 801.54 671.3" stroke="#2CB3BC" stroke-opacity="1.000000" stroke-width="160.000000"/>
	<path id="Форма 365" d="M591.3 756.71L597.87 756.71C602.25 756.71 605.53 756.71 607.72 756.71C609.91 756.71 613.74 756.71 619.22 756.71C624.69 756.71 629.62 756.71 634 756.71C638.38 756.71 642.76 756.71 647.14 756.71C651.52 756.71 655.9 756.71 660.28 756.71C664.66 756.71 669.59 756.71 675.06 756.71C680.54 756.71 684.92 756.71 688.2 756.71C691.49 756.71 696.96 756.71 704.63 756.71" stroke="#2CB3BC" stroke-opacity="1.000000" stroke-width="160.000000"/>
	<path id="Форма 376" d="M657 750.14L663.57 750.14C667.95 750.14 670.68 750.14 671.78 750.14C672.87 750.14 674.52 750.14 676.71 750.14C678.9 750.14 681.09 750.14 683.28 750.14C685.47 750.14 687.66 750.14 689.85 750.14C692.04 750.14 694.23 750.14 696.42 750.14C698.61 750.14 700.8 750.14 702.99 750.14C705.18 750.14 707.37 750.14 709.56 750.14C711.75 750.14 714.48 750.14 717.77 750.14C721.05 750.14 723.79 750.14 725.98 750.14C728.17 750.14 733.1 750.14 740.76 750.14C748.43 750.14 752.81 750.14 753.9 750.14C755 750.14 756.09 750.14 757.19 750.14C758.28 750.14 759.38 750.14 760.47 750.14" stroke="#26BBBA" stroke-opacity="1.000000" stroke-width="160.000000"/>
	<path id="Форма 386" d="M666.85 737L675.06 737C680.54 737 684.37 737 686.56 737C688.75 737 692.58 737 698.06 737C703.53 737 706.82 737 707.91 737C709.01 737 710.65 737 712.84 737C715.03 737 717.22 737 719.41 737C721.6 737 723.79 737 725.98 737C728.17 737 733.1 737 740.76 737C748.43 737 752.81 737 753.9 737" stroke="#2BD8D7" stroke-opacity="1.000000" stroke-width="160.000000"/>
	<path id="Форма 393" d="M637.28 740.28L643.86 740.28C648.24 740.28 651.52 740.28 653.71 740.28C655.9 740.28 658.09 740.28 660.28 740.28C662.47 740.28 664.11 740.28 665.21 740.28C666.3 740.28 667.95 740.28 670.14 740.28C672.33 740.28 675.06 740.28 678.35 740.28C681.63 740.28 684.37 740.28 686.56 740.28C688.75 740.28 691.49 740.28 694.77 740.28C698.06 740.28 703.53 740.28 711.2 740.28C718.86 740.28 723.24 740.28 724.34 740.28C725.43 740.28 726.53 740.28 727.62 740.28C728.72 740.28 729.81 740.28 730.91 740.28" stroke="#60F9AF" stroke-opacity="1.000000" stroke-width="160.000000"/>
</svg>
