<svg width="639.111572" height="508.049805" viewBox="0 0 639.112 508.05" fill="none" xmlns="http://www.w3.org/2000/svg" xmlns:xlink="http://www.w3.org/1999/xlink">
	<desc>
			Created with Pixso.
	</desc>
	<defs/>
	<path id="Форма 428 (Граница)" d="M46.88 0L53.46 0L62.51 0L74.85 0L90.47 0L106.1 0L123.38 0L139.83 0L162.03 0L194.94 0L314.2 0L439.23 0L484.47 0L514.9 0L533 0L546.16 0L556.85 0L563.43 0L566.72 0L569.19 0L570.01 0L570.84 0L571.66 0L572.48 0L573.3 0L574.13 0L574.95 0L575.77 0L576.59 0L577.42 0L577.42 80.15L576.59 80.15L575.77 80.15L574.95 80.15L574.13 80.15L573.3 80.15L572.48 80.15L571.66 80.15L570.84 80.15L570.01 80.15L569.19 80.15L566.72 80.15L563.43 80.15L556.85 80.15L546.16 80.15L533 80.15L514.9 80.15L484.47 80.15L439.23 80.15L314.2 80.15L194.94 80.15L162.03 80.15L139.83 80.15L123.38 80.15L106.1 80.15L90.47 80.15L74.85 80.15L62.51 80.15L53.46 80.15L46.88 80.15L46.88 0Z" fill="#1D3560" fill-opacity="1.000000" fill-rule="evenodd"/>
	<path id="Форма 429 (Граница)" d="M639.11 127.88L634.99 127.88L594.69 127.88L541.22 127.88L514.9 127.88L495.99 127.88L472.13 127.88L443.34 127.88L415.38 127.88L338.88 127.88L263.21 127.88L241.82 127.88L225.37 127.88L215.5 127.88L209.74 127.88L206.92 127.88L203.16 127.88L199.87 127.88L196.58 127.88L188.36 127.88L179.31 127.88L173.55 127.88L163.68 127.88L149.7 127.88L136.54 127.88L122.55 127.88L111.04 127.88L96.23 127.88L80.6 127.88L69.91 127.88L57.57 127.88L45.23 127.88L40.3 127.88L35.36 127.88L26.32 127.88L17.27 127.88L10.69 127.88L9.04 127.88L7.4 127.88L4.93 127.88L3.29 127.88L0 127.88L0 47.72L3.29 47.72L4.93 47.72L7.4 47.72L9.04 47.72L10.69 47.72L17.27 47.72L26.32 47.72L35.36 47.72L40.3 47.72L45.23 47.72L57.57 47.72L69.91 47.72L80.6 47.72L96.23 47.72L111.04 47.72L122.55 47.72L136.54 47.72L149.7 47.72L163.68 47.72L173.55 47.72L179.31 47.72L188.36 47.72L196.58 47.72L199.87 47.72L203.16 47.72L206.92 47.72L209.74 47.72L215.5 47.72L225.37 47.72L241.82 47.72L263.21 47.72L338.88 47.72L415.38 47.72L443.34 47.72L472.13 47.72L495.99 47.72L514.9 47.72L541.22 47.72L594.69 47.72L634.99 47.72L639.11 47.72L639.11 127.88Z" fill="#1D3560" fill-opacity="1.000000" fill-rule="evenodd"/>
	<path id="Форма 430 (Граница)" d="M53.46 93.8L63.33 93.8L92.12 93.8L124.2 93.8L145.58 93.8L162.03 93.8L180.13 93.8L190 93.8L199.87 93.8L222.08 93.8L244.29 93.8L315.03 93.8L390.7 93.8L413.73 93.8L425.25 93.8L434.3 93.8L444.99 93.8L453.21 93.8L458.97 93.8L466.37 93.8L474.6 93.8L482.83 93.8L491.05 93.8L498.45 93.8L508.32 93.8L519.02 93.8L528.06 93.8L537.11 93.8L546.16 93.8L555.21 93.8L564.26 93.8L573.3 93.8L582.35 93.8L589.76 93.8L597.98 93.8L606.21 93.8L611.96 93.8L614.43 93.8L616.9 93.8L623.48 93.8L629.24 93.8L633.35 93.8L636.64 93.8L639.11 93.8L639.11 173.96L636.64 173.96L633.35 173.96L629.24 173.96L623.48 173.96L616.9 173.96L614.43 173.96L611.96 173.96L606.21 173.96L597.98 173.96L589.76 173.96L582.35 173.96L573.3 173.96L564.26 173.96L555.21 173.96L546.16 173.96L537.11 173.96L528.06 173.96L519.02 173.96L508.32 173.96L498.45 173.96L491.05 173.96L482.83 173.96L474.6 173.96L466.37 173.96L458.97 173.96L453.21 173.96L444.99 173.96L434.3 173.96L425.25 173.96L413.73 173.96L390.7 173.96L315.03 173.96L244.29 173.96L222.08 173.96L199.87 173.96L190 173.96L180.13 173.96L162.03 173.96L145.58 173.96L124.2 173.96L92.12 173.96L63.33 173.96L53.46 173.96L53.46 93.8Z" fill="#1D3560" fill-opacity="1.000000" fill-rule="evenodd"/>
	<path id="Форма 431 (Граница)" d="M561.79 231.56L555.21 231.56L525.6 231.56L493.52 231.56L476.24 231.56L463.08 231.56L450.75 231.56L435.94 231.56L419.49 231.56L362.73 231.56L298.58 231.56L269.79 231.56L251.69 231.56L245.93 231.56L240.18 231.56L232.77 231.56L227.84 231.56L224.72 231.56L221.26 231.56L215.5 231.56L208.92 231.56L201.52 231.56L195.76 231.56L190 231.56L185.07 231.56L179.31 231.56L171.08 231.56L168.34 231.56L162.86 231.56L156.28 231.56L148.87 231.56L142.29 231.56L138.18 231.56L132.42 231.56L127.49 231.56L123.38 231.56L119.26 231.56L115.15 231.56L111.86 231.56L110.22 231.56L108.57 231.56L108.57 151.4L110.22 151.4L111.86 151.4L115.15 151.4L119.26 151.4L123.38 151.4L127.49 151.4L132.42 151.4L138.18 151.4L142.29 151.4L148.87 151.4L156.28 151.4L162.86 151.4L168.34 151.4L171.08 151.4L179.31 151.4L185.07 151.4L190 151.4L195.76 151.4L201.52 151.4L208.92 151.4L215.5 151.4L221.26 151.4L224.72 151.4L227.84 151.4L232.77 151.4L240.18 151.4L245.93 151.4L251.69 151.4L269.79 151.4L298.58 151.4L362.73 151.4L419.49 151.4L435.94 151.4L450.75 151.4L463.08 151.4L476.24 151.4L493.52 151.4L525.6 151.4L555.21 151.4L561.79 151.4L561.79 231.56Z" fill="#1D3560" fill-opacity="1.000000" fill-rule="evenodd"/>
	<path id="Форма 432 (Граница)" d="M5.75 176.09L10.69 176.09L32.07 176.09L61.69 176.09L82.25 176.09L99.52 176.09L122.55 176.09L146.41 176.09L168.62 176.09L193.29 176.09L260.74 176.09L333.95 176.09L359.44 176.09L370.96 176.09L379.19 176.09L386.59 176.09L394.81 176.09L402.22 176.09L410.44 176.09L418.67 176.09L432.65 176.09L453.21 176.09L467.2 176.09L472.95 176.09L475.42 176.09L477.89 176.09L481.18 176.09L484.47 176.09L486.94 176.09L489.41 176.09L491.87 176.09L492.7 176.09L493.52 176.09L494.34 176.09L495.16 176.09L495.99 176.09L496.81 176.09L498.45 176.09L500.92 176.09L508.32 176.09L515.73 176.09L517.92 176.09L519.02 176.09L521.48 176.09L523.95 176.09L527.24 176.09L529.71 176.09L532.18 176.09L535.47 176.09L539.58 176.09L542.87 176.09L545.34 176.09L547.81 176.09L550.27 176.09L551.92 176.09L553.56 176.09L556.85 176.09L560.14 176.09L564.26 176.09L567.55 176.09L568.37 176.09L569.19 176.09L571.66 176.09L574.13 176.09L574.95 176.09L575.77 176.09L578.24 176.09L581.53 176.09L583.17 176.09L584.82 176.09L588.11 176.09L590.58 176.09L592.22 176.09L593.04 176.09L593.87 176.09L593.87 256.25L593.04 256.25L592.22 256.25L590.58 256.25L588.11 256.25L584.82 256.25L583.17 256.25L581.53 256.25L578.24 256.25L575.77 256.25L574.95 256.25L574.13 256.25L571.66 256.25L569.19 256.25L568.37 256.25L567.55 256.25L564.26 256.25L560.14 256.25L556.85 256.25L553.56 256.25L551.92 256.25L550.27 256.25L547.81 256.25L545.34 256.25L542.87 256.25L539.58 256.25L535.47 256.25L532.18 256.25L529.71 256.25L527.24 256.25L523.95 256.25L521.48 256.25L519.02 256.25L517.92 256.25L515.73 256.25L508.32 256.25L500.92 256.25L498.45 256.25L496.81 256.25L495.99 256.25L495.16 256.25L494.34 256.25L493.52 256.25L492.7 256.25L491.87 256.25L489.41 256.25L486.94 256.25L484.47 256.25L481.18 256.25L477.89 256.25L475.42 256.25L472.95 256.25L467.2 256.25L453.21 256.25L432.65 256.25L418.67 256.25L410.44 256.25L402.22 256.25L394.81 256.25L386.59 256.25L379.19 256.25L370.96 256.25L359.44 256.25L333.95 256.25L260.74 256.25L193.29 256.25L168.62 256.25L146.41 256.25L122.55 256.25L99.52 256.25L82.25 256.25L61.69 256.25L32.07 256.25L10.69 256.25L5.75 256.25L5.75 176.09Z" fill="#1D3560" fill-opacity="1.000000" fill-rule="evenodd"/>
	<path id="Форма 433 (Граница)" d="M619.37 333.6L606.21 333.6L590.58 333.6L579.06 333.6L566.72 333.6L553.56 333.6L533 333.6L522.31 333.6L511.61 333.6L421.13 333.6L322.43 333.6L290.35 333.6L270.61 333.6L256.63 333.6L244.29 333.6L229.48 333.6L215.5 333.6L207.28 333.6L197.4 333.6L180.13 333.6L155.46 333.6L139.83 333.6L133.25 333.6L125.84 333.6L120.09 333.6L117.78 333.6L115.15 333.6L111.86 333.6L110.22 333.6L103.64 333.6L97.88 333.6L93.76 333.6L88.01 333.6L82.25 333.6L77.31 333.6L73.2 333.6L69.91 333.6L66.62 333.6L64.98 333.6L63.33 333.6L60.04 333.6L55.93 333.6L51.82 333.6L47.7 333.6L43.59 333.6L41.93 333.6L40.3 333.6L37.01 333.6L33.72 333.6L28.78 333.6L28.78 253.44L33.72 253.44L37.01 253.44L40.3 253.44L41.93 253.44L43.59 253.44L47.7 253.44L51.82 253.44L55.93 253.44L60.04 253.44L63.33 253.44L64.98 253.44L66.62 253.44L69.91 253.44L73.2 253.44L77.31 253.44L82.25 253.44L88.01 253.44L93.76 253.44L97.88 253.44L103.64 253.44L110.22 253.44L111.86 253.44L115.15 253.44L117.78 253.44L120.09 253.44L125.84 253.44L133.25 253.44L139.83 253.44L155.46 253.44L180.13 253.44L197.4 253.44L207.28 253.44L215.5 253.44L229.48 253.44L244.29 253.44L256.63 253.44L270.61 253.44L290.35 253.44L322.43 253.44L421.13 253.44L511.61 253.44L522.31 253.44L533 253.44L553.56 253.44L566.72 253.44L579.06 253.44L590.58 253.44L606.21 253.44L619.37 253.44L619.37 333.6Z" fill="#1D3560" fill-opacity="1.000000" fill-rule="evenodd"/>
	<path id="Форма 434 (Граница)" d="M18.91 307.75L39.48 307.75L64.15 307.75L79.78 307.75L95.41 307.75L105.28 307.75L118.44 307.75L134.89 307.75L143.94 307.75L152.99 307.75L170.26 307.75L225.37 307.75L283.77 307.75L305.16 307.75L321.61 307.75L333.95 307.75L344.64 307.75L349.57 307.75L354.51 307.75L366.02 307.75L377.54 307.75L389.88 307.75L407.15 307.75L437.59 307.75L463.91 307.75L476.24 307.75L486.94 307.75L491.05 307.75L495.16 307.75L503.39 307.75L510.79 307.75L516.55 307.75L519.51 307.75L521.48 307.75L523.95 307.75L526.42 307.75L529.71 307.75L532.18 307.75L534.64 307.75L537.11 307.75L540.4 307.75L542.05 307.75L543.69 307.75L553.56 307.75L553.56 387.91L543.69 387.91L542.05 387.91L540.4 387.91L537.11 387.91L534.64 387.91L532.18 387.91L529.71 387.91L526.42 387.91L523.95 387.91L521.48 387.91L519.51 387.91L516.55 387.91L510.79 387.91L503.39 387.91L495.16 387.91L491.05 387.91L486.94 387.91L476.24 387.91L463.91 387.91L437.59 387.91L407.15 387.91L389.88 387.91L377.54 387.91L366.02 387.91L354.51 387.91L349.57 387.91L344.64 387.91L333.95 387.91L321.61 387.91L305.16 387.91L283.77 387.91L225.37 387.91L170.26 387.91L152.99 387.91L143.94 387.91L134.89 387.91L118.44 387.91L105.28 387.91L95.41 387.91L79.78 387.91L64.15 387.91L39.48 387.91L18.91 387.91L18.91 307.75Z" fill="#1D3560" fill-opacity="1.000000" fill-rule="evenodd"/>
	<path id="Форма 435 (Граница)" d="M637.46 460.32L625.12 460.32L608.67 460.32L598.8 460.32L587.29 460.32L576.59 460.32L564.26 460.32L547.81 460.32L483.65 460.32L416.2 460.32L393.99 460.32L379.19 460.32L374.25 460.32L369.31 460.32L358.62 460.32L345.46 460.32L333.12 460.32L322.43 460.32L311.74 460.32L301.04 460.32L275.54 460.32L249.22 460.32L240.18 460.32L234.42 460.32L231.49 460.32L227.84 460.32L222.08 460.32L213.86 460.32L203.98 460.32L194.94 460.32L189.01 460.32L185.07 460.32L176.84 460.32L169.44 460.32L162.03 460.32L157.1 460.32L152.99 460.32L148.87 460.32L148.28 460.32L145.58 460.32L141.47 460.32L135.71 460.32L129.96 460.32L125.84 460.32L120.91 460.32L118.72 460.32L114.33 460.32L109.39 460.32L106.1 460.32L102.81 460.32L100.35 460.32L99.52 460.32L98.7 460.32L97.05 460.32L94.59 460.32L92.12 460.32L89.65 460.32L87.18 460.32L85.63 460.32L85.54 460.32L83.07 460.32L80.6 460.32L78.14 460.32L75.67 460.32L73.2 460.32L68.27 460.32L62.51 460.32L60.04 460.32L57.57 460.32L53.46 460.32L51.84 460.32L50.17 460.32L47.7 460.32L45.23 460.32L42.77 460.32L41.12 460.32L39.48 460.32L37.83 460.32L36.19 460.32L35.36 460.32L34.54 460.32L32.9 460.32L31.25 460.32L30.43 460.32L29.61 460.32L27.14 460.32L27.14 380.16L29.61 380.16L30.43 380.16L31.25 380.16L32.9 380.16L34.54 380.16L35.36 380.16L36.19 380.16L37.83 380.16L39.48 380.16L41.12 380.16L42.77 380.16L45.23 380.16L47.7 380.16L50.17 380.16L51.84 380.16L53.46 380.16L57.57 380.16L60.04 380.16L62.51 380.16L68.27 380.16L73.2 380.16L75.67 380.16L78.14 380.16L80.6 380.16L83.07 380.16L85.54 380.16L85.63 380.16L87.18 380.16L89.65 380.16L92.12 380.16L94.59 380.16L97.05 380.16L98.7 380.16L99.52 380.16L100.35 380.16L102.81 380.16L106.1 380.16L109.39 380.16L114.33 380.16L118.72 380.16L120.91 380.16L125.84 380.16L129.96 380.16L135.71 380.16L141.47 380.16L145.58 380.16L148.28 380.16L148.87 380.16L152.99 380.16L157.1 380.16L162.03 380.16L169.44 380.16L176.84 380.16L185.07 380.16L189.01 380.16L194.94 380.16L203.98 380.16L213.86 380.16L222.08 380.16L227.84 380.16L231.49 380.16L234.42 380.16L240.18 380.16L249.22 380.16L275.54 380.16L301.04 380.16L311.74 380.16L322.43 380.16L333.12 380.16L345.46 380.16L358.62 380.16L369.31 380.16L374.25 380.16L379.19 380.16L393.99 380.16L416.2 380.16L483.65 380.16L547.81 380.16L564.26 380.16L576.59 380.16L587.29 380.16L598.8 380.16L608.67 380.16L625.12 380.16L637.46 380.16L637.46 460.32Z" fill="#1D3560" fill-opacity="1.000000" fill-rule="evenodd"/>
	<path id="Форма 436 (Граница)" d="M58.4 427.89L71.56 427.89L88.01 427.89L99.52 427.89L116.8 427.89L133.25 427.89L148.05 427.89L162.03 427.89L175.2 427.89L229.48 427.89L296.11 427.89L324.9 427.89L342.17 427.89L360.27 427.89L375.9 427.89L386.59 427.89L399.75 427.89L409.62 427.89L417.84 427.89L426.89 427.89L435.12 427.89L443.34 427.89L449.1 427.89L456.5 427.89L465.55 427.89L469.66 427.89L473.78 427.89L482 427.89L489.41 427.89L492.33 427.89L495.99 427.89L501.74 427.89L504.21 427.89L506.68 427.89L510.79 427.89L514.9 427.89L516.88 427.89L519.84 427.89L523.95 427.89L527.24 427.89L530.53 427.89L533.82 427.89L536.29 427.89L542.05 427.89L547.81 427.89L549.45 427.89L556.03 427.89L562.61 427.89L566.72 427.89L570.84 427.89L571.66 427.89L572.48 427.89L573.3 427.89L574.13 427.89L578.24 427.89L582.35 427.89L583.17 427.89L584 427.89L586.46 427.89L588.93 427.89L591.4 427.89L593.87 427.89L595.51 427.89L597.16 427.89L597.16 508.05L595.51 508.05L593.87 508.05L591.4 508.05L588.93 508.05L586.46 508.05L584 508.05L583.17 508.05L582.35 508.05L578.24 508.05L574.13 508.05L573.3 508.05L572.48 508.05L571.66 508.05L570.84 508.05L566.72 508.05L562.61 508.05L556.03 508.05L549.45 508.05L547.81 508.05L542.05 508.05L536.29 508.05L533.82 508.05L530.53 508.05L527.24 508.05L523.95 508.05L519.84 508.05L516.88 508.05L514.9 508.05L510.79 508.05L506.68 508.05L504.21 508.05L501.74 508.05L495.99 508.05L492.33 508.05L489.41 508.05L482 508.05L473.78 508.05L469.66 508.05L465.55 508.05L456.5 508.05L449.1 508.05L443.34 508.05L435.12 508.05L426.89 508.05L417.84 508.05L409.62 508.05L399.75 508.05L386.59 508.05L375.9 508.05L360.27 508.05L342.17 508.05L324.9 508.05L296.11 508.05L229.48 508.05L175.2 508.05L162.03 508.05L148.05 508.05L133.25 508.05L116.8 508.05L99.52 508.05L88.01 508.05L71.56 508.05L58.4 508.05L58.4 427.89Z" fill="#1D3560" fill-opacity="1.000000" fill-rule="evenodd"/>
	<path id="Форма 453 (Граница)" d="M527.24 150.92L523.13 150.92L505.03 150.92L482.82 150.92L471.31 150.92L463.08 150.92L453.21 150.92L448.28 150.92L443.34 150.92L434.3 150.92L426.07 150.92L407.97 150.92L393.17 150.92L393.17 70.76L407.97 70.76L426.07 70.76L434.3 70.76L443.34 70.76L448.28 70.76L453.21 70.76L463.08 70.76L471.31 70.76L482.82 70.76L505.03 70.76L523.13 70.76L527.24 70.76L527.24 150.92Z" fill="#324871" fill-opacity="1.000000" fill-rule="evenodd"/>
	<path id="Форма 454 (Граница)" d="M515.73 180.54L502.57 180.54L484.47 180.54L472.13 180.54L461.44 180.54L458.15 180.54L454.86 180.54L447.46 180.54L443.34 180.54L439.23 180.54L431.83 180.54L412.09 180.54L393.99 180.54L391.52 180.54L390.7 180.54L389.88 180.54L387.41 180.54L384.12 180.54L381.65 180.54L379.19 180.54L379.19 100.39L381.65 100.39L384.12 100.39L387.41 100.39L389.88 100.39L390.7 100.39L391.52 100.39L393.99 100.39L412.09 100.39L431.83 100.39L439.23 100.39L443.34 100.39L447.46 100.39L454.86 100.39L458.15 100.39L461.44 100.39L472.13 100.39L484.47 100.39L502.57 100.39L515.73 100.39L515.73 180.54Z" fill="#324871" fill-opacity="1.000000" fill-rule="evenodd"/>
	<path id="Форма 455 (Граница)" d="M71.56 301.17L81.43 301.17L94.59 301.17L105.28 301.17L115.97 301.17L119.26 301.17L122.55 301.17L128.31 301.17L130.78 301.17L133.25 301.17L138.18 301.17L140.65 301.17L143.12 301.17L143.12 381.32L140.65 381.32L138.18 381.32L133.25 381.32L130.78 381.32L128.31 381.32L122.55 381.32L119.26 381.32L115.97 381.32L105.28 381.32L94.59 381.32L81.43 381.32L71.56 381.32L71.56 301.17Z" fill="#324871" fill-opacity="1.000000" fill-rule="evenodd"/>
	<path id="Форма 456 (Граница)" d="M170.26 442.22L155.46 442.22L139 442.22L134.89 442.22L132.42 442.22L129.96 442.22L126.67 442.22L122.55 442.22L116.8 442.22L112.68 442.22L106.93 442.22L106.93 362.06L112.68 362.06L116.8 362.06L122.55 362.06L126.67 362.06L129.96 362.06L132.42 362.06L134.89 362.06L139 362.06L155.46 362.06L170.26 362.06L170.26 442.22Z" fill="#324871" fill-opacity="1.000000" fill-rule="evenodd"/>
	<path id="Форма 457 (Граница)" d="M342.99 489.94L338.88 489.94L333.12 489.94L324.9 489.94L315.03 489.94L307.62 489.94L299.4 489.94L289.53 489.94L266.5 489.94L248.4 489.94L246.76 489.94L245.11 489.94L244.29 489.94L243.47 489.94L243.47 409.78L244.29 409.78L245.11 409.78L246.76 409.78L248.4 409.78L266.5 409.78L289.53 409.78L299.4 409.78L307.62 409.78L315.03 409.78L324.9 409.78L333.12 409.78L338.88 409.78L342.99 409.78L342.99 489.94Z" fill="#324871" fill-opacity="1.000000" fill-rule="evenodd"/>
	<path id="Форма 458 (Граница)" d="M319.96 442.22L316.67 442.22L312.56 442.22L308.45 442.22L303.51 442.22L299.4 442.22L296.93 442.22L294.46 442.22L290.35 442.22L287.88 442.22L282.95 442.22L282.95 362.06L287.88 362.06L290.35 362.06L294.46 362.06L296.93 362.06L299.4 362.06L303.51 362.06L308.45 362.06L312.56 362.06L316.67 362.06L319.96 362.06L319.96 442.22Z" fill="#324871" fill-opacity="1.000000" fill-rule="evenodd"/>
	<path id="Форма 459 (Граница)" d="M265.67 245.21L277.19 245.21L290.35 245.21L295.29 245.21L299.4 245.21L300.22 245.21L301.04 245.21L301.87 245.21L302.69 245.21L303.51 245.21L304.33 245.21L314.2 245.21L326.54 245.21L326.54 325.37L314.2 325.37L304.33 325.37L303.51 325.37L302.69 325.37L301.87 325.37L301.04 325.37L300.22 325.37L299.4 325.37L295.29 325.37L290.35 325.37L277.19 325.37L265.67 325.37L265.67 245.21Z" fill="#324871" fill-opacity="1.000000" fill-rule="evenodd"/>
	<path id="Форма 460 (Граница)" d="M397.28 294.1L393.99 294.1L376.72 294.1L359.44 294.1L354.51 294.1L352.04 294.1L351.22 294.1L350.4 294.1L347.11 294.1L342.99 294.1L338.06 294.1L333.95 294.1L333.95 213.94L338.06 213.94L342.99 213.94L347.11 213.94L350.4 213.94L351.22 213.94L352.04 213.94L354.51 213.94L359.44 213.94L376.72 213.94L393.99 213.94L397.28 213.94L397.28 294.1Z" fill="#324871" fill-opacity="1.000000" fill-rule="evenodd"/>
	<path id="Форма 461 (Граница)" d="M315.03 199.13L319.14 199.13L324.07 199.13L326.54 199.13L329.01 199.13L331.48 199.13L332.57 199.13L334.77 199.13L336.4 199.13L338.06 199.13L341.35 199.13L344.64 199.13L350.4 199.13L350.4 279.29L344.64 279.29L341.35 279.29L338.06 279.29L336.4 279.29L334.77 279.29L332.57 279.29L331.48 279.29L329.01 279.29L326.54 279.29L324.07 279.29L319.14 279.29L315.03 279.29L315.03 199.13Z" fill="#324871" fill-opacity="1.000000" fill-rule="evenodd"/>
</svg>
